<svg xmlns="http://www.w3.org/2000/svg" fill="none" viewBox="0 0 120 120" height="120" width="120">
<path fill="black" d="M62.5723 79.8744C62.4712 80.1256 62.4067 80.3942 62.3806 80.6725C62.325 81.2227 62.3976 81.719 62.6032 82.1926L62.7555 82.603C62.7954 82.7226 62.868 82.8725 63.1082 82.9883C63.6421 83.2593 64.1874 83.3611 64.7831 83.3051C64.8771 83.2945 64.9748 83.2714 65.0641 83.2376C65.5477 83.0862 65.8937 82.8021 66.1505 82.3589C66.2402 82.221 66.3047 82.0961 66.3564 81.9659C66.3626 81.95 66.3697 81.9341 66.3778 81.9186C66.5952 81.5049 66.7119 81.0655 66.7252 80.6117C66.7385 80.1001 66.5942 79.6588 66.2834 79.2643C66.1984 79.1539 66.1035 79.0613 65.9972 78.9836C65.8505 79.1611 65.5942 79.2108 65.3911 79.0878C64.916 78.8009 64.43 78.7314 63.9055 78.8742C63.794 78.9065 63.6582 78.9412 63.5054 78.9759C63.2871 79.0116 63.1157 79.1182 62.952 79.3063C62.8656 79.3955 62.7996 79.4726 62.7413 79.5522C62.6853 79.6655 62.6288 79.7731 62.5723 79.8744ZM64.4801 84.2845C63.8512 84.2845 63.2532 84.1408 62.6922 83.8558C62.2802 83.6571 61.9978 83.3427 61.8606 82.9255L61.7244 82.5561C61.4648 81.96 61.3642 81.2858 61.4354 80.5779C61.4715 80.1964 61.5631 79.8246 61.7073 79.4754C61.7149 79.4576 61.7235 79.4402 61.733 79.4229C61.7918 79.3182 61.8512 79.2049 61.91 79.0848C61.9214 79.0622 61.9342 79.0409 61.9489 79.0202C62.0424 78.8871 62.1473 78.7612 62.2603 78.6465C62.5517 78.3098 62.9181 78.0947 63.3291 78.0287C63.4321 78.0046 63.5498 77.9747 63.6528 77.9448C64.0634 77.8324 64.4639 77.8097 64.8541 77.8734C64.9737 77.7152 65.1825 77.6448 65.3795 77.7099C65.4511 77.734 65.5228 77.7523 65.595 77.7649C65.8413 77.8305 66.0382 77.9067 66.2248 78.0012C66.5399 78.1608 66.81 78.3846 67.0269 78.6653C67.4744 79.2334 67.6932 79.8989 67.6743 80.6396C67.6562 81.2357 67.5062 81.811 67.2272 82.3507C67.1526 82.5334 67.0611 82.7085 66.9538 82.872C66.5907 83.5004 66.0525 83.9382 65.369 84.1504C65.2342 84.2025 65.061 84.2445 64.8802 84.2652C64.7454 84.2777 64.612 84.2845 64.4801 84.2845ZM39.5422 21.4127C40.06 21.4305 40.3884 21.2453 40.6423 20.8185L40.7183 20.6604C40.7273 20.6425 40.7373 20.6252 40.7482 20.6078C40.9508 20.2992 40.9053 20.1024 40.8336 19.9505C40.789 19.8589 40.7026 19.7581 40.5816 19.6568C40.5004 19.5917 40.4074 19.5068 40.3063 19.4051C40.0866 19.2334 39.8592 19.1302 39.6124 19.0906C39.4373 19.3211 39.2659 19.5449 39.097 19.7643C39.1031 19.8068 39.1041 19.8507 39.0989 19.8945C39.0267 20.5191 39.1715 21.0172 39.5422 21.4127ZM42.4991 30.7295C42.5015 30.7304 42.5048 30.7314 42.5076 30.7323C42.6402 30.7706 42.7783 30.782 42.9197 30.7937C42.9853 30.7991 43.0517 30.8046 43.1185 30.8129C43.1446 30.8153 43.183 30.8018 43.2295 30.7704C43.3795 30.6687 43.5371 30.6031 43.6985 30.5751C43.9443 30.5452 44.0179 30.4864 44.035 30.469C44.044 30.4599 44.0691 30.4319 44.1057 30.3692C44.2566 30.1218 44.3055 29.7804 44.2552 29.3473C44.2438 29.2537 44.2267 29.1525 44.2049 29.0459C43.6799 29.0985 43.156 29.1703 42.6481 29.2595C42.5119 29.2875 42.3567 29.3251 42.1934 29.3705C42.0705 29.41 41.9462 29.45 41.8204 29.491C41.7886 29.6704 41.8133 29.7312 41.8137 29.7317C42.0155 29.9082 42.1635 30.1281 42.2537 30.3798C42.3154 30.5312 42.3999 30.6537 42.4991 30.7295ZM34.3067 34.0554L34.3102 34.0565C34.3257 34.0609 34.3415 34.0655 34.356 34.0714C34.6152 33.8384 34.8781 33.6079 35.1425 33.3822C35.3152 33.253 35.45 33.13 35.5692 32.9954C36.1121 32.4269 36.6655 31.8973 37.227 31.4079C37.4401 31.2265 37.639 31.0206 37.8222 30.792C37.6247 30.6218 37.5977 30.3223 37.7624 30.1183C38.5146 29.1861 39.0861 28.1637 39.4615 27.0811C39.4682 27.0618 39.4757 27.0434 39.4843 27.0256C39.5379 26.9166 39.5849 26.8009 39.6248 26.6784C39.8379 26.1821 40.1189 25.7674 40.4753 25.4052C40.5555 25.3237 40.6357 25.2282 40.7159 25.1192C40.8797 24.8926 41.0406 24.651 41.1915 24.4055C41.2636 24.2888 41.3348 24.1571 41.407 24.011C41.6974 23.4506 41.8712 22.8613 41.9281 22.2522C41.9675 21.8167 42.108 21.4213 42.3453 21.0794C42.3861 21.0268 42.4051 20.9863 42.4189 20.9366C42.5556 20.4361 42.5769 19.9263 42.481 19.4238C42.4198 19.0838 42.3439 18.7602 42.2546 18.4574C42.239 18.3884 42.2266 18.359 42.2072 18.3262C42.0767 18.1087 41.8835 17.9269 41.6196 17.7735C41.4184 17.6587 41.1991 17.5801 40.9703 17.5411C40.8403 17.5227 40.7287 17.5469 40.6096 17.7238C40.4724 17.9095 40.3452 18.087 40.2233 18.2625C40.4658 18.3551 40.6974 18.4892 40.9153 18.6642C40.9295 18.6758 40.9437 18.6884 40.9566 18.7019C41.0372 18.7838 41.1108 18.8523 41.1782 18.9068C41.4084 19.0983 41.5778 19.3056 41.6865 19.5265C41.8598 19.8945 41.9727 20.4602 41.5555 21.1165L41.4729 21.2834C40.9969 22.0854 40.284 22.449 39.3927 22.3684H39.387C39.1905 22.3684 39.0405 22.2667 38.9565 22.1809C38.5279 21.7714 38.2645 21.2732 38.1701 20.6965C37.9024 20.9468 37.6318 21.1971 37.3561 21.4502C37.1648 21.6147 37.0049 21.784 36.8682 21.9648C36.4192 22.5228 35.9398 23.0354 35.4339 23.4998C35.03 23.8673 34.7201 24.3187 34.5112 24.8424L34.3275 25.3565C34.235 25.5986 34.1899 25.8479 34.1899 26.1079C34.206 26.3041 34.206 26.5332 34.1885 26.7502C34.1576 27.0912 34.1424 27.4254 34.1424 27.7475C34.1424 27.978 34.15 28.2081 34.1652 28.4386C34.1956 28.6301 34.2136 28.8572 34.2136 29.0737C34.2454 29.7219 34.2454 30.3951 34.2132 31.051C34.2136 31.2786 34.2056 31.5303 34.189 31.7821C34.1591 32.4331 34.1823 33.0962 34.2578 33.7429C34.2687 33.851 34.2853 33.9551 34.3067 34.0554ZM81.5675 32.7316C81.1427 32.8122 80.8987 33.0292 80.7772 33.4343C80.7497 33.5187 80.7317 33.591 80.7198 33.6629C80.6548 33.9484 80.6102 34.2059 80.5807 34.4586C80.4863 35.4053 80.7844 36.1783 81.492 36.8144C81.5399 36.854 81.5903 36.8655 81.6714 36.8487C81.6885 36.8448 81.7061 36.8424 81.7236 36.8405C81.8233 36.8303 81.9116 36.8057 81.9856 36.7681C82.3373 36.6263 82.6154 36.4421 82.8561 36.1976C82.8627 36.1532 82.8755 36.1103 82.8935 36.0703C82.8171 35.8161 82.7289 35.5557 82.6325 35.2977C82.4313 34.7947 82.2262 34.2903 82.0212 33.7936C81.885 33.4338 81.7336 33.0803 81.5675 32.7316ZM43.2513 38.8022C43.2589 38.8075 43.267 38.8123 43.2765 38.8172C43.6329 38.9551 44.0553 38.9667 44.5281 38.8326C44.5513 38.8268 44.5907 38.8123 44.6543 38.7386C44.7791 38.5818 44.8451 38.4053 44.8451 38.2124C44.8598 37.572 44.773 36.9802 44.5874 36.443C44.5798 36.4223 44.5741 36.4011 44.5698 36.3789L44.5532 36.3552L44.5366 36.3316C44.4692 36.24 44.3449 36.1151 44.0444 36.0886C44.0136 36.0861 43.9837 36.0804 43.9552 36.0717C43.947 36.0823 43.9387 36.0925 43.9305 36.1027L43.9182 36.118C43.8399 36.2318 43.7459 36.3379 43.6386 36.4329C43.529 36.5588 43.3994 36.6653 43.2532 36.7502C43.1066 36.8467 42.9528 36.9639 42.8071 37.0921C42.837 37.1568 42.8536 37.2301 42.8517 37.3063C42.8384 37.9211 42.9694 38.4111 43.2513 38.8022ZM34.2213 35.5109L33.5768 36.1663C33.264 36.5232 33.077 36.9476 33.0244 37.4448C33.0106 37.5716 33.0035 37.6907 33.0035 37.8026C33.0035 37.996 32.9949 38.1807 32.9778 38.3567C32.9641 38.7396 32.956 39.1515 32.956 39.5628C32.9418 40.1425 33.0481 40.6894 33.2712 41.1996C33.3547 41.3829 33.4482 41.5584 33.5464 41.7151C33.7491 42.0411 33.9285 42.3884 34.0804 42.7486C34.2104 43.0563 34.3538 43.3509 34.5094 43.6292C34.6722 43.3408 34.864 43.063 35.0847 42.7968C35.2498 42.5986 35.4098 42.3898 35.5602 42.1762C35.7159 41.9645 35.8773 41.7663 36.0458 41.5772C36.5119 41.1031 37.0116 40.699 37.5461 40.3595C37.7193 40.2563 37.8688 40.1464 38.0017 40.0243C38.1208 39.9293 38.2376 39.8377 38.3529 39.748C38.3497 39.6441 38.3632 39.5509 38.3714 39.495L38.3719 39.4915C38.4037 39.2768 38.5698 39.1163 38.771 39.0859C38.9405 38.769 39.0753 38.4585 39.1745 38.1566C39.3074 37.7799 39.3952 37.4028 39.4374 37.0242C39.4906 36.6457 39.577 36.2767 39.6961 35.9141C39.7032 35.8919 39.7122 35.8707 39.7222 35.8499C39.7659 35.7617 39.82 35.673 39.885 35.5847C39.9486 35.4829 39.9785 35.3551 39.9604 35.21C39.9158 34.869 40.0383 34.6626 40.1489 34.5498C40.2519 34.4456 40.4332 34.3337 40.7293 34.3511C40.978 34.2132 41.2329 34.1307 41.5077 34.0936C42.2372 34.0193 42.9107 33.7835 43.5253 33.3914C43.8305 33.1787 44.1713 32.9796 44.523 32.8098C44.9093 32.5923 45.2923 32.2832 45.6355 31.9056L45.8623 31.6746C45.9079 31.6099 45.9331 31.5482 45.9392 31.4855C46.0403 30.576 45.9183 29.7373 45.5771 28.9865L45.569 28.9691C45.4357 28.9624 45.2928 28.9638 45.1585 28.9749C45.1746 29.0641 45.1874 29.1485 45.1979 29.23C45.2738 29.8893 45.1794 30.4395 44.9164 30.8706C44.8523 30.9801 44.7821 31.0737 44.7062 31.1508C44.503 31.3577 44.2092 31.485 43.8329 31.5299C43.8281 31.5313 43.7935 31.5473 43.756 31.5723C43.5277 31.7276 43.2875 31.7937 43.0417 31.7744C42.7844 31.772 42.531 31.7377 42.2885 31.6712C42.1907 31.6562 42.0939 31.6157 41.9951 31.5487C41.7265 31.3664 41.5158 31.0906 41.3686 30.7284C41.3255 30.6078 41.2671 30.522 41.184 30.4467C41.0502 30.3387 40.9002 30.1395 40.8641 29.8063L40.7705 29.8377L40.7704 29.8378C40.6447 29.8799 40.5184 29.9222 40.3919 29.9655C39.9481 30.1106 39.5314 30.33 39.1479 30.6184C39.0928 30.6681 39.0231 30.7448 38.9666 30.8248C38.6557 31.3249 38.2722 31.7758 37.8413 32.1438C37.3054 32.6106 36.7734 33.1194 36.2632 33.6533C36.1122 33.8249 35.9271 33.9937 35.7268 34.1413C35.3804 34.4384 35.0168 34.761 34.6608 35.0889C34.6381 35.278 34.5066 35.4376 34.3234 35.4926C34.2897 35.5022 34.2555 35.5085 34.2213 35.5109ZM42.5131 51.1858C42.534 51.2423 42.5449 51.304 42.543 51.3686C42.5288 51.8784 42.5867 52.3736 42.7153 52.839C42.7159 52.839 42.718 52.8413 42.7214 52.8451C42.7301 52.8546 42.7475 52.8736 42.7718 52.8911L42.772 52.8912C42.7958 52.9091 42.8443 52.9456 42.9702 52.9456C43.3262 52.9456 43.6736 52.9538 44.0129 52.9702L44.0194 52.9707L44.0258 52.9711C44.2403 52.8694 44.2925 52.7594 44.3167 52.6722C44.3343 52.6056 44.3276 52.5444 44.2944 52.4696C44.246 52.3558 44.1947 52.2439 44.1359 52.1243C43.9512 51.7496 43.7367 51.4058 43.498 51.1024C43.4643 51.0716 43.4244 51.047 43.3755 51.0253C43.31 50.992 43.2493 50.9577 43.1919 50.9211C42.964 50.9968 42.7367 51.0855 42.5131 51.1858ZM39.8887 39.7122C39.7629 39.8549 39.6267 39.9827 39.4824 40.0931C39.1815 40.3184 38.892 40.5402 38.611 40.763C38.4553 40.9067 38.2536 41.0562 38.0362 41.185C37.5754 41.4777 37.1321 41.8365 36.7325 42.2426C36.5996 42.3916 36.4577 42.5666 36.3262 42.7455C36.1667 42.9722 35.9906 43.2018 35.8098 43.4188C35.0466 44.3404 34.7101 45.3811 34.7823 46.5988L34.8292 47.217C34.8468 47.8801 34.8383 48.5172 34.8065 49.1369C34.8069 49.2898 34.8202 49.4557 34.8468 49.6042C34.9133 50.0074 34.9626 50.41 34.9954 50.8074C35.0087 51.1161 35.0794 51.3644 35.2123 51.5848C35.3214 51.77 35.4126 51.9552 35.4852 52.1394C35.6617 52.4958 35.8407 52.8855 36.0134 53.292C36.1202 53.1271 36.227 52.9631 36.3338 52.7991C36.4297 52.6622 36.5255 52.5382 36.6295 52.4148C37.2379 51.7401 38.0296 51.3398 38.994 51.213C39.2214 51.1836 39.4478 51.1469 39.6727 51.103C39.6647 50.9545 39.64 50.8122 39.5987 50.6777C39.5076 50.4206 39.4582 50.1226 39.4582 49.8106C39.4582 49.5815 39.4511 49.3602 39.4354 49.146C39.4212 49.0684 39.4107 48.9363 39.4107 48.7979C39.4107 48.7091 39.3998 48.6185 39.3775 48.5292C39.2162 47.7798 39.471 47.2035 40.0738 46.9339C40.1905 46.8886 40.2698 46.8486 40.3344 46.8047C40.7359 46.5332 41.1132 46.2265 41.4559 45.8932L41.5008 45.8447C41.5455 45.7123 41.6456 45.6045 41.7751 45.5524C42.1607 45.1465 42.5669 44.7396 42.978 44.3471C43.1482 44.1862 43.3176 44.0217 43.4868 43.8526C43.52 43.6318 43.6987 43.4619 43.916 43.4458C44.129 43.27 44.3564 43.1238 44.595 43.0089C44.6933 42.964 44.7649 42.9167 44.8181 42.8627C44.8404 42.8406 44.8641 42.8203 44.8902 42.8025C44.9235 42.7803 44.9524 42.746 44.9795 42.6993C45.2016 42.366 45.3967 42.0651 45.5832 41.7646C45.7417 41.5225 45.9254 41.3161 46.1347 41.1425C46.185 41.0957 46.2168 41.0331 46.223 40.9477C46.2434 40.7779 46.2704 40.6299 46.307 40.4823C46.6392 39.3008 46.7223 38.1188 46.5585 36.9541C46.4845 36.3971 46.3421 35.8421 46.1352 35.3005C46.0042 34.9451 45.7896 34.7647 45.4384 34.7107C45.4194 34.7078 45.4019 34.7068 45.3753 34.715C45.0639 34.8235 44.7963 34.9904 44.568 35.2204C44.8646 35.3232 45.1119 35.503 45.296 35.7528C45.3895 35.871 45.4574 36.0075 45.492 36.1497C45.7094 36.7902 45.8115 37.4875 45.7944 38.2234C45.7944 38.63 45.6548 39.0163 45.3796 39.3606C45.193 39.5776 44.9913 39.7093 44.7702 39.7652C44.1152 39.9509 43.4797 39.9297 42.894 39.6987C42.7459 39.6263 42.6481 39.5549 42.5636 39.4696C42.5489 39.4546 42.5352 39.4387 42.5228 39.4218C42.2058 39.0018 42.0088 38.5003 41.9352 37.9249C41.8681 37.9858 41.8006 38.0463 41.7328 38.1062C41.7635 38.3598 41.593 38.5957 41.3421 38.6397C41.315 38.6445 41.2879 38.6465 41.2614 38.6465C41.2148 38.6465 41.1693 38.6395 41.1262 38.6263C40.8332 38.8773 40.5394 39.1339 40.2456 39.3948L39.8887 39.7122ZM40.8608 47.608C41.1035 47.4435 41.3383 47.2675 41.5663 47.0787C41.6614 48.1502 41.6945 49.242 41.6654 50.3279C41.6638 50.3866 41.6726 50.4431 41.6901 50.4957C41.3342 50.6424 40.9724 50.7694 40.6054 50.8762C40.5855 50.7069 40.5504 50.5391 40.4987 50.3718C40.4384 50.2006 40.4075 50.012 40.4075 49.8109C40.4075 49.5577 40.3995 49.3132 40.3772 49.0325C40.3658 48.9602 40.3601 48.8826 40.3601 48.7982C40.3601 48.6303 40.3392 48.4611 40.3017 48.3092C40.219 47.9251 40.3494 47.8651 40.4311 47.8274L40.4322 47.8269C40.5917 47.7661 40.736 47.6924 40.8608 47.608ZM42.8219 49.7106C42.727 49.7685 42.659 49.8548 42.6222 49.9525C42.6363 48.8961 42.593 47.8374 42.494 46.8026L42.4464 46.2346C42.8249 45.8363 43.2147 45.4453 43.6085 45.0691C43.6431 45.2808 43.6679 45.497 43.6825 45.7117V46.0005C43.6825 47.258 43.7656 48.5169 43.9297 49.7445C43.7698 49.773 43.6106 49.8065 43.4527 49.8451C43.3108 49.6416 43.0355 49.5799 42.8219 49.7106ZM44.6304 45.6794C44.5972 45.168 44.5205 44.683 44.412 44.2836C44.5953 44.1161 44.7915 43.9818 44.9909 43.8859C45.1703 43.8044 45.3274 43.7007 45.4565 43.5773C45.5951 43.4745 45.71 43.3434 45.7826 43.2112C45.9919 42.9007 46.1927 42.5901 46.3792 42.2896C46.4793 42.1377 46.5994 42.0027 46.7522 41.8749C47 41.6487 47.1443 41.3541 47.1671 41.0449C47.1808 40.936 47.2008 40.8265 47.224 40.7324C47.589 39.4352 47.6811 38.1181 47.4988 36.8218C47.4153 36.193 47.2544 35.5636 47.0223 34.957C46.7717 34.2789 46.2738 33.8642 45.5875 33.7585C45.4162 33.7291 45.2434 33.7436 45.0711 33.8019C44.551 33.983 44.1078 34.2839 43.7441 34.7072C43.7394 34.6045 43.7418 34.5019 43.7512 34.4C43.7521 34.391 43.7527 34.3821 43.753 34.3732C43.8514 34.318 43.9489 34.2596 44.0455 34.1979C44.3255 34.0035 44.6236 33.8294 44.9558 33.6679C45.457 33.3867 45.9202 33.0139 46.3199 32.5736L46.5567 32.333C46.5709 32.319 46.5838 32.3036 46.5961 32.2877C46.7622 32.0711 46.859 31.8334 46.8832 31.5874C47.0033 30.5067 46.8538 29.4954 46.4404 28.5849C46.2515 28.1629 45.9653 28.0428 45.7356 28.0144C45.5059 27.9966 45.2814 27.9961 45.0806 28.0134C44.793 28.0293 44.5068 28.0501 44.2197 28.0752C43.9607 28.1001 43.7024 28.1293 43.4449 28.163C43.4439 27.7202 43.4359 27.2636 43.4213 26.7947C43.3895 25.5432 43.3658 24.2831 43.3501 23.0215C43.3501 22.7891 43.3321 22.5537 43.2988 22.3343C43.2732 22.1265 43.2542 21.9162 43.2428 21.704C43.2391 21.6389 43.223 21.5776 43.1969 21.5223C43.2541 21.4243 43.2995 21.3159 43.3326 21.1977C43.5101 20.5491 43.5372 19.8908 43.4138 19.2455C43.3473 18.8761 43.2633 18.5178 43.1746 18.2241C43.1681 18.1913 43.1601 18.1586 43.1507 18.1261C43.1594 18.0823 43.1623 18.0366 43.1584 17.9899C43.0441 16.5904 42.9947 15.3664 43.0118 14.3464C43.3905 14.1333 43.8068 14.0503 44.2757 14.0971C44.5999 14.1304 44.916 14.155 45.2377 14.1719C45.9127 14.1873 46.5885 14.2428 47.2402 14.3354C47.973 14.4511 48.7319 14.5095 49.4965 14.5095H51.1638C52.4192 14.4935 53.6679 14.3686 54.8683 14.141C55.5849 14.0171 56.3196 13.9462 57.0667 13.9303C57.3909 13.9139 57.715 13.8893 58.0311 13.857C58.3985 13.8261 58.7682 13.8102 59.1313 13.8102L59.8152 13.8092C60.3587 13.842 60.9187 13.8584 61.4807 13.8584C62.6762 13.8584 63.8936 13.8748 65.1115 13.9066C65.4371 13.9066 65.7669 13.9298 66.0669 13.9708C66.4129 14.0373 66.7803 14.0884 67.1633 14.1227L67.7537 14.1675C68.0214 14.2042 68.2924 14.2138 68.5549 14.1955C68.8833 14.1767 69.207 14.1111 69.4742 14.0132C69.8003 13.9303 70.1178 13.8391 70.3969 13.7485C70.9322 13.6163 71.4273 13.6805 71.9237 13.9524C72.198 14.0918 72.5127 14.14 72.872 14.0942C73.0927 14.0595 73.3049 14.0166 73.5203 13.9616C74.2128 13.7668 74.9304 13.6853 75.6537 13.7132C76.0396 13.7287 76.4055 13.7369 76.7506 13.7378C76.7952 14.0417 76.8322 14.344 76.8593 14.6387C76.9371 15.8091 76.9608 17.0027 76.9295 18.1929C76.9134 19.4362 76.9457 20.69 77.0249 21.9111L77.2148 26.5374C77.2461 27.3129 77.2618 28.1013 77.2618 28.8807C77.2618 29.7077 77.286 30.5445 77.333 31.3402L77.3344 31.5702C77.3647 31.9729 77.3804 32.3741 77.3804 32.7628C77.3804 32.825 77.392 32.8844 77.413 32.9389C77.2387 33.4624 77.1177 34.0054 77.0515 34.5629C76.9029 35.839 76.9869 37.1078 77.3016 38.3371C77.3567 38.5478 77.3918 38.7528 77.4046 38.9322C77.4222 39.357 77.4929 39.7785 77.6187 40.1981C77.6955 40.4322 77.7864 40.665 77.89 40.8933C77.9816 41.3652 78.0336 41.8424 78.0449 42.3115L78.0454 42.962C78.0772 43.6174 78.1005 44.2646 78.1161 44.9045C78.1479 46.1266 78.2039 47.3742 78.2837 48.6179C78.3767 49.8481 78.408 51.1054 78.3772 52.3665V53.3006C78.3615 54.4937 78.306 55.6912 78.2115 56.8809L78.1636 58.1217L78.1161 60.9931C78.1 62.2648 78.0924 63.537 78.0924 64.8087C78.0924 66.0399 78.0762 67.2764 78.0449 68.4984C78.0449 68.7502 78.053 69.0019 78.0691 69.2367C78.0848 69.7561 78.109 70.275 78.1398 70.765C78.1398 70.8875 78.1498 71.0105 78.1645 71.0862C78.1769 71.2748 78.194 71.4638 78.2177 71.6659C77.8831 71.7126 77.5622 71.7816 77.2542 71.8747C77.1474 71.9109 77.0235 71.9355 76.8664 71.9504C75.7022 72.1086 74.4976 72.2046 73.2987 72.2359C72.8768 72.2359 72.4662 72.2706 72.088 72.3377C71.3471 72.4524 70.5962 72.6096 69.8444 72.8088C69.8155 72.818 69.7476 72.8305 69.629 72.818C69.3437 72.7833 69.04 72.7567 68.7656 72.7664C68.3893 72.7485 68.0119 72.8059 67.6545 72.94C67.187 73.1126 66.6825 73.2004 66.1557 73.2004L65.2577 73.2014C64.9559 73.1826 64.6402 73.2014 64.326 73.2539C63.1077 73.4468 61.9045 73.6402 60.7256 73.8317C60.5144 73.8625 60.3108 73.8852 60.109 73.9016C58.8883 74.0145 57.6581 74.1615 56.4431 74.34C56.2665 74.3694 56.0824 74.3921 55.8669 74.4094C55.3908 74.4716 54.911 74.5112 54.4563 74.5266C54.3116 74.5266 54.1597 74.5189 53.9822 74.503C53.0211 74.4528 52.0766 74.5035 51.1601 74.6563C51.0039 74.6882 50.8397 74.7195 50.6765 74.7499C50.3191 74.8102 49.9474 74.8492 49.5601 74.8652L48.8017 74.9187C48.7125 74.9336 48.6081 74.9491 48.4989 74.9626C48.3423 74.979 48.1781 74.9949 47.9925 75.0118C47.5886 75.061 47.2003 75.1188 46.8705 75.1791C46.8681 75.1791 46.8657 75.1791 46.8638 75.1796C46.8159 75.114 46.7513 75.06 46.6735 75.0253C46.6711 75.0127 46.6692 75.0007 46.6673 74.9881C46.6654 74.9713 46.6621 74.9553 46.6583 74.9399C46.6522 74.9148 46.6488 74.8902 46.6488 74.8666C46.6488 74.8613 46.6488 74.8555 46.6484 74.8502L46.6469 74.7282C46.5696 73.7666 46.5382 72.777 46.5539 71.7773C46.5539 71.5699 46.5349 71.3678 46.5026 71.2111C46.487 71.0847 46.4713 70.9507 46.458 70.8267C46.411 70.1612 46.3792 69.4793 46.3641 68.8114C46.3641 68.6633 46.3399 68.5148 46.2948 68.3788C46.1505 67.9081 46.0698 67.424 46.0551 66.9427C46.0233 65.6666 45.9673 64.3862 45.8894 63.1695C45.8894 63.0021 45.8724 62.8334 45.8382 62.6679L45.7936 62.0048C45.7143 60.7645 45.627 59.5251 45.5316 58.2823C45.5169 58.1024 45.5097 57.9148 45.5097 57.7195C45.5097 56.4907 45.4685 55.6588 45.3835 55.1756L45.3822 55.1687C46.0676 54.5834 46.6299 53.9204 47.0517 53.2002C47.8116 51.9589 47.2511 51.1511 46.8666 50.7966C46.8225 50.7518 46.7793 50.6958 46.7385 50.6336C46.4434 50.1717 45.8889 49.6545 44.8748 49.6459C44.7137 48.4512 44.6318 47.2254 44.6318 46.0005L44.6304 45.6794ZM78.211 28.8807C78.211 29.6672 78.2335 30.4628 78.2775 31.2472L78.3073 31.2127C78.6312 30.8829 78.9696 30.6191 79.3257 30.4166C79.2041 29.6288 79.1895 28.819 79.2822 28.0062C79.3586 27.3807 79.3975 26.7437 79.3975 26.1081V24.8783C79.3657 23.6259 79.3501 22.3397 79.3501 21.0685C79.3501 20.3258 79.3263 19.5817 79.2798 18.8578C79.2471 18.3958 79.239 17.9237 79.2556 17.4583C79.3178 16.3193 79.2542 14.6222 79.0667 12.4053L79.0098 11.7836C78.8845 11.7817 78.7525 11.7629 78.6149 11.7282L78.164 11.6592C77.5323 11.5194 76.9157 11.4735 76.2987 11.5189C75.5925 11.5676 74.8711 11.5927 74.153 11.5927C73.6361 11.625 73.1216 11.6163 72.6546 11.5652L72.3608 11.543C72.3366 11.5411 72.3134 11.5372 72.2901 11.5319C72.1207 11.4924 71.917 11.4721 71.685 11.4721C70.8919 11.4244 70.1491 11.4326 69.4476 11.4938C69.2307 11.4957 68.9649 11.5116 68.6175 11.5425C67.907 11.5526 67.3821 11.4948 66.9511 11.393L66.5752 11.3482C65.9672 11.3192 65.3915 11.3274 64.8936 11.3732C64.1959 11.3742 63.7076 11.3588 63.3573 11.325L62.6591 11.2777C61.6577 11.1678 60.5679 11.1519 59.3999 11.23L50.8753 11.2787C50.3518 11.2787 49.5677 11.3269 48.543 11.4219C47.5871 11.501 46.1229 11.6549 44.1869 11.8786C43.7009 11.9587 43.1935 12.0093 42.7014 12.0262C42.2685 12.0576 41.6002 12.0904 40.7331 12.1227C40.5589 12.1227 40.4436 12.127 40.3681 12.1318C40.4142 13.0341 40.4977 13.947 40.6168 14.8566C40.6914 15.4146 40.7323 15.9952 40.7388 16.5844C40.8582 16.569 40.9832 16.5698 41.1123 16.5878C41.464 16.6471 41.7877 16.7634 42.0877 16.9346C42.1029 16.9434 42.118 16.9523 42.133 16.9614C42.0664 15.8671 42.0447 14.895 42.0687 14.0614C42.0735 13.9086 42.1484 13.7673 42.2718 13.68C42.8865 13.2445 43.5922 13.0627 44.3682 13.1374C44.6791 13.1693 44.98 13.1924 45.2733 13.2083C45.9706 13.2242 46.6839 13.2826 47.3788 13.381C48.0707 13.4904 48.7808 13.5449 49.4965 13.5449H51.1577C52.3528 13.5295 53.5469 13.4109 54.7012 13.1914C55.4715 13.0583 56.2532 12.9831 57.033 12.9662C57.3277 12.9513 57.6362 12.9281 57.9447 12.8963C58.3458 12.8625 58.7421 12.8457 59.1313 12.8457H59.8432C60.3957 12.878 60.9372 12.8939 61.4807 12.8939C62.6843 12.8939 63.9102 12.9103 65.1238 12.9426L65.2255 12.9467C65.5397 12.9593 65.889 12.9732 66.2197 13.0193C66.5596 13.0839 66.8946 13.1307 67.2411 13.1611L67.8529 13.2088C68.0845 13.2397 68.2919 13.2464 68.4974 13.2329C68.7409 13.2189 68.9758 13.1712 69.2013 13.0907C69.5511 12.9995 69.8506 12.9137 70.142 12.8201C70.9356 12.6219 71.6722 12.7184 72.3618 13.0969C72.4534 13.1432 72.582 13.1596 72.741 13.1389C72.919 13.1109 73.1027 13.0738 73.2783 13.0289C74.0552 12.8105 74.8702 12.715 75.6912 12.7497C76.0595 12.7642 76.4093 12.7719 76.7397 12.7733C76.8085 12.6803 76.9105 12.6118 77.032 12.5886C77.2917 12.5394 77.538 12.7126 77.5859 12.9739C77.6832 13.5011 77.7568 14.0349 77.8052 14.5611C77.8864 15.7739 77.9106 16.9984 77.8783 18.2117C77.8631 19.4236 77.8944 20.6519 77.9727 21.8566L78.1631 26.4983C78.1949 27.2868 78.211 28.0883 78.211 28.8807ZM80.2243 28.121C80.1495 28.7821 80.1541 29.4432 80.2384 30.0882C80.3297 30.0809 80.424 30.0805 80.5205 30.0876C80.8057 30.1165 81.0464 30.2361 81.2519 30.4445C81.4802 30.6764 81.6634 30.9417 81.7972 31.233C81.8333 31.3053 81.8746 31.3834 81.9163 31.4538C81.9856 31.5662 82.0592 31.6786 82.1332 31.7832C82.2168 31.9105 82.2823 32.0244 82.3383 32.1386C82.3957 32.2558 82.4517 32.3735 82.5063 32.4917V30.2072C82.5063 30.0162 82.5253 29.8224 82.5628 29.6304C82.6653 29.2273 82.6928 28.8217 82.6511 28.3988C82.5547 27.5008 82.522 26.585 82.5542 25.6808L82.6017 24.545C82.6169 24.2832 82.6169 24.0266 82.6022 23.773C82.5395 23.0587 82.4911 22.3214 82.4593 21.5961C82.427 20.7979 82.4038 18.6229 82.3876 14.9458C82.371 14.6357 82.3881 14.2653 82.4389 13.8684C82.512 13.1411 82.4973 12.4549 82.3943 11.842C82.2377 10.6807 82.0027 9.53436 81.6937 8.41987L81.2376 6.44551C81.2324 6.42333 81.2291 6.40114 81.2267 6.378C81.1707 5.73467 80.9628 5.11641 80.6088 4.54157C80.5119 4.37278 80.417 4.24353 80.3197 4.14419C80.305 4.12972 80.2917 4.11429 80.2794 4.09789C80.1403 3.91415 80.0179 3.77526 79.9158 3.68412C79.8802 3.65036 79.782 3.5621 79.2627 3.18257C78.8228 2.85849 78.4901 2.63473 78.2727 2.51706C78.2532 2.50693 78.2347 2.49487 78.2167 2.48185L77.9556 2.28895C77.9276 2.26821 77.9015 2.2441 77.8788 2.21806C77.7174 2.03142 77.5323 1.92581 77.3135 1.89398L76.8944 1.81923C76.2774 1.67841 75.6656 1.60945 75.0548 1.60945L73.1534 1.53856C72.7643 1.58679 72.3618 1.58534 71.9583 1.53325L71.5587 1.48551L71.5569 1.48521C71.5075 1.47701 71.434 1.46477 71.2103 1.46477L66.0674 1.53711H66.0659C65.8737 1.53711 65.7252 1.52843 65.6079 1.51107L63.4014 1.39147C62.587 1.34421 61.7498 1.3201 60.9111 1.3201L57.2679 1.22365C56.6267 1.25644 55.9333 1.25548 55.2413 1.22316L49.8919 1.1272H49.8895C49.516 1.1272 49.122 1.10164 48.7257 1.051C47.6483 0.943456 46.5197 0.93574 45.382 1.02882L44.6791 1.10067C43.5813 1.22461 42.4864 1.4614 41.4299 1.8038L38.9519 2.69115C38.6415 2.81991 38.3828 3.05429 38.1816 3.39862C38.07 3.62817 37.8194 3.90836 37.4094 4.24932C37.0301 4.56182 36.9219 4.73206 36.8925 4.79137C36.8137 4.98669 36.7012 5.17959 36.5698 5.34066C36.5176 5.43519 36.4445 5.64352 36.4445 6.07032C36.4445 6.82842 36.4335 7.04254 36.4155 7.14044L36.3714 7.61112C36.3733 8.28098 36.3073 9.03088 36.1768 9.79381L36.1099 10.4825C36.0985 10.7873 36.1483 11.1576 36.2603 11.556C36.332 11.7532 36.3733 12.0112 36.3733 12.2914L36.3495 13.5308C36.3106 16.4398 36.3282 17.0619 36.3415 17.1738C36.3581 17.2828 36.3747 17.3382 36.3866 17.3681C36.4169 17.4578 36.4335 17.5345 36.4402 17.6073C36.4748 17.7313 36.4919 17.8571 36.4919 17.982V20.946C36.5683 20.8698 36.6481 20.7955 36.7316 20.7241C37.2086 20.2862 37.6813 19.8455 38.1384 19.4134L38.248 19.3015C38.5897 18.8593 38.9386 18.4026 39.2955 17.9299C39.4583 17.6874 39.6443 17.4245 39.8385 17.1617C39.8602 17.1293 39.8828 17.0982 39.9063 17.0683C39.8342 16.9837 39.7905 16.8733 39.7905 16.7523C39.7905 16.149 39.7521 15.5539 39.6761 14.9848C39.5162 13.7652 39.4189 12.5393 39.3876 11.34C39.38 11.0738 39.5869 10.8519 39.8489 10.8452C40.0625 10.8346 40.2447 10.9754 40.3102 11.1692C40.4213 11.162 40.5556 11.1581 40.716 11.1581C41.5552 11.1273 42.212 11.095 42.652 11.0631C43.1223 11.0467 43.5889 11.0005 44.0574 10.9233C46.0256 10.6952 47.4998 10.5404 48.4609 10.4608C49.5103 10.3639 50.3233 10.3142 50.8729 10.3142L59.3657 10.2665C60.5594 10.185 61.7056 10.2018 62.7422 10.3171L63.4342 10.3639C63.7626 10.3952 64.2349 10.4107 64.8504 10.4107C65.3493 10.3624 65.9705 10.3542 66.653 10.3875L67.0887 10.4381C67.1077 10.4401 67.1262 10.4439 67.1447 10.4483C67.5017 10.5356 67.9834 10.5794 68.5762 10.5794C68.9151 10.5481 69.2003 10.5312 69.4068 10.5312C70.113 10.4676 70.9028 10.4584 71.7134 10.5086C71.964 10.5139 72.236 10.5331 72.4671 10.5838L72.7415 10.605C73.17 10.6513 73.63 10.6585 74.1245 10.6291C74.8497 10.6282 75.5493 10.604 76.2328 10.5568C76.9385 10.5047 77.6467 10.5577 78.3368 10.7116L78.7796 10.7781C78.7967 10.7805 78.8133 10.7839 78.8299 10.7883C78.9414 10.8182 79.0933 10.8408 79.1816 10.781C79.3268 10.6822 79.5148 10.673 79.669 10.7574C79.8233 10.8413 79.9196 11.0048 79.9196 11.1823V11.3269L80.0122 12.3194C80.2039 14.5846 80.268 16.3274 80.2039 17.5027C80.1887 17.9237 80.1963 18.3611 80.2267 18.7918C80.2751 19.5402 80.2993 20.3051 80.2993 21.0685C80.2993 22.332 80.315 23.6095 80.3463 24.8663L80.3468 26.1081C80.3468 26.7837 80.3055 27.4608 80.2243 28.121ZM78.7189 40.2416C78.747 40.3561 78.7731 40.471 78.797 40.5863C78.8537 40.7054 78.9149 40.824 78.9802 40.9411C79.2175 41.3838 79.5378 41.6847 79.9626 41.8675C80.3604 42.0686 80.6731 42.3102 80.919 42.5986C81.0277 42.723 81.1416 42.8383 81.2526 42.9376C81.3969 43.0457 81.5369 43.2062 81.6461 43.3967C81.6822 43.4435 81.7144 43.4686 81.7424 43.471C81.8345 43.4705 81.9646 43.4792 82.0856 43.4999C82.4136 43.5621 82.7064 43.6856 82.9665 43.8684C83.369 44.1351 83.724 44.4866 84.0111 44.9057C84.0534 44.9679 84.0795 45.0364 84.0904 45.1063C84.1098 45.1396 84.1255 45.1763 84.1369 45.2153C84.1782 45.3605 84.2105 45.5355 84.2356 45.7516C84.266 45.9353 84.2911 46.1499 84.3082 46.3732C84.3576 47.2191 84.3491 48.0688 84.2845 48.908C84.191 50.3668 84.1274 51.8849 84.0961 53.4137C84.0961 53.6259 84.0875 53.841 84.0709 54.0464C84.0439 54.6709 84.0287 55.307 84.0263 55.9441C84.2257 55.687 84.425 55.4025 84.6243 55.0929C84.6343 55.0775 84.6452 55.0625 84.6566 55.0485C84.6903 55.008 84.7131 54.9598 84.7278 54.9019C84.7553 54.8011 84.7743 54.6974 84.7876 54.5798C84.8061 54.4611 84.8213 54.3599 84.837 54.2509C84.8593 54.0676 84.9191 53.8853 85.0135 53.7185C85.0795 53.5815 85.1554 53.3558 85.2257 53.0698C85.2613 52.9237 85.3064 52.7776 85.3605 52.6315C85.6486 51.9939 85.8878 51.3501 86.0862 50.6841C86.2651 50.1237 86.369 49.5489 86.3989 48.9663C86.4193 48.7888 86.4454 48.6374 86.4806 48.4768C86.6225 47.7872 86.7734 47.0927 86.9324 46.3978C87.0625 45.8548 87.0985 45.293 87.0416 44.7239C87.0409 44.7183 87.0404 44.7126 87.0399 44.707C87.0395 44.7015 87.0392 44.696 87.039 44.6905C87.0388 44.6852 87.0387 44.68 87.0387 44.6747C87.0387 44.5445 87.0254 44.4027 86.9989 44.2542C86.8878 43.3119 86.6951 42.4091 86.4208 41.5429C86.3956 41.4759 86.3515 41.3915 86.2964 41.3139C85.9348 40.8292 85.6272 40.2915 85.3918 39.7268C85.3439 39.6067 85.2859 39.5102 85.2105 39.4225C84.7411 38.8659 84.2603 38.3297 83.779 37.8248C83.6523 37.696 83.565 37.5219 83.5332 37.3266C83.5123 37.2475 83.461 37.1486 83.3856 37.0623C83.3775 37.0541 83.3699 37.0459 83.3623 37.0382C83.0766 37.2928 82.7415 37.5007 82.3713 37.6482C82.2375 37.7187 82.0481 37.7736 81.8431 37.7973C81.4895 37.8667 81.1563 37.7809 80.8767 37.5489C79.9232 36.6924 79.5103 35.6213 79.637 34.354C79.6712 34.0574 79.7225 33.7632 79.7894 33.4724C79.8036 33.3817 79.833 33.2612 79.8729 33.1406C80.0604 32.5156 80.4681 32.0801 81.058 31.8728C81.0187 31.8023 80.9807 31.7295 80.9427 31.6528C80.8502 31.4517 80.7301 31.2786 80.5806 31.1267C80.5189 31.0635 80.4733 31.052 80.441 31.0486C80.3053 31.0389 80.1748 31.0626 80.0604 31.1204C79.6693 31.2979 79.3181 31.5482 78.9972 31.8742C78.9104 31.975 78.8159 32.1047 78.7367 32.2397C78.3513 32.981 78.0969 33.809 77.9939 34.6776C77.8591 35.8326 77.9351 36.9818 78.2193 38.091C78.2891 38.3581 78.3342 38.6234 78.3522 38.8775C78.367 39.2349 78.4239 39.5758 78.5226 39.9047C78.5304 39.9283 78.5383 39.9519 78.5465 39.9755C78.6291 40.0395 78.6917 40.1313 78.7189 40.2416ZM78.9942 42.9389L78.9938 42.4116C79.1703 42.5448 79.3613 42.6556 79.5651 42.743L79.5783 42.7497C79.5603 42.792 79.548 42.8378 79.5428 42.8861C79.5228 43.0693 79.6068 43.2405 79.7473 43.3375C79.7321 43.5637 79.7112 43.7908 79.6847 44.0213C79.651 44.3502 79.6419 44.6839 79.6619 45.0451C79.6899 45.2887 79.697 45.5356 79.6823 45.8081C79.6823 47.0214 79.7226 48.2411 79.8024 49.438C79.819 49.6594 79.8441 49.8807 79.8802 50.118C79.9391 50.4324 79.9766 50.7579 79.9913 51.0839C80.0383 52.2877 80.0776 53.4832 80.1099 54.6758C80.1261 55.1007 80.1498 55.5178 80.1816 55.9181C80.2594 57.1551 80.2912 58.4162 80.2756 59.6667C80.2594 60.8815 80.2998 62.1054 80.3971 63.3183C80.4132 63.4663 80.4293 63.6052 80.4431 63.7128C80.4578 63.9095 80.4654 64.1058 80.4654 64.3026V67.8959C80.4654 68.1394 80.4436 68.3873 80.4009 68.6366C80.2034 69.8389 80.1949 71.0657 80.3757 72.2854C80.4037 72.4686 80.418 72.6466 80.418 72.8033C80.4075 73.2614 80.4241 73.7196 80.4673 74.1729L80.4592 74.1676C80.2381 74.0258 79.9448 74.0909 79.8038 74.3161C79.7891 74.3398 79.7668 74.375 79.6823 74.3822C79.5394 74.3822 79.3871 74.3909 79.2267 74.4087C79.2058 74.4111 79.1849 74.415 79.164 74.4203C79.0572 74.4478 78.9438 74.4676 78.8023 74.484C78.0918 74.5963 77.3581 74.7087 76.5906 74.8225C76.4141 74.8519 76.2299 74.8746 76.0491 74.8895C75.7543 74.9059 75.4677 74.9305 75.18 74.9648C74.8393 75.012 74.4985 75.0516 74.1601 75.0829C73.9622 75.0998 73.7476 75.1249 73.4771 75.1659C73.2934 75.2088 73.1093 75.2372 72.8943 75.2556C72.2811 75.352 71.6679 75.4388 71.0518 75.5194C69.8804 75.6799 68.6953 75.8256 67.5244 75.9529C67.2748 75.9823 67.0218 75.9973 66.7423 75.9982C66.2567 76.0301 65.7712 76.0542 65.2543 76.0725C65.111 76.087 64.9605 76.0942 64.7906 76.0942C63.5799 76.126 62.3516 76.1829 61.1422 76.2635C60.3862 76.3122 59.6301 76.3517 58.8702 76.3836C58.5617 76.399 58.2613 76.4072 57.9423 76.4082L56.1886 76.5036C55.9883 76.5036 55.7714 76.5123 55.5336 76.5292L53.1776 76.7211C52.8055 76.738 52.4491 76.7621 52.115 76.7954C51.9375 76.8099 51.7448 76.8176 51.5093 76.8186L49.8999 76.914H49.3541C48.908 76.914 48.4571 76.9666 48.0114 77.0713C47.5088 77.1913 46.9819 77.2603 46.4589 77.2757C46.1893 77.2757 45.9245 77.3032 45.6858 77.3558C45.326 77.4219 44.9919 77.3963 44.6729 77.2757C44.6682 77.2053 44.6601 77.1315 44.6487 77.0515C44.6335 76.9589 44.6183 76.8581 44.6055 76.767C44.4788 75.5478 44.3606 74.3195 44.2505 73.0917C44.204 72.4585 44.1722 71.8098 44.157 71.1747C44.157 70.9664 44.1186 70.7561 44.0422 70.5507C43.9952 70.3337 43.9771 70.107 43.9899 69.8784C44.0706 68.5503 44.0217 67.2352 43.8423 65.9615C43.7512 65.3905 43.6976 64.7964 43.6824 64.2061L43.6819 63.5671C43.6506 62.3104 43.6349 61.0406 43.6349 59.7872C43.6192 58.645 43.4886 57.6652 43.246 56.8713C43.6729 56.5335 44.094 56.1997 44.5094 55.8697C44.5433 56.3184 44.5605 56.9373 44.5605 57.7195C44.5605 57.9423 44.569 58.1569 44.5857 58.36C44.6806 59.596 44.7674 60.8315 44.8467 62.068L44.8937 62.7697C44.8956 62.7929 44.8989 62.817 44.9041 62.8401C44.9279 62.9496 44.9402 63.06 44.9411 63.2004C45.019 64.4359 45.0745 65.7033 45.1063 66.9697C45.1234 67.5407 45.2183 68.1116 45.3916 68.6754C45.4072 68.7222 45.4148 68.7665 45.4148 68.8225C45.4305 69.5169 45.4628 70.2143 45.5126 70.9136C45.5287 71.0616 45.5449 71.2005 45.5667 71.3654C45.5919 71.4942 45.6047 71.6331 45.6047 71.77C45.5885 72.7929 45.6213 73.8143 45.6996 74.7677V74.8512C45.682 75.2018 45.7323 75.5384 45.8486 75.8533C45.9189 76.0438 46.0978 76.1658 46.2924 76.1658C46.3204 76.1658 46.3493 76.1634 46.3778 76.1581C46.4224 76.1499 46.4647 76.1354 46.5036 76.1156C46.6455 76.1441 46.805 76.1518 46.991 76.1349C47.347 76.0722 47.7181 76.0168 48.0917 75.9715C48.2678 75.9546 48.4358 75.9387 48.6057 75.9208C48.7395 75.9039 48.8568 75.8871 48.9109 75.8755L49.6109 75.8282C50.0253 75.8109 50.4363 75.7684 50.8397 75.6999C51.0168 75.6671 51.1848 75.6344 51.3295 75.6054C52.1634 75.467 53.0396 75.4188 53.9148 75.4651C54.0732 75.4792 54.2247 75.4835 54.38 75.488L54.3806 75.488L54.4715 75.4906C54.9718 75.4742 55.482 75.4323 55.9637 75.3691C56.1839 75.3518 56.3956 75.3257 56.5888 75.2924C57.7777 75.1183 58.9908 74.9732 60.1893 74.8627C60.4043 74.8454 60.6278 74.8203 60.8675 74.7856C62.0531 74.5922 63.2553 74.4003 64.477 74.2064C64.7261 74.1649 64.9706 74.15 65.2302 74.1649H66.1557C66.7936 74.1649 67.4073 74.0574 67.9811 73.8452C68.2227 73.755 68.4638 73.715 68.7424 73.7304C69.0086 73.7304 69.2692 73.7454 69.526 73.7767C69.7471 73.7989 69.9379 73.7854 70.096 73.7391C70.8041 73.5515 71.5227 73.401 72.2413 73.2896C72.5754 73.2303 72.9314 73.2004 73.3106 73.2004C74.556 73.1676 75.7947 73.0688 76.9723 72.9086C77.1816 72.8894 77.3776 72.8493 77.5385 72.7948C77.9305 72.6772 78.3662 72.6019 78.8337 72.5725C79.0953 72.5561 79.2941 72.327 79.278 72.0608C79.2728 71.9755 79.2457 71.8964 79.203 71.8294L79.2007 71.8154L79.1982 71.8028L79.1797 71.7141C79.1494 71.4836 79.1271 71.2526 79.1062 70.9748C79.0948 70.9049 79.0891 70.8345 79.0881 70.7346C79.0568 70.2254 79.0331 69.7156 79.0169 69.189C79.0013 68.959 78.9942 68.7284 78.9937 68.511C79.0255 67.2937 79.0416 66.0481 79.0416 64.8087C79.0416 63.5408 79.0492 62.273 79.0654 61.0071L79.1123 58.1482L79.1584 56.9392C79.2538 55.7476 79.3103 54.528 79.3264 53.3074L79.3259 52.379C79.3582 51.0972 79.3259 49.8067 79.2305 48.5494C79.1522 47.324 79.0967 46.089 79.0649 44.8795C79.0492 44.2328 79.0255 43.5779 78.9942 42.9389ZM80.8337 43.896C80.7902 43.8169 80.7372 43.7523 80.6715 43.6987C80.6591 43.8443 80.6447 43.9861 80.6282 44.1279C80.6002 44.4008 80.5926 44.6839 80.6069 44.9632C80.6391 45.2313 80.6481 45.5356 80.6306 45.8365C80.6315 46.9997 80.6709 48.1976 80.7492 49.3686C80.7635 49.561 80.7858 49.7577 80.8157 49.954C80.8802 50.2969 80.9229 50.6687 80.9396 51.043C80.987 52.2529 81.0264 53.4528 81.0582 54.6444C81.0739 55.05 81.0971 55.4537 81.1285 55.8491C81.2082 57.1179 81.2405 58.4041 81.2248 59.6792C81.2091 60.8641 81.2485 62.0572 81.342 63.2267C81.3558 63.3554 81.3715 63.4895 81.3871 63.6158C81.4061 63.8603 81.4147 64.0812 81.4147 64.3026V67.8959C81.4147 68.1958 81.3881 68.5001 81.3363 68.7996C81.156 69.8972 81.1484 71.0228 81.314 72.1397C81.3492 72.3697 81.3672 72.5974 81.3672 72.8149C81.352 73.4833 81.3976 74.143 81.5029 74.7854C81.5461 75.0477 81.3715 75.2961 81.1133 75.34C80.8532 75.3863 80.6097 75.2059 80.567 74.9435L80.5599 74.9001C80.4146 75.0993 80.1569 75.3144 79.7146 75.3457C79.5836 75.3467 79.4739 75.3525 79.3605 75.3646C79.2238 75.3973 79.0795 75.4224 78.9276 75.4398C78.2352 75.5497 77.4976 75.6626 76.7368 75.775C76.5432 75.8082 76.3315 75.8343 76.1117 75.8516C75.8265 75.8675 75.5593 75.8907 75.2997 75.9216C74.9537 75.9703 74.5986 76.0108 74.2431 76.0436C74.059 76.0595 73.8625 76.0826 73.6499 76.1135C73.46 76.1593 73.2289 76.196 73.003 76.2133C72.4178 76.3059 71.797 76.3951 71.1757 76.4762C69.9986 76.6377 68.805 76.7838 67.6298 76.9111C67.3488 76.9444 67.0584 76.9618 66.7726 76.9618C66.3075 76.9936 65.8125 77.0177 65.317 77.0341C65.1755 77.0496 64.9933 77.0587 64.803 77.0587C63.6164 77.0901 62.4014 77.146 61.203 77.2261C60.4393 77.2748 59.6761 77.3153 58.9134 77.3471C58.593 77.3635 58.2765 77.3717 57.9684 77.3717L56.2133 77.4677C56.0092 77.4682 55.8146 77.4759 55.6048 77.4908L53.2365 77.6837C52.8639 77.7006 52.5241 77.7237 52.1999 77.7556C51.9916 77.7734 51.7728 77.7821 51.5373 77.7821L49.9573 77.8761C49.9483 77.8766 49.9089 77.8786 49.8999 77.8786H49.3541C48.9796 77.8786 48.6009 77.9229 48.2269 78.0107C47.664 78.1452 47.0726 78.2229 46.4722 78.2402C46.2558 78.2402 46.0579 78.261 45.8694 78.3015C45.6786 78.3372 45.4912 78.3545 45.308 78.3545C44.8822 78.3545 44.4774 78.26 44.0934 78.0719C43.96 78.0063 43.8703 77.8858 43.8381 77.7503C43.7702 77.6673 43.7299 77.5607 43.7299 77.444C43.7299 77.3688 43.7232 77.2873 43.7109 77.1995C43.6962 77.1103 43.6795 77.0018 43.6634 76.8851C43.5343 75.6438 43.4152 74.4116 43.3046 73.1717C43.2562 72.5149 43.2239 71.8494 43.2078 71.1868C43.2078 71.0749 43.1878 70.976 43.1465 70.8719C43.138 70.8497 43.1309 70.8265 43.1252 70.8034C43.0521 70.4865 43.0241 70.1562 43.0421 69.822C43.1195 68.5561 43.073 67.307 42.904 66.1072C42.8077 65.5029 42.7498 64.8639 42.7332 64.2187V63.5792C42.7014 62.3268 42.6857 61.0483 42.6857 59.794C42.6736 58.9182 42.5896 58.1519 42.4358 57.5118C42.1285 57.7544 41.8184 57.999 41.5053 58.2456C40.7682 58.8156 40.0525 59.347 39.3743 59.8278C39.3135 59.8712 39.2447 60.0395 39.2447 60.3723C39.2604 61.2085 39.2442 62.0491 39.1963 62.8607C39.1351 64.362 39.1897 65.8609 39.36 67.3071C39.4369 67.9003 39.539 68.5051 39.6619 69.0982C39.6771 69.1807 39.6904 69.2574 39.7013 69.3355C39.8143 69.9436 39.9149 70.5735 39.9998 71.2062C40.0169 71.3605 40.0321 71.4946 40.0478 71.6209C40.2699 73.1338 40.4071 74.6697 40.455 76.1749C40.5025 77.9443 40.5105 79.7445 40.4787 81.5279C40.4787 81.9094 40.5423 82.0781 40.5803 82.1442C40.6766 82.3154 40.736 82.4967 40.7597 82.6887C40.8499 83.7535 41.1551 84.7219 41.6686 85.5866C41.8029 85.832 41.9852 86.0423 42.2177 86.2265C43.2187 87.0584 44.4494 87.7017 45.8856 88.1473C46.0678 88.2139 46.234 88.265 46.4077 88.3089C46.5031 88.3402 46.5382 88.3431 46.5539 88.3431C46.579 88.3431 46.6037 88.3446 46.6284 88.3489C47.3346 88.4632 48.0294 88.6127 48.6939 88.7936C48.8263 88.8268 48.9739 88.8389 49.1268 88.8264C50.2398 88.699 51.3964 88.5929 52.5493 88.5129C53.1696 88.482 53.7752 88.4184 54.3585 88.3248C54.6869 88.2583 55.0533 88.2226 55.4292 88.2226C56.8859 88.1907 58.3667 88.1025 59.8214 87.9597L60.4213 87.9105C61.8542 87.7842 63.2752 87.6226 64.6435 87.4317C65.9686 87.2393 67.3417 87.0758 68.7229 86.9465C71.394 86.6769 74.0837 86.2574 76.714 85.7009C76.8227 85.682 76.9048 85.6671 76.9794 85.6517C77.6395 85.4993 78.2983 85.3025 78.9262 85.0691C79.1284 84.9939 79.3505 84.9374 79.5869 84.9008C79.6761 84.8796 79.7891 84.8458 79.8959 84.8053L80.7108 84.5121C81.7849 84.0646 82.446 83.3204 82.7104 82.246C82.942 81.2101 83.1641 80.0975 83.3682 78.9498C83.4085 78.6758 83.4233 78.3749 83.4085 78.0696C83.3763 76.7111 83.4252 75.3767 83.5528 74.0925C83.6141 73.3604 83.6454 72.611 83.6454 71.8741C83.6454 70.4288 83.606 68.9859 83.5277 67.5854C83.3701 64.8009 83.242 61.9657 83.1475 59.159C83.147 58.8788 83.1394 58.615 83.1242 58.3507C83.1143 58.1235 83.1057 57.8998 83.0996 57.676C83.0905 57.6683 83.082 57.6606 83.0739 57.6524C82.9102 57.487 82.8689 57.254 82.952 56.9599C82.9762 56.875 83.0213 56.8012 83.0801 56.7438C83.0692 55.8275 83.0839 54.9016 83.1238 53.9853C83.1394 53.7861 83.147 53.599 83.147 53.4037C83.1788 51.8508 83.2429 50.3182 83.3378 48.8392C83.3995 48.0377 83.4076 47.2323 83.3616 46.439C83.3473 46.2538 83.3255 46.0667 83.2961 45.8868C83.2695 45.665 83.2434 45.5478 83.2253 45.4846C83.2196 45.4658 83.2159 45.4475 83.2125 45.4286C82.9994 45.1243 82.7384 44.8688 82.437 44.6691C82.2747 44.5548 82.1095 44.4858 81.9206 44.4497C81.8594 44.4391 81.7825 44.4338 81.6994 44.4338C81.4398 44.4116 81.1261 44.3113 80.8651 43.9457C80.8532 43.9298 80.8428 43.9134 80.8337 43.896ZM42.0654 36.4732C41.8956 36.6455 41.7225 36.8148 41.5467 36.9803C41.4454 36.3566 41.3502 35.7486 41.2612 35.1562C41.3728 35.1034 41.4927 35.0688 41.6178 35.0515C42.0224 35.0104 42.4162 34.926 42.7982 34.7979C42.8124 35.0327 42.8523 35.2673 42.9178 35.4995C42.9391 35.5754 42.9771 35.6419 43.0267 35.6959C43.0177 35.7042 43.0084 35.7123 42.999 35.7204C42.9771 35.7387 42.9567 35.7594 42.9382 35.7816C42.8955 35.8342 42.8442 35.8776 42.7616 35.9263C42.5191 36.0845 42.2899 36.2634 42.0654 36.4732ZM40.3791 37.1474C40.4088 36.9367 40.4526 36.724 40.5094 36.512C40.5726 36.91 40.6383 37.3146 40.7066 37.7258C40.5253 37.8796 40.3438 38.0357 40.1626 38.1929C40.267 37.8461 40.3401 37.4931 40.3791 37.1474ZM41.5921 51.566C40.7886 51.8582 39.9584 52.0608 39.1146 52.1698C38.3689 52.2677 37.7885 52.557 37.34 53.0542C37.2654 53.1429 37.1867 53.2442 37.1155 53.346C36.3248 54.5593 35.5203 55.8219 34.7334 57.0854C34.5801 57.3188 34.4467 57.5532 34.3299 57.7904C33.9991 58.3899 33.8714 59.0183 33.9274 59.7301C33.9464 59.8487 33.9929 59.9905 34.0608 60.1164C34.6095 61.0172 35.012 61.9726 35.244 62.9337C35.5222 64.0786 36.1026 65.1058 36.9698 65.9869C37.1677 66.1875 37.3034 66.4098 37.3737 66.6476C37.6039 67.2624 37.9992 67.8252 38.5502 68.3205C38.5009 68.0234 38.4567 67.7249 38.4183 67.4274C38.2413 65.9242 38.1843 64.3728 38.2484 62.8112C38.2954 62.0165 38.311 61.2014 38.2954 60.3811C38.2954 59.7431 38.4743 59.2946 38.8269 59.039C39.4985 58.563 40.2038 58.0398 40.9271 57.4804C42.1887 56.4869 43.4061 55.5229 44.576 54.5912C45.2694 54.037 45.83 53.4 46.241 52.6983C46.6458 52.0367 46.4655 51.729 46.2106 51.4936C46.1086 51.3904 46.0246 51.2843 45.9453 51.1633C45.7664 50.8826 45.4303 50.5272 44.566 50.6275C44.4963 50.6347 44.426 50.6434 44.3563 50.6526C44.5898 50.9694 44.8005 51.3181 44.9847 51.6923C45.0525 51.8302 45.1119 51.9595 45.1626 52.0796C45.2846 52.352 45.3088 52.64 45.2319 52.9274C45.1484 53.2326 44.9296 53.6426 44.3567 53.8755C44.2419 53.9353 44.0872 53.9589 43.9334 53.9314C43.6197 53.917 43.2988 53.9097 42.9704 53.9097C42.6775 53.9097 42.4217 53.8287 42.2119 53.6691C42.0316 53.5384 41.8954 53.358 41.8142 53.1391C41.6675 52.6144 41.5959 52.095 41.5921 51.566ZM42.4161 24.1074C42.3652 24.2235 42.3103 24.3384 42.2514 24.452C42.1693 24.6184 42.0829 24.7765 41.9966 24.9169C41.8333 25.1826 41.6591 25.444 41.4783 25.6938C41.3682 25.8438 41.2571 25.9749 41.1465 26.0873C41.0895 26.1453 41.035 26.205 40.9831 26.2662C40.9947 26.3079 41.0009 26.3519 41.0009 26.3973V27.3377C41.0292 27.7845 41.0451 28.26 41.0479 28.7308C41.3421 28.6338 41.635 28.5385 41.9258 28.4451C42.129 28.3886 42.306 28.3457 42.474 28.3119L42.4958 28.3081V28.254C42.4958 27.793 42.4877 27.316 42.4725 26.8232C42.4494 25.9208 42.4306 25.016 42.4161 24.1074ZM40.0866 28.1008C39.9124 28.5081 39.7122 28.9062 39.4868 29.2938C39.6861 29.1979 39.8892 29.1168 40.0962 29.0488L40.1252 29.039C40.1083 28.9895 40.0991 28.9363 40.0991 28.8809C40.0991 28.6227 40.0949 28.3621 40.0866 28.1008ZM31.6748 119.69C31.5505 119.69 31.4276 119.64 31.336 119.545C31.1822 119.386 31.1561 119.141 31.2719 118.952C31.3716 118.789 31.523 118.624 31.7337 118.446C31.7731 118.385 31.8087 118.329 31.8433 118.274C33.4305 116.021 34.7879 113.631 35.8933 111.148C36.5193 109.717 37.1406 108.252 37.7386 106.796C37.8606 106.513 37.9977 106.244 38.1496 105.987C38.2953 105.779 38.4182 105.601 38.5412 105.412C39.5103 104.039 40.4947 102.682 41.4762 101.362C41.6186 101.188 41.7221 101.018 41.7985 100.836C42.7866 98.8736 43.742 96.8756 44.6514 94.8689C44.7677 94.6321 44.8977 94.4248 45.0439 94.2386C46.1104 92.8434 46.7901 91.2158 47.0606 89.4045C46.8783 89.3688 46.6947 89.3365 46.5105 89.3066C46.3937 89.3018 46.2703 89.2776 46.1431 89.2347C45.9761 89.1937 45.7767 89.132 45.5855 89.0621C44.0534 88.587 42.7135 87.8839 41.6257 86.9802C41.3006 86.7231 41.0358 86.415 40.8469 86.0702C40.2659 85.0921 39.9166 83.9839 39.816 82.7898C39.8098 82.7431 39.7904 82.6833 39.7581 82.6264C39.6048 82.3592 39.5293 81.9956 39.5293 81.5191C39.5606 79.7415 39.5531 77.9557 39.5061 76.2037C39.4596 74.7381 39.3252 73.2393 39.1074 71.752C39.0898 71.6102 39.0737 71.4713 39.0575 71.3247C38.9854 70.787 38.9004 70.243 38.8046 69.7135C37.6679 68.9824 36.8847 68.056 36.4751 66.9574C36.44 66.8421 36.384 66.7563 36.2991 66.6695C35.3076 65.6621 34.6426 64.4829 34.3223 63.1645C34.1139 62.3012 33.7494 61.4385 33.2406 60.6013C33.1063 60.3539 33.0251 60.1065 32.9853 59.8422C32.9103 58.911 33.0821 58.081 33.4912 57.3393C33.6146 57.0866 33.7684 56.8175 33.9369 56.56C34.4139 55.7946 34.8999 55.0259 35.3878 54.2635C35.3792 54.2466 35.3707 54.2297 35.3636 54.2119C35.1315 53.6298 34.8814 53.0655 34.6199 52.5346C34.5496 52.361 34.4813 52.2225 34.4001 52.0851C34.1861 51.7292 34.0674 51.3188 34.0479 50.8684C34.0185 50.5168 33.9725 50.1407 33.9117 49.7698C33.8761 49.5711 33.8576 49.3473 33.8576 49.1115C33.8889 48.4918 33.897 47.8798 33.8818 47.2669L33.8386 46.7065C33.8382 46.7036 33.8348 46.6592 33.8348 46.6568C33.794 45.9701 33.8662 45.3181 34.0498 44.7051C33.7314 44.2282 33.448 43.6982 33.2079 43.1287C33.0759 42.8152 32.9198 42.5133 32.7446 42.2317C32.6246 42.0402 32.5106 41.8266 32.4062 41.5975C32.1229 40.9493 31.989 40.2626 32.0071 39.5508C32.0066 39.1385 32.0147 38.7146 32.0308 38.2902C32.0474 38.1156 32.0541 37.9627 32.0541 37.8026C32.0541 37.657 32.0631 37.5031 32.0806 37.3397C32.1542 36.6467 32.4257 36.0289 32.887 35.5042L33.5524 34.8271C33.43 34.5262 33.3502 34.1987 33.3142 33.8496C33.2335 33.1575 33.2083 32.4414 33.2411 31.7276C33.2567 31.488 33.2643 31.2574 33.2643 31.0269C33.2957 30.3788 33.2957 29.7374 33.2648 29.0974C33.2643 28.906 33.2501 28.728 33.2226 28.5443C33.2017 28.2515 33.1931 27.9998 33.1931 27.7476C33.1931 27.396 33.2098 27.0324 33.2425 26.6669C33.2558 26.5043 33.2558 26.3273 33.242 26.1446C33.2406 25.7279 33.3075 25.3609 33.439 25.0171L33.6251 24.4962C33.8951 23.8191 34.2881 23.2481 34.7988 22.7828C35.0845 22.5204 35.3622 22.2407 35.6279 21.947C35.5743 21.8689 35.5425 21.7739 35.5425 21.6712V17.9819C35.5425 17.9375 35.5349 17.8927 35.5193 17.8445C35.5031 17.7958 35.4951 17.7442 35.4951 17.6926C35.4595 17.6111 35.4267 17.4804 35.4049 17.3275C35.3878 17.2677 35.3522 17.1211 35.4001 13.5143L35.4239 12.2816C35.4239 12.1239 35.4016 11.9764 35.3574 11.8534C35.2074 11.3234 35.1453 10.8503 35.1633 10.4144L35.2364 9.663C35.3626 8.91984 35.4239 8.22539 35.4239 7.56518L35.4737 7.013C35.4751 6.99564 35.478 6.97828 35.4813 6.9614C35.4856 6.91365 35.4951 6.73281 35.4951 6.07019C35.4951 5.52042 35.5895 5.10375 35.7846 4.79655C35.7969 4.77678 35.8107 4.75797 35.8259 4.74013C35.9028 4.65139 35.9711 4.53324 36.03 4.39001C36.1704 4.10162 36.421 3.82095 36.8102 3.50121C37.2089 3.1699 37.3195 2.99629 37.3484 2.93697C37.6712 2.3819 38.0917 2.00622 38.6147 1.78969L41.1278 0.889316C42.2574 0.523284 43.4141 0.272993 44.5793 0.141337L45.2964 0.0685165C46.4986 -0.030346 47.6852 -0.0221476 48.8309 0.0926292C49.2011 0.139408 49.5566 0.162556 49.8998 0.162556L55.2715 0.259007C55.9474 0.290836 56.6109 0.290836 57.2578 0.25949L60.9233 0.355459H60.9318C61.7733 0.355459 62.6257 0.380054 63.4535 0.428279L65.6823 0.548843C65.6996 0.549769 65.7165 0.552027 65.7337 0.554339L65.7359 0.55463C65.7744 0.561382 65.8674 0.572474 66.0606 0.572474L71.204 0.500135H71.205C71.437 0.500135 71.5941 0.510745 71.7062 0.533411L72.073 0.57585C72.4143 0.619735 72.7484 0.619253 73.0712 0.576332C73.0973 0.572956 73.1224 0.571992 73.1499 0.572956L75.0722 0.644812H75.0764C75.7385 0.644812 76.4187 0.721973 77.0812 0.873884L77.4628 0.941399C77.8762 1.0012 78.2474 1.20278 78.5535 1.53795L78.749 1.68263C79.0058 1.82489 79.3561 2.06023 79.8184 2.40071C80.3656 2.8005 80.4999 2.91527 80.5635 2.98038C80.6874 3.08888 80.8416 3.26105 81.0134 3.48578C81.1601 3.63914 81.2968 3.82674 81.4211 4.04279C81.8412 4.72518 82.0951 5.47412 82.1691 6.25779L82.6124 8.17861C82.9281 9.31529 83.172 10.5055 83.3324 11.6952C83.4473 12.3781 83.4649 13.1521 83.3818 13.9797C83.3367 14.3322 83.322 14.6433 83.3362 14.9186C83.3528 18.5563 83.3766 20.7809 83.4074 21.5549C83.4388 22.2648 83.4857 22.9877 83.5484 23.7019C83.5664 24.0072 83.5664 24.3024 83.5498 24.5932L83.5023 25.7192C83.472 26.5733 83.5033 27.4423 83.5949 28.2983C83.6485 28.8389 83.612 29.3583 83.4876 29.8459C83.4682 29.9491 83.4554 30.0793 83.4554 30.2071V32.763C83.4554 32.9097 83.3913 33.0408 83.2897 33.1291C83.2911 33.2704 83.2978 33.4054 83.3106 33.5351C83.3196 33.5974 83.3367 33.674 83.36 33.7444C83.4202 33.9287 83.3652 34.123 83.2351 34.2479C83.3282 34.4775 83.4217 34.7104 83.5152 34.9443C83.6504 35.3041 83.7662 35.6575 83.8645 36.0062C83.9086 36.174 83.977 36.3004 84.0757 36.4007C84.2722 36.624 84.3956 36.8627 84.462 37.1308C84.9556 37.6729 85.4492 38.2236 85.9277 38.7908C86.07 38.9557 86.1858 39.1486 86.2689 39.3593C86.4706 39.8416 86.7383 40.3099 87.061 40.742C87.1721 40.8997 87.2552 41.0588 87.3169 41.2257C87.6173 42.1728 87.8233 43.1364 87.9372 44.1115C87.968 44.2798 87.9866 44.4688 87.988 44.6497C88.053 45.32 88.0089 45.9831 87.856 46.6211C87.6994 47.304 87.5499 47.9922 87.4085 48.6799C87.379 48.814 87.3577 48.936 87.3434 49.0503C87.3126 49.683 87.1935 50.3413 86.9917 50.9721C86.7839 51.6718 86.529 52.3576 86.2357 53.0028C86.2082 53.081 86.174 53.1924 86.1465 53.3028C86.0582 53.6626 85.9614 53.9471 85.8498 54.1738C85.8052 54.2548 85.7857 54.3141 85.7777 54.3797C85.7596 54.5051 85.7435 54.6126 85.7274 54.7124C85.7117 54.8581 85.6828 55.0138 85.6443 55.1508C85.6016 55.3259 85.5204 55.4947 85.4056 55.6413C84.9556 56.3381 84.4972 56.9216 84.041 57.3793C84.0482 57.6855 84.0586 57.9932 84.0719 58.3009C84.088 58.5772 84.0961 58.8598 84.0961 59.1424C84.1905 61.9251 84.3177 64.753 84.4753 67.5298C84.5546 68.9491 84.5944 70.4103 84.5944 71.874C84.5944 72.6384 84.5622 73.4148 84.4981 74.1816C84.3733 75.434 84.3258 76.7279 84.3571 78.0353C84.3742 78.3922 84.3562 78.7568 84.3045 79.1069C84.0956 80.2831 83.8707 81.4096 83.6333 82.4701C83.293 83.8532 82.4245 84.8399 81.049 85.4128L80.2199 85.7118C80.0794 85.7649 79.9223 85.8121 79.7609 85.8483C79.5559 85.8811 79.395 85.9216 79.2517 85.9747C78.5867 86.2221 77.8885 86.4309 77.1771 86.5953C77.0807 86.6146 76.9887 86.6315 76.8885 86.6484C76.486 86.7337 76.0817 86.8162 75.6759 86.8948C75.5435 88.1304 75.3128 89.3495 74.9896 90.5223C74.9094 90.7847 74.8405 91.033 74.7793 91.2809C74.588 92.0593 74.3787 92.8444 74.1576 93.6141C73.7665 94.9639 73.4181 96.3253 73.121 97.6607C72.5405 100.288 72.0237 102.973 71.5832 105.639C71.1546 108.318 70.5262 110.977 69.7161 113.543C69.6586 113.72 69.6088 113.884 69.5656 114.043C69.5395 114.249 69.4754 114.441 69.3743 114.613C69.2353 114.916 69.1584 115.259 69.1456 115.632C69.1399 115.793 69.0564 115.939 68.922 116.024C68.7882 116.109 68.6216 116.12 68.4773 116.055C68.2903 115.97 68.0397 115.778 67.9087 115.346C67.8318 115.091 67.9723 114.822 68.2229 114.744C68.2576 114.733 68.2922 114.726 68.3264 114.724C68.3786 114.533 68.4455 114.351 68.5276 114.177C68.5352 114.161 68.5438 114.145 68.5533 114.129C68.5936 114.064 68.6173 113.989 68.6259 113.903C68.6282 113.877 68.6335 113.85 68.6401 113.824C68.6899 113.639 68.7479 113.445 68.8138 113.244C69.6083 110.728 70.2253 108.116 70.6468 105.482C71.0901 102.796 71.6108 100.095 72.1945 97.4485C72.4964 96.0924 72.8505 94.7117 73.2468 93.3431C73.4641 92.5854 73.6701 91.8133 73.8586 91.0475C73.924 90.7813 73.9976 90.5151 74.0797 90.2489C74.3602 89.2299 74.5691 88.1627 74.6996 87.0781C72.7536 87.4301 70.7792 87.7079 68.8129 87.9066C67.4445 88.0344 66.0871 88.1959 64.7753 88.3864C63.3889 88.5808 61.9518 88.7438 60.5013 88.8716L59.9033 88.9203C58.4344 89.065 56.9293 89.1547 55.439 89.187C55.1154 89.187 54.8111 89.2159 54.5249 89.2738C53.8904 89.3765 53.2501 89.4431 52.6051 89.4758C51.4745 89.554 50.3317 89.6591 49.2173 89.7869C48.9472 89.8081 48.6966 89.7879 48.4564 89.7276C48.3022 89.6856 48.1465 89.6451 47.9899 89.607C47.6895 91.5597 46.9495 93.318 45.7896 94.8356C45.6804 94.975 45.5869 95.124 45.5072 95.2861C44.5987 97.2913 43.6376 99.3013 42.6575 101.246C42.5583 101.484 42.4065 101.734 42.2199 101.962C41.2569 103.257 40.2768 104.609 39.3219 105.961C39.2009 106.146 39.0708 106.336 38.9403 106.518C38.8321 106.705 38.7139 106.938 38.6114 107.176C38.0139 108.63 37.3893 110.102 36.7594 111.542C35.6275 114.086 34.2383 116.531 32.6298 118.813C32.5942 118.871 32.5439 118.95 32.4917 119.03L32.4836 119.043C32.4333 119.127 32.3735 119.224 32.3123 119.322C32.2729 119.385 32.2192 119.437 32.1561 119.476L31.9188 119.621C31.8429 119.667 31.7584 119.69 31.6748 119.69ZM59.3026 7.26356C59.0743 7.26356 58.8483 7.25053 58.6257 7.22401C58.4686 7.20665 58.3092 7.17964 58.1497 7.14347C57.9599 7.1073 57.7354 7.10103 57.499 7.12804C57.0505 7.19556 56.9076 6.9144 56.8673 6.79143C56.7273 6.36233 57.1371 6.13519 57.4086 5.98473L57.4088 5.98461C57.6319 5.85971 57.9119 5.93831 58.0424 6.15871C58.1445 6.1669 58.2437 6.18041 58.341 6.19873C58.4819 6.23056 58.6072 6.25178 58.7325 6.26577C59.1089 6.31013 59.4957 6.30965 59.8859 6.26625C61.2333 6.10518 62.6344 5.9904 64.0459 5.92626C64.3003 5.91227 64.5295 6.11964 64.5414 6.38633C64.5533 6.65205 64.3506 6.87775 64.0886 6.88981C62.6994 6.95298 61.3216 7.06535 59.9936 7.22401C59.7615 7.25053 59.5308 7.26356 59.3026 7.26356ZM69.3707 34.6353C69.3925 34.5538 69.4154 34.4688 69.4298 34.369C69.4756 34.0674 69.6199 33.874 69.8977 33.8591C70.1445 33.8458 70.3477 33.9793 70.361 34.2262C70.3717 34.4273 70.3273 34.5529 70.2879 34.6645C70.2587 34.747 70.2322 34.8219 70.2328 34.914C70.2536 35.6866 70.2502 36.5843 70.248 37.1208C70.2476 37.2089 70.2549 37.2966 70.2621 37.3829V37.383V37.383V37.3831V37.3831C70.2693 37.4687 70.2763 37.553 70.2756 37.6351C70.2749 37.6868 70.2692 37.7513 70.2626 37.8265C70.2492 37.977 70.2321 38.1705 70.2439 38.3899C70.2598 38.6871 70.2724 39.2012 70.2825 39.6105L70.2825 39.6115L70.2826 39.6136L70.2826 39.6164L70.2826 39.6168C70.2892 39.8848 70.2947 40.1069 70.2993 40.1923L70.444 40.1746C70.7891 40.1323 71.3482 40.0638 71.6327 40.0485C71.7267 40.0396 71.8328 40.029 71.9461 40.0177L71.9496 40.0173L71.9506 40.0172L71.9508 40.0172C72.4431 39.9678 73.0688 39.9051 73.4203 39.9114C73.6369 39.9101 73.8974 39.958 73.9167 40.318C73.9349 40.6575 73.6351 40.8386 73.3352 40.8238C73.0455 40.8084 72.2128 40.8633 71.6687 40.9132C71.507 40.9316 71.3097 40.9571 71.1002 40.9841L71.0999 40.9842L71.0998 40.9842C70.6454 41.0429 70.1335 41.109 69.8027 41.1267C69.5558 41.14 69.2703 41.0109 69.2499 40.6303C69.2391 40.4278 69.3038 40.3312 69.3604 40.2466L69.3632 40.2425C69.3598 40.1794 69.3607 40.122 69.3617 40.0575C69.363 39.9748 69.3644 39.8805 69.3573 39.7476C69.353 39.667 69.3491 39.5223 69.3447 39.3531C69.3365 39.0472 69.3263 38.6613 69.3072 38.4298C69.2884 38.2108 69.3001 38.0146 69.3095 37.8563C69.3138 37.7846 69.3176 37.7206 69.3178 37.6659C69.3182 37.5912 69.3128 37.513 69.3073 37.4327C69.2998 37.3245 69.292 37.2124 69.2978 37.0996C69.3178 36.5105 69.339 35.5602 69.3114 35.0459C69.3029 34.8875 69.3355 34.766 69.3707 34.6353L69.3707 34.6353ZM63.4075 34.754L63.4444 35.4432V35.4433C63.5189 36.8319 63.5614 37.6239 63.6563 38.8155C63.6661 38.9285 63.6834 39.0759 63.7024 39.2384L63.7024 39.2387L63.7025 39.2389C63.7353 39.5194 63.7734 39.8452 63.7881 40.1186C63.7416 40.2139 63.7077 40.3499 63.7143 40.4733C63.738 40.9156 64.0213 41.0036 64.4019 40.9832C64.6334 40.9707 64.8097 40.9231 64.9584 40.8829L64.9584 40.8829C65.0541 40.857 65.1384 40.8342 65.2187 40.8259C65.7119 40.7891 66.1737 40.7437 66.5315 40.6832C66.8585 40.6244 67.337 40.5059 67.4896 40.4668C67.8252 40.3766 68.0655 40.2399 68.0489 39.9313C68.0351 39.6741 67.8531 39.5498 67.5651 39.5652C67.4585 39.5709 67.3735 39.596 67.2931 39.6197C67.2339 39.6372 67.1772 39.6539 67.1163 39.6615C66.8572 39.6986 66.4725 39.7686 66.1563 39.8261L66.1556 39.8262L66.1555 39.8263L66.1552 39.8263L66.1551 39.8263C65.9098 39.871 65.7058 39.9081 65.6342 39.9164C65.4055 39.9455 65.2253 39.9659 65.0639 39.9842L65.0638 39.9842L65.0633 39.9842C64.9284 39.9995 64.8067 40.0133 64.6808 40.0294C64.6818 39.9242 64.6748 39.8277 64.6664 39.713L64.6664 39.7127L64.6664 39.7122L64.6664 39.7122C64.6617 39.6471 64.6565 39.5762 64.6521 39.4945C64.6453 39.367 64.6328 39.237 64.6207 39.1113C64.6094 38.9937 64.5985 38.88 64.5929 38.7756C64.5524 38.0193 64.4875 37.2351 64.4307 36.547L64.4307 36.5469L64.4307 36.5467L64.4306 36.5466L64.4306 36.546C64.3862 36.0085 64.3466 35.5297 64.3272 35.1689C64.325 35.127 64.3288 35.0919 64.3335 35.0477C64.3416 34.9722 64.3525 34.8701 64.3413 34.6626C64.327 34.3952 64.1411 34.1988 63.8634 34.2137C63.565 34.2297 63.3915 34.4557 63.4075 34.754ZM62.7633 41.086C62.9161 41.4876 63.0245 41.7724 63.037 42.0055C63.0508 42.2626 62.9362 42.4338 62.6482 42.4493C62.391 42.4631 62.209 42.3387 62.1037 42.1071C62.0656 42.0249 62.0534 41.9137 62.0402 41.7919L62.0401 41.7917C62.0372 41.7645 62.0341 41.7368 62.0307 41.7087C61.9214 41.4587 61.8159 41.165 61.7289 40.9231L61.6906 40.8166L61.6583 40.728C61.5736 40.4953 61.4156 40.0499 61.2815 39.665L61.2539 39.5816L61.2538 39.5814C61.1543 39.2811 61.065 39.0119 60.9844 38.7422C60.9592 38.7435 60.9106 38.7588 60.8474 38.7787C60.7306 38.8155 60.5639 38.8679 60.4036 38.8765C60.3263 38.8807 60.2338 38.8712 60.1262 38.8602H60.1261H60.1261H60.126H60.126H60.126H60.1259C59.9758 38.8449 59.7961 38.8266 59.5866 38.8378C59.4515 38.8451 59.3461 38.8406 59.2556 38.8368C59.1875 38.834 59.128 38.8315 59.0706 38.8345C59.0664 38.8528 59.0628 38.8704 59.0594 38.888L59.0544 38.9142L59.0544 38.9142C59.046 38.9587 59.0372 39.0052 59.021 39.0642C58.9985 39.1626 58.9633 39.285 58.9295 39.4024L58.9294 39.4026L58.9294 39.4028C58.913 39.4598 58.897 39.5155 58.8829 39.5667C58.7664 39.9907 58.639 40.4268 58.5275 40.8084L58.5273 40.8088L58.5273 40.809L58.4502 41.0733L58.4221 41.1698C58.3744 41.3737 58.3115 41.5511 58.2705 41.6668L58.2705 41.667C58.2611 41.6935 58.2528 41.7168 58.2462 41.7363C58.1566 41.9887 58.023 42.1919 57.7659 42.2057C57.4779 42.2212 57.2806 42.0048 57.2679 41.7682C57.2618 41.655 57.2833 41.4785 57.4287 41.3056C57.4296 41.2056 57.4685 41.1072 57.5225 40.9705C57.5577 40.8817 57.5992 40.7766 57.6409 40.6444C57.7059 40.4425 57.7579 40.2446 57.8161 40.0235C57.8607 39.8538 57.9089 39.6704 57.9694 39.461C58.0212 39.2725 58.0822 39.0629 58.1442 38.8739C57.9769 38.8313 57.8062 38.727 57.7941 38.5007C57.777 38.1818 58.0161 38.0245 58.283 37.9999L58.4065 37.9933C58.6682 37.1024 59.0066 36.1042 59.3312 35.2305C59.3382 35.1996 59.3414 35.1651 59.3453 35.1237C59.3505 35.0675 59.3568 34.9985 59.3758 34.9083C59.4437 34.6365 59.5469 34.4453 59.8452 34.4292C60.1024 34.4155 60.2644 34.5512 60.3475 34.7531C60.4173 34.9244 60.4987 35.1281 60.587 35.3489C60.7692 35.8048 60.9807 36.3338 61.1796 36.8026C61.4469 37.4399 61.6309 37.9676 61.8236 38.5204L61.8237 38.5204L61.8238 38.5207L61.8239 38.521C61.9209 38.7994 62.0202 39.0841 62.1334 39.3924C62.1894 39.5481 62.2671 39.7542 62.3458 39.9631L62.3458 39.9632L62.3461 39.9637L62.3465 39.9648C62.421 40.1627 62.4965 40.3629 62.5553 40.5252C62.6297 40.7347 62.7002 40.92 62.7631 41.0854L62.7633 41.0859L62.7633 41.086ZM59.3225 37.9545L59.5488 37.9423C59.7656 37.9245 59.9468 37.9423 60.0971 37.9571C60.196 37.9668 60.2816 37.9752 60.3551 37.9713C60.4119 37.9682 60.4875 37.9494 60.5691 37.9291C60.6057 37.92 60.6436 37.9106 60.6815 37.9022C60.6154 37.7416 60.5428 37.5682 60.4684 37.3905C60.2624 36.8984 60.0426 36.3733 59.9085 35.9939C59.7499 36.4976 59.5049 37.3154 59.3225 37.9545ZM53.2605 35.2261C53.4954 35.1825 53.7818 35.1362 54.111 35.1185C54.2808 35.1029 54.4682 35.103 54.6697 35.1031H54.6698H54.67H54.6702H54.6704H54.6706H54.6708C54.7855 35.1031 54.9049 35.1032 55.0281 35.1003C55.3887 35.0913 55.735 35.3925 56.057 35.8188C56.1015 35.8783 56.1595 35.999 56.1645 36.0916C56.1766 36.3179 55.9922 36.5341 55.7248 36.5485C55.5808 36.5562 55.4735 36.4794 55.4074 36.4004C55.1314 36.0645 55.0214 35.9363 54.9185 35.9418C54.8643 35.9447 54.783 35.9474 54.6863 35.9505C54.5444 35.9552 54.3692 35.9609 54.1979 35.9701C53.7556 35.9939 53.3074 36.1004 52.9584 36.3255C52.5093 36.6075 52.1385 37.1947 52.0544 37.55C52.0451 37.5926 52.0348 37.637 52.0242 37.6832L52.0241 37.6834C51.9591 37.9659 51.8787 38.3145 51.8996 38.7034C51.9145 38.9811 52.0532 39.6443 52.5156 40.1868C52.7693 40.493 53.1301 40.68 53.5184 40.8036C53.7177 40.8651 53.9051 40.8963 54.1005 40.8858C54.296 40.8754 54.4995 40.8232 54.7106 40.719L54.7948 40.6754C55.0991 40.518 55.4069 40.3589 55.6569 40.0905C55.725 40.0147 55.8332 39.916 55.9772 39.9083C56.1932 39.8967 56.3769 40.0519 56.3902 40.2988C56.3979 40.4428 56.3461 40.6313 56.239 40.7505C56.0621 40.9475 55.8661 41.0759 55.6745 41.2015C55.6447 41.221 55.615 41.2405 55.5855 41.2601L55.5756 41.2669C55.1737 41.5426 54.9329 41.7078 54.188 41.7477C53.54 41.7825 52.7992 41.6262 52.312 41.1984L52.2726 41.1644C51.9813 40.9125 51.6766 40.6491 51.4903 40.3037C51.1805 39.722 51.0084 39.2051 50.9797 38.6702C50.9649 38.3945 51.0076 38.1157 51.0548 37.8071L51.0718 37.6956C51.2112 36.8318 51.7124 36.1757 52.374 35.6244C52.6207 35.4151 52.9335 35.2849 53.2605 35.2261ZM60.0862 51.2626C60.014 51.1491 59.9263 51.0363 59.8496 50.9378C59.8185 50.8979 59.7892 50.8604 59.7636 50.826C59.6422 50.6778 59.5419 50.5387 59.3846 50.2996C59.2804 50.1431 59.167 49.9133 59.0435 49.6631C58.9941 49.563 58.9431 49.4597 58.8904 49.3564C58.5899 48.7535 58.399 48.4646 58.0619 48.1423C57.9675 47.9204 57.8374 47.8035 57.6317 47.8146C57.4259 47.8256 57.2468 47.9487 57.1789 48.2206C57.1242 48.4341 57.0927 48.6884 57.0588 48.9625C57.0345 49.1584 57.009 49.3644 56.9729 49.5727C56.8475 50.3119 56.7232 51.0716 56.6195 51.8303C56.5609 52.277 56.5429 52.7113 56.545 53.1341C56.5448 53.2332 56.5505 53.3319 56.5561 53.4299V53.4299V53.43V53.43C56.5715 53.6993 56.5866 53.9627 56.4789 54.2105C56.469 54.2335 56.4575 54.2565 56.4459 54.28C56.4037 54.3649 56.358 54.4569 56.3645 54.5777C56.3783 54.8349 56.6107 54.9359 56.8061 54.9254C57.2896 54.8995 57.4602 54.4261 57.437 53.9941C57.4345 53.8813 57.4333 53.7708 57.4321 53.6611V53.6609C57.4299 53.45 57.4276 53.242 57.416 53.0255C57.4001 52.7296 57.4411 52.4509 57.4864 52.1425C57.5056 52.0113 57.5257 51.8747 57.5425 51.7292C57.6279 51.0128 57.7321 50.2644 57.949 49.4997C58.0587 49.657 58.1856 49.9055 58.315 50.1588L58.315 50.1589C58.4229 50.37 58.5324 50.5845 58.6352 50.7524C58.739 50.9091 58.8418 51.046 58.9391 51.1755C59.0521 51.326 59.1577 51.4667 59.249 51.617C59.4512 51.926 59.614 52.268 59.8495 52.8124C59.9384 53.0232 60.0054 53.2279 60.0681 53.4196L60.1047 53.5312C60.1769 53.7233 60.3498 53.8688 60.5555 53.8578C60.7715 53.8462 60.8895 53.7367 60.9613 53.5368C61.0514 53.2947 61.1502 53.0212 61.2571 52.706C61.3539 52.4358 61.4486 52.1657 61.5403 51.9039L61.5406 51.9031L61.5406 51.903L61.5406 51.9029L61.5407 51.9028L61.5408 51.9025C61.7381 51.3396 61.9218 50.8155 62.0832 50.4127C62.1635 50.2145 62.2288 50.0027 62.2927 49.7957L62.2927 49.7956C62.3375 49.6503 62.3817 49.5073 62.4297 49.3728C62.4569 49.5772 62.4725 49.7743 62.4884 49.9741C62.5131 50.2848 62.5383 50.6018 62.6079 50.9623C62.6644 51.2481 62.7616 51.5214 62.8588 51.7948C63.0771 52.402 63.1242 52.8947 63.1391 53.1724C63.16 53.5633 63.176 53.8616 63.2174 54.0554C63.2887 54.423 63.5413 54.7086 63.8704 54.6909C64.1482 54.676 64.2628 54.5048 64.2528 54.3197C64.2483 54.2345 64.2205 54.1852 64.188 54.1273C64.1615 54.0803 64.1319 54.0277 64.109 53.9457C64.061 53.7438 64.0336 53.4572 64.0118 53.2298L64.0048 53.1569C63.9761 52.622 63.9524 52.1797 63.7319 51.5313L63.7124 51.4744C63.4506 50.7112 63.4503 50.7104 63.394 49.8472C63.377 49.6264 63.3627 49.408 63.3484 49.1896C63.3341 48.9711 63.3198 48.7526 63.3028 48.5317C63.2834 48.1716 63.1368 47.7462 62.6534 47.7722C62.4065 47.7854 62.2079 47.9302 62.041 48.2796L62.0245 48.3124C61.7667 48.8253 61.4578 49.4401 61.2237 50.1597C61.0364 50.7062 60.7853 51.4108 60.5207 52.0543C60.4705 51.963 60.4214 51.8693 60.3727 51.7764L60.3724 51.7757L60.3723 51.7756C60.2769 51.5935 60.1831 51.4144 60.0862 51.2626ZM68.3269 54.1119C68.0975 54.1292 67.8612 54.147 67.6275 54.1696C67.4223 54.193 67.2667 54.2154 67.1294 54.2351C66.9236 54.2647 66.759 54.2884 66.5307 54.3006C66.0267 54.3277 65.877 54.0365 65.8626 53.7691C65.8573 53.6698 65.8592 53.5269 65.8612 53.379V53.3789V53.3788C65.8634 53.2202 65.8656 53.056 65.8591 52.9337C65.8414 52.6045 65.8133 52.0799 65.8123 51.6776C65.6861 51.6328 65.5772 51.5251 65.5667 51.3297C65.5557 51.124 65.6519 50.995 65.7926 50.9256L65.7904 50.8844C65.7935 50.1724 65.7616 49.1941 65.7191 48.4021C65.7155 48.3347 65.7084 48.2754 65.7004 48.2086C65.6901 48.1223 65.6782 48.0235 65.6704 47.8785C65.6544 47.5802 65.8502 47.384 66.1177 47.3697C66.2859 47.3607 66.5171 47.3624 66.7752 47.3643C67.1011 47.3667 67.4698 47.3694 67.8085 47.3512C68.0657 47.3374 68.2915 47.315 68.7733 47.2582C68.7777 47.257 68.7827 47.2556 68.7883 47.2538C68.798 47.2507 68.8095 47.2468 68.8224 47.2424L68.8225 47.2424C68.8879 47.2201 68.9919 47.1846 69.1094 47.1783C69.2843 47.1689 69.5653 47.2157 69.5841 47.5654C69.6017 47.8946 69.3214 48.0541 69.0237 48.0804C68.8269 48.0954 68.6732 48.1121 68.5258 48.128L68.5257 48.128L68.5256 48.128C68.3346 48.1487 68.1543 48.1683 67.9047 48.1816C67.7622 48.1893 67.6117 48.2015 67.4571 48.214L67.457 48.214C67.1873 48.2358 66.9049 48.2587 66.6297 48.2604C66.6376 48.4876 66.6513 48.7574 66.6679 49.0827L66.6679 49.083C66.6912 49.5389 66.72 50.1036 66.746 50.8125C66.8865 50.805 66.9903 50.7986 67.0795 50.7931L67.08 50.793H67.0801C67.304 50.7792 67.4361 50.7711 67.8266 50.7649C68.1357 50.7586 68.3979 50.8374 68.415 51.1563C68.431 51.4546 68.2005 51.5804 67.7478 51.6047C67.6643 51.6092 67.5991 51.61 67.535 51.6109H67.5349C67.4728 51.6116 67.4117 51.6124 67.3358 51.6165C67.1813 51.6157 67.0276 51.6309 66.8317 51.6502L66.8316 51.6502L66.7501 51.6582C66.75 51.7113 66.7498 51.7651 66.7497 51.8193L66.7496 51.8212V51.8214C66.7485 52.1565 66.7472 52.5123 66.7843 52.8737C66.7973 52.992 66.7978 53.1152 66.7982 53.2209C66.7985 53.2802 66.7987 53.334 66.8011 53.3783C66.9419 53.366 67.0483 53.3556 67.1547 53.3452C67.2811 53.3328 67.4075 53.3204 67.5915 53.305C67.7481 53.29 67.917 53.2723 68.0879 53.2544H68.0879L68.088 53.2544C68.4546 53.216 68.8299 53.1766 69.1106 53.1616C69.3266 53.15 69.6185 53.2065 69.6367 53.546C69.656 53.906 69.3221 54.0271 69.0243 54.0534C68.8075 54.0756 68.5713 54.0935 68.3272 54.1119L68.3269 54.1119Z" clip-rule="evenodd" fill-rule="evenodd"></path>
</svg>
