<svg id="Layer_1" data-name="Layer 1" xmlns="http://www.w3.org/2000/svg" viewBox="0 0 246.48 213.05"><path d="M140.83,164.41c0,11.06.08,22.2,0,33.33a58.66,58.66,0,0,1-1.11,10.4c-.29,1.52-1.6,2.84-2.84,4.91C126.73,198.67,117,185.38,108,171.56c-3.59-5.49-7.38-7.51-14-7.38-24.49.47-49,.2-73.5.18-13,0-20.34-6.87-20.39-19.86Q-.1,82.25.14,20C.19,6.69,7.42,0,20.88,0H225.37c14.14,0,21.08,7,21.1,21.23q.06,61,0,122c0,14.19-7.07,21.15-21.16,21.15H140.83ZM136,204.56l1.56-.4V160a18.89,18.89,0,0,1,2.37-.39c29.33.1,58.65.29,88,.27,9.57,0,14.78-5.48,14.79-14.91V19.47C242.71,10.23,236.8,4,227.6,4Q123.35,3.87,19.1,4C9.89,4,3.83,10.23,3.82,19.35v126a15.21,15.21,0,0,0,.84,5.35c2.6,6.84,6.39,9.21,14.83,9.23q40.25,0,80.5.12c2.37,0,5.76.76,6.93,2.41,9.53,13.41,18.64,27.12,27.88,40.73A15.57,15.57,0,0,0,136,204.56Z" transform="translate(-0.02 0)"/><path d="M18.75,20.36V35.85h-2V20.36Z" transform="translate(-0.02 0)"/><path d="M25,21.53v3.2h2.9v1.54H25v6c0,1.38.39,2.16,1.52,2.16a4.39,4.39,0,0,0,1.17-.14l.09,1.52a5,5,0,0,1-1.79.27,2.77,2.77,0,0,1-2.18-.85A4.07,4.07,0,0,1,23,32.34V26.27H21.28V24.73H23V22.06Z" transform="translate(-0.02 0)"/><path d="M35,19.53h2V35.85H35Z" transform="translate(-0.02 0)"/><path d="M50.53,30.2c0,4.11-2.85,5.91-5.54,5.91-3,0-5.33-2.21-5.33-5.73,0-3.72,2.43-5.91,5.51-5.91S50.53,26.79,50.53,30.2Zm-8.83.11c0,2.44,1.4,4.28,3.38,4.28s3.38-1.82,3.38-4.32c0-1.89-.94-4.28-3.33-4.28S41.7,28.2,41.7,30.31Z" transform="translate(-0.02 0)"/><path d="M63.16,30.2c0,4.11-2.85,5.91-5.54,5.91-3,0-5.34-2.21-5.34-5.73,0-3.72,2.44-5.91,5.52-5.91S63.16,26.79,63.16,30.2Zm-8.83.11c0,2.44,1.4,4.28,3.38,4.28s3.38-1.82,3.38-4.32c0-1.89-.94-4.28-3.34-4.28S54.33,28.2,54.33,30.31Z" transform="translate(-0.02 0)"/><path d="M67.71,29.83h.05c.28-.39.67-.87,1-1.26L72,24.73h2.44l-4.3,4.57,4.9,6.55H72.59l-3.84-5.33-1,1.15v4.18h-2V19.53h2Z" transform="translate(-0.02 0)"/><path d="M76.22,33.79a5.33,5.33,0,0,0,2.67.8c1.47,0,2.16-.74,2.16-1.66s-.57-1.49-2.07-2C77,30.17,76,29.07,76,27.74c0-1.8,1.45-3.27,3.84-3.27a5.54,5.54,0,0,1,2.74.69l-.51,1.47A4.4,4.4,0,0,0,79.83,26c-1.19,0-1.86.69-1.86,1.52s.67,1.33,2.12,1.88C82,30.13,83,31.09,83,32.75c0,2-1.52,3.33-4.16,3.33a6.35,6.35,0,0,1-3.13-.75Z" transform="translate(-0.02 0)"/><path d="M90.48,19.53h2V35.85h-2Z" transform="translate(-0.02 0)"/><path d="M98.17,21.6a1.26,1.26,0,0,1-2.51,0,1.23,1.23,0,0,1,1.26-1.27A1.21,1.21,0,0,1,98.17,21.6ZM95.91,35.85V24.73h2V35.85Z" transform="translate(-0.02 0)"/><path d="M103.29,29.83h0c.28-.39.67-.87,1-1.26l3.26-3.84H110l-4.3,4.57,4.9,6.55h-2.46l-3.84-5.33-1,1.15v4.18h-2V19.53h2Z" transform="translate(-0.02 0)"/><path d="M113.21,30.66A3.56,3.56,0,0,0,117,34.52a7.4,7.4,0,0,0,3.09-.57l.34,1.44a8.86,8.86,0,0,1-3.7.69c-3.43,0-5.47-2.25-5.47-5.61s2-6,5.22-6c3.63,0,4.59,3.2,4.59,5.25a8.82,8.82,0,0,1-.06.94Zm5.93-1.45c0-1.29-.53-3.29-2.81-3.29-2,0-2.94,1.89-3.1,3.29Z" transform="translate(-0.02 0)"/><path d="M129.21,24.73l2.44,6.57c.26.74.53,1.61.72,2.28h0c.21-.67.44-1.52.71-2.32l2.21-6.53h2.14l-3,7.93c-1.45,3.82-2.44,5.77-3.82,7a5.6,5.6,0,0,1-2.49,1.31l-.5-1.7a5.73,5.73,0,0,0,1.77-1A6.17,6.17,0,0,0,131.1,36a1.47,1.47,0,0,0,.16-.48,1.52,1.52,0,0,0-.14-.53L127,24.73Z" transform="translate(-0.02 0)"/><path d="M149.15,30.2c0,4.11-2.85,5.91-5.54,5.91-3,0-5.33-2.21-5.33-5.73,0-3.72,2.43-5.91,5.52-5.91S149.15,26.79,149.15,30.2Zm-8.83.11c0,2.44,1.41,4.28,3.38,4.28s3.38-1.82,3.38-4.32c0-1.89-.94-4.28-3.33-4.28S140.32,28.2,140.32,30.31Z" transform="translate(-0.02 0)"/><path d="M161,32.82c0,1.15,0,2.16.09,3h-1.79L159.21,34h-.05a4.2,4.2,0,0,1-3.68,2.07c-1.75,0-3.84-1-3.84-4.88v-6.5h2v6.16c0,2.11.65,3.54,2.49,3.54a2.91,2.91,0,0,0,2.66-1.84,2.87,2.87,0,0,0,.19-1V24.73h2Z" transform="translate(-0.02 0)"/><path d="M175.42,35.85l-.16-1.4h-.07a4.13,4.13,0,0,1-3.4,1.66,3.18,3.18,0,0,1-3.41-3.2c0-2.69,2.4-4.16,6.7-4.14v-.23A2.29,2.29,0,0,0,172.55,26a5.58,5.58,0,0,0-2.9.82l-.46-1.33a6.87,6.87,0,0,1,3.65-1c3.41,0,4.24,2.32,4.24,4.56v4.16a15.38,15.38,0,0,0,.18,2.66Zm-.3-5.68c-2.21,0-4.71.35-4.71,2.51a1.79,1.79,0,0,0,1.91,1.93A2.79,2.79,0,0,0,175,32.75a2.1,2.1,0,0,0,.11-.64Z" transform="translate(-0.02 0)"/><path d="M180.34,28.2c0-1.31,0-2.44-.09-3.47H182l.07,2.18h.09a3.34,3.34,0,0,1,3.08-2.44,2.49,2.49,0,0,1,.58.07v1.91a2.78,2.78,0,0,0-3.4,2.53,5.31,5.31,0,0,0-.1.94v5.93h-2Z" transform="translate(-0.02 0)"/><path d="M188.76,30.66a3.57,3.57,0,0,0,3.82,3.86,7.35,7.35,0,0,0,3.08-.57l.34,1.44a8.86,8.86,0,0,1-3.7.69c-3.42,0-5.47-2.25-5.47-5.61s2-6,5.22-6c3.63,0,4.6,3.2,4.6,5.25a8.31,8.31,0,0,1-.07.94Zm5.93-1.45c0-1.29-.52-3.29-2.8-3.29-2,0-2.94,1.89-3.11,3.29Z" transform="translate(-0.02 0)"/><path d="M16.59,63.45c0-.75.09-1.88.09-2.87V47.13h2v7h.05a4.15,4.15,0,0,1,3.79-2c2.76,0,4.71,2.3,4.69,5.68,0,4-2.51,6-5,6a4,4,0,0,1-3.72-2.09h-.07l-.1,1.83ZM18.68,59a4.28,4.28,0,0,0,.09.74,3.12,3.12,0,0,0,3,2.37c2.11,0,3.38-1.73,3.38-4.28,0-2.23-1.15-4.14-3.31-4.14a3.24,3.24,0,0,0-3.09,2.49,4.41,4.41,0,0,0-.11.82Z" transform="translate(-0.02 0)"/><path d="M35.93,63.45l-.16-1.4H35.7a4.14,4.14,0,0,1-3.41,1.66,3.17,3.17,0,0,1-3.4-3.2c0-2.69,2.39-4.16,6.69-4.14v-.23a2.29,2.29,0,0,0-2.53-2.57,5.58,5.58,0,0,0-2.89.82l-.46-1.33a6.87,6.87,0,0,1,3.65-1c3.41,0,4.23,2.32,4.23,4.56v4.16a15.31,15.31,0,0,0,.19,2.66Zm-.3-5.67c-2.21-.05-4.71.34-4.71,2.5a1.79,1.79,0,0,0,1.9,1.93,2.77,2.77,0,0,0,2.69-1.86,2.12,2.12,0,0,0,.12-.64Z" transform="translate(-0.02 0)"/><path d="M40.58,61.39a5.26,5.26,0,0,0,2.66.8c1.47,0,2.16-.74,2.16-1.66s-.57-1.49-2.07-2c-2-.71-2.94-1.82-2.94-3.15,0-1.8,1.45-3.27,3.84-3.27a5.54,5.54,0,0,1,2.74.69l-.51,1.47a4.39,4.39,0,0,0-2.27-.64c-1.2,0-1.87.69-1.87,1.52S43,56.44,44.44,57c1.93.74,2.92,1.71,2.92,3.36,0,1.95-1.52,3.33-4.16,3.33a6.35,6.35,0,0,1-3.13-.75Z" transform="translate(-0.02 0)"/><path d="M50,47.13h2v6.94H52a3.74,3.74,0,0,1,1.45-1.42,4.12,4.12,0,0,1,2.07-.58c1.49,0,3.88.92,3.88,4.76v6.62h-2V57.06c0-1.79-.67-3.31-2.58-3.31a2.91,2.91,0,0,0-2.71,2,2.58,2.58,0,0,0-.14,1v6.71H50Z" transform="translate(-0.02 0)"/><path d="M65,49.2a1.26,1.26,0,0,1-2.51,0,1.24,1.24,0,0,1,1.27-1.27A1.21,1.21,0,0,1,65,49.2ZM62.72,63.45V52.33h2V63.45Z" transform="translate(-0.02 0)"/><path d="M68.11,55.34c0-1.15,0-2.1-.1-3h1.8l.11,1.83h0a4.1,4.1,0,0,1,3.68-2.09c1.54,0,3.93.92,3.93,4.74v6.64h-2V57c0-1.79-.67-3.29-2.58-3.29a2.87,2.87,0,0,0-2.71,2.07,2.7,2.7,0,0,0-.14.94v6.69h-2Z" transform="translate(-0.02 0)"/><path d="M90.46,52.33c0,.8-.09,1.7-.09,3.05v6.46c0,2.56-.51,4.12-1.59,5.09a5.9,5.9,0,0,1-4,1.33,7.17,7.17,0,0,1-3.7-.92l.51-1.54a6.24,6.24,0,0,0,3.26.87c2.07,0,3.59-1.08,3.59-3.88V61.55h0a4,4,0,0,1-3.54,1.86c-2.76,0-4.73-2.35-4.73-5.43,0-3.77,2.46-5.91,5-5.91A3.7,3.7,0,0,1,88.55,54h0l.09-1.67Zm-2.09,4.39a3,3,0,0,0-3-3.06c-1.93,0-3.31,1.63-3.31,4.21,0,2.18,1.11,4,3.29,4a3,3,0,0,0,2.81-2.07,3.72,3.72,0,0,0,.16-1.08Z" transform="translate(-0.02 0)"/><path d="M98.81,63.45V53.87H97.25V52.33h1.56V51.8a5.22,5.22,0,0,1,1.29-3.89,3.85,3.85,0,0,1,2.71-1,4.8,4.8,0,0,1,1.73.32l-.28,1.56a3,3,0,0,0-1.29-.25c-1.72,0-2.16,1.52-2.16,3.22v.6h2.69v1.54h-2.69v9.58Z" transform="translate(-0.02 0)"/><path d="M114.63,60.42c0,1.15,0,2.16.09,3h-1.79l-.12-1.81h0a4.2,4.2,0,0,1-3.68,2.07c-1.75,0-3.84-1-3.84-4.88v-6.5h2v6.16c0,2.11.65,3.54,2.49,3.54a2.91,2.91,0,0,0,2.66-1.84,2.87,2.87,0,0,0,.19-1V52.33h2Z" transform="translate(-0.02 0)"/><path d="M118,55.8c0-1.31,0-2.44-.09-3.47h1.77l.07,2.18h.09a3.34,3.34,0,0,1,3.08-2.44,2.56,2.56,0,0,1,.58.07v1.91a2.87,2.87,0,0,0-.69-.07,2.84,2.84,0,0,0-2.72,2.6,6.52,6.52,0,0,0-.09.94v5.93h-2Z" transform="translate(-0.02 0)"/><path d="M127.86,49.2a1.26,1.26,0,0,1-2.51,0,1.24,1.24,0,0,1,1.27-1.27A1.2,1.2,0,0,1,127.86,49.2ZM125.6,63.45V52.33h2V63.45Z" transform="translate(-0.02 0)"/><path d="M141.06,57.8c0,4.11-2.85,5.91-5.54,5.91-3,0-5.34-2.21-5.34-5.73,0-3.72,2.44-5.91,5.52-5.91S141.06,54.39,141.06,57.8Zm-8.83.11c0,2.44,1.4,4.28,3.38,4.28S139,60.37,139,57.87c0-1.89-.94-4.28-3.34-4.28S132.23,55.8,132.23,57.91Z" transform="translate(-0.02 0)"/><path d="M152.93,60.42c0,1.15,0,2.16.09,3h-1.8l-.11-1.81h-.05a4.19,4.19,0,0,1-3.68,2.07c-1.74,0-3.84-1-3.84-4.88v-6.5h2v6.16c0,2.11.64,3.54,2.48,3.54a2.92,2.92,0,0,0,2.67-1.84,3.1,3.1,0,0,0,.18-1V52.33h2Z" transform="translate(-0.02 0)"/><path d="M156,61.39a5.33,5.33,0,0,0,2.67.8c1.47,0,2.16-.74,2.16-1.66s-.58-1.49-2.07-2c-2-.71-2.94-1.82-2.94-3.15,0-1.8,1.44-3.27,3.84-3.27a5.52,5.52,0,0,1,2.73.69l-.5,1.47a4.4,4.4,0,0,0-2.28-.64c-1.2,0-1.86.69-1.86,1.52s.66,1.33,2.11,1.88c1.93.74,2.92,1.71,2.92,3.36,0,1.95-1.51,3.33-4.16,3.33a6.38,6.38,0,0,1-3.13-.75Z" transform="translate(-0.02 0)"/><path d="M165.39,47.13h2V63.45h-2Z" transform="translate(-0.02 0)"/><path d="M171.56,52.33,174,58.9c.26.74.53,1.61.72,2.28h0c.21-.67.44-1.52.72-2.32l2.2-6.53h2.14l-3,7.93c-1.45,3.82-2.44,5.77-3.82,7a5.63,5.63,0,0,1-2.48,1.31l-.51-1.7a5.62,5.62,0,0,0,1.77-1,6.17,6.17,0,0,0,1.7-2.26,1.47,1.47,0,0,0,.16-.48,1.7,1.7,0,0,0-.13-.53l-4.12-10.25Z" transform="translate(-0.02 0)"/><path d="M196.6,57.8c0,4.11-2.85,5.91-5.54,5.91-3,0-5.33-2.21-5.33-5.73,0-3.72,2.43-5.91,5.51-5.91S196.6,54.39,196.6,57.8Zm-8.83.11c0,2.44,1.4,4.28,3.38,4.28s3.38-1.82,3.38-4.32c0-1.89-.94-4.28-3.33-4.28S187.77,55.8,187.77,57.91Z" transform="translate(-0.02 0)"/><path d="M199.16,55.34c0-1.15,0-2.1-.09-3h1.79l.11,1.83H201a4.1,4.1,0,0,1,3.68-2.09c1.54,0,3.93.92,3.93,4.74v6.64h-2V57c0-1.79-.67-3.29-2.58-3.29a2.87,2.87,0,0,0-2.71,2.07,3,3,0,0,0-.14.94v6.69h-2Z" transform="translate(-0.02 0)"/><path d="M17.41,79.93l2.44,6.57c.25.74.53,1.61.71,2.28h.05c.21-.67.44-1.52.71-2.32l2.21-6.53h2.14l-3,7.93c-1.44,3.82-2.43,5.77-3.81,7a5.6,5.6,0,0,1-2.49,1.31l-.5-1.7a5.73,5.73,0,0,0,1.77-1,6.17,6.17,0,0,0,1.7-2.26,1.47,1.47,0,0,0,.16-.48,1.52,1.52,0,0,0-.14-.53L15.21,79.93Z" transform="translate(-0.02 0)"/><path d="M37.35,85.4c0,4.11-2.85,5.91-5.54,5.91-3,0-5.33-2.21-5.33-5.73,0-3.72,2.43-5.91,5.52-5.91S37.35,82,37.35,85.4Zm-8.83.11c0,2.44,1.41,4.28,3.38,4.28s3.38-1.82,3.38-4.32c0-1.89-.94-4.28-3.33-4.28S28.52,83.4,28.52,85.51Z" transform="translate(-0.02 0)"/><path d="M49.22,88c0,1.15,0,2.16.09,3H47.52l-.12-1.81h0a4.2,4.2,0,0,1-3.68,2.07c-1.75,0-3.84-1-3.84-4.88v-6.5h2v6.16c0,2.11.65,3.54,2.49,3.54A2.91,2.91,0,0,0,47,87.79a2.87,2.87,0,0,0,.19-1V79.93h2Z" transform="translate(-0.02 0)"/><path d="M52.58,83.4c0-1.31,0-2.44-.09-3.47h1.77l.07,2.18h.09a3.34,3.34,0,0,1,3.08-2.44,2.56,2.56,0,0,1,.58.07v1.91a2.87,2.87,0,0,0-.69-.07,2.84,2.84,0,0,0-2.72,2.6,6.52,6.52,0,0,0-.09.94v5.93h-2Z" transform="translate(-0.02 0)"/><path d="M67,85h0c.28-.39.67-.87,1-1.26l3.27-3.84h2.44l-4.3,4.57,4.89,6.55H71.85L68,85.72l-1,1.15v4.18H65V74.73h2Z" transform="translate(-0.02 0)"/><path d="M76.89,85.86a3.57,3.57,0,0,0,3.82,3.86,7.35,7.35,0,0,0,3.08-.57l.35,1.44a9,9,0,0,1-3.71.69C77,91.28,75,89,75,85.67s2-6,5.22-6c3.63,0,4.6,3.2,4.6,5.25a8.31,8.31,0,0,1-.07.94Zm5.93-1.45c0-1.29-.52-3.29-2.8-3.29-2,0-2.94,1.89-3.1,3.29Z" transform="translate(-0.02 0)"/><path d="M88,79.93l2.44,6.57c.25.74.53,1.61.71,2.28h0c.21-.67.44-1.52.71-2.32l2.21-6.53h2.14l-3,7.93c-1.45,3.82-2.43,5.77-3.81,7a5.6,5.6,0,0,1-2.49,1.31l-.5-1.7a5.73,5.73,0,0,0,1.77-1,6.17,6.17,0,0,0,1.7-2.26,1.47,1.47,0,0,0,.16-.48,1.8,1.8,0,0,0-.14-.53L85.82,79.93Z" transform="translate(-0.02 0)"/><path d="M98,91.05c0-.75.09-1.88.09-2.87V74.73h2v7h0a4.15,4.15,0,0,1,3.79-2c2.76,0,4.72,2.3,4.69,5.68,0,4-2.5,6-5,6a4,4,0,0,1-3.72-2.09h-.07l-.09,1.83Zm2.09-4.46a4.28,4.28,0,0,0,.09.74,3.13,3.13,0,0,0,3,2.37c2.11,0,3.38-1.73,3.38-4.28,0-2.23-1.15-4.14-3.31-4.14a3.22,3.22,0,0,0-3.08,2.49,3.65,3.65,0,0,0-.12.82Z" transform="translate(-0.02 0)"/><path d="M121.28,85.4c0,4.11-2.85,5.91-5.54,5.91-3,0-5.34-2.21-5.34-5.73,0-3.72,2.44-5.91,5.52-5.91S121.28,82,121.28,85.4Zm-8.83.11c0,2.44,1.4,4.28,3.38,4.28s3.38-1.82,3.38-4.32c0-1.89-.94-4.28-3.33-4.28S112.45,83.4,112.45,85.51Z" transform="translate(-0.02 0)"/><path d="M130,91.05l-.16-1.4h-.07a4.14,4.14,0,0,1-3.41,1.66,3.17,3.17,0,0,1-3.4-3.2c0-2.69,2.39-4.16,6.69-4.14v-.23a2.29,2.29,0,0,0-2.53-2.57,5.58,5.58,0,0,0-2.89.82l-.46-1.33a6.87,6.87,0,0,1,3.65-1c3.41,0,4.23,2.32,4.23,4.56v4.16a15.31,15.31,0,0,0,.19,2.66Zm-.3-5.67c-2.21,0-4.72.34-4.72,2.5a1.79,1.79,0,0,0,1.91,1.93A2.77,2.77,0,0,0,129.58,88a2.12,2.12,0,0,0,.12-.64Z" transform="translate(-0.02 0)"/><path d="M134.92,83.4c0-1.31,0-2.44-.09-3.47h1.77l.07,2.18h.09a3.34,3.34,0,0,1,3.08-2.44,2.56,2.56,0,0,1,.58.07v1.91a2.87,2.87,0,0,0-.69-.07,2.84,2.84,0,0,0-2.72,2.6,6.52,6.52,0,0,0-.09.94v5.93h-2Z" transform="translate(-0.02 0)"/><path d="M151.82,74.73V88.18c0,1,0,2.12.1,2.87H150.1L150,89.12h0a4.12,4.12,0,0,1-3.79,2.19c-2.69,0-4.76-2.28-4.76-5.66,0-3.7,2.27-6,5-6a3.72,3.72,0,0,1,3.35,1.7h.05V74.73Zm-2,9.73a3.59,3.59,0,0,0-.09-.86,3,3,0,0,0-2.92-2.34c-2.1,0-3.34,1.84-3.34,4.3,0,2.25,1.11,4.11,3.29,4.11a3,3,0,0,0,3-2.41,3.47,3.47,0,0,0,.09-.87Z" transform="translate(-0.02 0)"/><path d="M154.47,89.86a1.37,1.37,0,1,1,1.36,1.45A1.36,1.36,0,0,1,154.47,89.86Z" transform="translate(-0.02 0)"/><path d="M164.66,75.76a29.25,29.25,0,0,1,4.25-.32c2.88,0,4.92.67,6.28,1.93a7.15,7.15,0,0,1,2.19,5.57,8.18,8.18,0,0,1-2.24,6c-1.44,1.45-3.84,2.23-6.85,2.23a33.62,33.62,0,0,1-3.63-.18Zm2,13.71a12.94,12.94,0,0,0,2,.11c4.28,0,6.6-2.39,6.6-6.57,0-3.66-2-6-6.28-6a11,11,0,0,0-2.34.21Z" transform="translate(-0.02 0)"/><path d="M190.07,85.4c0,4.11-2.85,5.91-5.54,5.91-3,0-5.34-2.21-5.34-5.73,0-3.72,2.44-5.91,5.52-5.91S190.07,82,190.07,85.4Zm-8.83.11c0,2.44,1.4,4.28,3.38,4.28S188,88,188,85.47c0-1.89-.94-4.28-3.33-4.28S181.24,83.4,181.24,85.51Z" transform="translate(-0.02 0)"/><path d="M17.41,107.53l2.44,6.57c.25.74.53,1.61.71,2.28h.05c.21-.67.44-1.52.71-2.32l2.21-6.53h2.14l-3,7.93c-1.44,3.82-2.43,5.77-3.81,7a5.6,5.6,0,0,1-2.49,1.31l-.5-1.71a5.48,5.48,0,0,0,1.77-1,6.17,6.17,0,0,0,1.7-2.26,1.47,1.47,0,0,0,.16-.48,1.52,1.52,0,0,0-.14-.53l-4.11-10.25Z" transform="translate(-0.02 0)"/><path d="M37.35,113c0,4.11-2.85,5.91-5.54,5.91-3,0-5.33-2.21-5.33-5.73,0-3.72,2.43-5.91,5.52-5.91S37.35,109.59,37.35,113Zm-8.83.11c0,2.44,1.41,4.28,3.38,4.28s3.38-1.82,3.38-4.32c0-1.89-.94-4.28-3.33-4.28S28.52,111,28.52,113.11Z" transform="translate(-0.02 0)"/><path d="M49.22,115.62c0,1.15,0,2.16.09,3H47.52l-.12-1.81h0a4.2,4.2,0,0,1-3.68,2.07c-1.75,0-3.84-1-3.84-4.88v-6.5h2v6.16c0,2.11.65,3.54,2.49,3.54A2.91,2.91,0,0,0,47,115.39a2.87,2.87,0,0,0,.19-1v-6.82h2Z" transform="translate(-0.02 0)"/><path d="M58.26,107.53l1.47,5.65c.33,1.24.62,2.39.83,3.54h.07c.25-1.12.62-2.32,1-3.52l1.82-5.67h1.7l1.72,5.56c.42,1.33.74,2.51,1,3.63h.07a32.38,32.38,0,0,1,.85-3.61l1.59-5.58h2l-3.59,11.12H66.93l-1.7-5.31c-.39-1.24-.71-2.34-1-3.65h0a32.35,32.35,0,0,1-1,3.68l-1.79,5.28H59.55l-3.36-11.12Z" transform="translate(-0.02 0)"/><path d="M80.46,118.65l-.17-1.4h-.06a4.14,4.14,0,0,1-3.41,1.66,3.17,3.17,0,0,1-3.4-3.2c0-2.69,2.39-4.16,6.69-4.14v-.23a2.29,2.29,0,0,0-2.53-2.57,5.64,5.64,0,0,0-2.9.82l-.46-1.33a6.91,6.91,0,0,1,3.66-1c3.4,0,4.23,2.32,4.23,4.56V116a15.31,15.31,0,0,0,.19,2.66Zm-.3-5.68c-2.21,0-4.72.35-4.72,2.51a1.79,1.79,0,0,0,1.91,1.93A2.77,2.77,0,0,0,80,115.55a2.12,2.12,0,0,0,.12-.64Z" transform="translate(-0.02 0)"/><path d="M85.38,110.54c0-1.15,0-2.1-.09-3h1.79l.12,1.83h0a4.1,4.1,0,0,1,3.68-2.09c1.54,0,3.93.92,3.93,4.74v6.64h-2v-6.41c0-1.79-.67-3.29-2.58-3.29A2.88,2.88,0,0,0,87.54,111a3,3,0,0,0-.14.94v6.69h-2Z" transform="translate(-0.02 0)"/><path d="M100.49,104.33v3.2h2.9v1.54h-2.9v6c0,1.38.39,2.16,1.52,2.16a4.39,4.39,0,0,0,1.17-.14l.09,1.52a5,5,0,0,1-1.79.27,2.8,2.8,0,0,1-2.19-.85,4.12,4.12,0,0,1-.78-2.89v-6.07H96.79v-1.54h1.72v-2.67Z" transform="translate(-0.02 0)"/><path d="M110.54,110.54c0-1.15,0-2.1-.09-3h1.77l.09,1.79h.07a3.84,3.84,0,0,1,3.5-2A3.3,3.3,0,0,1,119,109.5h0a4.72,4.72,0,0,1,1.24-1.45,3.85,3.85,0,0,1,2.46-.78c1.48,0,3.66,1,3.66,4.83v6.55h-2v-6.3c0-2.13-.78-3.42-2.41-3.42a2.61,2.61,0,0,0-2.39,1.84,3.34,3.34,0,0,0-.16,1v6.87h-2V112c0-1.77-.78-3.06-2.32-3.06a2.76,2.76,0,0,0-2.51,2,2.67,2.67,0,0,0-.16,1v6.71h-2Z" transform="translate(-0.02 0)"/><path d="M130.85,113.46a3.57,3.57,0,0,0,3.82,3.86,7.35,7.35,0,0,0,3.08-.57l.34,1.44a8.86,8.86,0,0,1-3.7.69c-3.43,0-5.47-2.25-5.47-5.61s2-6,5.22-6c3.63,0,4.6,3.2,4.6,5.24a8.33,8.33,0,0,1-.07.95Zm5.93-1.45c0-1.29-.53-3.29-2.8-3.29-2,0-2.95,1.89-3.11,3.29Z" transform="translate(-0.02 0)"/><path d="M148.56,104.33v3.2h2.9v1.54h-2.9v6c0,1.38.39,2.16,1.52,2.16a4.39,4.39,0,0,0,1.17-.14l.09,1.52a5,5,0,0,1-1.79.27,2.79,2.79,0,0,1-2.19-.85,4.12,4.12,0,0,1-.78-2.89v-6.07h-1.72v-1.54h1.72v-2.67Z" transform="translate(-0.02 0)"/><path d="M163.67,113c0,4.11-2.85,5.91-5.54,5.91-3,0-5.34-2.21-5.34-5.73,0-3.72,2.44-5.91,5.52-5.91S163.67,109.59,163.67,113Zm-8.83.11c0,2.44,1.4,4.28,3.38,4.28s3.38-1.82,3.38-4.32c0-1.89-.94-4.28-3.34-4.28S154.84,111,154.84,113.11Z" transform="translate(-0.02 0)"/><path d="M17.81,141.06a3.56,3.56,0,0,0,3.81,3.86,7.35,7.35,0,0,0,3.08-.57l.35,1.45a9.06,9.06,0,0,1-3.7.68c-3.43,0-5.48-2.25-5.48-5.61s2-6,5.22-6c3.64,0,4.6,3.2,4.6,5.25a6.46,6.46,0,0,1-.07.94Zm5.93-1.45c0-1.29-.53-3.29-2.81-3.29-2,0-2.94,1.89-3.1,3.29Z" transform="translate(-0.02 0)"/><path d="M28.2,138.14c0-1.15,0-2.09-.09-3H29.9L30,137h0a4.1,4.1,0,0,1,3.68-2.1c1.54,0,3.94.92,3.94,4.74v6.65h-2v-6.42c0-1.79-.66-3.29-2.57-3.29a2.88,2.88,0,0,0-2.72,2.07,3,3,0,0,0-.13.94v6.7h-2Z" transform="translate(-0.02 0)"/><path d="M47.13,146.26,47,144.85H46.9a4.13,4.13,0,0,1-3.4,1.66,3.18,3.18,0,0,1-3.41-3.2c0-2.69,2.39-4.16,6.69-4.14v-.23a2.29,2.29,0,0,0-2.53-2.57,5.49,5.49,0,0,0-2.89.83l-.46-1.34a6.87,6.87,0,0,1,3.65-1c3.41,0,4.23,2.33,4.23,4.56v4.16a15.51,15.51,0,0,0,.19,2.67Zm-.3-5.68c-2.21-.05-4.71.34-4.71,2.5A1.79,1.79,0,0,0,44,145a2.77,2.77,0,0,0,2.69-1.86,2.12,2.12,0,0,0,.12-.64Z" transform="translate(-0.02 0)"/><path d="M52,146.26c0-.76.09-1.89.09-2.88V129.93h2v7h.05a4.15,4.15,0,0,1,3.79-2c2.76,0,4.72,2.3,4.69,5.68,0,4-2.5,6-5,6a4,4,0,0,1-3.72-2.09H53.8l-.09,1.84Zm2.09-4.47a4.28,4.28,0,0,0,.09.74,3.14,3.14,0,0,0,3,2.37c2.12,0,3.38-1.73,3.38-4.28,0-2.23-1.15-4.14-3.31-4.14A3.22,3.22,0,0,0,54.17,139a3.65,3.65,0,0,0-.12.82Z" transform="translate(-0.02 0)"/><path d="M65.14,129.93h2v16.33h-2Z" transform="translate(-0.02 0)"/><path d="M71.69,141.06a3.57,3.57,0,0,0,3.82,3.86,7.35,7.35,0,0,0,3.08-.57l.35,1.45a9.16,9.16,0,0,1-3.71.68c-3.42,0-5.47-2.25-5.47-5.61s2-6,5.22-6c3.63,0,4.6,3.2,4.6,5.25a8.31,8.31,0,0,1-.07.94Zm5.94-1.45c0-1.29-.53-3.29-2.81-3.29-2,0-2.94,1.89-3.1,3.29Z" transform="translate(-0.02 0)"/><path d="M94.9,145.84a7.41,7.41,0,0,1-3.2.64c-3.36,0-5.54-2.27-5.54-5.68a5.65,5.65,0,0,1,6-5.9,6.7,6.7,0,0,1,2.8.57L94.48,137a4.75,4.75,0,0,0-2.34-.52c-2.55,0-3.93,1.88-3.93,4.2,0,2.58,1.65,4.17,3.86,4.17a5.6,5.6,0,0,0,2.48-.56Z" transform="translate(-0.02 0)"/><path d="M103.43,146.26l-.16-1.41h-.07a4.12,4.12,0,0,1-3.4,1.66,3.17,3.17,0,0,1-3.4-3.2c0-2.69,2.39-4.16,6.69-4.14v-.23a2.29,2.29,0,0,0-2.53-2.57,5.5,5.5,0,0,0-2.9.83l-.46-1.34a6.88,6.88,0,0,1,3.66-1c3.4,0,4.23,2.33,4.23,4.56v4.16a15.57,15.57,0,0,0,.18,2.67Zm-.3-5.68c-2.2-.05-4.71.34-4.71,2.5a1.79,1.79,0,0,0,1.91,1.93,2.77,2.77,0,0,0,2.69-1.86,2.1,2.1,0,0,0,.11-.64Z" transform="translate(-0.02 0)"/><path d="M108.36,138.76c0-1.43,0-2.58-.1-3.63h1.82l.09,1.9h0a4.39,4.39,0,0,1,4-2.16c2.69,0,4.72,2.28,4.72,5.66,0,4-2.44,6-5.06,6a3.93,3.93,0,0,1-3.43-1.75h0v6.05h-2Zm2,3a4.22,4.22,0,0,0,.09.83,3.11,3.11,0,0,0,3,2.37c2.14,0,3.38-1.75,3.38-4.3,0-2.23-1.17-4.14-3.31-4.14a3.47,3.47,0,0,0-3.19,3.34Z" transform="translate(-0.02 0)"/><path d="M121.17,144.19a5.26,5.26,0,0,0,2.66.8c1.47,0,2.17-.74,2.17-1.65s-.58-1.5-2.07-2.05c-2-.71-3-1.82-3-3.15,0-1.8,1.45-3.27,3.84-3.27a5.54,5.54,0,0,1,2.74.69l-.51,1.47a4.36,4.36,0,0,0-2.27-.64c-1.2,0-1.87.69-1.87,1.52s.67,1.33,2.12,1.88c1.93.74,2.92,1.71,2.92,3.36,0,2-1.52,3.33-4.16,3.33a6.35,6.35,0,0,1-3.13-.75Z" transform="translate(-0.02 0)"/><path d="M135.43,129.93h2v16.33h-2Z" transform="translate(-0.02 0)"/><path d="M150.92,140.6c0,4.11-2.85,5.91-5.54,5.91-3,0-5.33-2.21-5.33-5.73,0-3.72,2.44-5.91,5.52-5.91S150.92,137.2,150.92,140.6Zm-8.83.11c0,2.44,1.41,4.28,3.39,4.28s3.38-1.82,3.38-4.32c0-1.89-1-4.28-3.34-4.28S142.09,138.6,142.09,140.71Z" transform="translate(-0.02 0)"/><path d="M161.41,145.84a7.39,7.39,0,0,1-3.19.64c-3.36,0-5.54-2.27-5.54-5.68a5.65,5.65,0,0,1,6-5.9,6.71,6.71,0,0,1,2.81.57L161,137a4.76,4.76,0,0,0-2.35-.52c-2.55,0-3.93,1.88-3.93,4.2a3.82,3.82,0,0,0,3.86,4.17,5.65,5.65,0,0,0,2.49-.56Z" transform="translate(-0.02 0)"/><path d="M165.79,140.23h0c.28-.39.67-.87,1-1.26l3.26-3.84h2.44l-4.3,4.57,4.9,6.56h-2.46l-3.84-5.34-1,1.15v4.19h-2V129.93h2Z" transform="translate(-0.02 0)"/><path d="M176.13,141.86l0-.6a5.29,5.29,0,0,1,1.42-4c1-1.22,1.61-2.12,1.61-3.15s-.73-2-2.18-2a4,4,0,0,0-2.32.71l-.55-1.45a6,6,0,0,1,3.28-.92c2.65,0,3.84,1.64,3.84,3.38,0,1.57-.87,2.69-2,4a4.51,4.51,0,0,0-1.31,3.38l0,.6Zm-.5,3.22a1.37,1.37,0,1,1,2.74,0,1.37,1.37,0,1,1-2.74,0Z" transform="translate(-0.02 0)"/></svg>