<svg id="Layer_1" data-name="Layer 1" xmlns="http://www.w3.org/2000/svg" viewBox="0 0 194.93 372.9">
    <path
        fill="#bfbfbf" stroke="#181818" d="M222,304.41c0-14.41-.27-30.4.09-46.39.32-14.25,6-26.8,14-38.37,2.5-3.64,9.64-4.25,12.35-1,1,1.17.94,3.77.42,5.42-1.81,5.71-4.07,11.27-6.11,16.91-6.16,17-5.21,34.75-5.28,52.39-.05,14.46.17,28.95-.68,43.37a232.71,232.71,0,0,1-4.44,34.51c-2,9.33-5,18.52-11.26,26.37-10.16,12.69-23.82,17-39.18,17.48-27,.79-40.38-7.78-52.86-37.57-10.1-24.08-15.19-49.54-16.85-75.67-.58-9.13-2.21-18.2-2.57-27.33-.42-10.45-.11-20.95.13-31.41q.65-27.48,1.64-54.95c.14-3.82-2.25-4.36-5-4.82a47.58,47.58,0,0,1-23.39-10.52c-14.87-12.62-14.94-32.51,0-45.09a46.21,46.21,0,0,1,30.78-11.22c4.29,0,6.06-1.39,6.17-5.6a48.68,48.68,0,0,1,1.1-8.4c.57-2.77-.18-3.37-3-3.13-10.2.86-18.7,5.58-27,11.07-1.51,1-3.41,1.4-5.13,2.08.86-1.72,1.43-3.68,2.62-5.14A59.81,59.81,0,0,1,121,87.05c2.31-.59,4.61-2.81,6.06-4.87,6.41-9.08,11.91-18.87,18.9-27.46s17.4-10.79,27.76-12c12-1.34,23.69-.07,33.8,7.48,12.94,9.68,19.24,23.12,20.61,38.83.56,6.4-.64,12.93-.69,19.41,0,1.33,1.25,3.56,2.35,3.86A48.73,48.73,0,0,1,256.7,131.2c4.62,6.41,6.78,14.59,10,22a6.34,6.34,0,0,1,0,2.38,7.84,7.84,0,0,1-2.33-1.31c-4.83-5.72-9.23-11.86-14.44-17.2-6-6.15-13.2-10.57-22.2-11.19-4-.28-5.74,1.49-6,5.41-.34,5.72,1.16,8.57,5.14,9.19,15.64,2.44,25.74,12,31.52,26,3.34,8.08-.85,22.06-10.62,29.53-9.25,7.08-20,9-31.14,10-1.67.15-4.24,1.57-4.6,2.9a59.23,59.23,0,0,0-2.42,14.19c-.55,26.46-.17,53-1.32,79.39-1.08,25-18.35,39.4-43.1,34.36-15.92-3.25-25-16-27.66-31.59-2.4-13.87-3.15-28.1-3.69-42.21-.54-13.79.06-27.62.26-41.43.1-7.69,3-10.63,9.53-9.9,4.4.49,5.85,5,5.22,11.57-2.54,26.76-3.08,53.53,2.88,80,.92,4.07,3.52,7.85,5.75,11.51,4.93,8.1,13,9.56,21,7.37,7.23-2,12.12-8.07,13.08-15.68a245.85,245.85,0,0,0,1.73-28.84c.12-23.81-.26-47.63-.2-71.44,0-4.35-1.52-7-5.06-9.43-7.87-5.4-13.77-12.28-15.15-22.31-1.49-10.74,2.58-19.29,10.74-25.54,4.74-3.63,10.58-6.16,16.3-8.1,3.12-1.05,4.38-2.47,4.92-5.25.45-2.29,1.28-4.61,1.14-6.87-.11-1.85-1.37-3.65-2.19-5.44-1-2.27-3.29-4.74-2.89-6.69s3.18-4.28,5.32-4.81c4.35-1.09,6-3.07,5.87-7.6-.17-4.8.68-9.62.75-14.44.26-17.56-9.77-26.51-24.6-29.79-22.41-5-34.26,5.76-43.45,24.5-.44.91.63,3.28,1.67,4,2.26,1.63,5.66,2.08,7.29,4.08s3.16,5.84,2.42,8.12c-.56,1.74-4.7,2.36-7.3,3.34-.52.2-1.28-.23-1.93-.39-9.37-2.22-9.48-1.94-11.29,7.81-1,5.53-.17,8.6,5.53,11.54,17.95,9.28,23.57,27.74,13.77,42.63a37.69,37.69,0,0,1-21.38,15.57c-4.57,1.35-6.4,3.44-6.42,8.3-.07,17.48-.54,35-.88,52.44-.18,9.32-1,18.68-.46,28,.74,13.07,2.06,26.14,3.87,39.11q3.31,23.64,7.9,47.11c2.92,14.91,10,27.94,23,36.13,20.43,12.91,54.76,8.77,58.3-24.9C221,347,221,326.46,222,304.41Zm-6.38-102.33c4.82-.88,11.4-1.87,17.87-3.31,11.8-2.63,19.86-9.57,21.89-21.76,1.88-11.34-4.23-19.4-12.8-25.8-8.74-6.54-19-9-29.59-8.91-10.87.12-21.08,3-29.27,10.81-9,8.53-10.39,23-2.79,32.16C189.41,195.52,200.53,201,215.64,202.08Zm-100.15-82c-10.14.55-20,2.84-28.56,9.48-14.73,11.5-14.83,29.63-.19,41.23,16.31,12.93,43.59,13.22,58.8-1,13.17-12.27,14-27.54-.88-40C136.44,122.92,126.41,120.54,115.49,120.12Z"
        transform="translate(-71.87 -42.3)" />
    <path
        d="M219.21,190.08c-9.28-.88-17.23-3.28-22.4-11.11-4.28-6.49-3.38-13.74,2.26-19,10.92-10.11,33.36-4.26,38,9.9,2.71,8.28-2.73,16.77-12.46,19.31A51.48,51.48,0,0,1,219.21,190.08Z"
        transform="translate(-71.87 -42.3)" />
    <path
        d="M117.18,167.32c-10.78-.56-18.85-2.91-23.57-11.5-4.24-7.73-2-16,5.45-20.8,10.54-6.72,25.84-4.53,34.1,4.88,7.57,8.62,4.48,20.84-6.57,25.14C123.1,166.39,119.25,166.84,117.18,167.32Z"
        transform="translate(-71.87 -42.3)" />
</svg>