<svg width="314" height="240" viewBox="0 0 314 240" fill="none" xmlns="http://www.w3.org/2000/svg">
<path d="M165.262 119.379C165.609 119.651 165.957 119.877 166.257 120.15C166.911 120.691 167.417 121.39 167.727 122.181C168.038 122.971 168.143 123.828 168.032 124.67C167.991 126.493 167.387 128.26 166.304 129.726C166.393 129.857 166.497 129.977 166.614 130.083C167.469 130.619 168.304 131.192 169.196 131.662C169.778 131.995 170.414 132.221 171.074 132.33C173.25 132.631 175.272 133.619 176.849 135.149C177.788 136.004 178.727 136.859 179.666 137.799C181.012 139.314 182.492 140.705 184.088 141.953C184.976 142.706 185.653 143.678 186.051 144.773C186.567 145.938 187.253 147.019 187.769 148.184C188.567 149.961 189.337 151.756 190.032 153.569C190.624 155.111 191.103 156.699 191.61 158.268C191.729 158.624 191.802 158.994 191.826 159.368C191.901 161.539 191.948 163.719 192.004 165.9C192.029 167.332 191.791 168.756 191.3 170.101C190.969 171.057 190.7 172.033 190.492 173.024C190.23 174.239 189.746 175.395 189.065 176.435C188.264 177.664 187.602 178.978 187.093 180.354C185.869 183.355 184.084 186.095 181.835 188.427C180.567 189.809 179.365 191.247 178.079 192.619C177.394 193.342 176.558 193.935 175.807 194.602C175.382 194.965 174.983 195.357 174.614 195.777C174.163 196.332 173.543 196.725 172.849 196.895C171.409 197.202 170.05 197.807 168.858 198.671C168.116 199.186 167.258 199.508 166.361 199.611C165.365 199.772 164.383 200.004 163.422 200.306C162.495 200.612 161.532 200.789 160.558 200.833C159.854 200.902 159.159 201.04 158.483 201.246C157.544 201.453 156.68 201.726 155.769 201.932C152.248 202.731 148.67 202.553 145.112 202.496C144.029 202.418 142.956 202.232 141.91 201.942C141.224 201.791 140.567 201.472 139.872 201.303C137.27 200.702 134.779 199.693 132.492 198.314C131.784 197.887 131.027 197.546 130.238 197.299C126.698 196.162 123.928 193.888 121.355 191.312C120.081 190.081 119.129 188.554 118.586 186.867C118.321 186.125 117.991 185.408 117.6 184.724C116.939 183.494 116.597 182.117 116.604 180.721C116.67 179.475 116.438 178.231 115.928 177.093C115.092 175.221 115.001 173.1 115.675 171.163C115.898 170.371 116.061 169.564 116.163 168.747C116.197 168.224 116.137 167.699 115.985 167.197C115.521 165.471 115.695 163.636 116.473 162.028C117.309 160.467 117.889 158.782 118.191 157.037C118.207 156.888 118.255 156.743 118.332 156.614C120.032 153.325 121.327 149.782 124.238 147.216C124.635 146.873 124.991 146.485 125.299 146.06C126.545 144.475 127.955 143.026 129.506 141.737C130.972 140.446 132.641 139.405 134.445 138.655C135.438 138.202 136.382 137.648 137.262 137C138.238 136.178 139.325 135.498 140.492 134.98C140.825 134.836 141.14 134.653 141.431 134.435C143.041 133.398 144.816 132.645 146.68 132.207C148.145 131.732 149.555 131.102 150.886 130.328C151.684 129.924 151.694 129.388 150.952 128.89C150.525 128.611 150.182 128.222 149.959 127.764C149.736 127.305 149.641 126.795 149.684 126.287C149.684 125.497 149.684 124.708 149.684 123.918C149.637 123.394 149.696 122.866 149.857 122.366C150.018 121.865 150.279 121.402 150.623 121.005C150.783 120.807 150.924 120.591 151.14 120.281C150.21 119.097 149.602 117.691 149.375 116.202C149.235 115.695 149.036 115.207 148.783 114.746C147.411 112.152 146.351 109.404 145.628 106.56C145.26 105.275 144.799 104.018 144.248 102.801C142.217 98.1082 140.682 93.2166 139.666 88.2052C139.168 85.8181 138.511 83.5061 137.853 81.119C136.482 76.2319 134.989 71.3825 133.675 66.486C132.36 61.5896 131.13 56.4394 129.919 51.449C128.98 47.8025 128.238 44.1278 127.309 40.4907C126.905 38.893 126.276 37.3517 125.769 35.7916C125.515 35.0022 125.318 34.2034 125.121 33.3951C125.046 33.1437 125.046 32.8758 125.121 32.6245C125.173 32.4952 125.252 32.3783 125.353 32.2812C125.453 32.1841 125.572 32.109 125.703 32.0606C125.843 32.065 125.981 32.0991 126.107 32.1607C126.234 32.2222 126.345 32.3098 126.435 32.4177C126.581 32.6371 126.671 32.8887 126.698 33.1508C126.82 33.736 126.977 34.3134 127.168 34.88C128.82 38.9118 129.543 43.1786 130.576 47.3796C132.557 55.509 134.398 63.6854 136.877 71.702C138.426 76.7206 139.863 81.7957 141.036 86.9083C141.91 90.7333 142.914 94.4926 144.126 98.1861C144.382 99.0489 144.695 99.8935 145.065 100.714C146.126 102.913 146.969 105.211 147.581 107.575C148.163 109.638 148.943 111.639 149.91 113.552C150.428 114.676 150.867 115.835 151.224 117.02C151.416 117.817 151.792 118.557 152.323 119.182L154.83 118.458C154.977 117.841 154.974 117.198 154.82 116.583C154.667 115.968 154.367 115.399 153.947 114.924C153.318 114.262 152.939 113.402 152.877 112.49C152.568 109.649 151.996 106.842 151.168 104.107C150.283 100.684 149.792 97.1716 149.703 93.6373C149.617 90.4393 149.17 87.2613 148.37 84.164C147.567 81.0667 147.212 77.87 147.318 74.6718C147.297 70.9521 146.888 67.2448 146.098 63.6102C145.449 60.1397 145 56.6346 144.755 53.1125C144.492 49.3532 143.919 45.7255 143.318 42.0508C142.999 40.1712 142.933 38.1694 142.755 36.224C142.698 35.6319 142.633 35.0304 142.576 34.4383C142.52 33.8462 142.661 33.5925 143.159 33.4985C143.345 33.4552 143.541 33.4858 143.706 33.5839C143.87 33.682 143.99 33.84 144.041 34.0248C144.205 34.4058 144.297 34.8135 144.313 35.2277C144.22 39.0528 145.093 42.7463 145.675 46.5055C145.963 48.327 146.157 50.1621 146.257 52.0035C146.466 56.3956 147.044 60.7624 147.985 65.0575C148.611 67.6931 148.926 70.3932 148.924 73.1023C148.81 77.1651 149.265 81.2238 150.276 85.1602C151.215 88.7785 151.318 92.519 151.487 96.2406C151.624 98.4909 151.98 100.722 152.548 102.904C153.074 105.056 153.6 107.208 154.069 109.379C154.267 110.253 154.285 111.165 154.473 112.048C154.564 112.672 154.795 113.266 155.149 113.787C156.067 114.852 156.568 116.215 156.558 117.621C156.574 117.75 156.606 117.876 156.652 117.997C157.095 118.009 157.526 118.152 157.887 118.41C158.248 118.668 158.524 119.029 158.68 119.445C159.544 118.007 160.417 116.776 161.065 115.441C162.839 111.748 164.577 108.045 166.22 104.295C167.159 102.237 167.797 100.075 168.595 97.9699C168.915 97.124 169.243 96.2782 169.638 95.47C170.747 93.2099 171.649 90.8538 172.332 88.4307C172.683 87.2809 173.161 86.1743 173.76 85.132C174.894 83.1792 175.652 81.0305 175.994 78.7976C176.583 74.7746 177.77 70.8624 179.516 67.1909C180.377 65.3095 180.972 63.3165 181.281 61.2701C181.531 59.4396 182.093 57.6658 182.943 56.0259C184.1 53.7831 184.847 51.3515 185.15 48.8457C185.449 46.8402 185.914 44.863 186.539 42.9342C187.412 40.1148 188.107 37.2953 188.952 34.4759C189.412 32.734 189.999 31.0284 190.708 29.3727C191.849 26.8722 192.524 24.184 192.699 21.4406C192.804 20.5115 193.002 19.5952 193.29 18.7058C193.413 18.3491 193.619 18.0269 193.891 17.766C194.028 17.6088 194.212 17.5014 194.416 17.4605C194.62 17.4197 194.832 17.4478 195.018 17.5404C195.211 17.6272 195.363 17.7847 195.444 17.9805C195.524 18.1764 195.526 18.3956 195.45 18.593C195.323 19.0605 195.099 19.496 194.793 19.8712C194.497 20.2117 194.325 20.6422 194.305 21.0929C194.248 21.8354 194.173 22.5872 194.098 23.3391C193.95 25.157 193.476 26.9334 192.699 28.5832C191.495 31.1733 190.576 33.8864 189.957 36.6751C189.535 38.4701 189.018 40.2464 188.445 41.985C187.519 44.7377 186.843 47.5687 186.427 50.4434C186.172 52.346 185.591 54.1903 184.708 55.8943C183.649 57.9313 182.944 60.1336 182.624 62.4072C182.34 64.1922 181.809 65.9288 181.046 67.5668C179.266 71.3039 178.05 75.2853 177.441 79.3803C177.139 81.5487 176.408 83.6351 175.29 85.5173C174.497 86.9654 173.867 88.4973 173.412 90.0848C172.943 91.6261 172.323 93.1204 171.741 94.6241C170.802 96.8985 169.957 99.1635 169.027 101.428C168.154 103.543 167.271 105.648 166.332 107.744C165.3 110.075 164.229 112.396 163.121 114.689C162.445 116.08 161.684 117.415 160.952 118.768C160.594 119.469 160.182 120.141 159.722 120.779C159.13 121.54 158.426 122.208 157.76 122.913C157.576 123.085 157.382 123.245 157.177 123.392C157.218 123.462 157.266 123.528 157.318 123.589C158.221 123.4 159.087 123.063 159.882 122.593C161.951 121.028 163.642 119.017 164.83 116.71C165.403 115.479 166.116 114.323 166.708 113.11C167.431 111.625 168.07 110.103 168.774 108.609C169.279 107.437 169.85 106.295 170.483 105.188C172.029 102.733 173.289 100.11 174.239 97.3684C174.678 96.0901 175.237 94.8565 175.91 93.6843C177.19 91.4295 178.192 89.028 178.896 86.5323C179.436 84.4542 180.339 82.488 181.563 80.7243C183.134 78.3774 184.314 75.7905 185.056 73.0648C185.422 71.8806 185.722 70.6682 186.145 69.5122C186.656 67.9784 187.284 66.486 188.023 65.0481C189.476 62.2969 190.732 59.4451 191.779 56.5146C193.488 52.0599 195.253 47.6239 196.943 43.1692C198.136 40.0396 199.206 36.8724 200.427 33.771C201.128 32.0307 201.924 30.3302 202.812 28.6772C204.14 26.1006 205.047 23.3274 205.497 20.4632C205.531 20.1656 205.585 19.8705 205.657 19.5798C205.788 19.1945 206.107 18.8937 206.511 19.0347C206.795 19.1738 207.025 19.4014 207.168 19.6832C207.231 19.9012 207.231 20.1325 207.168 20.3505C207.145 21.7459 206.825 23.1203 206.23 24.3823C206.023 24.777 205.938 25.2375 205.769 25.651C205.423 26.6842 205.006 27.6922 204.521 28.6678C202.585 32.32 200.964 36.1307 199.675 40.0584C198.999 41.938 198.305 43.8177 197.591 45.6973C195.663 50.7097 193.725 55.722 191.779 60.7344C191.382 61.7877 190.911 62.8115 190.37 63.7982C188.794 66.5403 187.588 69.4793 186.783 72.5385C186.473 73.6944 186.079 74.8316 185.675 75.9594C184.952 78.0615 183.938 80.0515 182.661 81.8708C181.654 83.2908 180.916 84.8835 180.483 86.5699C179.668 89.5067 178.488 92.3294 176.971 94.9719C176.37 96.054 175.879 97.1937 175.506 98.374C174.684 100.838 173.572 103.195 172.192 105.394C171.301 106.872 170.528 108.418 169.882 110.018C168.943 112.152 167.854 114.21 166.821 116.296C166.408 117.302 165.816 118.308 165.262 119.379ZM156.811 119.792C156.376 119.983 155.913 120.1 155.44 120.14C153.872 120.065 152.868 120.967 151.929 122.02C151.691 122.268 151.509 122.564 151.396 122.888C151.282 123.212 151.24 123.557 151.271 123.899C151.313 124.5 151.313 125.103 151.271 125.704C151.205 126.148 151.269 126.603 151.456 127.011C151.643 127.42 151.944 127.766 152.323 128.006C152.568 128.17 152.772 128.388 152.921 128.642C153.07 128.896 153.159 129.181 153.183 129.475C153.206 129.768 153.163 130.064 153.056 130.338C152.95 130.613 152.782 130.86 152.567 131.061C152.182 131.466 151.731 131.803 151.234 132.057C150.445 132.499 149.628 132.875 148.802 133.241C148.304 133.501 147.774 133.691 147.224 133.805C145.442 134.116 143.749 134.815 142.266 135.854C141.931 136.096 141.569 136.297 141.187 136.455C140.092 136.942 139.069 137.574 138.144 138.335C137.224 139.04 136.221 139.63 135.158 140.092C132.013 141.333 129.684 143.598 127.421 145.976C126.548 146.916 125.787 147.931 124.886 148.795C123.621 150.033 122.588 151.488 121.834 153.09C121.562 153.71 121.243 154.302 120.895 154.895C120.118 156.141 119.597 157.531 119.365 158.983C119.271 159.462 119.113 159.927 118.895 160.364C118.539 161.191 118.144 162 117.797 162.836C117.289 163.856 117.137 165.018 117.365 166.135C117.904 167.992 117.812 169.975 117.102 171.774C116.98 172.09 116.904 172.422 116.877 172.76C116.652 173.757 116.717 174.798 117.064 175.758C117.814 177.323 118.184 179.043 118.144 180.777C118.151 181.912 118.441 183.026 118.989 184.019C119.397 184.736 119.739 185.488 120.013 186.266C120.501 187.774 121.356 189.137 122.501 190.232C124.766 192.707 127.585 194.611 130.726 195.786C131.825 196.178 132.882 196.679 133.881 197.28C135.549 198.226 137.328 198.959 139.177 199.461C140.191 199.724 141.177 200.1 142.191 200.344C143.199 200.636 144.234 200.819 145.281 200.889C148.734 201.118 152.202 200.925 155.609 200.316C156.344 200.187 157.067 199.995 157.769 199.743C158.644 199.407 159.566 199.214 160.501 199.169C161.28 199.091 162.052 198.956 162.811 198.765C163.91 198.521 164.999 198.276 166.079 197.985C166.74 197.852 167.374 197.611 167.957 197.271C169.126 196.445 170.437 195.842 171.825 195.495C172.667 195.296 173.401 194.785 173.882 194.066C174.071 193.785 174.285 193.52 174.52 193.277C174.727 193.012 175.004 192.81 175.318 192.694C175.933 192.51 176.464 192.118 176.821 191.585C178.098 190.156 179.356 188.709 180.642 187.299C182.766 185.108 184.447 182.526 185.591 179.696C186.151 178.262 186.839 176.881 187.647 175.571C188.14 174.673 188.543 173.728 188.849 172.751C189.225 171.651 189.441 170.495 189.788 169.396C190.187 168.258 190.384 167.059 190.37 165.853C190.304 163.719 190.248 161.577 190.173 159.434C190.152 159.135 190.089 158.841 189.985 158.56C189.553 157.244 189.121 155.919 188.661 154.613C188.081 152.631 187.307 150.71 186.351 148.88C185.694 147.748 185.098 146.581 184.567 145.384C184.129 144.343 183.45 143.422 182.586 142.696C181.431 141.756 180.361 140.685 179.271 139.651C178.182 138.617 176.933 137.32 175.713 136.202C174.395 134.894 172.681 134.061 170.84 133.833C169.788 133.715 168.786 133.326 167.929 132.705C167.309 132.283 166.642 131.944 166.051 131.531C165.636 131.263 165.255 130.948 164.915 130.591C164.789 130.475 164.688 130.334 164.62 130.177C164.551 130.02 164.516 129.851 164.516 129.679C164.516 129.508 164.551 129.339 164.62 129.182C164.688 129.025 164.789 128.884 164.915 128.768C166.398 127.245 166.511 125.337 166.483 123.411C166.442 122.901 166.273 122.41 165.99 121.984C165.708 121.558 165.321 121.211 164.868 120.977C164.304 120.591 163.75 120.854 163.75 121.522C163.75 122.809 163.469 124.106 164.126 125.375C164.437 125.884 164.554 126.489 164.455 127.077C164.357 127.666 164.05 128.199 163.591 128.58C162.186 130.111 160.295 131.107 158.238 131.399C157.471 131.422 156.715 131.21 156.072 130.79C155.429 130.369 154.93 129.762 154.642 129.05C154.428 128.213 154.255 127.366 154.126 126.512C153.977 125.954 154.003 125.363 154.201 124.82C154.713 123.607 155.52 122.541 156.548 121.719C157.6 121.061 157.581 120.977 156.792 119.792H156.811ZM155.637 125.516C155.713 125.986 155.76 126.381 155.835 126.766C155.91 127.151 156.069 127.706 156.173 128.194C156.214 128.452 156.309 128.699 156.451 128.918C156.593 129.137 156.779 129.324 156.997 129.468C157.215 129.611 157.461 129.707 157.718 129.75C157.976 129.793 158.239 129.782 158.492 129.717C159.856 129.428 161.11 128.756 162.107 127.781C162.274 127.687 162.418 127.557 162.528 127.4C162.639 127.244 162.713 127.065 162.747 126.876C162.78 126.688 162.771 126.494 162.72 126.309C162.67 126.124 162.579 125.953 162.454 125.807C162.157 125.285 162.014 124.688 162.041 124.087C162.041 123.805 162.041 123.523 161.976 123.035C160.195 124.552 157.956 125.426 155.619 125.516H155.637ZM240.249 125.835C240.253 125.801 240.253 125.766 240.249 125.732C238.756 124.2 238.699 122.283 238.85 120.347C238.915 119.927 238.846 119.497 238.652 119.119C238.458 118.74 238.149 118.433 237.77 118.242C237.224 117.851 236.78 117.336 236.474 116.738C235.3 114.642 234.239 112.481 233.075 110.375C231.015 106.532 229.342 102.492 228.079 98.3176C227.535 96.5978 226.981 94.8873 226.352 93.1956C225.428 90.4128 224.734 87.5587 224.277 84.6621C223.187 79.0232 222.248 73.2715 221.075 67.6044C220.226 63.6377 219.671 59.6138 219.413 55.5654C219.25 53.2386 218.955 50.9229 218.53 48.6295C218.094 46.2643 217.877 43.8639 217.882 41.4587C217.872 39.1674 217.62 36.8836 217.131 34.6451C216.843 33.1686 216.657 31.6738 216.577 30.1715C216.436 27.6622 216.389 25.1529 216.314 22.653C216.289 22.3403 216.289 22.0259 216.314 21.7132C216.311 21.5231 216.38 21.3388 216.507 21.1976C216.634 21.0563 216.81 20.9686 217 20.9519C217.103 20.9333 217.209 20.9363 217.312 20.9608C217.414 20.9853 217.51 21.0308 217.594 21.0944C217.678 21.158 217.747 21.2383 217.799 21.3303C217.85 21.4222 217.882 21.5238 217.892 21.6286C218.019 22.2475 218.091 22.8765 218.108 23.5082C218.108 25.1623 218.108 26.8164 218.108 28.4705C218.051 30.6134 218.269 32.7548 218.755 34.8424C219.237 36.8932 219.467 38.9951 219.441 41.1016C219.45 43.5808 219.667 46.055 220.089 48.498C220.539 51.3174 220.821 54.2402 221.028 57.1161C221.289 60.1492 221.725 63.1648 222.333 66.1477C223.272 70.7434 223.986 75.3955 224.859 80.01C225.469 83.2148 226.192 86.4007 226.868 89.6055C226.964 90.0439 227.083 90.4768 227.225 90.9025C228.643 95.0659 229.967 99.2668 231.516 103.374C232.455 105.752 233.676 107.998 234.812 110.281C235.751 112.095 236.69 113.862 237.629 115.667C237.751 116.042 237.963 116.382 238.246 116.657C238.529 116.932 238.875 117.134 239.253 117.246L242.756 113.74C242.156 113.035 241.757 112.181 241.601 111.268C240.675 108.091 240.047 104.835 239.723 101.541C239.347 98.7875 238.69 96.0715 238.324 93.3178C238.051 91.316 238.042 89.2766 237.901 87.2466C237.826 86.2034 237.723 85.1508 237.629 84.1076C237.347 81.0438 237.019 77.98 236.774 74.9068C236.389 70.2077 236.061 65.5086 235.713 60.7438C235.638 59.6912 235.572 58.6386 235.563 57.586C235.488 48.6107 235.385 39.6261 235.366 30.6414C235.366 27.9442 235.591 25.2375 235.657 22.5308C235.657 21.2621 235.563 19.9839 235.516 18.7058C235.516 18.4802 235.413 18.2171 235.516 18.0385C235.619 17.8599 235.873 17.4088 236.117 17.343C236.276 17.328 236.436 17.3538 236.582 17.4179C236.729 17.482 236.856 17.5824 236.953 17.7096C237.182 18.1364 237.343 18.5961 237.432 19.0723C237.576 19.6175 237.673 20.174 237.723 20.7358C237.724 21.0921 237.673 21.4466 237.573 21.7884C237.452 22.1285 237.358 22.4772 237.291 22.8316C236.896 30.2279 236.878 37.6337 236.972 45.0394C237.053 51.1984 237.234 57.3573 237.516 63.5162C237.704 67.5668 238.117 71.608 238.455 75.6492C238.793 79.6905 239.31 83.5719 239.488 87.5473C239.635 90.9615 240.053 94.3586 240.737 97.7067C241.178 99.8777 241.422 102.086 241.676 104.285C242.011 106.708 242.551 109.097 243.291 111.428C243.347 111.635 243.45 111.936 243.601 111.992C244.296 112.255 244.436 112.772 244.249 113.467C244.835 113.411 245.427 113.497 245.974 113.716C246.521 113.935 247.008 114.281 247.394 114.727C247.686 114.468 247.962 114.192 248.22 113.9C249.432 112.274 250.709 110.686 251.807 108.985C252.999 107.027 254.379 105.192 255.929 103.505C257.343 102.043 258.484 100.341 259.3 98.4774C260.565 95.6165 262.14 92.903 263.995 90.3856C264.475 89.7135 264.899 89.0031 265.263 88.2616C267.46 84.07 269.651 79.869 271.836 75.6587C272.775 73.779 273.629 71.7678 274.606 69.86C275.381 68.2751 276.259 66.7431 277.235 65.2737C278.86 63.01 280.127 60.5089 280.991 57.8585C281.718 55.5641 282.747 53.377 284.052 51.355C286.151 47.9694 287.888 44.372 289.235 40.6223C290.121 38.4198 291.121 36.2648 292.23 34.1658C293.545 31.5061 295.047 28.931 296.315 26.2619C297.038 24.7864 297.554 23.2075 298.193 21.6662C298.568 20.7264 298.906 19.6832 299.329 18.7246C299.751 17.766 300.268 17.4746 300.822 17.7848C301.376 18.0949 301.479 18.6118 301 19.4576C300.119 21.2005 299.369 23.0069 298.756 24.8616C298.446 25.6651 298.088 26.4496 297.686 27.2111C296.427 29.6546 295.197 32.1076 293.873 34.5041C292.513 36.931 291.366 39.4718 290.446 42.0978C289.155 45.7257 287.453 49.1941 285.376 52.4358C284.25 54.1966 283.348 56.0908 282.69 58.0747C281.782 61.0258 280.389 63.8049 278.568 66.2981C277.171 68.3964 275.973 70.6209 274.991 72.9426C273.028 77.0778 271.16 81.2693 268.84 85.226C268.23 86.2598 267.732 87.3594 267.141 88.4119C266.505 89.6042 265.806 90.7618 265.047 91.8799C263.572 93.9373 262.313 96.1419 261.291 98.4586C260.203 100.897 258.725 103.141 256.915 105.103C255.717 106.449 254.637 107.896 253.685 109.426C251.959 112.294 249.845 114.91 247.404 117.199C247.136 117.497 246.885 117.811 246.652 118.138C246.38 118.43 246.08 118.806 245.713 118.89C245.582 118.912 245.457 118.959 245.344 119.03C245.232 119.1 245.134 119.192 245.057 119.3C244.981 119.409 244.926 119.531 244.897 119.661C244.868 119.791 244.864 119.925 244.887 120.056C244.905 120.722 245.038 121.38 245.281 122.001C245.742 123.016 246.465 123.223 247.582 123.063C248.227 123.035 248.843 122.787 249.326 122.359C249.81 121.931 250.132 121.351 250.239 120.713C250.316 120.46 250.423 120.217 250.559 119.99C250.685 119.805 250.758 119.588 250.768 119.363C250.778 119.139 250.725 118.917 250.615 118.721C250.352 118.308 250.54 117.969 250.915 117.659C251.282 117.404 251.6 117.086 251.854 116.719C252.752 115.238 253.838 113.88 255.084 112.678C257.121 110.792 258.815 108.566 260.089 106.099C260.865 104.635 261.859 103.298 263.038 102.133C264.671 100.468 266.117 98.6274 267.347 96.6448C268.286 95.0847 269.535 93.6937 270.606 92.1994C271.525 90.9677 272.377 89.6878 273.16 88.365C274.314 86.2515 275.706 84.2775 277.31 82.4817C278.375 81.3141 279.232 79.9727 279.845 78.5157C280.927 75.947 282.407 73.5651 284.23 71.4577C286.064 69.3114 287.59 66.9201 288.765 64.3527C289.937 61.7852 291.369 59.3446 293.038 57.0691C295.154 54.0531 296.951 50.8247 298.399 47.436C299.479 45.0394 300.409 42.5771 301.357 40.1336C301.966 38.4331 302.82 36.831 303.892 35.3781C304.187 34.9084 304.441 34.4148 304.653 33.9026C304.972 33.3105 305.273 32.709 305.592 32.1264C305.683 31.9362 305.846 31.7893 306.044 31.7173C306.242 31.6453 306.461 31.6538 306.653 31.741C306.752 31.7755 306.844 31.8298 306.922 31.9005C307 31.9713 307.062 32.0572 307.106 32.1529C307.15 32.2486 307.174 32.3522 307.177 32.4575C307.18 32.5628 307.161 32.6675 307.122 32.7654C306.877 33.6297 306.493 34.4485 305.986 35.1902C304.061 37.4927 303.057 40.2088 301.996 42.9624C300.859 45.9323 299.442 48.8081 298.061 51.6839C296.665 54.4755 295.031 57.1419 293.179 59.6536C292.27 60.9451 291.482 62.3166 290.822 63.7512C289.268 67.179 287.246 70.3737 284.812 73.2433C283.391 74.9363 282.238 76.8382 281.394 78.8822C280.624 80.6794 279.557 82.3346 278.24 83.7787C276.891 85.2482 275.736 86.8842 274.803 88.6469C273.738 90.5981 272.48 92.4369 271.047 94.1354C270.141 95.2362 269.306 96.3946 268.549 97.6034C267.39 99.5405 265.996 101.327 264.399 102.923C263.119 104.196 262.039 105.657 261.197 107.255C259.989 109.565 258.402 111.656 256.502 113.439C255.23 114.595 254.138 115.935 253.263 117.415C253.732 118.308 254.202 119.172 254.652 120.009C255.006 120.633 255.142 121.357 255.037 122.067C255.044 123.356 254.617 124.611 253.826 125.629C253.657 125.829 253.561 126.081 253.554 126.343C253.554 127.621 253.77 128.815 255.056 129.473C255.995 129.961 257.009 130.412 257.986 130.882C258.155 130.967 258.361 130.976 258.512 131.07C261.545 132.884 265.084 133.89 267.376 136.859C267.826 137.361 268.352 137.79 268.934 138.128C269.948 138.784 270.776 139.691 271.338 140.76C271.629 141.369 272.012 141.93 272.474 142.423C273.447 143.37 274.103 144.594 274.352 145.929C274.585 147.226 275.144 148.442 275.977 149.462C276.837 150.573 277.303 151.939 277.301 153.344C277.413 155.675 277.563 158.043 277.545 160.327C277.49 163.752 276.855 167.142 275.667 170.355C275.197 171.661 274.728 172.995 274.211 174.264C272.859 177.322 271.476 180.36 270.061 183.38C269.586 184.369 268.884 185.232 268.014 185.899C267.663 186.187 267.333 186.502 267.028 186.839C264.79 189.065 262.416 191.149 259.92 193.079C259.276 193.517 258.579 193.871 257.845 194.132C257.31 194.386 256.718 194.545 256.192 194.827C255.113 195.429 254.052 196.068 253 196.707C252.81 196.862 252.672 197.072 252.605 197.308C252.427 197.844 252.051 198.051 251.563 197.835C251.287 197.713 250.981 197.676 250.684 197.727C250.386 197.779 250.111 197.918 249.892 198.126C249.169 198.676 248.273 198.949 247.366 198.897C246.84 198.869 246.312 198.933 245.807 199.085C244.211 199.525 242.539 199.611 240.906 199.338C240.718 199.338 240.53 199.338 240.342 199.338C237.524 199.327 234.731 198.805 232.098 197.797C231.497 197.581 230.859 197.468 230.22 197.271C228.587 196.726 226.943 196.199 225.328 195.589C224.279 195.163 223.35 194.485 222.624 193.615C222.246 193.151 221.784 192.762 221.263 192.468C219.359 191.401 217.595 190.101 216.014 188.596C215.253 187.938 214.511 187.234 213.807 186.51C213.351 186.015 212.928 185.49 212.539 184.94C212.089 184.339 211.666 183.719 211.234 183.061C210.295 181.67 209.647 180.006 208.211 178.954C207.722 177.262 206.765 175.749 206.333 174.076C206.113 172.94 205.799 171.824 205.394 170.74C205.203 170.21 205.117 169.648 205.14 169.086C205.159 167.823 205.039 166.563 204.783 165.327C204.671 164.513 204.671 163.687 204.783 162.874C204.849 161.708 205.018 160.552 205.037 159.396C205.023 158.381 205.192 157.372 205.535 156.417C206.225 154.667 206.668 152.829 206.849 150.957C206.96 150.099 207.208 149.265 207.582 148.485C208.258 146.897 208.934 145.299 209.76 143.786C210.923 141.591 212.435 139.6 214.239 137.893C215.272 136.953 216.286 136.014 217.281 135.074C218.115 134.261 219.101 133.623 220.183 133.194C220.82 132.963 221.423 132.647 221.976 132.254C223.738 131.099 225.629 130.153 227.61 129.435C228.488 129.106 229.397 128.867 230.324 128.721C230.981 128.57 231.685 128.589 232.324 128.392C234.074 127.832 235.888 127.494 237.723 127.386C238.235 127.35 238.73 127.19 239.167 126.92C239.604 126.65 239.968 126.278 240.23 125.835H240.249ZM245.798 115.422C245.488 115.214 245.126 115.096 244.754 115.081C244.381 115.066 244.011 115.155 243.685 115.338C242.616 115.977 241.725 116.876 241.094 117.95C240.098 120.262 239.788 122.555 241.535 124.708C241.606 124.795 241.672 124.886 241.732 124.98C241.848 125.119 241.936 125.28 241.989 125.452C242.043 125.625 242.062 125.807 242.044 125.988C242.027 126.168 241.973 126.343 241.888 126.502C241.802 126.662 241.685 126.802 241.544 126.916C240.571 128.037 239.201 128.738 237.723 128.871C236.22 128.89 234.731 129.163 233.319 129.679C233.107 129.755 232.886 129.802 232.662 129.82C230.152 130.067 227.714 130.805 225.488 131.991C224.859 132.32 224.239 132.668 223.61 133.016C222.727 133.504 221.873 134.059 220.953 134.472C220.019 134.873 219.164 135.437 218.427 136.136C217.431 137.076 216.408 138.015 215.385 138.955C213.695 140.562 212.281 142.435 211.197 144.5C210.445 145.882 209.826 147.32 209.206 148.795C208.847 149.536 208.606 150.329 208.492 151.145C208.273 153.047 207.832 154.918 207.178 156.718C206.927 157.617 206.77 158.54 206.708 159.471C206.577 160.703 206.492 161.934 206.417 163.174C206.319 163.762 206.319 164.363 206.417 164.951C206.696 166.199 206.823 167.478 206.793 168.757C206.853 169.394 206.976 170.023 207.159 170.636C207.375 171.501 207.619 172.366 207.863 173.221C207.951 173.733 208.119 174.228 208.361 174.687C208.835 175.411 209.169 176.218 209.347 177.065C209.394 177.472 209.557 177.857 209.816 178.174C210.962 179.048 211.488 180.317 212.248 181.463C213.445 183.507 214.96 185.348 216.737 186.914C218.394 188.442 220.203 189.796 222.136 190.955C222.761 191.292 223.318 191.741 223.779 192.28C224.51 193.14 225.456 193.789 226.521 194.16C229.178 195.1 231.835 195.983 234.53 196.773C237.196 197.404 239.923 197.741 242.662 197.778C243.781 197.731 244.893 197.583 245.986 197.337C247.487 197.336 248.953 196.873 250.183 196.012C250.242 195.967 250.309 195.935 250.38 195.918C251.971 195.349 253.49 194.595 254.906 193.671C255.822 193.197 256.763 192.771 257.723 192.393C258.172 192.217 258.596 191.98 258.981 191.688C261.403 189.787 263.717 187.75 265.911 185.589C266.129 185.331 266.375 185.098 266.643 184.894C267.888 183.902 268.858 182.608 269.46 181.134C271.15 177.657 272.615 174.086 273.977 170.458C274.883 167.95 275.512 165.35 275.855 162.704C276.333 159.293 275.855 155.872 275.639 152.47C275.544 151.687 275.235 150.946 274.747 150.327C273.807 149.103 273.164 147.678 272.869 146.164C272.68 145.238 272.245 144.381 271.61 143.683C270.991 142.987 270.512 142.179 269.958 141.427C269.609 140.81 269.159 140.257 268.624 139.792C267.208 138.8 265.913 137.646 264.765 136.352C264.1 135.685 263.295 135.175 262.408 134.858C261.743 134.63 261.111 134.314 260.53 133.918C259.537 133.175 258.426 132.603 257.244 132.226C256.733 132.098 256.241 131.906 255.779 131.653C254.493 130.845 252.962 130.431 252.39 128.617C251.892 126.991 251.77 125.61 252.859 124.181C253.357 123.478 253.592 122.621 253.522 121.762C253.451 120.902 253.08 120.095 252.474 119.482C252.187 120.056 251.942 120.649 251.742 121.259C251.028 123.984 248.925 124.642 246.352 124.717C246.051 124.709 245.759 124.618 245.507 124.454C243.253 123.016 242.436 119.642 244.117 117.668C244.756 116.982 245.281 116.184 245.798 115.422ZM51.2046 123.599L54.3502 120.826C53.6178 118.101 52.8478 115.187 52.0403 112.246C51.7398 111.165 51.3643 110.103 50.998 109.032C50.491 107.547 50.0591 106.015 49.4206 104.586C48.373 102.05 47.4732 99.4546 46.7257 96.8139C45.3923 92.431 44.3107 87.9752 43.4862 83.4685C42.9135 80.5551 42.1247 77.6981 41.4956 74.794C41.0919 72.9144 40.7257 70.969 40.4721 69.0423C40.3179 67.5806 39.8639 66.1665 39.1388 64.8884C38.5263 63.8498 38.1392 62.6938 38.0026 61.4956C37.7592 59.5518 37.1776 57.6656 36.2843 55.9225C35.2544 53.8233 34.6572 51.538 34.5284 49.2028C34.3192 46.7923 33.8308 44.4143 33.073 42.1166C32.6974 40.8948 32.3406 39.6731 31.9838 38.4419C31.8948 38.135 31.8351 37.8203 31.8054 37.5021C31.7685 37.295 31.8021 37.0815 31.9009 36.8957C31.9996 36.71 32.1578 36.5628 32.35 36.4777C32.5382 36.3872 32.7512 36.3622 32.9553 36.4064C33.1593 36.4507 33.3428 36.5617 33.4768 36.7221C33.8605 37.2199 34.1763 37.7666 34.4157 38.3479C34.6739 39.015 34.8719 39.7038 35.0073 40.4061C35.0943 40.7221 35.0538 41.0596 34.8946 41.346C34.7898 41.4759 34.7215 41.6315 34.6968 41.7967C34.672 41.9619 34.6917 42.1307 34.7538 42.2858C35.5485 44.8353 36.0432 47.4689 36.228 50.1332C36.4015 51.9668 36.9242 53.7501 37.7679 55.3868C38.6812 57.202 39.2782 59.1598 39.5332 61.1761C39.6644 62.2277 40.0233 63.238 40.5848 64.1365C41.5468 65.8497 42.0935 67.7651 42.1811 69.7284C42.407 71.6364 42.7902 73.5225 43.3266 75.3673C44.1154 78.4969 44.6975 81.6735 45.383 84.8313C46.322 88.9382 47.2046 93.0359 48.4816 97.0489C49.4206 99.9905 50.6412 102.819 51.6272 105.723C52.9417 109.633 54.4441 113.496 55.1389 117.593C55.261 118.336 55.5239 119.05 55.7023 119.774C55.7304 120.034 55.8547 120.275 56.051 120.449C56.2472 120.623 56.5013 120.717 56.7634 120.713C57.4676 120.713 58.1812 120.836 58.8854 120.911C59.7305 121.005 60.6319 120.911 61.3362 121.851C61.5717 121.42 61.7636 120.966 61.9089 120.497C62.7728 116.588 64.6508 112.979 65.8151 109.219C66.2543 108.062 66.7623 106.933 67.3362 105.836C67.4911 105.545 67.5838 105.225 67.6085 104.896C67.5875 103.923 67.9442 102.98 68.6038 102.265C68.7975 102.087 68.9537 101.873 69.0633 101.634C69.173 101.395 69.2338 101.137 69.2423 100.874C69.2254 100.722 69.2549 100.568 69.3269 100.432C70.3503 98.9003 70.5194 97.0489 71.1297 95.3666C71.9654 93.0359 73.1203 90.8367 73.9466 88.5153C74.5428 86.7729 75.4111 85.1361 76.5194 83.6659C78.1429 81.6765 79.2925 79.3431 79.8809 76.8428C79.9445 76.5508 80.0488 76.2693 80.1908 76.0064C81.1298 74.4275 81.4302 72.6137 82.1533 70.9784C83.4772 67.9992 84.4444 64.8696 86.0218 61.9937C86.2945 61.5014 86.5299 60.9893 86.7261 60.4618C87.7308 57.7176 88.7824 54.9733 89.712 52.2008C90.3881 50.1708 90.7918 48.0468 91.59 46.045C92.3881 44.0432 93.421 41.8535 94.4069 39.7859C94.7825 38.9964 95.2332 38.7803 95.6839 39.0058C96.1346 39.2314 96.2379 39.7671 95.7778 40.5847C94.0142 43.8195 92.676 47.2691 91.7965 50.8475C91.2801 52.8399 90.4914 54.7665 89.8059 56.712C89.4022 57.8773 88.989 59.0521 88.5383 60.1987C88.0876 61.3452 87.6744 62.2005 87.2425 63.1873C86.8106 64.1741 86.4068 65.0669 86.0218 66.0067C85.6369 66.9466 85.4021 67.7924 84.9702 68.6194C84.177 70.1135 83.5473 71.689 83.0922 73.3185C83.0464 73.5402 82.9805 73.7573 82.8951 73.967C81.8434 76.091 81.2331 78.3935 80.2941 80.5457C79.7134 81.8454 78.9923 83.0776 78.1438 84.2204C76.9098 85.7997 75.9569 87.5801 75.3269 89.4833C75.2867 89.6276 75.2365 89.769 75.1767 89.9063C74.0918 92.0445 73.1721 94.2626 72.4255 96.5414C72.2001 97.1335 72.0311 97.7537 71.8245 98.3552C71.618 98.9567 71.3269 99.7555 71.0734 100.46C70.9528 100.692 70.8643 100.938 70.8104 101.193C70.7776 101.953 70.4589 102.671 69.9184 103.205C69.6743 103.477 69.4395 103.731 69.6367 104.201C69.7306 104.408 69.5616 104.774 69.4395 105.037C68.9137 106.156 68.3691 107.265 67.8339 108.383C67.6367 108.797 67.4395 109.201 67.2799 109.624C66.3409 112.048 65.4019 114.464 64.5756 116.907C64.1813 118.035 63.9184 119.219 63.5615 120.366C63.3671 121.053 63.1159 121.722 62.8104 122.368C62.6752 122.723 62.4403 123.032 62.1337 123.257C61.8272 123.482 61.4622 123.614 61.0826 123.636C60.0315 123.668 59.0102 123.994 58.1343 124.576C56.7352 125.384 56.7164 125.366 57.0169 126.963C57.1108 127.452 57.2047 127.903 57.3174 128.401C57.4671 129.159 57.891 129.835 58.5077 130.3C59.1245 130.765 59.8909 130.985 60.6601 130.92C61.9277 130.816 63.2047 130.732 64.416 130.506C65.034 130.333 65.6116 130.039 66.1156 129.642C66.329 129.438 66.4623 129.165 66.4911 128.871C66.8179 127.478 67.363 126.146 68.1062 124.924C68.3033 124.571 68.6052 124.289 68.97 124.116C69.1214 124.052 69.2569 123.956 69.3672 123.834C69.4775 123.712 69.5599 123.568 69.6086 123.411C69.8037 122.808 70.0989 122.242 70.4818 121.738C71.456 120.643 72.2485 119.399 72.8292 118.054C74.1382 115.304 75.6806 112.673 77.4396 110.187C78.3079 108.783 79.0948 107.331 79.7964 105.836C80.7354 104.144 81.5523 102.434 82.4537 100.742C83.4866 98.7875 84.5383 96.8327 85.5805 94.8779C86.3211 93.4007 87.298 92.0547 88.4726 90.8931C89.2734 90.1046 89.8781 89.1388 90.2378 88.0736L91.1768 85.5173C91.7409 83.8806 92.6395 82.3794 93.8153 81.1096C94.6225 80.1725 95.2811 79.117 95.7684 77.98C96.544 76.1847 97.534 74.4901 98.7168 72.9332C99.4852 71.9561 100.042 70.8294 100.351 69.625C100.987 67.2991 102.086 65.1256 103.581 63.2343C104.521 61.8797 105.38 60.4707 106.153 59.0145C107.092 57.4262 108.031 55.8473 108.914 54.2402C109.932 52.5358 110.854 50.7756 111.675 48.9679C112.072 47.9638 112.53 46.9846 113.046 46.0356C113.248 45.6814 113.552 45.3965 113.919 45.218C114.075 45.1584 114.245 45.1418 114.41 45.1699C114.575 45.198 114.73 45.2697 114.858 45.3778C115.046 45.5563 115.036 45.9699 115.055 46.3176C115.036 46.4671 114.962 46.6044 114.848 46.7029C114.09 47.687 113.496 48.7885 113.093 49.9641C112.206 51.9966 111.131 53.9412 109.881 55.7721C109.078 56.9969 108.354 58.2714 107.712 59.5878C106.913 61.3297 105.914 62.9728 104.736 64.4842C103.45 66.0159 102.525 67.818 102.031 69.7566C101.55 71.4198 100.774 72.9828 99.7403 74.3711C98.9101 75.5643 98.1754 76.8213 97.5431 78.1304C96.7774 79.886 95.7308 81.5049 94.4445 82.9234C93.9145 83.509 93.4918 84.1835 93.1956 84.9158C92.698 86.0436 92.313 87.2278 91.9092 88.4026C91.3756 89.8493 90.5547 91.1729 89.496 92.2934C88.6525 93.1974 87.9268 94.2047 87.3364 95.2914C85.0547 99.7367 82.4068 103.985 80.3786 108.562C79.692 109.942 78.8811 111.257 77.956 112.49C76.7763 114.185 75.7368 115.973 74.848 117.838C74.1129 119.693 73.0578 121.404 71.7306 122.894C71.5976 123.054 71.4812 123.227 71.3832 123.411C71.7213 124.059 72.0405 124.736 72.4067 125.375C73.035 126.334 73.2641 127.501 73.0452 128.627C72.6253 129.977 72.1042 131.293 71.4865 132.565C71.3635 132.799 71.1741 132.992 70.9419 133.119C70.0375 133.75 69.4117 134.706 69.1954 135.788C69.1088 135.997 69.0707 136.223 69.0839 136.448C69.0971 136.674 69.1612 136.893 69.2715 137.091C69.3817 137.288 69.5353 137.458 69.7205 137.587C69.9058 137.716 70.1179 137.802 70.341 137.837C71.0511 137.941 71.7092 138.271 72.2189 138.777C72.4251 138.926 72.6577 139.034 72.9044 139.096C73.2799 139.256 73.6555 139.397 74.0405 139.538C74.3043 139.663 74.5864 139.746 74.8762 139.782C75.1964 139.774 75.515 139.831 75.8122 139.95C76.1094 140.07 76.3789 140.25 76.6039 140.478C76.8092 140.696 77.061 140.865 77.3406 140.973C77.6202 141.08 77.9205 141.123 78.219 141.098C78.6717 141.074 79.1231 141.166 79.5306 141.365C79.938 141.564 80.2881 141.863 80.5476 142.235C81.1901 143.062 82.034 143.709 82.9983 144.115C83.4678 144.406 83.8734 144.79 84.1908 145.243C84.7636 145.882 85.2425 146.615 85.8434 147.207C88.0767 149.395 89.8795 151.984 91.158 154.838C91.4423 155.654 91.6774 156.485 91.8623 157.329C92.0049 158.064 92.2649 158.772 92.6322 159.424C93.592 160.831 94.0848 162.505 94.0407 164.208C94.0407 166.614 94.0407 169.02 94.0407 171.426C94.0255 172.027 93.9532 172.625 93.8247 173.212C93.4867 174.95 93.1111 176.67 92.7731 178.399C92.626 179.251 92.3065 180.063 91.8341 180.786C91.4714 181.357 91.1871 181.973 90.989 182.619C90.0733 185.052 88.5815 187.225 86.6416 188.953C85.8434 189.743 85.1016 190.579 84.3317 191.406C84.1345 191.623 83.9749 191.895 83.7589 192.092C82.969 192.785 82.2995 193.605 81.7777 194.517C81.1874 195.446 80.2902 196.138 79.2424 196.472C78.5607 196.766 77.907 197.122 77.2894 197.534C76.2002 198.192 75.1016 198.84 74.0593 199.573C70.7433 201.857 67.0051 203.455 63.0639 204.273C61.7783 204.69 60.4342 204.899 59.0826 204.893C54.9324 204.545 50.7539 204.404 46.6412 203.821C43.4653 203.452 40.3249 202.824 37.2514 201.942C35.1782 201.303 33.2466 200.273 31.5613 198.906C30.422 198.093 29.4629 197.053 28.7443 195.852C28.4829 195.402 28.1676 194.985 27.8054 194.611C26.9496 193.606 26.3388 192.416 26.0213 191.134C25.7396 190.128 25.3171 189.16 25.0823 188.145C24.8416 187.42 24.6871 186.67 24.6222 185.908C24.6358 184.744 24.4873 183.583 24.1809 182.459C24.0568 182.063 23.9873 181.652 23.9743 181.238C23.9743 178.418 24.1527 175.533 24.1527 172.676C24.1213 170.426 24.409 168.182 25.0072 166.013C25.0813 165.641 25.1222 165.264 25.1293 164.885C25.23 163.268 25.6581 161.688 26.3875 160.242C26.4595 160.112 26.5223 159.977 26.5753 159.838C28.0939 155.987 30.2352 152.411 32.9134 149.256C33.1062 148.974 33.323 148.71 33.5613 148.466C34.9439 147.196 36.1531 145.749 37.1576 144.162C37.7286 143.358 38.5123 142.73 39.4205 142.348C40.3125 141.963 41.2327 141.634 42.1247 141.239C43.7398 140.534 45.3266 139.773 46.9511 139.096C47.5803 138.777 48.2664 138.585 48.9699 138.532C50.6882 138.532 51.7868 137.527 53.0356 136.578C53.1618 136.492 53.2494 136.36 53.2798 136.211C53.2798 135.187 53.5708 134.106 52.8103 133.194C52.676 133.062 52.5677 132.906 52.491 132.734C52.0403 130.948 50.9042 129.341 51.0074 127.396C51.0259 127.117 50.9871 126.837 50.8935 126.573C50.7998 126.31 50.6533 126.068 50.4628 125.864C50.087 125.401 49.7947 124.876 49.599 124.313C49.248 123.238 48.7004 122.237 47.9839 121.362C46.9095 120.006 46.0016 118.526 45.2797 116.954C43.2299 112.601 40.88 108.396 38.2468 104.37C36.9331 102.275 35.8291 100.056 34.951 97.7443C33.1765 93.4372 31.0895 89.2658 28.7068 85.2636C27.5219 83.1192 26.4714 80.9033 25.5612 78.6285C24.2185 75.5647 22.9602 72.4633 21.5799 69.4183C20.8817 67.9221 20.0947 66.4691 19.2231 65.0669C18.1796 63.3716 17.3203 61.5694 16.6597 59.6912C16.1621 58.272 15.5611 56.8717 14.9883 55.4996C14.716 54.8417 14.378 54.212 14.1433 53.5354C13.2678 50.9344 12.0958 48.4431 10.6503 46.1108C10.3569 45.6299 10.1146 45.1197 9.92726 44.5883C9.87316 44.4878 9.84019 44.3773 9.83037 44.2636C9.82055 44.1499 9.83408 44.0353 9.87015 43.9271C9.90621 43.8188 9.96404 43.719 10.0401 43.6339C10.1161 43.5489 10.2087 43.4803 10.3122 43.4323C10.7066 43.235 11.054 43.4323 11.3639 43.9962C13.0537 46.8791 14.4955 49.9005 15.6738 53.0279C16.6128 55.6218 17.6644 58.1405 18.7442 60.6592C19.2607 61.8621 19.9461 62.9899 20.5565 64.1553C21.5612 66.0819 22.6504 67.9709 23.5424 69.954C25.0917 73.4219 26.472 76.9556 28.0119 80.4235C28.7835 82.175 29.6583 83.879 30.6317 85.5267C32.6282 88.834 34.3673 92.2902 35.8336 95.8647C37.1266 99.0882 38.7337 102.176 40.6318 105.084C42.8807 108.598 44.8915 112.259 46.6506 116.043C47.3739 117.615 48.2582 119.108 49.2891 120.497C49.979 121.498 50.6184 122.533 51.2046 123.599ZM58.1343 122.79V122.537C57.3795 122.368 56.6066 122.296 55.8338 122.321C54.649 122.586 53.6088 123.291 52.923 124.294C52.4065 124.924 52.6694 125.647 52.7258 126.343C52.7445 126.455 52.7445 126.569 52.7258 126.681C52.1718 128.692 53.7211 130.206 53.9746 132.029C53.9746 132.217 54.2845 132.358 54.3784 132.555C54.6042 132.939 54.7629 133.358 54.8479 133.796C55.2047 137.038 54.9417 137.555 52.1154 139.265C51.408 139.682 50.621 139.944 49.8056 140.036C48.8285 140.077 47.8795 140.375 47.0544 140.901C46.7045 141.12 46.3332 141.302 45.9464 141.446C44.3125 142.104 42.6975 142.799 41.0355 143.401C39.6774 143.887 38.5251 144.822 37.7679 146.051C37.3175 146.832 36.7683 147.553 36.1341 148.194C34.2783 150.053 32.62 152.101 31.1857 154.302C29.3077 156.793 28.3687 159.763 27.1293 162.582C27.0266 162.826 26.9571 163.082 26.9227 163.344C26.7526 165.363 26.3878 167.362 25.8335 169.311C25.7943 169.458 25.7784 169.611 25.7866 169.762C25.6927 173.136 25.58 176.51 25.5424 179.894C25.5855 180.862 25.6985 181.827 25.8805 182.779C26.0204 183.477 26.1145 184.183 26.1621 184.894C26.063 186.172 26.3163 187.452 26.8945 188.596C27.092 188.96 27.2164 189.359 27.2607 189.771C27.6082 192.591 29.7866 194.395 31.1763 196.632C31.2686 196.75 31.3835 196.849 31.5143 196.923C32.4533 197.684 33.458 198.464 34.4533 199.198C34.8339 199.502 35.2666 199.734 35.7303 199.884C37.9651 200.391 40.059 201.378 42.3689 201.594C43.3078 201.688 44.2468 201.848 45.1858 202.008C48.5415 202.628 51.9429 202.967 55.3549 203.023C56.1787 203.035 57.0007 203.104 57.815 203.229C59.0367 203.454 60.294 203.39 61.4864 203.041C61.9465 202.891 62.4254 202.835 62.9137 202.722C66.5501 201.91 69.9983 200.41 73.0734 198.305C74.1344 197.553 75.2612 196.876 76.3879 196.199C77.0828 195.777 77.8246 195.429 78.5382 195.015C79.0706 194.777 79.5644 194.46 80.003 194.076C80.3126 193.612 80.5738 193.117 80.7824 192.6C80.9626 192.332 81.1809 192.091 81.4303 191.886C81.9699 191.497 82.47 191.057 82.9232 190.57C83.7753 189.51 84.7178 188.525 85.7402 187.628C87.3347 186.193 88.5808 184.412 89.3834 182.422C89.7308 181.482 90.3223 180.542 90.7167 179.602C90.9096 179.197 91.0576 178.771 91.158 178.334C91.5399 176.535 91.9061 174.734 92.2566 172.93C92.3622 172.454 92.422 171.969 92.4351 171.482C92.4351 169.076 92.4351 166.67 92.4351 164.265C92.496 163.047 92.167 161.842 91.4961 160.825C90.812 159.831 90.3655 158.692 90.1909 157.498C90.0901 156.829 89.9072 156.176 89.6463 155.552C88.4352 152.879 86.7381 150.453 84.6415 148.4C84.003 147.78 83.4866 147.038 82.8951 146.352C82.6603 146.079 82.4443 145.694 82.1345 145.581C81.008 145.122 80.0322 144.357 79.3176 143.372C79.1524 143.142 78.9288 142.959 78.6697 142.843C78.4106 142.728 78.1253 142.683 77.8434 142.715C77.4498 142.749 77.0535 142.697 76.6821 142.562C76.3107 142.428 75.9732 142.213 75.6931 141.934C75.3945 141.666 75.0138 141.507 74.6133 141.483C74.0686 141.41 73.541 141.241 73.0546 140.985C72.0968 140.702 71.2101 140.219 70.4536 139.566C70.3316 139.435 70.0311 139.472 69.8057 139.425C69.1103 139.26 68.4934 138.859 68.0603 138.29C67.6271 137.721 67.4044 137.02 67.4301 136.305C67.4666 135.049 67.9532 133.848 68.801 132.922C69.8151 131.947 70.5896 130.75 71.064 129.426C71.3213 128.831 71.4169 128.178 71.3411 127.535C71.2652 126.891 71.0206 126.279 70.632 125.76C69.4959 125.76 69.4489 125.76 69.0545 126.7C68.6602 127.64 68.3973 128.58 68.0311 129.52C67.9233 129.988 67.6932 130.419 67.3644 130.769C66.6136 131.393 65.7402 131.85 64.801 132.113C63.1565 132.483 61.4711 132.638 59.7869 132.574C58.6413 132.48 57.815 131.709 56.8197 131.315C56.6789 131.258 56.5662 131.033 56.5004 130.863C55.828 129.314 55.3882 127.673 55.1953 125.995C55.0724 125.501 55.1443 124.978 55.396 124.536C55.6478 124.093 56.06 123.764 56.5474 123.617L58.1343 122.79ZM27.1481 224.291C27.1832 224.388 27.2379 224.477 27.3087 224.553C27.3795 224.629 27.4651 224.689 27.56 224.73C27.6549 224.772 27.7573 224.793 27.8609 224.793C27.9644 224.794 28.0669 224.773 28.1622 224.732C28.517 224.517 28.7972 224.198 28.9651 223.818C29.133 223.438 29.1805 223.016 29.1011 222.608C29.0076 222.302 29.0076 221.975 29.1011 221.668C29.3804 220.814 29.729 219.985 30.1434 219.187C31.1387 217.374 32.2092 215.607 33.242 213.83C33.5003 213.462 33.7205 213.069 33.8993 212.656C34.021 212.27 34.021 211.857 33.8993 211.472C33.8291 211.33 33.7243 211.208 33.5946 211.118C33.465 211.027 33.3146 210.971 33.1575 210.955C32.9228 210.955 32.6223 211.284 32.4721 211.537C32.1622 212.082 31.9838 212.703 31.6739 213.248C30.5753 215.212 29.411 217.139 28.3594 219.122C27.6106 220.508 27.1536 222.034 27.0166 223.605C27.0287 223.84 27.0697 224.074 27.1387 224.3L27.1481 224.291ZM262.296 219.498C261.094 216.387 259.864 213.276 257.601 210.748C257.496 210.633 257.366 210.544 257.221 210.487C257.076 210.43 256.92 210.407 256.765 210.419C256.623 210.487 256.5 210.59 256.409 210.718C256.317 210.846 256.258 210.995 256.239 211.152C256.327 211.617 256.516 212.057 256.793 212.44C257.329 213.062 257.824 213.718 258.277 214.404C259.376 216.603 260.634 218.755 260.981 221.264C261.003 221.413 261.044 221.558 261.103 221.697C261.291 222.101 261.554 222.402 262.042 222.345C262.53 222.289 262.756 221.894 262.775 221.152C262.634 220.729 262.512 220.099 262.286 219.507L262.296 219.498ZM218.051 221.02C218.39 221.043 218.724 220.939 218.99 220.729C219.214 220.528 219.383 220.272 219.478 219.986C220.333 218.107 221.197 216.161 221.995 214.225C222.225 213.442 222.683 212.745 223.309 212.223C223.532 212.047 223.701 211.812 223.798 211.545C223.894 211.277 223.913 210.988 223.854 210.71C223.798 210.297 223.572 209.94 223.15 209.987C222.846 210.065 222.578 210.244 222.389 210.494C222.166 210.788 221.971 211.103 221.807 211.434C221.415 211.971 221.063 212.536 220.755 213.126C220.051 214.733 219.422 216.377 218.727 217.994C218.497 218.417 218.24 218.826 217.957 219.216C217.77 219.526 217.61 219.855 217.385 220.287C217.61 220.513 217.779 220.935 218.051 221.02ZM277.901 188.126C277.781 188.197 277.679 188.295 277.604 188.413C277.529 188.53 277.483 188.664 277.47 188.803C277.496 188.94 277.553 189.069 277.636 189.181C277.719 189.294 277.826 189.386 277.948 189.452C278.273 189.539 278.609 189.574 278.944 189.555C279.428 189.561 279.912 189.605 280.39 189.687C281.554 189.959 282.7 190.297 283.855 190.626C285.01 190.955 286.23 190.946 287.169 191.858C287.312 191.922 287.468 191.949 287.624 191.938C287.779 191.926 287.93 191.876 288.061 191.792C288.159 191.667 288.228 191.523 288.264 191.368C288.299 191.214 288.301 191.054 288.268 190.899C288.227 190.757 288.157 190.626 288.061 190.514C287.966 190.402 287.847 190.312 287.714 190.25C286.941 189.877 286.14 189.562 285.319 189.311C283.995 188.935 282.643 188.634 281.301 188.305L279.526 187.863C278.975 187.897 278.428 187.982 277.892 188.117L277.901 188.126ZM144.633 224.178C144.619 224.403 144.619 224.629 144.633 224.854C144.698 225.569 145.027 225.945 145.572 225.907C146.116 225.869 146.22 225.55 146.257 224.807C146.282 224.099 146.354 223.392 146.473 222.693C146.933 220.419 147.412 218.154 147.891 215.87C147.91 215.716 147.891 215.561 147.835 215.416C147.779 215.272 147.689 215.144 147.572 215.043C147.418 214.978 147.251 214.955 147.086 214.977C146.921 214.998 146.764 215.063 146.633 215.165C146.348 215.497 146.148 215.894 146.051 216.321C145.825 217.261 145.675 218.201 145.497 219.084L144.558 224.159L144.633 224.178ZM78.9044 216.857C78.9044 216.067 78.9607 215.278 78.9044 214.498C78.859 213.438 78.4204 212.432 77.6744 211.678C77.6021 211.591 77.513 211.519 77.4124 211.467C77.3117 211.414 77.2016 211.383 77.0886 211.374C76.9756 211.365 76.862 211.38 76.7545 211.416C76.647 211.452 76.5479 211.509 76.4631 211.584C76.3838 211.652 76.3201 211.737 76.2764 211.831C76.2328 211.926 76.2102 212.03 76.2102 212.134C76.2102 212.239 76.2328 212.342 76.2764 212.437C76.3201 212.532 76.3838 212.616 76.4631 212.684C76.8074 213.085 77.068 213.551 77.2292 214.055C77.3905 214.558 77.4493 215.089 77.402 215.616C77.402 216.772 77.402 217.937 77.402 219.103C77.3866 219.517 77.4627 219.93 77.625 220.312C77.7873 220.694 78.0318 221.035 78.341 221.311C78.8481 221.781 79.28 221.856 79.618 221.518C79.7028 221.44 79.7692 221.344 79.8126 221.238C79.856 221.131 79.8752 221.016 79.8689 220.901C79.8627 220.786 79.831 220.674 79.7763 220.573C79.7215 220.471 79.645 220.383 79.5523 220.315C79.3286 220.061 79.1624 219.761 79.0652 219.437C78.9679 219.113 78.9419 218.771 78.9889 218.436C78.9889 217.909 78.9889 217.383 78.9889 216.857H78.9044ZM13.7677 189.508C13.6757 189.484 13.5798 189.48 13.4861 189.495C13.3923 189.51 13.3026 189.544 13.2226 189.595C13.1425 189.646 13.0737 189.713 13.0205 189.792C12.9673 189.871 12.9308 189.96 12.9132 190.053C12.7254 190.852 12.1245 191.2 11.5047 191.566C11.1198 191.801 10.716 191.999 10.3592 192.262C9.36388 193.004 8.37795 193.737 7.43898 194.536C7.15262 194.76 6.91973 195.044 6.75729 195.37C6.59485 195.695 6.50695 196.052 6.5 196.416C6.5 197.008 6.73474 197.355 7.17606 197.421C7.27969 197.434 7.38489 197.426 7.48512 197.396C7.58534 197.367 7.67843 197.317 7.7586 197.25C7.83876 197.183 7.90428 197.1 7.95107 197.007C7.99785 196.913 8.0249 196.811 8.03053 196.707C8.10162 196.376 8.23788 196.063 8.43135 195.785C8.62482 195.508 8.87161 195.271 9.1573 195.09C9.99299 194.47 10.8662 193.897 11.7395 193.305C12.2935 192.929 12.8756 192.591 13.4202 192.196C13.6992 191.984 13.928 191.714 14.0903 191.403C14.2527 191.093 14.3445 190.751 14.3592 190.401C14.3895 190.208 14.3479 190.01 14.2423 189.845C14.1368 189.681 13.9746 189.561 13.7864 189.508H13.7677ZM119.524 216.763C121.431 214.638 123.031 212.256 124.276 209.686C124.328 209.529 124.342 209.362 124.317 209.199C124.293 209.036 124.23 208.881 124.135 208.746C124.074 208.673 123.998 208.614 123.912 208.574C123.826 208.534 123.732 208.513 123.637 208.513C123.542 208.513 123.448 208.534 123.362 208.574C123.276 208.614 123.2 208.673 123.14 208.746C122.846 209.035 122.599 209.368 122.407 209.733C121.277 212.025 119.801 214.13 118.032 215.973C117.868 216.129 117.745 216.323 117.675 216.537C117.543 217.026 117.891 217.477 118.614 217.411C118.94 217.233 119.251 217.029 119.543 216.8L119.524 216.763ZM203.516 118.148C203.967 118.737 204.287 119.417 204.455 120.14C205.244 122.349 207.009 123.476 209.046 124.285C209.213 124.362 209.403 124.373 209.577 124.315C209.752 124.258 209.898 124.136 209.985 123.975C210.037 123.883 210.069 123.783 210.079 123.679C210.09 123.575 210.079 123.47 210.047 123.37C210.016 123.27 209.964 123.178 209.895 123.1C209.826 123.021 209.742 122.957 209.647 122.913C209.272 122.678 208.859 122.499 208.455 122.292C207.747 121.975 207.123 121.496 206.634 120.894C206.145 120.291 205.804 119.583 205.638 118.824C205.543 118.386 205.424 117.953 205.281 117.527C205.224 117.29 205.09 117.079 204.899 116.928C204.709 116.776 204.473 116.693 204.229 116.691C203.582 116.757 203.028 117.65 203.535 118.185L203.516 118.148ZM276.39 118.279C276.064 118.386 275.77 118.574 275.537 118.825C275.304 119.077 275.138 119.384 275.056 119.717C274.753 120.794 274.354 121.841 273.864 122.847C273.808 123.182 273.672 123.499 273.468 123.771C273.263 124.042 272.997 124.26 272.69 124.407C272.579 124.49 272.489 124.6 272.43 124.726C272.371 124.853 272.345 124.991 272.352 125.131C272.396 125.268 272.47 125.395 272.567 125.502C272.664 125.609 272.783 125.694 272.916 125.751C273.161 125.857 273.435 125.871 273.69 125.792C273.945 125.713 274.163 125.545 274.305 125.319C274.689 124.852 275.005 124.333 275.244 123.777C275.706 122.51 276.338 121.312 277.122 120.215C277.314 119.916 277.48 119.602 277.62 119.276C277.667 118.467 277.056 118.035 276.409 118.317L276.39 118.279ZM294.456 134.961C294.204 135.024 293.963 135.125 293.742 135.262C291.742 136.352 289.883 137.715 287.686 138.438C287.503 138.483 287.344 138.598 287.244 138.758C287.112 139.009 287.075 139.3 287.141 139.576C287.319 139.793 287.569 139.94 287.845 139.989C287.995 139.989 288.202 139.923 288.38 139.867C290.728 139.106 292.709 137.668 294.803 136.446C295.066 136.296 295.207 135.957 295.319 135.807C295.31 135.243 294.925 134.914 294.474 134.999L294.456 134.961ZM14.1433 150.665C14.4286 151.196 14.7421 151.71 15.0822 152.207C15.3802 152.597 15.7886 152.888 16.2542 153.042C16.7198 153.196 17.2211 153.206 17.6926 153.071C18.0776 152.959 18.3687 152.733 18.3499 152.291C18.343 152.101 18.2649 151.92 18.1311 151.784C17.9972 151.648 17.8172 151.568 17.6269 151.558C17.5552 151.549 17.4826 151.549 17.4109 151.558C16.594 151.652 16.1902 151.163 15.871 150.515C15.6222 149.971 15.3334 149.447 15.0071 148.946C14.8367 148.628 14.6015 148.351 14.3168 148.13C14.032 147.91 13.7042 147.752 13.3545 147.667C12.9652 147.601 12.5649 147.678 12.2277 147.884C12.0502 148.029 11.9321 148.235 11.8958 148.462C11.8595 148.689 11.9074 148.921 12.0306 149.115C12.1492 149.474 12.4026 149.772 12.7373 149.948C13.072 150.123 13.4617 150.161 13.824 150.055L14.1433 150.665ZM129.637 117.979C130.323 119.727 131.008 121.465 131.759 123.176C131.82 123.296 131.915 123.395 132.033 123.461C132.15 123.527 132.284 123.556 132.419 123.545C132.553 123.534 132.68 123.483 132.785 123.399C132.891 123.315 132.968 123.201 133.008 123.072C133.114 122.72 133.114 122.344 133.008 121.992C132.82 121.461 132.584 120.948 132.304 120.46C131.533 119.248 131.131 117.837 131.149 116.4C131.18 116.25 131.16 116.095 131.093 115.958C130.895 115.723 130.68 115.394 130.407 115.328C129.994 115.234 129.712 115.573 129.628 115.967C129.576 116.278 129.545 116.592 129.534 116.907C129.534 117.268 129.578 117.628 129.665 117.979H129.637ZM185.976 215.221C186.389 215.146 186.68 214.93 186.689 214.488C186.696 214.298 186.631 214.113 186.507 213.969C186.384 213.825 186.211 213.732 186.023 213.708C185.875 213.671 185.724 213.652 185.572 213.652C185.102 213.625 184.644 213.491 184.234 213.26C183.824 213.028 183.472 212.706 183.206 212.317C182.882 211.815 182.521 211.337 182.126 210.889C181.69 210.487 181.184 210.169 180.633 209.949C180.546 209.91 180.45 209.892 180.355 209.897C180.259 209.901 180.166 209.927 180.082 209.974C179.998 210.02 179.927 210.085 179.872 210.164C179.818 210.243 179.783 210.334 179.769 210.428C179.751 210.585 179.772 210.744 179.831 210.89C179.89 211.036 179.985 211.165 180.107 211.265C180.754 211.71 181.301 212.287 181.713 212.956C182.109 213.452 182.549 213.911 183.027 214.329C183.743 214.937 184.652 215.271 185.591 215.268L185.976 215.221ZM113.205 137.217C113.169 137.387 113.168 137.564 113.202 137.735C113.236 137.906 113.304 138.069 113.402 138.213C113.619 138.517 113.919 138.753 114.266 138.889C114.952 139.19 115.665 139.406 116.36 139.67C116.669 139.773 116.963 139.919 117.233 140.102C117.351 140.219 117.492 140.311 117.647 140.372C117.801 140.433 117.967 140.462 118.133 140.457C118.299 140.451 118.462 140.412 118.613 140.341C118.763 140.271 118.898 140.17 119.008 140.045C119.131 139.923 119.228 139.776 119.293 139.614C119.357 139.453 119.388 139.28 119.384 139.106C119.327 138.824 118.942 138.551 118.642 138.391C118.341 138.232 118.06 138.335 117.759 138.279C116.717 138.091 115.581 138.147 114.942 137.047C114.811 136.841 114.426 136.794 114.06 136.625C113.769 136.775 113.337 136.916 113.233 137.188L113.205 137.217ZM293.488 161.821C293.902 161.821 294.315 161.821 294.728 161.746C295.285 161.699 295.84 161.624 296.39 161.52C296.991 161.389 297.329 160.947 297.179 160.496C297.152 160.385 297.103 160.281 297.034 160.19C296.964 160.1 296.877 160.025 296.777 159.971C296.676 159.917 296.566 159.885 296.452 159.876C296.339 159.868 296.225 159.884 296.118 159.923C295.901 159.977 295.682 160.018 295.46 160.045C293.986 160.139 292.503 160.59 291.085 159.697C290.936 159.659 290.781 159.658 290.632 159.694C290.483 159.73 290.345 159.802 290.23 159.904C290.158 160.04 290.12 160.191 290.12 160.345C290.12 160.5 290.158 160.651 290.23 160.787C290.532 161.166 290.936 161.45 291.395 161.605C292.08 161.756 292.778 161.85 293.479 161.887L293.488 161.821ZM99.6839 139.265C100.726 138.23 101.505 136.961 101.956 135.563C102.008 135.461 102.037 135.349 102.041 135.235C102.046 135.121 102.025 135.007 101.982 134.902C101.938 134.796 101.872 134.702 101.788 134.624C101.704 134.547 101.605 134.489 101.496 134.454C101.008 134.322 100.726 134.585 100.51 134.989C100.153 135.685 99.7872 136.39 99.4116 137.076C99.2765 137.407 99.0618 137.699 98.7866 137.927C98.5114 138.155 98.1842 138.311 97.8342 138.382C97.6608 138.437 97.5002 138.526 97.3615 138.644C97.2229 138.762 97.109 138.906 97.0266 139.068C96.7449 139.594 97.1769 140.149 97.9656 140.111C98.5941 139.915 99.1916 139.63 99.7403 139.265H99.6839ZM220.962 114.717V114.05C220.962 113.336 220.962 112.622 220.906 111.917C220.849 111.212 220.37 110.883 219.882 110.977C219.394 111.071 219.3 111.522 219.309 112.03C219.309 113.909 219.309 115.789 219.309 117.603C219.321 117.758 219.367 117.909 219.445 118.044C219.523 118.18 219.631 118.295 219.76 118.383C219.912 118.42 220.07 118.419 220.221 118.379C220.371 118.34 220.51 118.264 220.624 118.157C220.858 117.828 220.998 117.441 221.028 117.039C221.084 116.259 221.028 115.469 221.028 114.689L220.962 114.717ZM203.028 190.109C202.43 190.072 201.831 190.072 201.234 190.109C200.682 190.194 200.145 190.356 199.638 190.589C199.454 190.665 199.303 190.804 199.212 190.982C199.122 191.159 199.097 191.363 199.144 191.557C199.19 191.751 199.304 191.922 199.465 192.039C199.627 192.156 199.824 192.212 200.023 192.196C200.463 192.153 200.899 192.077 201.328 191.97C201.748 191.853 202.175 191.759 202.605 191.688C203.309 191.641 204.023 191.688 204.727 191.641C205.206 191.641 205.61 191.397 205.666 190.833C205.722 190.269 205.375 190.119 204.727 190.081C204.079 190.044 203.6 190.081 203.046 190.081L203.028 190.109ZM199.328 136.69C199.816 136.596 200.201 136.39 200.164 135.816C200.126 135.243 199.694 135.102 199.046 135.13C198.932 135.136 198.819 135.152 198.708 135.177C197.835 135.403 196.971 135.657 196.314 134.67C196.211 134.519 195.675 134.519 195.375 134.67C195.074 134.82 194.971 135.168 195.093 135.544C195.413 136.578 196.089 137.076 197.506 137.057L199.328 136.69ZM127.787 174.443C127.5 174.54 127.255 174.736 127.095 174.995C126.936 175.254 126.872 175.561 126.914 175.862C126.989 176.473 127.356 176.802 128.069 176.858C128.649 176.925 129.236 176.876 129.797 176.715C130.358 176.554 130.881 176.283 131.337 175.918C132.29 175.183 133.062 174.237 133.59 173.155C133.817 172.685 133.945 172.173 133.966 171.651C133.966 169.631 133.384 167.949 131.403 167.046C131.128 166.928 130.894 166.732 130.728 166.484C130.561 166.236 130.47 165.945 130.464 165.646C130.417 164.857 130.464 164.067 130.36 163.287C130.229 161.736 131.299 160.834 132.126 159.782C132.255 159.66 132.427 159.593 132.604 159.594C133.327 159.594 134.069 159.434 134.745 159.988C135.421 160.543 135.928 160.12 135.994 159.377C136.021 159.236 136.017 159.089 135.983 158.949C135.949 158.808 135.886 158.677 135.797 158.563C135.708 158.449 135.596 158.356 135.468 158.289C135.34 158.222 135.199 158.183 135.055 158.175C134.277 158.063 133.493 157.994 132.708 157.968C132.315 157.935 131.92 158.004 131.561 158.169C131.202 158.333 130.892 158.588 130.661 158.908C130.184 159.487 129.745 160.096 129.346 160.731C129.043 161.244 128.845 161.813 128.764 162.404C128.698 163.414 128.698 164.428 128.764 165.439C128.744 166.103 128.929 166.757 129.294 167.312C129.658 167.867 130.185 168.296 130.802 168.541C131.213 168.73 131.567 169.026 131.826 169.397C132.085 169.769 132.24 170.203 132.276 170.655C132.347 171.659 132.072 172.657 131.496 173.481C130.919 174.306 130.078 174.908 129.111 175.185C128.586 174.386 128.323 174.245 127.787 174.443ZM173.478 157.441C173.625 157.345 173.748 157.216 173.837 157.064C173.927 156.913 173.981 156.743 173.994 156.567C173.911 156.218 173.695 155.915 173.394 155.722C173.12 155.599 172.818 155.553 172.52 155.59C171.49 155.64 170.503 156.019 169.703 156.671C169.42 156.902 169.103 157.089 168.764 157.225C167.403 157.629 167.018 157.977 166.98 159.396C166.877 162.657 166.83 165.975 166.821 169.189C166.802 169.483 166.853 169.778 166.969 170.049C167.085 170.32 167.263 170.56 167.489 170.749C167.714 170.938 167.981 171.072 168.268 171.139C168.555 171.206 168.854 171.204 169.14 171.135C170.323 170.975 171.506 170.834 172.68 170.608C172.831 170.56 172.969 170.479 173.086 170.372C173.202 170.265 173.295 170.134 173.356 169.988C173.391 169.899 173.405 169.803 173.399 169.708C173.392 169.612 173.365 169.519 173.318 169.436C173.271 169.352 173.207 169.28 173.129 169.224C173.051 169.169 172.962 169.131 172.868 169.114C172.392 169.039 171.907 169.039 171.431 169.114C170.689 169.208 169.957 169.396 169.224 169.509C168.943 169.534 168.661 169.534 168.379 169.509L168.567 165.101C168.925 164.76 169.351 164.5 169.818 164.338C170.284 164.175 170.78 164.115 171.271 164.161C171.615 164.167 171.949 164.047 172.21 163.823C172.303 163.775 172.386 163.71 172.453 163.63C172.52 163.549 172.571 163.457 172.601 163.357C172.632 163.257 172.642 163.152 172.632 163.048C172.621 162.944 172.589 162.843 172.539 162.751C172.332 162.366 171.994 162.338 171.6 162.413C170.661 162.582 169.722 162.704 168.624 162.864C168.525 161.675 168.541 160.479 168.67 159.293L171.6 157.592C172.173 158.09 172.868 157.799 173.478 157.441ZM179.675 163.71C179.82 164.475 180.138 165.197 180.605 165.819C181.072 166.441 181.676 166.948 182.37 167.3C182.671 167.469 182.99 167.582 183.309 167.761C183.422 167.805 183.525 167.874 183.609 167.962C183.694 168.049 183.759 168.154 183.8 168.269C183.841 168.384 183.857 168.506 183.847 168.627C183.836 168.749 183.8 168.867 183.741 168.973C183.681 169.069 183.602 169.151 183.51 169.216C183.417 169.28 183.312 169.325 183.202 169.348C183.091 169.371 182.977 169.371 182.866 169.349C182.756 169.326 182.651 169.282 182.558 169.217C181.315 168.673 180.222 167.834 179.375 166.774C179.337 166.694 179.279 166.625 179.206 166.574C179.134 166.523 179.05 166.492 178.962 166.482C178.887 166.868 178.849 167.253 178.736 167.629C178.714 167.74 178.67 167.845 178.606 167.939C178.542 168.032 178.459 168.111 178.363 168.171C178.267 168.231 178.16 168.27 178.048 168.287C177.936 168.304 177.822 168.297 177.713 168.268C177.234 168.127 177.121 167.779 177.14 167.328C177.206 166.05 177.14 164.772 177.29 163.513C177.431 161.943 177.666 160.383 177.872 158.814C177.899 158.378 178.07 157.963 178.36 157.636C178.649 157.309 179.039 157.088 179.469 157.009C179.91 156.906 180.314 156.69 180.755 156.596C181.61 156.417 182.239 156.699 182.408 157.535C182.672 158.82 182.829 160.125 182.877 161.436C182.861 161.887 182.691 162.32 182.396 162.662C182.1 163.004 181.697 163.234 181.253 163.315C180.718 163.494 180.239 163.578 179.675 163.71ZM180.943 158.212C180.229 158.447 179.572 158.391 179.403 159.058C179.168 159.998 179.037 160.938 178.83 162.009C179.361 162.007 179.891 161.969 180.417 161.896C181.093 161.755 181.281 161.511 181.234 160.787C181.187 160.064 181.056 159.18 180.943 158.212ZM158.192 167.291C158.126 167.037 158.079 166.783 158.032 166.52C157.624 164.077 157.463 161.599 157.553 159.124C157.553 158.823 157.553 158.522 157.553 158.184C157.497 157.733 157.281 157.385 156.774 157.385C156.267 157.385 156.116 157.695 156.022 158.09C156.013 158.24 156.013 158.391 156.022 158.541C155.902 162.035 156.218 165.529 156.961 168.945C157.027 169.313 157.15 169.668 157.328 169.997C157.404 170.18 157.53 170.338 157.693 170.451C157.856 170.564 158.048 170.627 158.246 170.634C158.443 170.641 158.639 170.591 158.809 170.49C158.98 170.389 159.117 170.24 159.206 170.063C159.481 169.574 159.704 169.058 159.872 168.522C160.897 165.263 162.152 162.082 163.628 159.002C163.919 158.456 163.816 158.062 163.412 157.827C163.314 157.77 163.204 157.734 163.091 157.722C162.978 157.71 162.863 157.722 162.755 157.758C162.647 157.793 162.548 157.851 162.463 157.928C162.379 158.005 162.312 158.098 162.267 158.203C161.905 158.804 161.591 159.432 161.328 160.082C160.511 162.178 159.731 164.293 158.943 166.398C158.811 166.736 158.67 167.075 158.52 167.432C158.285 167.394 158.21 167.347 158.192 167.291ZM148.398 169.17C148.558 167.714 148.755 166.266 148.867 164.81C148.916 162.742 149.212 160.688 149.75 158.691C149.75 158.579 149.816 158.475 149.835 158.362C149.871 158.181 149.841 157.993 149.749 157.832C149.657 157.672 149.51 157.551 149.335 157.491C149.161 157.431 148.97 157.437 148.799 157.507C148.629 157.578 148.489 157.708 148.407 157.874C148.253 158.131 148.148 158.415 148.098 158.71C147.835 160.298 147.553 161.887 147.374 163.494C147.329 165.37 147.138 167.24 146.802 169.086C146.74 169.395 146.724 169.712 146.755 170.026C146.755 171.163 147.149 171.548 148.257 171.464C149.365 171.379 150.567 171.191 151.722 171.022C151.978 170.976 152.225 170.89 152.454 170.768C152.636 170.7 152.784 170.564 152.866 170.388C152.949 170.213 152.959 170.012 152.896 169.828C152.845 169.644 152.724 169.488 152.559 169.393C152.393 169.298 152.197 169.272 152.013 169.321C151.75 169.321 151.497 169.443 151.243 169.48L148.426 169.856C148.398 169.518 148.379 169.34 148.398 169.17ZM140.961 159.528C140.473 159.453 140.088 159.838 140.022 160.543C139.7 163.187 139.65 165.858 139.872 168.512C139.914 169.031 139.886 169.553 139.788 170.063C139.703 170.552 139.656 171.003 140.21 171.172C140.327 171.212 140.451 171.226 140.575 171.214C140.698 171.201 140.817 171.163 140.923 171.1C141.03 171.038 141.122 170.953 141.194 170.852C141.265 170.751 141.314 170.636 141.337 170.514C141.462 169.855 141.513 169.183 141.487 168.512C141.487 167.469 141.337 166.417 141.356 165.374C141.356 163.804 141.487 162.235 141.562 160.674C141.656 159.998 141.421 159.594 140.961 159.528ZM226.643 190.269C230.446 188.681 234.267 187.13 238.051 185.486C239.704 184.771 241.272 183.878 242.878 183.061C244.483 182.243 245.911 181.407 247.469 180.683C252.32 178.384 257.04 175.821 261.61 173.005C263.282 172.009 265.047 171.125 266.775 170.27C267.714 169.772 268.746 169.33 269.714 168.86C270.045 168.688 270.334 168.444 270.559 168.146C270.626 168.039 270.666 167.916 270.674 167.79C270.682 167.664 270.659 167.537 270.606 167.422C270.407 167.218 270.146 167.085 269.864 167.046C269.676 167.046 269.451 167.187 269.244 167.281C268.305 167.723 267.451 168.221 266.521 168.616C264.355 169.566 262.261 170.675 260.258 171.933C256.279 174.417 252.163 176.673 247.929 178.691C246.399 179.414 244.84 180.082 243.385 180.927C240.829 182.432 238.171 183.757 235.432 184.894C232.793 185.965 230.164 187.055 227.525 188.136C227.037 188.333 226.586 188.54 226.089 188.775C225.848 188.876 225.64 189.042 225.488 189.254C225.384 189.523 225.384 189.821 225.488 190.091C225.572 190.269 225.882 190.363 226.07 190.476C226.286 190.391 226.502 190.344 226.643 190.269ZM270.39 172.206C270.215 172.164 270.034 172.158 269.858 172.191C269.682 172.223 269.514 172.292 269.366 172.394C268.449 173.288 267.346 173.968 266.136 174.386C262.332 176.27 258.65 178.392 255.113 180.74C254.231 181.306 253.39 181.934 252.596 182.619C251.171 183.838 249.593 184.865 247.901 185.674C244.396 187.501 240.678 188.884 236.831 189.79C236.426 189.863 236.036 190.003 235.676 190.203C235.549 190.27 235.444 190.372 235.374 190.497C235.303 190.622 235.27 190.764 235.279 190.908C235.288 191.051 235.339 191.188 235.424 191.303C235.509 191.419 235.626 191.507 235.76 191.557C236.107 191.656 236.475 191.656 236.821 191.557C237.188 191.491 237.507 191.247 237.864 191.162C241.797 190.2 245.586 188.721 249.131 186.764C250.598 185.935 252.01 185.012 253.357 184.001C254.69 183.061 255.939 182.046 257.31 181.181C260.67 178.987 264.181 177.034 267.817 175.336C268.26 175.135 268.69 174.906 269.103 174.649C269.559 174.375 269.989 174.06 270.39 173.71C270.625 173.443 270.824 173.146 270.981 172.826C270.775 172.601 270.634 172.253 270.39 172.206ZM220.577 149.397C222.017 148.856 223.383 148.136 224.643 147.254C226.032 146.37 227.46 145.572 228.943 144.829C230.577 143.993 232.267 143.278 233.92 142.461C235.263 141.794 236.577 141.079 237.882 140.337C239.873 139.209 241.873 138.1 243.807 136.888C245.253 135.937 246.86 135.258 248.549 134.886C249.186 134.795 249.814 134.651 250.427 134.454C250.862 134.265 251.245 133.975 251.544 133.608C251.668 133.458 251.728 133.267 251.712 133.074C251.697 132.88 251.606 132.701 251.46 132.574C251.141 132.273 250.803 132.377 250.427 132.574C249.981 132.83 249.5 133.02 249 133.138C246.892 133.531 244.88 134.329 243.075 135.487C238.62 138.342 233.956 140.855 229.122 143.006C227.141 143.836 225.252 144.872 223.488 146.098C222.366 146.918 221.12 147.553 219.798 147.978C219.542 148.027 219.303 148.14 219.103 148.306C218.997 148.422 218.916 148.559 218.866 148.708C218.816 148.857 218.797 149.015 218.812 149.171C218.878 149.415 219.253 149.566 219.46 149.726C219.929 149.585 220.258 149.5 220.577 149.397ZM222.38 186.689C222.934 186.388 223.469 186.04 224.042 185.796C225.76 185.053 227.572 184.48 229.225 183.615C233.967 181.125 238.69 178.578 243.31 175.918C245.623 174.525 248.04 173.312 250.54 172.291C251.206 172.037 251.854 171.745 252.493 171.435C253.131 171.125 253.498 170.618 253.244 170.157C252.99 169.697 252.559 169.678 251.845 169.988C251.131 170.298 250.249 170.636 249.469 171.003C247.638 171.877 245.798 172.713 244.014 173.663C241.563 174.96 239.15 176.341 236.727 177.685C235.713 178.249 234.68 178.785 233.676 179.386C230.348 181.428 226.814 183.111 223.131 184.405C222.534 184.63 221.977 184.947 221.478 185.345C221.236 185.572 221.074 185.872 221.018 186.2C220.934 186.651 221.319 187.017 221.854 186.999L222.38 186.689ZM216.802 161.473C217.018 161.962 217.253 162.413 217.422 162.921C217.634 163.479 217.81 164.05 217.948 164.631C218.083 165.064 218.063 165.531 217.891 165.951C217.72 166.371 217.408 166.719 217.009 166.934C216.138 167.438 215.231 167.878 214.295 168.249C213.98 168.358 213.639 168.369 213.317 168.28C212.995 168.191 212.708 168.007 212.492 167.751C212.17 167.45 211.923 167.076 211.772 166.662C211.62 166.247 211.568 165.803 211.619 165.364C211.525 162.433 211.938 159.508 212.84 156.718C212.984 156.232 213.238 155.785 213.581 155.412C213.925 155.039 214.349 154.749 214.821 154.566C215.162 154.411 215.54 154.359 215.91 154.415C218.248 155.064 219.995 157.573 218.23 159.97C217.782 160.497 217.306 160.999 216.802 161.473ZM214.107 166.605C217.056 165.43 216.624 165.242 215.751 163.062C215.751 162.986 215.685 162.921 215.657 162.855C215.636 162.744 215.593 162.639 215.529 162.546C215.466 162.454 215.384 162.375 215.289 162.316C215.193 162.257 215.086 162.218 214.975 162.202C214.864 162.187 214.751 162.194 214.643 162.225C214.533 162.259 214.417 162.268 214.304 162.252C214.19 162.236 214.082 162.196 213.986 162.133C213.89 162.07 213.809 161.987 213.749 161.889C213.689 161.791 213.651 161.681 213.638 161.567C213.544 161.022 213.901 160.75 214.352 160.58C214.49 160.521 214.635 160.48 214.784 160.458C215.496 160.344 216.14 159.964 216.586 159.396C217.638 158.278 217.525 157.3 216.295 156.379C216.177 156.257 216.031 156.165 215.87 156.112C215.708 156.059 215.536 156.046 215.368 156.075C215.201 156.103 215.043 156.173 214.908 156.277C214.773 156.381 214.666 156.516 214.596 156.671C214.42 156.965 214.284 157.281 214.192 157.611C213.504 159.87 213.162 162.222 213.178 164.584C213.121 164.968 213.178 165.361 213.344 165.712C213.509 166.063 213.775 166.358 214.107 166.558V166.605ZM225.563 163.484C225.563 164.302 225.563 164.969 225.563 165.627C225.57 166.002 225.52 166.377 225.413 166.736C225.389 166.833 225.344 166.923 225.281 167C225.218 167.077 225.139 167.14 225.049 167.183C224.96 167.226 224.862 167.249 224.762 167.249C224.663 167.25 224.564 167.229 224.474 167.187C224.211 167.075 223.873 166.717 223.882 166.492C224.051 163.541 223.77 160.543 224.558 157.639C224.812 156.776 225.175 155.948 225.638 155.176C225.739 154.96 225.902 154.777 226.106 154.652C226.31 154.527 226.546 154.464 226.785 154.472C227.024 154.48 227.256 154.558 227.451 154.697C227.646 154.836 227.796 155.028 227.882 155.252C228.219 156.042 228.682 156.772 229.253 157.413C229.457 157.679 229.577 157.999 229.601 158.333C229.624 158.667 229.549 159.001 229.385 159.293C228.906 160.468 228.53 161.727 227.122 162.422C228.308 163.164 229.241 164.249 229.798 165.533C229.863 165.688 229.971 165.821 230.109 165.916C230.247 166.011 230.41 166.064 230.577 166.069C230.672 166.08 230.763 166.111 230.846 166.159C230.928 166.206 231 166.27 231.057 166.347C231.114 166.423 231.155 166.511 231.178 166.603C231.2 166.696 231.203 166.793 231.187 166.887C231.163 167.186 231.064 167.474 230.9 167.725C230.736 167.976 230.512 168.182 230.248 168.325C230.047 168.368 229.836 168.344 229.649 168.255C229.463 168.167 229.31 168.02 229.216 167.836C228.793 167.084 228.399 166.313 227.995 165.552C227.444 164.605 226.586 163.876 225.563 163.484ZM225.685 160.815C226.314 160.815 226.821 160.985 227.075 160.496C227.395 159.833 227.677 159.152 227.92 158.456C227.92 158.391 227.845 158.259 227.779 158.175C227.441 157.742 227.094 157.319 226.709 156.821C225.817 158.043 225.91 159.406 225.666 160.815H225.685ZM239.497 131.07C237.967 131.672 236.427 132.283 234.915 132.95C234.326 133.214 233.76 133.528 233.225 133.89C229.995 135.948 226.784 138.034 223.554 140.092C222.831 140.562 222.089 141.032 221.338 141.436C221.112 141.559 220.821 141.737 220.615 141.681C219.92 141.493 219.478 141.878 218.971 142.207C218.464 142.536 217.741 142.921 217.093 143.269C216.831 143.419 216.539 143.523 216.295 143.692C215.807 144.021 215.657 144.444 215.892 144.829C215.999 145.03 216.182 145.181 216.4 145.248C216.618 145.315 216.854 145.293 217.056 145.186C217.272 145.102 217.469 145.008 217.676 144.904C218.615 144.481 219.554 144.077 220.427 143.617C221.657 142.987 222.915 142.376 224.089 141.643C227.037 139.764 229.957 137.884 232.878 135.948C234.635 134.81 236.527 133.898 238.511 133.232C238.98 133.097 239.433 132.914 239.864 132.687C240.11 132.499 240.326 132.274 240.502 132.019C240.587 131.174 240.098 130.826 239.479 131.07H239.497ZM247.244 193.812C249.149 193.12 250.965 192.202 252.652 191.077C254.436 189.978 256.267 188.944 258.061 187.854C259.563 186.914 261.084 186.031 262.493 184.987C263.976 183.834 265.593 182.865 267.31 182.102C267.758 181.915 268.181 181.672 268.568 181.379C268.663 181.315 268.743 181.233 268.803 181.137C268.864 181.04 268.903 180.932 268.919 180.82C268.935 180.707 268.927 180.592 268.896 180.483C268.865 180.373 268.81 180.272 268.737 180.185C268.603 180.023 268.411 179.92 268.202 179.899C267.992 179.878 267.783 179.94 267.62 180.072C267.213 180.334 266.789 180.57 266.352 180.777C264.739 181.495 263.219 182.407 261.826 183.493C260.815 184.271 259.762 184.993 258.671 185.655C255.948 187.309 253.206 188.925 250.455 190.542C249.038 191.466 247.467 192.128 245.817 192.497C245.63 192.53 245.447 192.583 245.272 192.656C245.052 192.718 244.865 192.864 244.752 193.063C244.64 193.262 244.611 193.498 244.671 193.718C244.793 194.235 245.197 194.414 245.901 194.423C246.329 194.191 246.771 193.987 247.225 193.812H247.244ZM244.577 159.415C244.799 160.045 245.116 160.638 245.516 161.173C246.389 161.816 247.044 162.712 247.394 163.738C247.394 163.954 247.92 164.199 248.183 164.189C248.497 164.111 248.769 163.916 248.943 163.644C249.085 163.38 249.168 163.088 249.188 162.789C249.62 160.43 250.07 158.09 250.465 155.703C250.521 155.142 250.502 154.576 250.408 154.021C250.402 153.925 250.377 153.832 250.335 153.746C250.292 153.66 250.233 153.584 250.16 153.522C250.087 153.459 250.003 153.412 249.912 153.383C249.82 153.355 249.724 153.344 249.629 153.353C249.438 153.355 249.255 153.429 249.116 153.559C248.977 153.69 248.892 153.868 248.878 154.058C248.852 154.242 248.837 154.427 248.831 154.613C248.765 155.402 248.746 156.192 248.624 156.972C248.427 158.278 248.164 159.575 247.929 160.909C247.526 160.787 247.16 160.562 246.867 160.258C246.575 159.954 246.365 159.579 246.258 159.171C246.039 158.375 245.74 157.604 245.366 156.868C245.271 156.66 245.118 156.484 244.926 156.36C244.734 156.237 244.51 156.171 244.281 156.171C244.053 156.171 243.829 156.237 243.637 156.36C243.445 156.484 243.292 156.66 243.197 156.868C242.947 157.326 242.817 157.84 242.821 158.362C242.821 159.641 242.972 160.909 243.047 162.178C243.217 163.029 243.149 163.911 242.85 164.725C242.812 164.879 242.814 165.039 242.855 165.192C242.896 165.345 242.975 165.485 243.084 165.599C243.222 165.711 243.382 165.791 243.554 165.834C243.727 165.876 243.906 165.879 244.08 165.843C244.233 165.757 244.363 165.635 244.46 165.488C244.556 165.341 244.616 165.173 244.634 164.998C244.634 163.682 244.577 162.375 244.521 161.06C244.521 160.505 244.436 159.96 244.389 159.406L244.577 159.415ZM233.723 171.698C230.408 173.578 227.094 175.383 223.732 177.121C222.139 177.874 220.506 178.539 218.84 179.114C218.032 179.424 217.685 179.715 217.798 180.204C217.91 180.693 218.389 180.918 219.206 180.664C220.401 180.336 221.569 179.915 222.699 179.405C226.575 177.607 230.352 175.602 234.014 173.4C235.397 172.478 237.002 171.945 238.662 171.858C239 171.831 239.335 171.781 239.666 171.708C239.876 171.691 240.07 171.593 240.209 171.435C240.347 171.278 240.419 171.072 240.408 170.862C240.408 170.43 240.004 170.167 239.422 170.176C237.421 170.214 235.459 170.737 233.704 171.698H233.723ZM253.028 137.254C252.922 137.209 252.809 137.187 252.694 137.188C252.579 137.189 252.466 137.213 252.361 137.26C252.256 137.307 252.162 137.374 252.085 137.459C252.007 137.544 251.948 137.644 251.911 137.752C251.667 138.532 250.972 138.824 250.436 139.209C250.091 139.439 249.73 139.647 249.357 139.829C244.85 142.047 240.53 144.641 235.882 146.577C235.072 146.967 234.305 147.44 233.591 147.987C233.323 148.191 233.11 148.459 232.972 148.767C232.921 148.868 232.89 148.978 232.883 149.091C232.875 149.204 232.89 149.317 232.927 149.424C232.964 149.53 233.021 149.629 233.097 149.713C233.172 149.797 233.264 149.865 233.366 149.914C233.453 149.972 233.552 150.012 233.656 150.031C233.759 150.049 233.866 150.046 233.968 150.021C234.071 149.997 234.167 149.951 234.251 149.887C234.334 149.823 234.404 149.743 234.455 149.65C234.933 148.83 235.717 148.232 236.634 147.987C240.915 146.239 244.887 143.861 249.009 141.803C250.014 141.295 250.99 140.732 251.939 140.13C252.428 139.782 252.873 139.375 253.263 138.918C253.481 138.627 253.664 138.312 253.807 137.978C253.516 137.705 253.31 137.367 253.009 137.254H253.028ZM257.394 139.67C257.104 139.998 256.765 140.28 256.39 140.506C254.69 141.53 252.972 142.517 251.263 143.532C250.033 144.246 248.84 145.036 247.573 145.684C245.512 146.75 243.556 148.009 241.732 149.444C241.019 150.017 240.793 150.6 241.225 151.051C241.657 151.502 242.098 151.417 242.784 150.778C244.295 149.425 245.977 148.278 247.789 147.367C248.906 146.765 250.051 146.182 251.113 145.487C253.484 143.905 255.952 142.474 258.502 141.201C259.1 140.892 259.678 140.544 260.23 140.158C260.417 140.063 260.563 139.902 260.639 139.706C260.715 139.51 260.717 139.293 260.643 139.096C260.474 138.636 260.089 138.523 259.573 138.514C258.725 138.621 257.944 139.031 257.375 139.67H257.394ZM263.967 161.868C263.953 161.608 263.953 161.348 263.967 161.088C264.023 160.524 264.709 159.923 265.197 160.054C265.471 160.173 265.729 160.325 265.967 160.505C266.148 160.642 266.369 160.717 266.596 160.717C266.823 160.717 267.044 160.642 267.225 160.505C267.462 160.216 267.601 159.858 267.619 159.484C267.638 159.11 267.536 158.74 267.329 158.428C267.231 158.279 267.105 158.151 266.957 158.051C266.809 157.951 266.643 157.881 266.468 157.846C266.294 157.811 266.114 157.811 265.939 157.847C265.764 157.882 265.598 157.952 265.451 158.052C264.946 158.397 264.352 158.587 263.742 158.597C263.601 157.893 263.469 157.253 263.347 156.661C263.798 156.29 264.323 156.02 264.886 155.869C265.45 155.718 266.04 155.69 266.615 155.787C266.721 155.83 266.836 155.847 266.95 155.839C267.064 155.83 267.175 155.796 267.274 155.737C267.373 155.679 267.457 155.6 267.52 155.504C267.583 155.408 267.624 155.3 267.638 155.186C267.653 155.072 267.644 154.957 267.612 154.847C267.58 154.737 267.525 154.635 267.452 154.547C267.379 154.459 267.289 154.387 267.187 154.335C267.085 154.283 266.973 154.253 266.859 154.246C266.327 154.06 265.758 153.998 265.198 154.067C264.638 154.135 264.101 154.332 263.629 154.641C263.409 154.782 263.172 154.895 262.925 154.979C261.864 155.421 261.601 155.863 261.751 156.972C261.782 157.271 261.842 157.567 261.93 157.855C262.285 159.119 262.428 160.434 262.352 161.746C262.352 162.31 262.352 162.874 262.408 163.428C262.465 163.983 262.728 164.518 263.347 164.556C264.432 164.682 265.529 164.465 266.484 163.936C266.586 163.885 266.677 163.814 266.751 163.728C266.826 163.642 266.883 163.541 266.918 163.433C266.954 163.325 266.968 163.21 266.96 163.097C266.951 162.983 266.92 162.872 266.869 162.77C266.634 162.263 266.192 162.263 265.723 162.413L264.014 162.968C264.005 162.46 263.986 162.169 263.976 161.868H263.967ZM234.859 160.214C234.859 159.725 234.859 159.274 234.859 158.757C234.948 158.085 235.246 157.458 235.711 156.965C236.176 156.473 236.785 156.14 237.45 156.013C237.856 155.912 238.284 155.964 238.655 156.158C239.025 156.351 239.311 156.675 239.46 157.066C240.108 158.484 240.346 160.056 240.145 161.603C239.944 163.15 239.313 164.61 238.324 165.815C238.171 166.057 237.95 166.249 237.689 166.367C237.428 166.485 237.139 166.524 236.856 166.479C236.573 166.434 236.31 166.307 236.099 166.114C235.887 165.921 235.737 165.67 235.666 165.392C235.052 163.739 234.787 161.975 234.887 160.214H234.859ZM237.037 164.434C238.859 162.986 239.197 159.65 237.807 157.658C236.868 157.902 236.483 158.268 236.446 159.011C236.309 160.841 236.52 162.681 237.065 164.434H237.037ZM256.023 163.071C256.373 161.184 257.067 159.377 258.07 157.742C258.252 157.448 258.397 157.132 258.502 156.802C258.821 155.806 258.38 155.261 257.338 155.355C256.521 155.43 255.704 155.524 254.887 155.628C254.07 155.731 253.751 156.154 253.845 156.699C253.939 157.244 254.371 157.498 255.047 157.441C255.479 157.441 255.892 157.319 256.296 157.253C255.817 158.55 255.3 159.763 254.915 161.013C254.53 162.263 254.239 163.635 253.911 164.941C253.544 166.417 254.267 167.281 255.789 167.178C256.343 167.178 256.897 167.009 257.451 166.934C257.792 166.861 258.098 166.671 258.314 166.396C258.53 166.121 258.643 165.779 258.634 165.43C258.622 165.309 258.583 165.192 258.518 165.089C258.453 164.986 258.365 164.899 258.261 164.836C258.157 164.773 258.04 164.735 257.919 164.726C257.798 164.716 257.676 164.735 257.563 164.781C257.368 164.891 257.18 165.014 257 165.148C256.784 165.315 256.534 165.432 256.268 165.489C256.001 165.546 255.725 165.542 255.46 165.477C255.685 164.659 255.864 163.87 256.052 163.071H256.023ZM262.446 140.995C262.386 141.251 262.27 141.492 262.108 141.699C261.946 141.907 261.741 142.077 261.507 142.198C259.46 143.589 257.385 144.942 255.347 146.352C253.92 147.291 252.53 148.372 251.15 149.387C250.992 149.478 250.872 149.624 250.813 149.797C250.755 149.97 250.761 150.158 250.831 150.327C250.87 150.424 250.929 150.512 251.004 150.585C251.079 150.658 251.168 150.715 251.266 150.752C251.364 150.789 251.468 150.805 251.573 150.8C251.677 150.795 251.779 150.768 251.873 150.722C252.148 150.61 252.407 150.461 252.643 150.28C254.267 149.133 255.854 147.94 257.516 146.85C259.913 145.372 262.198 143.72 264.352 141.906C264.715 141.593 265.031 141.229 265.291 140.826C265.384 140.693 265.436 140.536 265.442 140.374C265.448 140.212 265.408 140.052 265.326 139.913C265.244 139.773 265.124 139.66 264.979 139.587C264.835 139.514 264.673 139.484 264.512 139.5C263.939 139.529 262.596 140.337 262.474 140.995H262.446ZM223.948 168.973C223.657 168.921 223.358 168.963 223.093 169.095C220.746 170.167 218.399 171.238 216.089 172.375C215.471 172.724 214.906 173.157 214.408 173.663C214.306 173.731 214.221 173.822 214.16 173.927C214.098 174.033 214.062 174.152 214.053 174.274C214.043 174.396 214.062 174.519 214.108 174.633C214.153 174.747 214.224 174.849 214.314 174.931C214.404 175.016 214.511 175.079 214.627 175.117C214.744 175.155 214.868 175.167 214.99 175.152C215.112 175.137 215.229 175.095 215.333 175.029C215.437 174.963 215.525 174.875 215.591 174.772C216.201 174.11 216.961 173.604 217.807 173.296C218.821 172.817 219.854 172.356 220.878 171.915C221.901 171.473 222.915 170.975 223.901 170.458C224.225 170.219 224.518 169.941 224.774 169.631C224.474 169.34 224.267 169.048 223.995 168.992L223.948 168.973ZM261.817 150.468C263.141 149.632 264.446 148.758 265.751 147.893C265.815 147.851 265.874 147.804 265.93 147.752C266.086 147.645 266.195 147.483 266.237 147.298C266.279 147.113 266.25 146.92 266.155 146.756C266.06 146.602 265.913 146.488 265.741 146.432C265.569 146.377 265.383 146.385 265.216 146.455C264.971 146.539 264.738 146.653 264.521 146.793C263.066 147.733 261.61 148.673 260.192 149.613C260.066 149.705 259.965 149.827 259.898 149.968C259.83 150.109 259.799 150.265 259.807 150.421C259.901 150.703 260.286 150.882 260.549 151.116C261.003 150.934 261.443 150.717 261.864 150.468H261.817ZM224.258 135.891C225.122 135.111 225.957 134.313 226.802 133.504C226.957 133.395 227.075 133.241 227.14 133.063C227.14 132.79 227.216 132.386 227.065 132.254C226.791 132.067 226.453 131.996 226.126 132.057C225.901 132.057 225.694 132.339 225.497 132.518C224.737 133.185 223.976 133.852 223.225 134.529C222.995 134.715 222.803 134.945 222.662 135.205C222.408 135.76 222.812 136.286 223.601 136.258C223.853 136.166 224.093 136.043 224.314 135.891H224.258ZM49.2516 198.596C49.8337 198.248 50.3971 197.872 50.9511 197.496C52.5004 196.425 54.0873 195.429 55.5615 194.273C57.5525 192.675 59.6411 191.203 61.8151 189.865C62.7608 189.254 63.6614 188.576 64.5099 187.835C66.125 186.491 67.6555 185.016 69.3269 183.756C72.1438 181.623 75.064 179.649 77.8715 177.516C79.5429 176.257 81.1016 174.837 82.6979 173.465C84.4913 171.933 86.2754 170.373 88.0594 168.823C88.2409 168.694 88.4106 168.549 88.5665 168.39C88.6498 168.313 88.7163 168.219 88.7617 168.115C88.8072 168.01 88.8306 167.898 88.8306 167.784C88.8306 167.67 88.8072 167.558 88.7617 167.453C88.7163 167.349 88.6498 167.255 88.5665 167.178C88.1909 166.821 87.8247 166.943 87.4679 167.234C86.7355 167.817 85.9561 168.362 85.2613 168.982C83.5617 170.514 81.9842 172.206 80.1908 173.625C76.9326 176.21 73.5335 178.616 70.2189 181.144C68.3409 182.572 66.5099 184.076 64.6601 185.561C63.5814 186.549 62.4397 187.465 61.2423 188.305C58.5654 189.976 55.9997 191.818 53.5615 193.822C51.7715 195.243 49.8207 196.448 47.7492 197.412C47.6559 197.442 47.5696 197.49 47.4952 197.553C47.4208 197.617 47.36 197.695 47.3162 197.783C47.2725 197.87 47.2467 197.966 47.2404 198.063C47.2341 198.161 47.2475 198.259 47.2797 198.352C47.4018 198.822 47.7398 199.01 48.3877 199.028C48.6855 198.905 48.9742 198.76 49.2516 198.596ZM45.2797 162.479C45.5989 163.24 45.9276 163.419 46.5097 163.127C46.6512 163.072 46.7771 162.983 46.8767 162.869C46.9763 162.754 47.0467 162.617 47.0818 162.469C47.1169 162.321 47.1156 162.167 47.0781 162.02C47.0406 161.873 46.968 161.737 46.8666 161.624C46.6318 161.295 46.3407 160.891 45.9933 160.787C44.6506 160.374 43.1764 160.139 42.0214 161.069C41.0212 161.882 40.0799 162.764 39.2045 163.71C38.9186 164.058 38.6874 164.448 38.5191 164.866C37.9745 166.022 37.4205 167.169 36.9322 168.353C36.6996 168.901 36.5661 169.487 36.5378 170.082C36.5378 171.774 36.4815 173.465 36.5378 175.157C36.593 175.711 36.7422 176.251 36.9791 176.755C37.289 177.516 37.7209 178.23 38.0214 178.991C38.1646 179.462 38.46 179.871 38.8612 180.156C39.2623 180.44 39.7464 180.582 40.2374 180.561C41.0543 180.561 41.8618 180.815 42.6787 180.862C43.4534 180.988 44.2454 180.956 45.0074 180.768C46.2317 180.335 47.3154 179.578 48.1425 178.576C48.9695 177.575 49.5087 176.367 49.7023 175.082C49.7631 174.71 49.7487 174.329 49.66 173.963C49.5713 173.596 49.4101 173.251 49.1858 172.948C48.9511 172.558 48.6319 172.225 48.2516 171.975C47.8713 171.724 47.4397 171.562 46.9886 171.501C46.0385 171.47 45.0891 171.581 44.1717 171.83C43.6928 171.933 43.5238 172.619 43.7398 173.071C43.8377 173.274 44.0054 173.435 44.2123 173.525C44.4192 173.615 44.6514 173.627 44.8665 173.559C45.1227 173.496 45.3691 173.398 45.5989 173.268C45.8854 173.083 46.2253 172.998 46.5652 173.027C46.9051 173.056 47.2258 173.197 47.4769 173.428C47.7519 173.627 47.9589 173.906 48.0698 174.227C48.1807 174.549 48.19 174.896 48.0966 175.223C47.8914 175.989 47.5369 176.708 47.0535 177.337C46.5701 177.966 45.9673 178.493 45.2797 178.888C44.6081 179.325 43.7909 179.477 43.0074 179.311C42.1247 179.189 41.2421 179.048 40.3501 178.963C40.1652 178.966 39.9837 178.914 39.8284 178.813C39.6731 178.713 39.5508 178.569 39.4768 178.399C39.0918 177.544 38.6411 176.717 38.2749 175.852C38.139 175.509 38.072 175.141 38.0777 174.772C38.0777 173.343 38.0777 171.952 38.0777 170.486C38.0571 169.807 38.2367 169.137 38.5942 168.559C38.7778 168.263 38.9289 167.948 39.0449 167.62C39.6339 165.874 40.6585 164.309 42.0214 163.071C42.3904 162.646 42.8708 162.332 43.4085 162.166C43.9461 162 44.5195 161.988 45.0637 162.131C45.1858 162.282 45.2797 162.413 45.2797 162.479ZM90.3505 175.852C90.0316 175.815 89.7083 175.847 89.4033 175.948C89.0983 176.048 88.8191 176.215 88.5852 176.435C86.5852 178.136 84.5383 179.79 82.6321 181.585C81.1416 182.97 79.5741 184.269 77.9373 185.476C76.3547 186.618 74.8578 187.875 73.4583 189.235C70.6898 191.988 67.6294 194.431 64.3315 196.519C64.061 196.745 63.7382 196.901 63.3925 196.97C62.3409 197.074 61.8902 197.91 61.4019 198.624C61.2516 198.821 61.1799 199.067 61.2007 199.313C61.2216 199.56 61.3335 199.79 61.5146 199.959C61.6199 200.042 61.7418 200.101 61.8719 200.133C62.0021 200.164 62.1375 200.168 62.2691 200.143C62.4008 200.118 62.5256 200.065 62.6351 199.988C62.7446 199.911 62.8364 199.811 62.9043 199.696C63.5609 198.922 64.3613 198.284 65.2611 197.816C68.6483 195.65 71.7959 193.129 74.6508 190.297C75.9377 189.037 77.3223 187.88 78.7917 186.839C80.5453 185.578 82.2112 184.2 83.7777 182.713C85.3364 181.2 86.9984 179.79 88.6604 178.39C89.2563 177.988 89.8844 177.636 90.5383 177.337C90.7708 177.182 90.9935 177.013 91.205 176.83C91.1111 176.153 90.82 175.918 90.3505 175.852ZM35.242 159.594C37.3177 158.037 39.6461 156.852 42.1247 156.088C43.4953 155.645 44.7697 154.947 45.8806 154.03C47.4582 152.688 49.3208 151.724 51.3267 151.21C51.6553 151.126 51.9746 151.013 52.2657 150.9C53.5664 150.495 54.7022 149.681 55.5051 148.579C55.9852 147.909 56.6329 147.378 57.3831 147.038C58.4629 146.511 59.5146 145.919 60.5756 145.365C61.5167 144.745 62.3244 143.943 62.9512 143.006C63.0369 142.931 63.1056 142.838 63.1527 142.735C63.1998 142.631 63.2241 142.518 63.2241 142.404C63.2241 142.29 63.1998 142.178 63.1527 142.074C63.1056 141.97 63.0369 141.878 62.9512 141.803C62.7658 141.675 62.5405 141.617 62.3164 141.641C62.0923 141.666 61.8843 141.77 61.7305 141.934C61.5642 142.088 61.4218 142.265 61.308 142.461C60.7685 143.327 59.9842 144.014 59.0545 144.434C58.2563 144.848 57.4582 145.271 56.6413 145.647C55.7129 146.057 54.9095 146.705 54.3126 147.526C53.6748 148.425 52.7566 149.087 51.7023 149.406L49.4581 150.13C48.0542 150.568 46.7496 151.276 45.6177 152.216C44.2271 153.369 42.6353 154.255 40.9228 154.829C38.9543 155.456 37.0879 156.368 35.3829 157.535C34.7688 158.151 33.9834 158.567 33.1293 158.729C32.9966 158.774 32.8782 158.854 32.7859 158.959C32.6936 159.065 32.6307 159.193 32.6035 159.33C32.6718 159.642 32.8441 159.92 33.0918 160.12C33.2232 160.252 33.5143 160.223 33.8805 160.298C34.3576 160.111 34.8139 159.875 35.242 159.594ZM56.5474 163.55C59.3643 163.55 60.1155 164.302 60.3033 167.122C60.3591 167.833 60.4627 168.539 60.6132 169.236C60.9512 170.853 60.9418 172.375 59.6742 173.625C59.5357 173.75 59.4377 173.914 59.3925 174.095C59.2986 175.571 58.153 175.975 57.0544 176.332C56.5844 176.464 56.0963 176.521 55.6084 176.501C55.0975 176.561 54.583 176.422 54.1721 176.112C53.7611 175.802 53.4853 175.346 53.4018 174.837C53.2591 174.177 53.1587 173.509 53.1014 172.836C52.9605 171.839 52.8103 170.834 52.6882 169.838C52.5542 169.026 52.4664 168.207 52.4253 167.385C52.451 166.724 52.6247 166.078 52.9335 165.494C53.2423 164.91 53.6783 164.403 54.2094 164.011C54.9076 163.58 55.7381 163.416 56.5474 163.55ZM56.6037 174.828C56.5978 174.501 56.6894 174.18 56.8666 173.906C57.0439 173.631 57.2989 173.416 57.5991 173.287C58.1771 173.002 58.6435 172.532 58.9242 171.951C59.2049 171.37 59.2838 170.713 59.1484 170.082C58.923 168.87 58.8291 167.629 58.6507 166.398C58.5286 165.533 58.2 165.242 57.3174 165.176C56.8666 165.176 56.3784 165.176 55.9652 165.176C55.6836 165.162 55.4036 165.227 55.1565 165.363C54.9095 165.499 54.7051 165.701 54.5662 165.947C54.2832 166.368 54.0932 166.845 54.009 167.346C53.9248 167.847 53.9483 168.36 54.0779 168.851C54.3032 170.298 54.491 171.745 54.6976 173.193C54.6976 173.569 54.8009 173.935 54.8666 174.302C54.8856 174.492 54.9793 174.668 55.1271 174.789C55.275 174.911 55.4649 174.969 55.6554 174.95C55.8901 174.913 56.153 174.856 56.5474 174.809L56.6037 174.828ZM76.6415 168.888C76.7522 167.046 76.578 165.198 76.125 163.409C75.9799 162.712 75.8858 162.005 75.8434 161.295C75.7858 161.034 75.8244 160.76 75.952 160.526C76.0797 160.291 76.2879 160.11 76.5382 160.017C76.8241 159.902 77.1408 159.892 77.4339 159.986C77.7269 160.08 77.978 160.274 78.1438 160.533C78.6978 161.736 79.787 162.347 80.726 163.137C81.2141 163.495 81.6047 163.97 81.8622 164.518C82.1197 165.067 82.2359 165.671 82.2002 166.276C82.1548 167.359 82.0039 168.436 81.7495 169.49C81.5633 170.225 81.1838 170.897 80.6504 171.436C80.1171 171.974 79.4494 172.361 78.7166 172.554C78.5407 172.613 78.3683 172.682 78.2002 172.76C77.3833 173.136 77.0358 173.005 76.8011 172.159C76.7039 171.794 76.6534 171.418 76.6509 171.041C76.6039 170.298 76.6133 169.584 76.6133 168.87L76.6415 168.888ZM77.8997 163.127C78.0687 165.655 78.2471 168.24 78.4255 170.956C80.0687 170.232 80.4537 168.823 80.5946 167.31C80.7824 165.167 80.0218 164.114 77.8715 163.109L77.8997 163.127ZM54.2281 180.984C53.9978 181.112 53.8064 181.301 53.6741 181.529C52.7298 182.858 51.4272 183.892 49.9182 184.508C48.1717 185.363 46.4816 186.388 44.7914 187.328C43.6177 187.995 42.4628 188.7 41.3172 189.414C40.1717 190.128 38.8289 190.955 37.6176 191.782C36.4064 192.609 35.1951 193.512 34.012 194.367C33.882 194.442 33.7681 194.542 33.6772 194.661C33.5863 194.78 33.5201 194.917 33.4825 195.062C33.4449 195.207 33.4366 195.359 33.4582 195.507C33.4798 195.656 33.5308 195.798 33.6082 195.927C33.9463 196.369 34.5472 196.359 35.1106 195.927L35.2702 195.777C36.5472 194.733 37.7679 193.596 39.12 192.666C40.7632 191.547 42.5661 190.673 44.2187 189.574C46.5431 187.982 49.0034 186.598 51.5708 185.439C52.9564 184.819 54.1218 183.793 54.9136 182.497C55.0826 182.224 55.2047 181.905 55.2892 181.745C55.2234 181.05 54.6694 180.711 54.2 180.974L54.2281 180.984ZM66.97 172.826C66.9668 172.191 66.8816 171.56 66.7165 170.947C66.1793 169.115 66.0891 167.181 66.4536 165.308C66.6602 163.936 66.8104 162.563 66.9513 161.182C66.9899 160.846 66.9413 160.506 66.8104 160.195C66.7439 160.074 66.6497 159.969 66.5355 159.891C66.4213 159.813 66.2904 159.762 66.1531 159.744C66.0154 159.772 65.8846 159.827 65.7685 159.906C65.6524 159.985 65.5533 160.086 65.4771 160.205C65.355 160.355 65.3925 160.627 65.3644 160.853L64.801 165.233C64.4874 166.935 64.5225 168.684 64.9043 170.373C65.2484 171.521 65.3944 172.719 65.3362 173.916C65.3128 174.179 65.3128 174.443 65.3362 174.706C65.4207 175.542 65.7963 175.881 66.6508 175.909C66.9662 175.928 67.2828 175.9 67.5897 175.824C69.0921 175.364 70.5945 174.884 72.0874 174.396C72.2273 174.366 72.3586 174.305 72.4713 174.217C72.5839 174.129 72.675 174.016 72.7375 173.887C72.8 173.758 72.8323 173.617 72.8319 173.474C72.8315 173.331 72.7985 173.19 72.7353 173.061C72.5194 172.629 72.2189 172.601 71.4865 172.854C70.0499 173.362 68.6038 173.851 66.9794 174.405C66.9513 173.766 66.9794 173.287 66.9419 172.817L66.97 172.826ZM63.1202 152.658L70.8386 148.25C72.5936 147.396 74.2446 146.343 75.7588 145.111C76.0593 144.886 76.3169 144.609 76.5194 144.293C76.5852 144.171 76.6196 144.033 76.6196 143.894C76.6196 143.755 76.5852 143.617 76.5194 143.495C76.3976 143.397 76.2575 143.326 76.1075 143.284C75.9575 143.242 75.8006 143.23 75.6462 143.25C75.4208 143.25 75.2142 143.532 75.0077 143.683C73.8621 144.463 72.7635 145.318 71.5616 146.013C68.9325 147.536 66.2564 148.964 63.6085 150.459C63.0129 150.775 62.4499 151.15 61.9277 151.577C61.8317 151.702 61.7642 151.847 61.7302 152.002C61.6961 152.156 61.6962 152.316 61.7305 152.47C61.7869 152.695 62.1249 152.846 62.3409 153.024C62.632 152.874 62.8761 152.78 63.1202 152.658ZM30.9791 185.833C31.4535 185.533 31.8997 185.19 32.3124 184.809C33.2197 183.854 34.2796 183.057 35.4486 182.45C35.5578 182.418 35.659 182.363 35.7456 182.289C35.8322 182.215 35.9021 182.124 35.9509 182.021C35.9997 181.918 36.0261 181.806 36.0286 181.692C36.031 181.578 36.0094 181.465 35.9651 181.36C35.7866 180.909 35.3078 180.749 34.7162 181.078C33.8238 181.612 32.9618 182.196 32.134 182.826C31.6552 183.174 31.2608 183.644 30.8007 184.029C30.6321 184.228 30.4088 184.374 30.1584 184.447C29.9081 184.521 29.6417 184.519 29.3922 184.442C28.8382 184.254 28.4532 184.659 28.4532 185.26C28.4532 185.861 28.8946 186.341 29.8711 186.313C30.2469 186.183 30.6112 186.023 30.9603 185.833H30.9791ZM82.7542 149.509C82.5088 149.597 82.2936 149.754 82.1345 149.961C81.5307 150.734 80.6781 151.276 79.7213 151.492C79.1589 151.698 78.6352 151.996 78.172 152.376C78.0831 152.431 78.0071 152.505 77.949 152.592C77.8909 152.679 77.8521 152.777 77.8352 152.88C77.8183 152.984 77.8237 153.089 77.851 153.19C77.8783 153.291 77.927 153.385 77.9936 153.466C78.2941 153.88 78.679 153.814 79.0922 153.607C79.7683 153.287 80.4443 152.977 81.1392 152.724C82.0871 152.355 82.8952 151.698 83.449 150.844C83.5454 150.682 83.6211 150.508 83.6744 150.327C83.6556 149.697 83.2143 149.35 82.7354 149.509H82.7542ZM48.0121 144.322C48.322 144.199 48.7257 144.171 48.9511 143.946C49.0559 143.815 49.1339 143.664 49.1807 143.503C49.2274 143.342 49.2419 143.173 49.2234 143.006C49.1482 142.874 49.0424 142.763 48.9148 142.681C48.7873 142.599 48.6419 142.549 48.491 142.536C47.4551 142.692 46.4813 143.127 45.6741 143.795C45.4098 144.033 45.1974 144.322 45.0503 144.646C44.9033 144.969 44.8247 145.32 44.8196 145.675C44.8001 145.857 44.8339 146.04 44.9169 146.203C44.9999 146.365 45.1284 146.5 45.2868 146.591C45.4452 146.682 45.6265 146.724 45.8087 146.714C45.9909 146.703 46.166 146.639 46.3126 146.53C46.9511 146.211 46.9417 145.684 46.613 144.923L48.0121 144.322ZM29.918 173.4C30.7256 173.014 31.5613 172.685 32.3218 172.225C32.6737 171.959 32.9358 171.592 33.073 171.172C33.09 171.033 33.0723 170.891 33.0216 170.76C32.9708 170.629 32.8885 170.512 32.7819 170.42C32.6537 170.362 32.5144 170.332 32.3735 170.332C32.2326 170.332 32.0933 170.362 31.965 170.42C31.242 170.777 30.5378 171.2 29.8429 171.623C29.5168 171.791 29.2266 172.021 28.9885 172.3C28.9327 172.431 28.9039 172.571 28.9039 172.713C28.9039 172.856 28.9327 172.996 28.9885 173.127C29.0636 173.315 29.3641 173.418 29.5143 173.512C29.6511 173.483 29.786 173.446 29.918 173.4ZM83.9843 159.688C84.7448 158.945 85.543 158.212 86.2378 157.394C86.5383 157.047 86.2378 156.511 85.8153 156.295C85.7275 156.241 85.6298 156.205 85.528 156.19C85.4262 156.174 85.3223 156.179 85.2225 156.205C85.1227 156.23 85.029 156.275 84.9469 156.338C84.8649 156.4 84.7962 156.478 84.7448 156.567C84.4162 157.009 84.0782 157.451 83.7214 157.874C83.4772 158.146 83.1204 158.344 82.9326 158.654C82.8246 158.916 82.8246 159.21 82.9326 159.471C83.0171 159.659 83.327 159.744 83.496 159.847C83.7026 159.782 83.8904 159.782 83.9843 159.688Z" fill="black"></path>
</svg>
