<svg id="Layer_1" data-name="Layer 1" xmlns="http://www.w3.org/2000/svg" viewBox="0 0 240 131.57">
    <defs>
        <style>
            .cls-1 {
                isolation: isolate;
            }
        </style>
    </defs>
    <g id="_69Ug4a" data-name=" 69Ug4a">
        <path fill="#ffffff"
            d="M85.26,173.18l19.19-30.27h-2.21q-40.24,0-80.5,0c-4.6,0-9-.65-13.07-3-3.4-2-5.68-4.69-5.67-9q.1-38.61,0-77.21c0-4.34,2.84-7.44,6.41-9.4,4.27-2.33,8.84-2.61,13.51-2.61H224.49c4.76,0,9.35.73,13.42,3.5,3.19,2.18,5.05,5,5,9.08-.07,25-.14,50.06,0,75.09,0,5.62-2.52,9-7.13,11.29a25,25,0,0,1-11.3,2.35q-41,0-82,0a9.05,9.05,0,0,0-4,1c-4.85,2.52-9.63,5.18-14.41,7.84-4,2.24-8,4.61-12,6.82s-7.9,4.07-11.79,6.21c-4.13,2.28-8.19,4.7-12.3,7C87.25,172.32,86.35,172.67,85.26,173.18Zm9.81-9.11.31.35c.83-.54,1.63-1.14,2.51-1.61,3.88-2.05,7.8-4,11.65-6.12,4.94-2.7,9.81-5.51,14.72-8.26,3.6-2,7.21-4,10.81-6a17.75,17.75,0,0,1,9-2.45c26.67.12,53.35.07,80,.06,1,0,2-.05,2.92,0a14.52,14.52,0,0,0,8.5-2.71,7,7,0,0,0,3.55-6.24c-.07-25.79,0-51.58,0-77.38a8.47,8.47,0,0,0-4.83-7.33,22.88,22.88,0,0,0-10-2q-100.87,0-201.76,0c-3.88,0-7.63.3-11.13,2.21-2,1.12-4.79,4.33-4.78,7,.1,25.8.07,51.59,0,77.38,0,3.25,1.87,5.25,4.33,6.8,3.27,2.07,7,2.32,10.74,2.32Q62,140,102.46,140a11.19,11.19,0,0,1,2.9.24c2.71.78,3.82,2.59,1.68,4.92a6,6,0,0,0-.62.95c-1.76,2.87-3.5,5.75-5.26,8.62-.84,1.36-1.67,2.73-2.55,4.07C97.45,160.59,96.25,162.32,95.07,164.07Z"
            transform="translate(-2.99 -41.61)" />
    </g>
    <g class="cls-1">
        <g class="cls-1">
            <path fill="#ffffff" 
                d="M35.67,69.82a.25.25,0,0,1-.2.27,1.61,1.61,0,0,1-.31.07,3,3,0,0,1-.46,0,3.28,3.28,0,0,1-.49,0,1.67,1.67,0,0,1-.3-.07.25.25,0,0,1-.2-.27V63.17H26.93v6.65a.27.27,0,0,1,0,.16.27.27,0,0,1-.17.11,1.33,1.33,0,0,1-.3.07,3.23,3.23,0,0,1-.48,0,3.18,3.18,0,0,1-.47,0,1.61,1.61,0,0,1-.31-.07A.24.24,0,0,1,25,70a.28.28,0,0,1-.05-.16V55.43a.28.28,0,0,1,.05-.16.29.29,0,0,1,.16-.11,1.61,1.61,0,0,1,.31-.07,3.18,3.18,0,0,1,.47,0,3.23,3.23,0,0,1,.48,0,1.33,1.33,0,0,1,.3.07.32.32,0,0,1,.17.11.27.27,0,0,1,0,.16v6h6.78v-6a.27.27,0,0,1,0-.16.33.33,0,0,1,.16-.11,1.67,1.67,0,0,1,.3-.07,3.28,3.28,0,0,1,.49,0,3,3,0,0,1,.46,0,1.61,1.61,0,0,1,.31.07.33.33,0,0,1,.16.11.27.27,0,0,1,0,.16Z"
                transform="translate(-2.99 -41.61)" />
        </g>
        <g class="cls-1">
            <path fill="#ffffff" 
                d="M47.21,69.84a.23.23,0,0,1-.09.21.65.65,0,0,1-.25.11,2.83,2.83,0,0,1-.47,0,3,3,0,0,1-.48,0,.58.58,0,0,1-.26-.11.26.26,0,0,1-.08-.21v-1a5.1,5.1,0,0,1-1.51,1.14,4,4,0,0,1-1.77.4,4.9,4.9,0,0,1-1.48-.21,3.12,3.12,0,0,1-1.12-.62,2.73,2.73,0,0,1-.73-1,3.34,3.34,0,0,1-.26-1.34,2.94,2.94,0,0,1,1.38-2.61,5.11,5.11,0,0,1,1.64-.64,9.6,9.6,0,0,1,2.17-.22h1.43v-.81a3.8,3.8,0,0,0-.13-1.06,1.73,1.73,0,0,0-.41-.77,1.77,1.77,0,0,0-.73-.47,3.52,3.52,0,0,0-1.1-.15,4.43,4.43,0,0,0-1.26.16,7.18,7.18,0,0,0-1,.38,6.26,6.26,0,0,0-.7.37,1,1,0,0,1-.42.16.27.27,0,0,1-.16,0,.33.33,0,0,1-.12-.14.67.67,0,0,1-.08-.24,3,3,0,0,1,0-.32,2,2,0,0,1,0-.46.64.64,0,0,1,.2-.31,2.6,2.6,0,0,1,.53-.36,6,6,0,0,1,.87-.37A9.08,9.08,0,0,1,42,59a6.64,6.64,0,0,1,1.18-.11,6.18,6.18,0,0,1,1.9.26,3,3,0,0,1,1.26.75A2.8,2.8,0,0,1,47,61.11a6.12,6.12,0,0,1,.21,1.7Zm-1.88-4.76H43.71a5.93,5.93,0,0,0-1.36.14,2.72,2.72,0,0,0-1,.39,1.5,1.5,0,0,0-.55.63,1.86,1.86,0,0,0-.18.84,1.69,1.69,0,0,0,.51,1.29,2,2,0,0,0,1.43.48A2.71,2.71,0,0,0,44,68.47a6.45,6.45,0,0,0,1.34-1.17Z"
                transform="translate(-2.99 -41.61)" />
        </g>
        <g class="cls-1">
            <path fill="#ffffff" 
                d="M58.8,59.38a.34.34,0,0,1,0,.1s0,.07,0,.11l0,.13a1.55,1.55,0,0,0,0,.15l-3.53,9.91a.58.58,0,0,1-.13.2.43.43,0,0,1-.22.13,1.78,1.78,0,0,1-.38.06,4.8,4.8,0,0,1-.58,0l-.57,0a2.23,2.23,0,0,1-.37-.07A.52.52,0,0,1,52.7,70a.62.62,0,0,1-.12-.19l-3.53-9.91c0-.09,0-.18-.07-.24a.69.69,0,0,1,0-.16.34.34,0,0,1,0-.09.3.3,0,0,1,.05-.16.3.3,0,0,1,.15-.11,1,1,0,0,1,.29,0h1a1.1,1.1,0,0,1,.31.07.5.5,0,0,1,.16.11,1.45,1.45,0,0,1,.1.18L53.9,68l0,.14L54,68l2.89-8.59a.37.37,0,0,1,.08-.18.41.41,0,0,1,.16-.11,1.11,1.11,0,0,1,.3-.07h.94a.63.63,0,0,1,.27.06.27.27,0,0,1,.14.11A.24.24,0,0,1,58.8,59.38Z"
                transform="translate(-2.99 -41.61)" />
        </g>
        <g class="cls-1">
            <path fill="#ffffff"
                d="M69.55,64.17a.8.8,0,0,1-.22.64.78.78,0,0,1-.52.19H62a6.33,6.33,0,0,0,.18,1.57,2.93,2.93,0,0,0,.57,1.19,2.52,2.52,0,0,0,1.06.76,4.07,4.07,0,0,0,1.58.27,6.6,6.6,0,0,0,1.32-.12,7.86,7.86,0,0,0,1-.27,6.47,6.47,0,0,0,.69-.28A1.15,1.15,0,0,1,68.8,68,.37.37,0,0,1,69,68a.27.27,0,0,1,.09.12.94.94,0,0,1,.06.23c0,.1,0,.21,0,.35a2,2,0,0,1,0,.26c0,.08,0,.14,0,.2a.75.75,0,0,1,0,.16l-.11.13a1.72,1.72,0,0,1-.37.21,5,5,0,0,1-.81.28,8.93,8.93,0,0,1-1.14.25,7.75,7.75,0,0,1-1.39.11A6.42,6.42,0,0,1,63,70a4.16,4.16,0,0,1-1.61-1.06,4.46,4.46,0,0,1-1-1.78A8.35,8.35,0,0,1,60,64.67a7.86,7.86,0,0,1,.34-2.42,5.09,5.09,0,0,1,1-1.82,4.29,4.29,0,0,1,1.57-1.15,5.22,5.22,0,0,1,2.06-.4,5,5,0,0,1,2.07.4,3.86,3.86,0,0,1,1.41,1.06,4.14,4.14,0,0,1,.81,1.56,7,7,0,0,1,.26,1.92Zm-1.91-.57A3.55,3.55,0,0,0,67,61.24a2.51,2.51,0,0,0-2.08-.86,2.83,2.83,0,0,0-1.24.26,2.72,2.72,0,0,0-.89.71,3.2,3.2,0,0,0-.56,1A4.46,4.46,0,0,0,62,63.6Z"
                transform="translate(-2.99 -41.61)" />
        </g>
        <g class="cls-1">
            <path fill="#ffffff"
                d="M82.48,70.12,81.1,74a.5.5,0,0,1-.35.28,2.57,2.57,0,0,1-.85.1,3.28,3.28,0,0,1-.49,0,.66.66,0,0,1-.28-.1A.27.27,0,0,1,79,74a.53.53,0,0,1,.06-.28l1.43-3.63a.55.55,0,0,1-.2-.15.71.71,0,0,1-.13-.22l-3.69-10a1.17,1.17,0,0,1-.09-.39.29.29,0,0,1,.09-.22.61.61,0,0,1,.3-.11l.55,0h.54a1,1,0,0,1,.31.07.29.29,0,0,1,.17.13,1.38,1.38,0,0,1,.11.24l3,8.36h0l2.85-8.41a.54.54,0,0,1,.17-.28.66.66,0,0,1,.29-.1l.57,0,.53,0a.61.61,0,0,1,.3.11.27.27,0,0,1,.1.22,1,1,0,0,1-.07.35Z"
                transform="translate(-2.99 -41.61)" />
        </g>
        <g class="cls-1">
            <path fill="#ffffff"
                d="M97.79,64.5a7.67,7.67,0,0,1-.34,2.35,5.22,5.22,0,0,1-1,1.85,4.52,4.52,0,0,1-1.66,1.21,5.7,5.7,0,0,1-2.31.43A5.8,5.8,0,0,1,90.27,70a4,4,0,0,1-1.58-1.11,4.86,4.86,0,0,1-1-1.77,8.61,8.61,0,0,1-.31-2.37,7.88,7.88,0,0,1,.33-2.34,5.06,5.06,0,0,1,1-1.85,4.48,4.48,0,0,1,1.65-1.21,6.49,6.49,0,0,1,4.54,0,4,4,0,0,1,1.58,1.11,4.78,4.78,0,0,1,1,1.77A8.14,8.14,0,0,1,97.79,64.5Zm-2,.13a7.48,7.48,0,0,0-.16-1.6,3.87,3.87,0,0,0-.51-1.32,2.58,2.58,0,0,0-1-.9,3.21,3.21,0,0,0-1.53-.33,3.28,3.28,0,0,0-1.46.3,2.67,2.67,0,0,0-1,.86,3.88,3.88,0,0,0-.59,1.3,6.53,6.53,0,0,0-.19,1.64,7.45,7.45,0,0,0,.16,1.61,3.72,3.72,0,0,0,.52,1.32,2.63,2.63,0,0,0,1,.89,3.21,3.21,0,0,0,1.53.33,3.26,3.26,0,0,0,1.45-.3,2.67,2.67,0,0,0,1-.84,3.59,3.59,0,0,0,.58-1.3A6.64,6.64,0,0,0,95.82,64.63Z"
                transform="translate(-2.99 -41.61)" />
            <path fill="#ffffff"
                d="M109.45,69.83a.25.25,0,0,1,0,.16.33.33,0,0,1-.14.11,1.31,1.31,0,0,1-.27.07l-.41,0-.43,0a1.31,1.31,0,0,1-.27-.07.29.29,0,0,1-.13-.11.35.35,0,0,1,0-.16V68.45A6.46,6.46,0,0,1,106,69.89a3.77,3.77,0,0,1-1.75.45,3.94,3.94,0,0,1-1.74-.34,3.16,3.16,0,0,1-1.15-1,3.93,3.93,0,0,1-.63-1.39,8.8,8.8,0,0,1-.19-1.93V59.4a.33.33,0,0,1,0-.15.44.44,0,0,1,.16-.12,1.11,1.11,0,0,1,.3-.07h.92a1,1,0,0,1,.29.07.44.44,0,0,1,.16.12.24.24,0,0,1,0,.15v6.08a6.25,6.25,0,0,0,.14,1.46,2.78,2.78,0,0,0,.4.94,1.86,1.86,0,0,0,.68.6,2,2,0,0,0,1,.22,2.4,2.4,0,0,0,1.42-.51,8.12,8.12,0,0,0,1.5-1.5V59.4a.33.33,0,0,1,0-.15.44.44,0,0,1,.16-.12,1,1,0,0,1,.29-.07H109a.81.81,0,0,1,.28.07.55.55,0,0,1,.16.12.25.25,0,0,1,0,.15Z"
                transform="translate(-2.99 -41.61)" />
            <path fill="#ffffff"
                d="M123.67,69.07a1.94,1.94,0,0,1,0,.53.6.6,0,0,1-.13.29,1.36,1.36,0,0,1-.28.18,3,3,0,0,1-.42.13l-.5.08a3.15,3.15,0,0,1-.53,0,4,4,0,0,1-1.38-.21,2.27,2.27,0,0,1-.94-.65,2.64,2.64,0,0,1-.54-1.1,6.66,6.66,0,0,1-.16-1.57v-6.1h-1.45a.31.31,0,0,1-.28-.18,1.35,1.35,0,0,1-.1-.61c0-.14,0-.27,0-.37a1.23,1.23,0,0,1,.08-.25.33.33,0,0,1,.12-.14.47.47,0,0,1,.17,0h1.44V56.62a.28.28,0,0,1,0-.15.35.35,0,0,1,.14-.12,1.11,1.11,0,0,1,.3-.07,2.86,2.86,0,0,1,.46,0,3,3,0,0,1,.47,0,1,1,0,0,1,.29.07.49.49,0,0,1,.15.12.28.28,0,0,1,0,.15V59.1h2.66a.38.38,0,0,1,.16,0,.33.33,0,0,1,.12.14.82.82,0,0,1,.08.25c0,.1,0,.23,0,.37a1.35,1.35,0,0,1-.1.61.31.31,0,0,1-.28.18h-2.66v5.82a3.35,3.35,0,0,0,.32,1.63,1.21,1.21,0,0,0,1.13.55,1.63,1.63,0,0,0,.47-.06,2.74,2.74,0,0,0,.37-.11,1.49,1.49,0,0,0,.28-.11.58.58,0,0,1,.21,0l.11,0a.24.24,0,0,1,.08.11l.05.22A3.16,3.16,0,0,1,123.67,69.07Z"
                transform="translate(-2.99 -41.61)" />
            <path fill="#ffffff"
                d="M132.23,60.09c0,.17,0,.31,0,.43a1.46,1.46,0,0,1-.05.27.35.35,0,0,1-.08.15.2.2,0,0,1-.15.05.52.52,0,0,1-.22-.05l-.3-.1a3,3,0,0,0-.38-.1,2,2,0,0,0-.44-.05,1.42,1.42,0,0,0-.57.12,2,2,0,0,0-.58.38,4.63,4.63,0,0,0-.64.71c-.22.29-.46.65-.73,1.07v6.86A.25.25,0,0,1,128,70a.37.37,0,0,1-.15.11,1.23,1.23,0,0,1-.29.07l-.47,0-.46,0a1.37,1.37,0,0,1-.29-.07.31.31,0,0,1-.15-.11.25.25,0,0,1,0-.16V59.4a.33.33,0,0,1,0-.15.43.43,0,0,1,.14-.12.88.88,0,0,1,.27-.07h.84a.74.74,0,0,1,.26.07.51.51,0,0,1,.13.12.24.24,0,0,1,0,.15v1.52a10.15,10.15,0,0,1,.8-1,4.68,4.68,0,0,1,.71-.62,2.19,2.19,0,0,1,.66-.31,2.5,2.5,0,0,1,.66-.09l.34,0,.4.06.37.11a1.42,1.42,0,0,1,.24.11l.09.11a.47.47,0,0,1,0,.14,1.25,1.25,0,0,1,0,.24C132.23,59.77,132.23,59.91,132.23,60.09Z"
                transform="translate(-2.99 -41.61)" />
            <path fill="#ffffff"
                d="M136.51,55.88a1.27,1.27,0,0,1-.25.92,1.38,1.38,0,0,1-.94.24,1.31,1.31,0,0,1-.91-.24,1.23,1.23,0,0,1-.25-.89,1.26,1.26,0,0,1,.26-.92,1.35,1.35,0,0,1,.93-.24,1.37,1.37,0,0,1,.91.23A1.23,1.23,0,0,1,136.51,55.88Zm-.22,13.95a.21.21,0,0,1,0,.16.37.37,0,0,1-.15.11,1.13,1.13,0,0,1-.28.07l-.47,0-.46,0a1.33,1.33,0,0,1-.3-.07.37.37,0,0,1-.15-.11.34.34,0,0,1,0-.16V59.4a.42.42,0,0,1,0-.15.37.37,0,0,1,.15-.11,1,1,0,0,1,.3-.07,3,3,0,0,1,.46,0,3.25,3.25,0,0,1,.47,0,.81.81,0,0,1,.28.07.37.37,0,0,1,.15.11.23.23,0,0,1,0,.15Z"
                transform="translate(-2.99 -41.61)" />
            <path fill="#ffffff"
                d="M148.63,64.17a.8.8,0,0,1-.22.64.76.76,0,0,1-.52.19h-6.81a6.35,6.35,0,0,0,.17,1.57,3,3,0,0,0,.58,1.19,2.55,2.55,0,0,0,1,.76,4.11,4.11,0,0,0,1.58.27,6.53,6.53,0,0,0,1.32-.12,7.42,7.42,0,0,0,1-.27,6.47,6.47,0,0,0,.69-.28,1.21,1.21,0,0,1,.41-.12.33.33,0,0,1,.15,0,.4.4,0,0,1,.1.12,1,1,0,0,1,.05.23,3.32,3.32,0,0,1,0,.35,1.84,1.84,0,0,1,0,.26,1.12,1.12,0,0,1,0,.2.44.44,0,0,1-.06.16,1.13,1.13,0,0,1-.1.13,2.32,2.32,0,0,1-.38.21,4.84,4.84,0,0,1-.8.28,8.74,8.74,0,0,1-1.15.25,7.57,7.57,0,0,1-1.38.11,6.34,6.34,0,0,1-2.24-.36,4.19,4.19,0,0,1-1.62-1.06,4.46,4.46,0,0,1-1-1.78,8.35,8.35,0,0,1-.33-2.47,7.86,7.86,0,0,1,.34-2.42,5.25,5.25,0,0,1,1-1.82A4.38,4.38,0,0,1,142,59.28a5.22,5.22,0,0,1,2.06-.4,5,5,0,0,1,2.07.4,3.7,3.7,0,0,1,1.41,1.06,4.14,4.14,0,0,1,.81,1.56,6.65,6.65,0,0,1,.26,1.92Zm-1.91-.57a3.49,3.49,0,0,0-.66-2.36,2.51,2.51,0,0,0-2.08-.86,2.86,2.86,0,0,0-1.24.26,2.82,2.82,0,0,0-.89.71,3.18,3.18,0,0,0-.55,1,3.82,3.82,0,0,0-.22,1.22Z"
                transform="translate(-2.99 -41.61)" />
            <path fill="#ffffff"
                d="M160.39,69.83a.31.31,0,0,1,0,.17.33.33,0,0,1-.14.11l-.26.06-.39,0-.4,0-.26-.06a.37.37,0,0,1-.15-.11.31.31,0,0,1-.05-.17V68.45a6.89,6.89,0,0,1-1.7,1.39,3.74,3.74,0,0,1-1.92.5,4.07,4.07,0,0,1-2-.44,3.6,3.6,0,0,1-1.3-1.21,5.09,5.09,0,0,1-.73-1.78,10.48,10.48,0,0,1,.05-4.59,5.54,5.54,0,0,1,.85-1.85,4,4,0,0,1,1.4-1.18,4.38,4.38,0,0,1,1.93-.41,3.54,3.54,0,0,1,1.66.4,6,6,0,0,1,1.49,1.18V54.4a.32.32,0,0,1,0-.16.24.24,0,0,1,.16-.11,1.37,1.37,0,0,1,.29-.07,2.81,2.81,0,0,1,.45,0,3.14,3.14,0,0,1,.48,0,1.13,1.13,0,0,1,.28.07.31.31,0,0,1,.16.11.33.33,0,0,1,0,.16Zm-1.91-7.33A7.57,7.57,0,0,0,157,61a2.62,2.62,0,0,0-1.5-.5,2.07,2.07,0,0,0-1.23.35,2.58,2.58,0,0,0-.82.91,4.29,4.29,0,0,0-.46,1.29,7.09,7.09,0,0,0-.15,1.46,9.8,9.8,0,0,0,.12,1.54,4.48,4.48,0,0,0,.42,1.34,2.62,2.62,0,0,0,.8.94,2.11,2.11,0,0,0,1.24.35,2.53,2.53,0,0,0,.73-.11,2.59,2.59,0,0,0,.72-.34,7.67,7.67,0,0,0,.77-.63,9.57,9.57,0,0,0,.85-1Z"
                transform="translate(-2.99 -41.61)" />
        </g>
        <g class="cls-1">
            <path fill="#ffffff"
                d="M30.12,97.54a2.47,2.47,0,0,1-.05.54.53.53,0,0,1-.14.29.84.84,0,0,1-.27.17,1.6,1.6,0,0,1-.42.13,4,4,0,0,1-.5.09,4.73,4.73,0,0,1-.53,0,4,4,0,0,1-1.38-.22,2.12,2.12,0,0,1-.94-.65,2.58,2.58,0,0,1-.54-1.1,6.56,6.56,0,0,1-.17-1.57V89.17H23.73a.3.3,0,0,1-.27-.19,1.25,1.25,0,0,1-.11-.6,1.9,1.9,0,0,1,0-.37,1.23,1.23,0,0,1,.08-.25.28.28,0,0,1,.12-.14.31.31,0,0,1,.17,0h1.43V85.1a.42.42,0,0,1,0-.15.31.31,0,0,1,.15-.12,1,1,0,0,1,.3-.08l.46,0,.47,0a.92.92,0,0,1,.29.08A.44.44,0,0,1,27,85a.28.28,0,0,1,0,.15v2.48h2.66a.29.29,0,0,1,.16,0,.28.28,0,0,1,.12.14,1.23,1.23,0,0,1,.08.25,3.57,3.57,0,0,1,0,.37A1.25,1.25,0,0,1,30,89a.29.29,0,0,1-.27.19H27.08V95a3.35,3.35,0,0,0,.32,1.63,1.19,1.19,0,0,0,1.13.55,2.19,2.19,0,0,0,.47,0,2.74,2.74,0,0,0,.37-.11l.28-.11a.39.39,0,0,1,.2,0,.2.2,0,0,1,.11,0A.16.16,0,0,1,30,97a1.29,1.29,0,0,1,.06.22A3.11,3.11,0,0,1,30.12,97.54Z"
                transform="translate(-2.99 -41.61)" />
            <path fill="#ffffff"
                d="M41.5,98.31a.42.42,0,0,1,0,.16.37.37,0,0,1-.15.11,1.31,1.31,0,0,1-.27.07l-.41,0-.43,0a1.05,1.05,0,0,1-.26-.07.33.33,0,0,1-.14-.11.41.41,0,0,1,0-.16V96.93A6.32,6.32,0,0,1,38,98.37a3.74,3.74,0,0,1-1.75.45,3.94,3.94,0,0,1-1.74-.35,3,3,0,0,1-1.14-.94,3.76,3.76,0,0,1-.63-1.39,8.28,8.28,0,0,1-.19-1.93V87.88a.29.29,0,0,1,0-.16.37.37,0,0,1,.15-.11.83.83,0,0,1,.3-.07l.46,0,.46,0a.78.78,0,0,1,.3.07.37.37,0,0,1,.15.11.3.3,0,0,1,0,.16V94a6.48,6.48,0,0,0,.13,1.47,2.78,2.78,0,0,0,.4.94,1.81,1.81,0,0,0,.69.6,2.09,2.09,0,0,0,1,.21,2.4,2.4,0,0,0,1.42-.51,7.76,7.76,0,0,0,1.51-1.49V87.88a.29.29,0,0,1,0-.16.27.27,0,0,1,.15-.11.83.83,0,0,1,.3-.07l.46,0,.46,0a.73.73,0,0,1,.29.07.37.37,0,0,1,.15.11.25.25,0,0,1,.06.16Z"
                transform="translate(-2.99 -41.61)" />
            <path fill="#ffffff"
                d="M51.06,88.56c0,.17,0,.32,0,.43a1,1,0,0,1,0,.28.38.38,0,0,1-.09.15.2.2,0,0,1-.14,0,.8.8,0,0,1-.23,0l-.3-.11-.37-.1a2.15,2.15,0,0,0-.45,0,1.55,1.55,0,0,0-.56.11,2.11,2.11,0,0,0-.58.39,4.07,4.07,0,0,0-.64.7c-.22.3-.47.65-.74,1.08v6.86a.29.29,0,0,1,0,.16.37.37,0,0,1-.15.11,1.37,1.37,0,0,1-.29.07l-.47,0-.46,0a1.67,1.67,0,0,1-.3-.07.27.27,0,0,1-.14-.11.3.3,0,0,1,0-.16V87.88a.42.42,0,0,1,0-.16.27.27,0,0,1,.14-.11.62.62,0,0,1,.26-.07l.43,0,.42,0a.62.62,0,0,1,.26.07.36.36,0,0,1,.13.11.42.42,0,0,1,0,.16V89.4a7.42,7.42,0,0,1,.8-1,4.24,4.24,0,0,1,.71-.62,2,2,0,0,1,.66-.31,2.5,2.5,0,0,1,.66-.09l.34,0a2.85,2.85,0,0,1,.39.06,2.9,2.9,0,0,1,.38.11.54.54,0,0,1,.23.11.47.47,0,0,1,.1.11s0,.08,0,.13a1.44,1.44,0,0,1,0,.24C51.05,88.25,51.06,88.39,51.06,88.56Z"
                transform="translate(-2.99 -41.61)" />
            <path fill="#ffffff"
                d="M62.13,98.31a.29.29,0,0,1,0,.16.37.37,0,0,1-.15.11,1.37,1.37,0,0,1-.29.07l-.46,0-.47,0a1.37,1.37,0,0,1-.29-.07.37.37,0,0,1-.15-.11.29.29,0,0,1,0-.16V92.2a6.09,6.09,0,0,0-.14-1.43,3,3,0,0,0-.4-.94,1.73,1.73,0,0,0-.69-.6A2.13,2.13,0,0,0,58,89a2.45,2.45,0,0,0-1.43.51A7.72,7.72,0,0,0,55.12,91v7.29a.3.3,0,0,1,0,.16.37.37,0,0,1-.15.11,1.23,1.23,0,0,1-.29.07l-.47,0-.46,0a1.37,1.37,0,0,1-.29-.07.37.37,0,0,1-.15-.11.29.29,0,0,1,0-.16V87.88a.41.41,0,0,1,0-.16.33.33,0,0,1,.14-.11.67.67,0,0,1,.27-.07l.42,0,.42,0a.58.58,0,0,1,.26.07.27.27,0,0,1,.17.27v1.38a6.32,6.32,0,0,1,1.75-1.44,3.63,3.63,0,0,1,1.75-.46,3.94,3.94,0,0,1,1.74.35,3.16,3.16,0,0,1,1.15,1A3.63,3.63,0,0,1,61.94,90,8.16,8.16,0,0,1,62.13,92Z"
                transform="translate(-2.99 -41.61)" />
            <path fill="#ffffff"
                d="M67.71,84.36a1.24,1.24,0,0,1-.25.91,1.31,1.31,0,0,1-.93.25,1.34,1.34,0,0,1-.92-.24,1.28,1.28,0,0,1-.24-.9,1.24,1.24,0,0,1,.25-.91,1.31,1.31,0,0,1,.93-.25,1.34,1.34,0,0,1,.92.24A1.28,1.28,0,0,1,67.71,84.36Zm-.21,14a.3.3,0,0,1,0,.16.37.37,0,0,1-.15.11,1.23,1.23,0,0,1-.29.07l-.47,0-.46,0a1.37,1.37,0,0,1-.29-.07.27.27,0,0,1-.15-.11.29.29,0,0,1,0-.16V87.88a.28.28,0,0,1,0-.15s.07-.08.15-.12a1,1,0,0,1,.29-.06,3,3,0,0,1,.46,0,3,3,0,0,1,.47,0,.91.91,0,0,1,.29.06.38.38,0,0,1,.15.12.3.3,0,0,1,0,.15Z"
                transform="translate(-2.99 -41.61)" />
            <path fill="#ffffff"
                d="M79.92,98.31a.3.3,0,0,1,0,.16.37.37,0,0,1-.15.11,1.26,1.26,0,0,1-.28.07l-.46,0-.48,0a1.26,1.26,0,0,1-.28-.07.37.37,0,0,1-.15-.11.3.3,0,0,1,0-.16V92.2a6.09,6.09,0,0,0-.14-1.43,2.78,2.78,0,0,0-.4-.94,1.71,1.71,0,0,0-.68-.6,2.17,2.17,0,0,0-1-.21,2.42,2.42,0,0,0-1.42.51A7.47,7.47,0,0,0,72.9,91v7.29a.29.29,0,0,1,0,.16.45.45,0,0,1-.15.11,1.37,1.37,0,0,1-.29.07l-.47,0-.46,0a1.48,1.48,0,0,1-.3-.07.37.37,0,0,1-.15-.11.42.42,0,0,1,0-.16V87.88a.29.29,0,0,1,0-.16.27.27,0,0,1,.14-.11.62.62,0,0,1,.26-.07l.43,0,.42,0a.53.53,0,0,1,.25.07.33.33,0,0,1,.14.11.42.42,0,0,1,0,.16v1.38a6.15,6.15,0,0,1,1.74-1.44,3.66,3.66,0,0,1,1.75-.46,4,4,0,0,1,1.75.35,3.13,3.13,0,0,1,1.14,1A3.8,3.8,0,0,1,79.73,90,8.16,8.16,0,0,1,79.92,92Z"
                transform="translate(-2.99 -41.61)" />
            <path  fill="#ffffff"
                d="M92,88.36a1.08,1.08,0,0,1-.11.58.31.31,0,0,1-.28.18H90.16a2.41,2.41,0,0,1,.56.92,3.39,3.39,0,0,1,.16,1,4,4,0,0,1-.29,1.6,3.18,3.18,0,0,1-.82,1.18,3.62,3.62,0,0,1-1.27.73,4.93,4.93,0,0,1-1.63.26,4.24,4.24,0,0,1-1.2-.17,2.41,2.41,0,0,1-.88-.42,1.45,1.45,0,0,0-.34.47,1.34,1.34,0,0,0-.14.61.82.82,0,0,0,.38.68,1.9,1.9,0,0,0,1,.29l2.71.11a5.63,5.63,0,0,1,1.41.22,3.53,3.53,0,0,1,1.12.54,2.5,2.5,0,0,1,1,2.07,3.25,3.25,0,0,1-.3,1.37,3.2,3.2,0,0,1-.92,1.14,4.52,4.52,0,0,1-1.57.77,7.83,7.83,0,0,1-2.25.29,8.66,8.66,0,0,1-2.13-.22A4.52,4.52,0,0,1,83.3,102a2.31,2.31,0,0,1-.82-.89,2.59,2.59,0,0,1-.25-1.12,3.06,3.06,0,0,1,.09-.74,2.41,2.41,0,0,1,.29-.68,3,3,0,0,1,.47-.62,5.46,5.46,0,0,1,.65-.59,2,2,0,0,1-.84-.73,1.78,1.78,0,0,1-.27-1,2.72,2.72,0,0,1,.29-1.26,4.42,4.42,0,0,1,.71-1,3.51,3.51,0,0,1-.56-1,3.63,3.63,0,0,1-.21-1.31,4.11,4.11,0,0,1,.3-1.6A3.49,3.49,0,0,1,84,88.39a3.82,3.82,0,0,1,1.27-.75,5,5,0,0,1,1.62-.26,8.18,8.18,0,0,1,.88.05c.27,0,.52.09.76.15h3.13a.32.32,0,0,1,.3.19A1.45,1.45,0,0,1,92,88.36Zm-2,11a1.16,1.16,0,0,0-.55-1A2.62,2.62,0,0,0,88,97.94l-2.69-.09a4.72,4.72,0,0,0-.6.55,2.86,2.86,0,0,0-.37.49,1.41,1.41,0,0,0-.19.47,2,2,0,0,0-.06.48,1.24,1.24,0,0,0,.76,1.14,4.74,4.74,0,0,0,2.12.39,5.26,5.26,0,0,0,1.44-.17,2.66,2.66,0,0,0,.94-.45,1.52,1.52,0,0,0,.51-.63A1.79,1.79,0,0,0,90,99.36Zm-1-8.26a2.27,2.27,0,0,0-.58-1.66,2.17,2.17,0,0,0-1.65-.6,2.22,2.22,0,0,0-1,.19,1.82,1.82,0,0,0-.68.51,2.08,2.08,0,0,0-.4.75,2.84,2.84,0,0,0-.13.88,2.19,2.19,0,0,0,.58,1.62,2.16,2.16,0,0,0,1.63.59,2.49,2.49,0,0,0,1-.17,1.91,1.91,0,0,0,.68-.5,2.21,2.21,0,0,0,.4-.74A2.82,2.82,0,0,0,89.06,91.1Z"
                transform="translate(-2.99 -41.61)" />
            <path fill="#ffffff"
                d="M101.91,84.36a1.24,1.24,0,0,1-.25.91,1.31,1.31,0,0,1-.93.25,1.34,1.34,0,0,1-.92-.24,1.28,1.28,0,0,1-.24-.9,1.24,1.24,0,0,1,.25-.91,1.31,1.31,0,0,1,.93-.25,1.34,1.34,0,0,1,.92.24A1.28,1.28,0,0,1,101.91,84.36Zm-.22,14a.29.29,0,0,1,0,.16.37.37,0,0,1-.15.11,1.37,1.37,0,0,1-.29.07l-.47,0-.46,0a1.37,1.37,0,0,1-.29-.07.27.27,0,0,1-.15-.11.29.29,0,0,1,0-.16V87.88a.28.28,0,0,1,0-.15s.07-.08.15-.12a1,1,0,0,1,.29-.06,3,3,0,0,1,.46,0,3,3,0,0,1,.47,0,1,1,0,0,1,.29.06.38.38,0,0,1,.15.12.28.28,0,0,1,0,.15Z"
                transform="translate(-2.99 -41.61)" />
            <path fill="#ffffff"
                d="M110.59,97.54a2.47,2.47,0,0,1,0,.54.6.6,0,0,1-.14.29.84.84,0,0,1-.27.17,1.87,1.87,0,0,1-.42.13,4,4,0,0,1-.5.09,4.91,4.91,0,0,1-.53,0,4,4,0,0,1-1.38-.22,2.21,2.21,0,0,1-1-.65,2.69,2.69,0,0,1-.53-1.1,6.56,6.56,0,0,1-.17-1.57V89.17H104.2a.29.29,0,0,1-.27-.19,1.25,1.25,0,0,1-.11-.6,1.9,1.9,0,0,1,0-.37,1.23,1.23,0,0,1,.08-.25.28.28,0,0,1,.12-.14.29.29,0,0,1,.16,0h1.44V85.1a.42.42,0,0,1,0-.15.31.31,0,0,1,.15-.12.92.92,0,0,1,.29-.08l.47,0,.47,0a.85.85,0,0,1,.28.08.31.31,0,0,1,.15.12.3.3,0,0,1,0,.15v2.48h2.66a.29.29,0,0,1,.16,0,.43.43,0,0,1,.12.14.82.82,0,0,1,.07.25,1.9,1.9,0,0,1,0,.37,1.25,1.25,0,0,1-.11.6.3.3,0,0,1-.27.19h-2.66V95a3.35,3.35,0,0,0,.32,1.63,1.18,1.18,0,0,0,1.13.55,2.19,2.19,0,0,0,.47,0,2.74,2.74,0,0,0,.37-.11l.28-.11a.39.39,0,0,1,.2,0,.2.2,0,0,1,.11,0,.16.16,0,0,1,.08.11.8.8,0,0,1,0,.22A1.65,1.65,0,0,1,110.59,97.54Z"
                transform="translate(-2.99 -41.61)" />
            <path fill="#ffffff"
                d="M128.05,93a8,8,0,0,1-.33,2.35,5.27,5.27,0,0,1-1,1.84,4.33,4.33,0,0,1-1.66,1.21,5.68,5.68,0,0,1-2.3.44,6.05,6.05,0,0,1-2.23-.38A4.1,4.1,0,0,1,119,97.32a4.55,4.55,0,0,1-.94-1.77,8.13,8.13,0,0,1-.31-2.36,8.34,8.34,0,0,1,.32-2.35A5.22,5.22,0,0,1,119,89a4.46,4.46,0,0,1,1.65-1.2,5.72,5.72,0,0,1,2.32-.43,6,6,0,0,1,2.22.38,4.11,4.11,0,0,1,1.58,1.11,4.68,4.68,0,0,1,1,1.78A8.09,8.09,0,0,1,128.05,93Zm-2,.13a8.13,8.13,0,0,0-.15-1.6,4.09,4.09,0,0,0-.52-1.32,2.58,2.58,0,0,0-1-.9A3.21,3.21,0,0,0,122.9,89a3.31,3.31,0,0,0-1.46.3,2.65,2.65,0,0,0-1,.85,3.94,3.94,0,0,0-.59,1.31,7,7,0,0,0-.19,1.64,8.21,8.21,0,0,0,.16,1.61,3.88,3.88,0,0,0,.52,1.32,2.71,2.71,0,0,0,1,.89,3.21,3.21,0,0,0,1.53.33,3.31,3.31,0,0,0,1.46-.3,2.77,2.77,0,0,0,1-.85,3.78,3.78,0,0,0,.58-1.3A7.07,7.07,0,0,0,126.08,93.11Z"
                transform="translate(-2.99 -41.61)" />
            <path fill="#ffffff"
                d="M143.07,83.58a2.22,2.22,0,0,1,0,.54.22.22,0,0,1-.21.16.63.63,0,0,1-.21,0l-.3-.11a3.44,3.44,0,0,0-.41-.11,2.09,2.09,0,0,0-.53-.06,1.28,1.28,0,0,0-1.2.59,3.82,3.82,0,0,0-.35,1.89v1.15h2.31a.29.29,0,0,1,.16,0,.28.28,0,0,1,.12.14.82.82,0,0,1,.07.25,1.9,1.9,0,0,1,0,.37,1.27,1.27,0,0,1-.1.6.3.3,0,0,1-.28.19h-2.31v9.14a.3.3,0,0,1-.05.16.37.37,0,0,1-.15.11,1.67,1.67,0,0,1-.3.07l-.46,0-.46,0a1.37,1.37,0,0,1-.29-.07.41.41,0,0,1-.16-.11.29.29,0,0,1,0-.16V89.17h-4.65v9.14a.3.3,0,0,1-.05.16.37.37,0,0,1-.15.11,1.48,1.48,0,0,1-.3.07l-.46,0-.46,0a1.37,1.37,0,0,1-.29-.07.37.37,0,0,1-.15-.11.24.24,0,0,1,0-.16V89.17h-1.46a.3.3,0,0,1-.28-.19,1.44,1.44,0,0,1-.09-.6,3.57,3.57,0,0,1,0-.37,1.26,1.26,0,0,1,.07-.25.28.28,0,0,1,.12-.14.27.27,0,0,1,.16,0h1.46v-1a7.06,7.06,0,0,1,.21-1.84,3.08,3.08,0,0,1,.62-1.27,2.48,2.48,0,0,1,1-.74,4.4,4.4,0,0,1,2.32-.15,3.87,3.87,0,0,1,.62.19.47.47,0,0,1,.18.12.51.51,0,0,1,.12.18.91.91,0,0,1,.06.26c0,.11,0,.23,0,.38a1.73,1.73,0,0,1-.06.54.22.22,0,0,1-.21.17.63.63,0,0,1-.21-.05,2,2,0,0,0-.31-.12l-.41-.12a2.73,2.73,0,0,0-.53,0,1.28,1.28,0,0,0-1.2.59,4,4,0,0,0-.34,1.89v1h4.65V86.46a7.09,7.09,0,0,1,.21-1.85,3.22,3.22,0,0,1,.63-1.27,2.48,2.48,0,0,1,1-.74,4.12,4.12,0,0,1,1.43-.23,3.94,3.94,0,0,1,.88.08,4,4,0,0,1,.63.19.66.66,0,0,1,.17.12.57.57,0,0,1,.12.18,1.37,1.37,0,0,1,.06.27C143.07,83.31,143.07,83.44,143.07,83.58Z"
                transform="translate(-2.99 -41.61)" />
            <path fill="#ffffff"
                d="M157.72,98.32a.26.26,0,0,1-.09.21.62.62,0,0,1-.26.1,1.89,1.89,0,0,1-.47,0,2.09,2.09,0,0,1-.48,0,.52.52,0,0,1-.26-.1.29.29,0,0,1-.08-.21v-1a5.11,5.11,0,0,1-1.51,1.13,4,4,0,0,1-1.76.41,4.56,4.56,0,0,1-1.48-.22A3,3,0,0,1,150.2,98a2.9,2.9,0,0,1-.73-1,3.39,3.39,0,0,1-.25-1.35,3.14,3.14,0,0,1,.35-1.53,2.93,2.93,0,0,1,1-1.07,5.05,5.05,0,0,1,1.63-.65,10.24,10.24,0,0,1,2.17-.21h1.43v-.81a3.87,3.87,0,0,0-.13-1.07,1.88,1.88,0,0,0-.4-.77,1.82,1.82,0,0,0-.73-.46,3.26,3.26,0,0,0-1.11-.16,4.41,4.41,0,0,0-1.26.17,7.23,7.23,0,0,0-1,.37l-.7.37a1,1,0,0,1-.42.17.3.3,0,0,1-.16,0,.28.28,0,0,1-.12-.14.69.69,0,0,1-.07-.23,1.66,1.66,0,0,1,0-.32,2.61,2.61,0,0,1,0-.46.66.66,0,0,1,.2-.32,2.28,2.28,0,0,1,.53-.35,5.55,5.55,0,0,1,.88-.37,7.72,7.72,0,0,1,1.08-.28,6.73,6.73,0,0,1,1.18-.11,6.16,6.16,0,0,1,1.9.25,3.13,3.13,0,0,1,1.27.75,3,3,0,0,1,.7,1.22,6.23,6.23,0,0,1,.22,1.71Zm-1.89-4.76h-1.62a6.09,6.09,0,0,0-1.36.13,2.67,2.67,0,0,0-.95.4,1.57,1.57,0,0,0-.56.62,1.92,1.92,0,0,0-.18.84,1.69,1.69,0,0,0,.51,1.29,2,2,0,0,0,1.43.48,2.6,2.6,0,0,0,1.39-.38,5.7,5.7,0,0,0,1.34-1.17Z"
                transform="translate(-2.99 -41.61)" />
            <path fill="#ffffff"
                d="M170.12,98.31a.3.3,0,0,1-.05.16.37.37,0,0,1-.15.11,1.26,1.26,0,0,1-.28.07l-.47,0-.47,0a1.13,1.13,0,0,1-.28-.07.37.37,0,0,1-.15-.11.3.3,0,0,1-.05-.16V92.2a6.09,6.09,0,0,0-.14-1.43,2.78,2.78,0,0,0-.4-.94,1.67,1.67,0,0,0-.69-.6,2.13,2.13,0,0,0-1-.21,2.42,2.42,0,0,0-1.42.51A7.47,7.47,0,0,0,163.1,91v7.29a.29.29,0,0,1,0,.16.58.58,0,0,1-.15.11,1.37,1.37,0,0,1-.29.07l-.47,0-.46,0a1.33,1.33,0,0,1-.3-.07.37.37,0,0,1-.15-.11.42.42,0,0,1,0-.16V87.88a.29.29,0,0,1,0-.16.27.27,0,0,1,.14-.11.58.58,0,0,1,.26-.07l.43,0,.42,0a.53.53,0,0,1,.25.07.33.33,0,0,1,.14.11.42.42,0,0,1,0,.16v1.38a6.15,6.15,0,0,1,1.74-1.44,3.66,3.66,0,0,1,1.75-.46,4,4,0,0,1,1.75.35,3.13,3.13,0,0,1,1.14,1,3.8,3.8,0,0,1,.63,1.38,8.16,8.16,0,0,1,.19,1.91Z"
                transform="translate(-2.99 -41.61)" />
            <path fill="#ffffff"
                d="M182.45,98.31a.27.27,0,0,1,0,.16.27.27,0,0,1-.14.11,1.05,1.05,0,0,1-.26.07l-.39,0-.4,0a1.05,1.05,0,0,1-.26-.07.3.3,0,0,1-.15-.11.22.22,0,0,1-.05-.16V96.93a6.89,6.89,0,0,1-1.7,1.39,3.85,3.85,0,0,1-1.92.5,4,4,0,0,1-1.95-.45,3.57,3.57,0,0,1-1.3-1.2,5.36,5.36,0,0,1-.74-1.79,10,10,0,0,1-.22-2.16,9.52,9.52,0,0,1,.28-2.42,5.45,5.45,0,0,1,.85-1.85,4,4,0,0,1,1.4-1.18,4.38,4.38,0,0,1,1.93-.41,3.42,3.42,0,0,1,1.66.4,6,6,0,0,1,1.49,1.18V82.88a.27.27,0,0,1,.2-.28l.29-.07a2.81,2.81,0,0,1,.45,0,3.14,3.14,0,0,1,.48,0,2.26,2.26,0,0,1,.28.07.4.4,0,0,1,.16.12.3.3,0,0,1,0,.16ZM180.54,91a7.22,7.22,0,0,0-1.49-1.46,2.55,2.55,0,0,0-1.5-.5,2.14,2.14,0,0,0-1.23.34,2.61,2.61,0,0,0-.82.92,4.33,4.33,0,0,0-.46,1.28,7.16,7.16,0,0,0-.15,1.46,9.92,9.92,0,0,0,.12,1.55,4.42,4.42,0,0,0,.42,1.33,2.54,2.54,0,0,0,.8.94,2,2,0,0,0,1.24.36,2.53,2.53,0,0,0,.73-.11,2.64,2.64,0,0,0,.72-.35,5.64,5.64,0,0,0,.77-.63,10.59,10.59,0,0,0,.85-.95Z"
                transform="translate(-2.99 -41.61)" />
            <path fill="#ffffff"
                d="M200.91,93a8,8,0,0,1-.33,2.35,5,5,0,0,1-1,1.84,4.37,4.37,0,0,1-1.65,1.21,5.73,5.73,0,0,1-2.31.44,6,6,0,0,1-2.22-.38,4.14,4.14,0,0,1-1.59-1.12,4.69,4.69,0,0,1-.94-1.77,8.13,8.13,0,0,1-.31-2.36,8,8,0,0,1,.33-2.35,5.22,5.22,0,0,1,1-1.85,4.46,4.46,0,0,1,1.65-1.2,5.7,5.7,0,0,1,2.31-.43,6.09,6.09,0,0,1,2.23.38,4.19,4.19,0,0,1,1.58,1.11,4.82,4.82,0,0,1,.95,1.78A8.11,8.11,0,0,1,200.91,93Zm-2,.13a8.11,8.11,0,0,0-.16-1.6,4.09,4.09,0,0,0-.52-1.32,2.55,2.55,0,0,0-1-.9,3.21,3.21,0,0,0-1.53-.33,3.28,3.28,0,0,0-1.46.3,2.58,2.58,0,0,0-1,.85,3.75,3.75,0,0,0-.59,1.31,6.53,6.53,0,0,0-.19,1.64,8.23,8.23,0,0,0,.15,1.61,3.89,3.89,0,0,0,.53,1.32,2.63,2.63,0,0,0,1,.89,3.21,3.21,0,0,0,1.53.33,3.26,3.26,0,0,0,1.45-.3,2.69,2.69,0,0,0,1-.85,3.6,3.6,0,0,0,.58-1.3A7.05,7.05,0,0,0,199,93.11Z"
                transform="translate(-2.99 -41.61)" />
            <path fill="#ffffff"
                d="M212.62,98.31a.29.29,0,0,1,0,.16.37.37,0,0,1-.15.11,1.37,1.37,0,0,1-.29.07l-.46,0-.47,0a1.37,1.37,0,0,1-.29-.07.37.37,0,0,1-.15-.11.29.29,0,0,1,0-.16V92.2a6.09,6.09,0,0,0-.14-1.43,3,3,0,0,0-.4-.94,1.73,1.73,0,0,0-.69-.6,2.13,2.13,0,0,0-1-.21,2.45,2.45,0,0,0-1.43.51A7.72,7.72,0,0,0,205.61,91v7.29a.3.3,0,0,1-.05.16.37.37,0,0,1-.15.11,1.23,1.23,0,0,1-.29.07l-.47,0-.46,0a1.37,1.37,0,0,1-.29-.07.37.37,0,0,1-.15-.11.29.29,0,0,1,0-.16V87.88a.41.41,0,0,1,0-.16.33.33,0,0,1,.14-.11.67.67,0,0,1,.27-.07l.42,0,.42,0a.58.58,0,0,1,.26.07.27.27,0,0,1,.17.27v1.38a6.32,6.32,0,0,1,1.75-1.44,3.66,3.66,0,0,1,1.75-.46,3.94,3.94,0,0,1,1.74.35,3.16,3.16,0,0,1,1.15,1,3.8,3.8,0,0,1,.63,1.38,8.79,8.79,0,0,1,.18,1.91Z"
                transform="translate(-2.99 -41.61)" />
        </g>
        <g class="cls-1">
            <path fill="#ffffff"
                d="M32.53,126.8a.26.26,0,0,1-.09.21.65.65,0,0,1-.25.1,2.83,2.83,0,0,1-.47,0,3,3,0,0,1-.48,0A.58.58,0,0,1,31,127a.29.29,0,0,1-.08-.21v-1a5.1,5.1,0,0,1-1.51,1.14,4,4,0,0,1-1.77.4,4.9,4.9,0,0,1-1.48-.21,3.12,3.12,0,0,1-1.12-.62,2.73,2.73,0,0,1-.73-1,3.34,3.34,0,0,1-.26-1.34,2.94,2.94,0,0,1,1.38-2.61,5.11,5.11,0,0,1,1.64-.64,10.24,10.24,0,0,1,2.17-.21h1.43v-.82a3.8,3.8,0,0,0-.13-1.06,1.73,1.73,0,0,0-.41-.77,1.77,1.77,0,0,0-.73-.47,3.52,3.52,0,0,0-1.1-.15,4.09,4.09,0,0,0-1.26.17,6.11,6.11,0,0,0-1,.37c-.28.13-.51.26-.7.37a1,1,0,0,1-.42.17.28.28,0,0,1-.16,0,.33.33,0,0,1-.12-.14.67.67,0,0,1-.08-.24,2.88,2.88,0,0,1,0-.32,1.82,1.82,0,0,1,0-.45.72.72,0,0,1,.19-.32,3.09,3.09,0,0,1,.54-.36,7.34,7.34,0,0,1,.87-.37,7.74,7.74,0,0,1,1.08-.27,6,6,0,0,1,1.19-.11,6.21,6.21,0,0,1,1.9.25,3,3,0,0,1,1.26.75,2.86,2.86,0,0,1,.71,1.22,6.23,6.23,0,0,1,.21,1.7ZM30.65,122H29a5.93,5.93,0,0,0-1.36.14,2.92,2.92,0,0,0-1,.39,1.67,1.67,0,0,0-.56.63A2,2,0,0,0,26,124a1.69,1.69,0,0,0,.51,1.29,2,2,0,0,0,1.43.48,2.71,2.71,0,0,0,1.39-.38,6.45,6.45,0,0,0,1.34-1.17Z"
                transform="translate(-2.99 -41.61)" />
        </g>
        <g class="cls-1">
            <path fill="#ffffff"
                d="M44.67,116.83a1.23,1.23,0,0,1-.11.59.32.32,0,0,1-.28.18H42.79a2.29,2.29,0,0,1,.57.92,3.3,3.3,0,0,1,.16,1,4.23,4.23,0,0,1-.29,1.6,3.14,3.14,0,0,1-.82,1.17,3.73,3.73,0,0,1-1.27.74,5,5,0,0,1-1.64.25,4,4,0,0,1-1.2-.17,2.49,2.49,0,0,1-.88-.42,2.08,2.08,0,0,0-.34.48,1.44,1.44,0,0,0-.13.61.8.8,0,0,0,.37.67,1.77,1.77,0,0,0,1,.29l2.7.12a5.65,5.65,0,0,1,1.42.21,3.39,3.39,0,0,1,1.11.55,2.39,2.39,0,0,1,.74.87,2.53,2.53,0,0,1,.27,1.2,3.21,3.21,0,0,1-.3,1.36,3,3,0,0,1-.92,1.14,4.52,4.52,0,0,1-1.57.78,7.9,7.9,0,0,1-2.25.28,9.38,9.38,0,0,1-2.14-.21,4.46,4.46,0,0,1-1.44-.59,2.21,2.21,0,0,1-.82-.88,2.52,2.52,0,0,1-.25-1.12,3.06,3.06,0,0,1,.09-.74,2.71,2.71,0,0,1,.28-.68,3.49,3.49,0,0,1,.47-.62,6.27,6.27,0,0,1,.65-.59,2.06,2.06,0,0,1-.83-.73,1.78,1.78,0,0,1-.27-1,2.72,2.72,0,0,1,.29-1.26,4.21,4.21,0,0,1,.71-1,3.46,3.46,0,0,1-.56-1,3.58,3.58,0,0,1-.21-1.3,4,4,0,0,1,.3-1.6,3.27,3.27,0,0,1,.83-1.19,3.43,3.43,0,0,1,1.27-.75,4.9,4.9,0,0,1,1.61-.26,8.22,8.22,0,0,1,.89,0,5.68,5.68,0,0,1,.76.15h3.13a.3.3,0,0,1,.29.19A1.23,1.23,0,0,1,44.67,116.83Zm-2,11a1.2,1.2,0,0,0-.55-1,2.83,2.83,0,0,0-1.48-.39L38,126.32a4.78,4.78,0,0,0-.6.55,3.68,3.68,0,0,0-.38.5,2,2,0,0,0-.19.47,2.42,2.42,0,0,0-.05.47,1.24,1.24,0,0,0,.76,1.15,4.73,4.73,0,0,0,2.12.38,5.35,5.35,0,0,0,1.44-.16,2.84,2.84,0,0,0,.94-.45,1.61,1.61,0,0,0,.51-.64A1.78,1.78,0,0,0,42.66,127.84Zm-1-8.26a2.25,2.25,0,0,0-.58-1.66,2.2,2.2,0,0,0-1.65-.6,2.35,2.35,0,0,0-1,.18,2.06,2.06,0,0,0-.68.51,2.26,2.26,0,0,0-.4.75,2.9,2.9,0,0,0-.13.89,2,2,0,0,0,2.2,2.21,2.42,2.42,0,0,0,1-.18,1.76,1.76,0,0,0,.69-.5,2.07,2.07,0,0,0,.4-.73A2.82,2.82,0,0,0,41.7,119.58Z"
                transform="translate(-2.99 -41.61)" />
        </g>
        <g class="cls-1">
            <path fill="#ffffff"
                d="M54.47,126.8a.26.26,0,0,1-.09.21.71.71,0,0,1-.26.1,2.67,2.67,0,0,1-.47,0,2.83,2.83,0,0,1-.47,0,.58.58,0,0,1-.26-.1.25.25,0,0,1-.08-.21v-1a5.14,5.14,0,0,1-1.52,1.14,4,4,0,0,1-1.76.4,4.85,4.85,0,0,1-1.48-.21,3.17,3.17,0,0,1-1.13-.62,2.7,2.7,0,0,1-.72-1,3.55,3.55,0,0,1,.09-2.87,3,3,0,0,1,1-1.08,5,5,0,0,1,1.63-.64,10.34,10.34,0,0,1,2.18-.21h1.42v-.82a4.24,4.24,0,0,0-.12-1.06,1.84,1.84,0,0,0-.41-.77,1.77,1.77,0,0,0-.73-.47,3.55,3.55,0,0,0-1.11-.15,4.18,4.18,0,0,0-1.26.17,6.49,6.49,0,0,0-1,.37c-.27.13-.51.26-.7.37a.93.93,0,0,1-.42.17.3.3,0,0,1-.16,0,.58.58,0,0,1-.12-.14.68.68,0,0,1-.07-.24,1.51,1.51,0,0,1,0-.32,2.48,2.48,0,0,1,0-.45.74.74,0,0,1,.2-.32,2.46,2.46,0,0,1,.54-.36,7.34,7.34,0,0,1,.87-.37A7.74,7.74,0,0,1,49.2,116a5.92,5.92,0,0,1,1.19-.11,6.14,6.14,0,0,1,1.89.25,3,3,0,0,1,1.27.75,2.84,2.84,0,0,1,.7,1.22,5.84,5.84,0,0,1,.22,1.7ZM52.58,122H51a6.05,6.05,0,0,0-1.36.14,2.86,2.86,0,0,0-1,.39,1.67,1.67,0,0,0-.56.63,1.86,1.86,0,0,0-.18.84,1.69,1.69,0,0,0,.51,1.29,2,2,0,0,0,1.44.48,2.65,2.65,0,0,0,1.38-.38,6.21,6.21,0,0,0,1.34-1.17Z"
                transform="translate(-2.99 -41.61)" />
            <path fill="#ffffff"
                d="M60.07,112.83a1.27,1.27,0,0,1-.25.92,1.37,1.37,0,0,1-.93.24,1.4,1.4,0,0,1-.92-.23,1.75,1.75,0,0,1,0-1.82,1.37,1.37,0,0,1,.93-.24,1.31,1.31,0,0,1,.91.24A1.2,1.2,0,0,1,60.07,112.83Zm-.22,14a.24.24,0,0,1,0,.15.37.37,0,0,1-.15.11,1,1,0,0,1-.29.07,3.18,3.18,0,0,1-.47,0,3,3,0,0,1-.46,0,1.11,1.11,0,0,1-.3-.07.27.27,0,0,1-.14-.11.24.24,0,0,1,0-.15V116.36a.24.24,0,0,1,0-.15.24.24,0,0,1,.14-.12,1.67,1.67,0,0,1,.3-.07l.46,0,.47,0a1.37,1.37,0,0,1,.29.07.31.31,0,0,1,.15.12.24.24,0,0,1,0,.15Z"
                transform="translate(-2.99 -41.61)" />
            <path fill="#ffffff"
                d="M72.28,126.79a.25.25,0,0,1,0,.15.37.37,0,0,1-.15.11.88.88,0,0,1-.29.07,3,3,0,0,1-.46,0,3.18,3.18,0,0,1-.47,0,1,1,0,0,1-.29-.07.45.45,0,0,1-.15-.11.24.24,0,0,1,0-.15v-6.11a6.18,6.18,0,0,0-.14-1.44,3.21,3.21,0,0,0-.4-.94,1.81,1.81,0,0,0-.69-.6,2.13,2.13,0,0,0-1-.21,2.48,2.48,0,0,0-1.43.51,7.81,7.81,0,0,0-1.49,1.5v7.29a.25.25,0,0,1-.05.15.37.37,0,0,1-.15.11.88.88,0,0,1-.28.07,3.33,3.33,0,0,1-.48,0,3.17,3.17,0,0,1-.46,0,1,1,0,0,1-.29-.07.37.37,0,0,1-.15-.11.24.24,0,0,1,0-.15V116.36a.27.27,0,0,1,0-.16.31.31,0,0,1,.13-.12.9.9,0,0,1,.27-.06,4.42,4.42,0,0,1,.84,0,.77.77,0,0,1,.26.06.38.38,0,0,1,.13.12.27.27,0,0,1,0,.16v1.38a6.55,6.55,0,0,1,1.75-1.45,3.77,3.77,0,0,1,1.75-.45,3.87,3.87,0,0,1,1.75.35,3.2,3.2,0,0,1,1.14.94,3.93,3.93,0,0,1,.63,1.39,8.64,8.64,0,0,1,.19,1.9Z"
                transform="translate(-2.99 -41.61)" />
            <path fill="#ffffff"
                d="M83.82,115.59a5.29,5.29,0,0,1-.29,1.81,3.76,3.76,0,0,1-.81,1.34,3.52,3.52,0,0,1-1.24.87,4.58,4.58,0,0,1-1.61.37l-.08,2.8a.29.29,0,0,1-.2.26,2,2,0,0,1-.65.08h-.42a1.37,1.37,0,0,1-.27-.06.3.3,0,0,1-.15-.11.3.3,0,0,1,0-.16L78,119.57a1.4,1.4,0,0,1,0-.44.85.85,0,0,1,.16-.28.56.56,0,0,1,.26-.15,2,2,0,0,1,.37,0h.25a3.25,3.25,0,0,0,1.28-.23,2.34,2.34,0,0,0,.86-.64,2.45,2.45,0,0,0,.48-.92,4.15,4.15,0,0,0,.15-1.12,3.88,3.88,0,0,0-.19-1.21,2.72,2.72,0,0,0-.55-1,2.57,2.57,0,0,0-.93-.62,3.7,3.7,0,0,0-1.31-.22,4.06,4.06,0,0,0-1.17.15,6.44,6.44,0,0,0-1.47.63.9.9,0,0,1-.35.14.24.24,0,0,1-.15,0,.25.25,0,0,1-.11-.13,1,1,0,0,1-.07-.27c0-.11,0-.25,0-.42a2.26,2.26,0,0,1,0-.42.68.68,0,0,1,.15-.26,2.72,2.72,0,0,1,.45-.29,4.59,4.59,0,0,1,.79-.33,8.46,8.46,0,0,1,1-.25,6.34,6.34,0,0,1,1.16-.11,5.63,5.63,0,0,1,2.12.36,4.06,4.06,0,0,1,1.46.95,3.87,3.87,0,0,1,.85,1.42A5.38,5.38,0,0,1,83.82,115.59Zm-3.64,10.28a3.48,3.48,0,0,1-.05.63,1,1,0,0,1-.19.41.83.83,0,0,1-.38.22,2.35,2.35,0,0,1-.58.06,2.38,2.38,0,0,1-.59-.06.89.89,0,0,1-.38-.22.87.87,0,0,1-.19-.41,2.68,2.68,0,0,1-.06-.63,2.9,2.9,0,0,1,.06-.64.78.78,0,0,1,.19-.41.87.87,0,0,1,.38-.21,2.38,2.38,0,0,1,.59-.06,2.35,2.35,0,0,1,.58.06.82.82,0,0,1,.38.21.87.87,0,0,1,.19.41A3.78,3.78,0,0,1,80.18,125.87Z"
                transform="translate(-2.99 -41.61)" />
        </g>
    </g>
</svg>