<svg xmlns="http://www.w3.org/2000/svg" width="169" height="75" fill="none">
    <path fill="#fff" d="M1.446 19.219v-4.52a4 4 0 0 1 .963-2.604l1.752-2.043q.286-.333.637-.597L11.38 4.52c.692-.52 1.534-.811 2.39-.94 1.819-.276 4.813-.86 8.176-.86 5.5 0-2.5 0 15.5-2h27.67c.22 0 .445.019.662.055 5.513.927 4.42.944 14.584.945.382 0 .767.054 1.136.152 1.978.527 9.031 2.246 17.222 2.343.48.006.958.092 1.407.259 7.235 2.688 5.893 1.746 8.319 1.746.608 0 1.338.092 2.079.22 2.177.377 5.473 1.601 7.557 2.335l.172.06c2.059.725 4.989 1.756 8.872 3.26.211.082.418.181.607.305 1.016.665 2.137 1.656 3.18 2.25 1.214.69 3.229 1.23 3.948 2.427q.085.142.192.27l2.393 2.873 2.017 2.42c.319.383.56.822.738 1.288 1.234 3.243 4.245 9.195 4.245 11.792q0 .233-.004.443c-.006.296-.923 4.194-.981 4.484a.25.25 0 0 1-.067.125l-2.448 2.448-2.412 2.814c-.387.452-.87.811-1.413 1.052l-3.675 1.634-2.795.932a4 4 0 0 1-.408.112c-1.544.334-11.376 2.456-12.297 2.456h-4l-5 .5-1.918.349a3.3 3.3 0 0 0-2.582 4.15l.849 2.546q.151.455.191.933l.454 5.45a.7.7 0 0 0 .027.141c.232.773-1.066 1.416-1.6.811-.624-.707-1.281-1.368-1.921-1.88-1.179-.944-1.387-3.977-2.557-4.933-2.758-2.25-7.49-4.772-15.943-4.067h-24.5c-4.5-.5-8.5-.5-19.5-.5-3.5 0-10-.5-14-1s-12.5-2.5-19-11.5c-1.2-2-2.166-4.167-2.5-5l-1.866-5.6a4 4 0 0 1-.18-.823l-.954-8.58z"/>
    <mask id="a" fill="#fff">
        <path d="M104.3 54.178c.085-.298.296-.636.606-.641 1.713-.04 3.388-.354 5.064-.632a7 7 0 0 1 1.225-.104 44 44 0 0 0 7.034-.558c2.371-.381 4.777-.608 7.159-.99a23 23 0 0 0 3.721-.908c2.285-.782 4.536-1.655 6.788-2.518 1.295-.5 2.41-1.251 3.412-2.083.958-.794 1.838-1.66 2.73-2.509a5.03 5.03 0 0 0 1.331-2.209c.218-.754.414-1.543.811-2.236.857-1.515.785-3.05.315-4.577-.482-1.555-.952-3.1-1.137-4.715-.091-.757-.414-1.528-.803-2.225a168 168 0 0 0-3.915-6.694c-1.218-1.962-2.842-3.679-4.892-5.113-1.209-.847-2.408-1.703-3.672-2.503-1.734-1.102-3.629-1.963-5.644-2.676-4.284-1.504-8.685-2.713-13.182-3.71-5.34-1.183-10.701-2.292-16.135-3.144-1.785-.279-3.613-.438-5.429-.578-3.167-.244-6.294-.727-9.41-1.246a34 34 0 0 0-6.323-.48 302 302 0 0 1-3.007.046A50 50 0 0 1 63.56.642 57 57 0 0 0 56.363.05C51.12-.065 45.87.03 40.631.208c-1.47.054-2.952.063-4.422.108-3.127.093-6.23.342-9.306.864a792 792 0 0 1-10.407 1.725C11.634 3.67 7.768 5.75 4.618 8.853c-.87.857-1.738 1.732-2.64 2.57C.617 12.693-.03 14.204 0 15.858c.048 3.263-.124 6.54.454 9.774.344 1.877.809 3.734 1.23 5.6.229 1.056.502 2.103.698 3.16.405 2.177 1.26 4.246 2.16 6.305.174.409.49.778.773 1.138 1.12 1.424 2.263 2.839 3.384 4.263.928 1.19 1.944 2.314 3.157 3.316.617.519 1.18 1.076 1.765 1.623 1.069.995 2.332 1.767 3.877 2.206.278.077.567.145.823.268 3.303 1.595 7.055 1.783 10.701 2.256 1.907.248 3.865.295 5.801.37 1.184.042 2.347.15 3.48.43a9 9 0 0 0 2.614.254c2.652-.121 5.305-.17 7.93-.537 1.533-.21 3.061-.12 4.57.155 1.675.308 3.369.396 5.093.364 4.422-.09 8.844-.142 13.266-.195 1.061-.01 2.123.016 3.176.125 3.523.357 7.05.32 10.597.192 1.414-.053 2.828-.125 4.244-.105 1.172.015 2.347.131 3.51.247 1.33.131 2.334.652 3.3 1.476 1.673 1.414 2.962 2.972 3.935 4.774.515.969 1.261 1.87 2.007 2.733 1.4 1.63 2.746 3.278 3.807 5.07.16.261.341.514.577.72.135.117.48.22.622.153.219-.104.491-.356.477-.53-.056-.63-.134-1.268-.343-1.867-.793-2.207-.956-4.5-1.284-6.76-.076-.484-.052-.996-.237-1.44-.728-1.752-1.148-3.564-1.744-5.345-.244-.638-.3-1.244-.121-1.872m1.119 12.496c.02.187-.21.411-.336.271-1.086-1.324-2.369-2.58-3.169-4.01-1.177-2.119-2.693-3.974-4.723-5.556a1 1 0 0 1-.113-.107 3.63 3.63 0 0 0-2.043-1.07c-1.209-.197-2.419-.458-3.647-.509-1.815-.077-3.65-.034-5.473.035-3.536.129-7.063.184-10.596-.145a39 39 0 0 0-3.884-.15c-4.3.042-8.601.102-12.912.19-1.658.03-3.296-.05-4.916-.35s-3.28-.388-4.924-.157c-2.514.356-5.046.403-7.576.522-.64.03-1.326.033-1.926-.12-2.678-.693-5.483-.523-8.22-.83-1.108-.126-2.236-.124-3.333-.26a70 70 0 0 1-4.17-.609 22 22 0 0 1-2.687-.673c-1.046-.329-2.049-.74-3.072-1.096-.88-.304-1.704-.664-2.356-1.247-2.068-1.855-4.257-3.616-5.834-5.818-.896-1.254-1.946-2.433-2.886-3.66-.408-.531-.805-1.082-1.037-1.672-.822-2.023-1.666-4.047-1.926-6.2-.08-.72-.27-1.448-.503-2.148-1.65-5.035-1.811-10.197-1.761-15.363.019-1.4.504-2.68 1.679-3.761.913-.84 1.76-1.714 2.64-2.571 2.912-2.86 6.492-4.808 10.98-5.511a792 792 0 0 0 10.407-1.725c3.02-.521 6.057-.76 9.13-.843 1.713-.05 3.415-.062 5.128-.13 5.182-.212 10.367-.27 15.556-.108 1.704.05 3.42.148 5.094.392 3.847.56 7.711.801 11.612.666 2.188-.076 4.348.113 6.5.476 3.05.52 6.121.986 9.233 1.222 1.816.14 3.643.29 5.429.569 5.2.829 10.339 1.87 15.458 3.001 4.607 1.013 9.14 2.211 13.525 3.759 2.015.713 3.91 1.574 5.633 2.686 1.153.747 2.273 1.54 3.382 2.324 1.904 1.337 3.426 2.946 4.554 4.781 1.333 2.161 2.601 4.36 3.846 6.558.343.607.653 1.278.721 1.935.174 1.66.645 3.26 1.161 4.86.421 1.282.456 2.58-.251 3.863-.385.702-.614 1.474-.833 2.237a4.44 4.44 0 0 1-1.256 2.07c-.739.7-1.467 1.407-2.251 2.07-.991.842-2.094 1.593-3.39 2.101-2.086.806-4.173 1.612-6.305 2.345a22.4 22.4 0 0 1-3.544.897c-2.426.391-4.898.619-7.324 1.01-2.216.36-4.436.529-6.68.533a9 9 0 0 0-1.237.087c-1.743.242-3.45.63-5.242.616-.929-.01-1.539.449-1.78 1.193-.272.856-.4 1.726-.097 2.599.608 1.826 1.216 3.643 1.814 5.47.093.282.154.573.192.856.127.921.243 1.833.349 2.755.078.467.136.952.19 1.45"/>
    </mask>
    <path fill="#fff" d="M104.3 54.178c.085-.298.296-.636.606-.641 1.713-.04 3.388-.354 5.064-.632a7 7 0 0 1 1.225-.104 44 44 0 0 0 7.034-.558c2.371-.381 4.777-.608 7.159-.99a23 23 0 0 0 3.721-.908c2.285-.782 4.536-1.655 6.788-2.518 1.295-.5 2.41-1.251 3.412-2.083.958-.794 1.838-1.66 2.73-2.509a5.03 5.03 0 0 0 1.331-2.209c.218-.754.414-1.543.811-2.236.857-1.515.785-3.05.315-4.577-.482-1.555-.952-3.1-1.137-4.715-.091-.757-.414-1.528-.803-2.225a168 168 0 0 0-3.915-6.694c-1.218-1.962-2.842-3.679-4.892-5.113-1.209-.847-2.408-1.703-3.672-2.503-1.734-1.102-3.629-1.963-5.644-2.676-4.284-1.504-8.685-2.713-13.182-3.71-5.34-1.183-10.701-2.292-16.135-3.144-1.785-.279-3.613-.438-5.429-.578-3.167-.244-6.294-.727-9.41-1.246a34 34 0 0 0-6.323-.48 302 302 0 0 1-3.007.046A50 50 0 0 1 63.56.642 57 57 0 0 0 56.363.05C51.12-.065 45.87.03 40.631.208c-1.47.054-2.952.063-4.422.108-3.127.093-6.23.342-9.306.864a792 792 0 0 1-10.407 1.725C11.634 3.67 7.768 5.75 4.618 8.853c-.87.857-1.738 1.732-2.64 2.57C.617 12.693-.03 14.204 0 15.858c.048 3.263-.124 6.54.454 9.774.344 1.877.809 3.734 1.23 5.6.229 1.056.502 2.103.698 3.16.405 2.177 1.26 4.246 2.16 6.305.174.409.49.778.773 1.138 1.12 1.424 2.263 2.839 3.384 4.263.928 1.19 1.944 2.314 3.157 3.316.617.519 1.18 1.076 1.765 1.623 1.069.995 2.332 1.767 3.877 2.206.278.077.567.145.823.268 3.303 1.595 7.055 1.783 10.701 2.256 1.907.248 3.865.295 5.801.37 1.184.042 2.347.15 3.48.43a9 9 0 0 0 2.614.254c2.652-.121 5.305-.17 7.93-.537 1.533-.21 3.061-.12 4.57.155 1.675.308 3.369.396 5.093.364 4.422-.09 8.844-.142 13.266-.195 1.061-.01 2.123.016 3.176.125 3.523.357 7.05.32 10.597.192 1.414-.053 2.828-.125 4.244-.105 1.172.015 2.347.131 3.51.247 1.33.131 2.334.652 3.3 1.476 1.673 1.414 2.962 2.972 3.935 4.774.515.969 1.261 1.87 2.007 2.733 1.4 1.63 2.746 3.278 3.807 5.07.16.261.341.514.577.72.135.117.48.22.622.153.219-.104.491-.356.477-.53-.056-.63-.134-1.268-.343-1.867-.793-2.207-.956-4.5-1.284-6.76-.076-.484-.052-.996-.237-1.44-.728-1.752-1.148-3.564-1.744-5.345-.244-.638-.3-1.244-.121-1.872m1.119 12.496c.02.187-.21.411-.336.271-1.086-1.324-2.369-2.58-3.169-4.01-1.177-2.119-2.693-3.974-4.723-5.556a1 1 0 0 1-.113-.107 3.63 3.63 0 0 0-2.043-1.07c-1.209-.197-2.419-.458-3.647-.509-1.815-.077-3.65-.034-5.473.035-3.536.129-7.063.184-10.596-.145a39 39 0 0 0-3.884-.15c-4.3.042-8.601.102-12.912.19-1.658.03-3.296-.05-4.916-.35s-3.28-.388-4.924-.157c-2.514.356-5.046.403-7.576.522-.64.03-1.326.033-1.926-.12-2.678-.693-5.483-.523-8.22-.83-1.108-.126-2.236-.124-3.333-.26a70 70 0 0 1-4.17-.609 22 22 0 0 1-2.687-.673c-1.046-.329-2.049-.74-3.072-1.096-.88-.304-1.704-.664-2.356-1.247-2.068-1.855-4.257-3.616-5.834-5.818-.896-1.254-1.946-2.433-2.886-3.66-.408-.531-.805-1.082-1.037-1.672-.822-2.023-1.666-4.047-1.926-6.2-.08-.72-.27-1.448-.503-2.148-1.65-5.035-1.811-10.197-1.761-15.363.019-1.4.504-2.68 1.679-3.761.913-.84 1.76-1.714 2.64-2.571 2.912-2.86 6.492-4.808 10.98-5.511a792 792 0 0 0 10.407-1.725c3.02-.521 6.057-.76 9.13-.843 1.713-.05 3.415-.062 5.128-.13 5.182-.212 10.367-.27 15.556-.108 1.704.05 3.42.148 5.094.392 3.847.56 7.711.801 11.612.666 2.188-.076 4.348.113 6.5.476 3.05.52 6.121.986 9.233 1.222 1.816.14 3.643.29 5.429.569 5.2.829 10.339 1.87 15.458 3.001 4.607 1.013 9.14 2.211 13.525 3.759 2.015.713 3.91 1.574 5.633 2.686 1.153.747 2.273 1.54 3.382 2.324 1.904 1.337 3.426 2.946 4.554 4.781 1.333 2.161 2.601 4.36 3.846 6.558.343.607.653 1.278.721 1.935.174 1.66.645 3.26 1.161 4.86.421 1.282.456 2.58-.251 3.863-.385.702-.614 1.474-.833 2.237a4.44 4.44 0 0 1-1.256 2.07c-.739.7-1.467 1.407-2.251 2.07-.991.842-2.094 1.593-3.39 2.101-2.086.806-4.173 1.612-6.305 2.345a22.4 22.4 0 0 1-3.544.897c-2.426.391-4.898.619-7.324 1.01-2.216.36-4.436.529-6.68.533a9 9 0 0 0-1.237.087c-1.743.242-3.45.63-5.242.616-.929-.01-1.539.449-1.78 1.193-.272.856-.4 1.726-.097 2.599.608 1.826 1.216 3.643 1.814 5.47.093.282.154.573.192.856.127.921.243 1.833.349 2.755.078.467.136.952.19 1.45"/>
    <path stroke="#000" stroke-width="4" d="M104.3 54.178c.085-.298.296-.636.606-.641 1.713-.04 3.388-.354 5.064-.632a7 7 0 0 1 1.225-.104 44 44 0 0 0 7.034-.558c2.371-.381 4.777-.608 7.159-.99a23 23 0 0 0 3.721-.908c2.285-.782 4.536-1.655 6.788-2.518 1.295-.5 2.41-1.251 3.412-2.083.958-.794 1.838-1.66 2.73-2.509a5.03 5.03 0 0 0 1.331-2.209c.218-.754.414-1.543.811-2.236.857-1.515.785-3.05.315-4.577-.482-1.555-.952-3.1-1.137-4.715-.091-.757-.414-1.528-.803-2.225a168 168 0 0 0-3.915-6.694c-1.218-1.962-2.842-3.679-4.892-5.113-1.209-.847-2.408-1.703-3.672-2.503-1.734-1.102-3.629-1.963-5.644-2.676-4.284-1.504-8.685-2.713-13.182-3.71-5.34-1.183-10.701-2.292-16.135-3.144-1.785-.279-3.613-.438-5.429-.578-3.167-.244-6.294-.727-9.41-1.246a34 34 0 0 0-6.323-.48 302 302 0 0 1-3.007.046A50 50 0 0 1 63.56.642 57 57 0 0 0 56.363.05C51.12-.065 45.87.03 40.631.208c-1.47.054-2.952.063-4.422.108-3.127.093-6.23.342-9.306.864a792 792 0 0 1-10.407 1.725C11.634 3.67 7.768 5.75 4.618 8.853c-.87.857-1.738 1.732-2.64 2.57C.617 12.693-.03 14.204 0 15.858c.048 3.263-.124 6.54.454 9.774.344 1.877.809 3.734 1.23 5.6.229 1.056.502 2.103.698 3.16.405 2.177 1.26 4.246 2.16 6.305.174.409.49.778.773 1.138 1.12 1.424 2.263 2.839 3.384 4.263.928 1.19 1.944 2.314 3.157 3.316.617.519 1.18 1.076 1.765 1.623 1.069.995 2.332 1.767 3.877 2.206.278.077.567.145.823.268 3.303 1.595 7.055 1.783 10.701 2.256 1.907.248 3.865.295 5.801.37 1.184.042 2.347.15 3.48.43a9 9 0 0 0 2.614.254c2.652-.121 5.305-.17 7.93-.537 1.533-.21 3.061-.12 4.57.155 1.675.308 3.369.396 5.093.364 4.422-.09 8.844-.142 13.266-.195 1.061-.01 2.123.016 3.176.125 3.523.357 7.05.32 10.597.192 1.414-.053 2.828-.125 4.244-.105 1.172.015 2.347.131 3.51.247 1.33.131 2.334.652 3.3 1.476 1.673 1.414 2.962 2.972 3.935 4.774.515.969 1.261 1.87 2.007 2.733 1.4 1.63 2.746 3.278 3.807 5.07.16.261.341.514.577.72.135.117.48.22.622.153.219-.104.491-.356.477-.53-.056-.63-.134-1.268-.343-1.867-.793-2.207-.956-4.5-1.284-6.76-.076-.484-.052-.996-.237-1.44-.728-1.752-1.148-3.564-1.744-5.345-.244-.638-.3-1.244-.121-1.872Zm1.119 12.496c.02.187-.21.411-.336.271-1.086-1.324-2.369-2.58-3.169-4.01-1.177-2.119-2.693-3.974-4.723-5.556a1 1 0 0 1-.113-.107 3.63 3.63 0 0 0-2.043-1.07c-1.209-.197-2.419-.458-3.647-.509-1.815-.077-3.65-.034-5.473.035-3.536.129-7.063.184-10.596-.145a39 39 0 0 0-3.884-.15c-4.3.042-8.601.102-12.912.19-1.658.03-3.296-.05-4.916-.35s-3.28-.388-4.924-.157c-2.514.356-5.046.403-7.576.522-.64.03-1.326.033-1.926-.12-2.678-.693-5.483-.523-8.22-.83-1.108-.126-2.236-.124-3.333-.26a70 70 0 0 1-4.17-.609 22 22 0 0 1-2.687-.673c-1.046-.329-2.049-.74-3.072-1.096-.88-.304-1.704-.664-2.356-1.247-2.068-1.855-4.257-3.616-5.834-5.818-.896-1.254-1.946-2.433-2.886-3.66-.408-.531-.805-1.082-1.037-1.672-.822-2.023-1.666-4.047-1.926-6.2-.08-.72-.27-1.448-.503-2.148-1.65-5.035-1.811-10.197-1.761-15.363.019-1.4.504-2.68 1.679-3.761.913-.84 1.76-1.714 2.64-2.571 2.912-2.86 6.492-4.808 10.98-5.511a792 792 0 0 0 10.407-1.725c3.02-.521 6.057-.76 9.13-.843 1.713-.05 3.415-.062 5.128-.13 5.182-.212 10.367-.27 15.556-.108 1.704.05 3.42.148 5.094.392 3.847.56 7.711.801 11.612.666 2.188-.076 4.348.113 6.5.476 3.05.52 6.121.986 9.233 1.222 1.816.14 3.643.29 5.429.569 5.2.829 10.339 1.87 15.458 3.001 4.607 1.013 9.14 2.211 13.525 3.759 2.015.713 3.91 1.574 5.633 2.686 1.153.747 2.273 1.54 3.382 2.324 1.904 1.337 3.426 2.946 4.554 4.781 1.333 2.161 2.601 4.36 3.846 6.558.343.607.653 1.278.721 1.935.174 1.66.645 3.26 1.161 4.86.421 1.282.456 2.58-.251 3.863-.385.702-.614 1.474-.833 2.237a4.44 4.44 0 0 1-1.256 2.07c-.739.7-1.467 1.407-2.251 2.07-.991.842-2.094 1.593-3.39 2.101-2.086.806-4.173 1.612-6.305 2.345a22.4 22.4 0 0 1-3.544.897c-2.426.391-4.898.619-7.324 1.01-2.216.36-4.436.529-6.68.533a9 9 0 0 0-1.237.087c-1.743.242-3.45.63-5.242.616-.929-.01-1.539.449-1.78 1.193-.272.856-.4 1.726-.097 2.599.608 1.826 1.216 3.643 1.814 5.47.093.282.154.573.192.856.127.921.243 1.833.349 2.755.078.467.136.952.19 1.45Z" mask="url(#a)"/>
    <path fill="#000" d="M65.95 28.96q.14.238.266.532t.266.574q.308-.644.588-1.302.28-.672.504-1.218.28-.727.616-1.344.336-.63.63-1.148.182-.35.392-.49a.83.83 0 0 1 .476-.154q.49 0 .658.364.168.35.168.714.014.448.014.896t.014.896q0 .448.014.714.014.252.042.476.028.21.084.462l.196.658q.181.672.21 1.176.042.504.042 1.05.015.238.028.546.015.308.056.532.041.182.098.28.07.084.07.238a.5.5 0 0 1-.14.336q-.127.14-.406.14a.7.7 0 0 1-.56-.266 1.26 1.26 0 0 1-.28-.644 5 5 0 0 1-.042-.504v-.7a7 7 0 0 0-.056-.77 6 6 0 0 0-.224-1.12l-.168-.56a7 7 0 0 1-.112-.588 8 8 0 0 1-.084-1.12q0-.517-.042-1.05a10 10 0 0 0-.266.686 8 8 0 0 1-.28.7q-.266.588-.602 1.4l-.686 1.652q-.126.307-.252.588l-.21.518a.8.8 0 0 1-.224.308.56.56 0 0 1-.35.098.57.57 0 0 1-.378-.14.7.7 0 0 1-.21-.336 19 19 0 0 0-.126-.476 7 7 0 0 0-.168-.518q-.21-.56-.378-.952a7 7 0 0 0-.35-.714 4 4 0 0 0-.364-.574q-.196-.294-.406-.644-.21-.392-.434-.91a7 7 0 0 0-.406-.84 13 13 0 0 0-.434 1.526q-.154.756-.28 1.47-.084.49-.182.91-.084.405-.084.84 0 .336-.014.658l-.028.658q0 .435-.224.826-.21.392-.7.392a.8.8 0 0 1-.392-.112q-.182-.126-.182-.392 0-.154.056-.266l.126-.224a1.4 1.4 0 0 0 .154-.7q0-.378.014-.756.014-.435.056-.868.056-.448.14-.896a49 49 0 0 1 .308-1.526q.168-.77.336-1.512.112-.504.182-.98.084-.476.196-.84a.76.76 0 0 1 .252-.392.7.7 0 0 1 .392-.126q.21 0 .336.126.14.126.224.35.322.35.546.714t.49.994q.168.378.308.742.154.35.294.574a6 6 0 0 0 .476.742l.196.294q.112.154.21.322m7.317 2.66a2.5 2.5 0 0 1-.07-.462v-.896q.001-.21.056-.392.03-.14.084-.252.057-.126.112-.238a1 1 0 0 0 .07-.14.5.5 0 0 1 .07-.14q.057-.098.126-.182.084-.098.168-.182a.6.6 0 0 1 .14-.126l.168-.112q.057-.041.126-.098a1 1 0 0 1 .14-.098q.267-.154.56-.224.294-.084.63-.084.645 0 1.008.154.365.154.644.448.127.126.196.308.071.168.126.35.057.168.126.336.07.168.07.378 0 .224-.28.462-.279.239-.756.294-.84.126-1.442.21-.588.07-.924.098.014.265.056.378.042.098.098.21a.5.5 0 0 1 .042.182.25.25 0 0 0 .07.14q.183.224.42.364.253.14.602.14.294 0 .588-.098t.588-.252q.099-.097.154-.168a.25.25 0 0 1 .182-.07q.294 0 .392.196a.7.7 0 0 1 .098.322.6.6 0 0 1-.084.322.7.7 0 0 1-.196.238 2.2 2.2 0 0 1-.826.462q-.42.112-.896.112-.126 0-.35-.042a3 3 0 0 1-.462-.126 5 5 0 0 1-.476-.196 1.6 1.6 0 0 1-.378-.266 2 2 0 0 0-.14-.126 2 2 0 0 0-.126-.14 1.4 1.4 0 0 1-.112-.182 1 1 0 0 0-.084-.196 5 5 0 0 0-.182-.308 1.4 1.4 0 0 1-.126-.308m2.604-2.59a.7.7 0 0 0-.154-.042.4.4 0 0 0-.154-.028q-.433 0-.756.308-.322.294-.364.784l.854-.098q.504-.07.826-.126.154-.028.28-.07t.126-.126q0-.098-.126-.252a.9.9 0 0 0-.294-.252.3.3 0 0 0-.126-.056.5.5 0 0 0-.112-.042m5.805 4.312a6 6 0 0 1-.672-.056q-.435-.055-.7-.21-.308-.126-.392-.266a.7.7 0 0 1-.07-.28q0-.182.182-.308a.7.7 0 0 1 .42-.14q.195 0 .56.084.378.07.728.084.181-.014.238-.266t.056-.504a.97.97 0 0 0-.294-.686q-.294-.308-.896-.532a7 7 0 0 1-.56-.252q-.225-.098-.406-.182a1.3 1.3 0 0 1-.294-.196 1.1 1.1 0 0 1-.308-.448 1.7 1.7 0 0 1-.098-.588q0-.252.098-.56.112-.308.406-.574.168-.14.42-.28.266-.155.532-.252.28-.112.518-.182.252-.07.392-.07.364 0 .714.182.364.168.364.532 0 .168-.21.308-.195.14-.644.084-.672.055-.966.252a.56.56 0 0 0-.28.49q0 .14.434.364.448.225 1.162.532.322.14.532.378.225.224.35.504.126.266.182.56.056.28.056.532 0 .14-.098.476a2.4 2.4 0 0 1-.28.644q-.182.322-.476.574a1.04 1.04 0 0 1-.7.252m4.222.42q-.225 0-.644-.028-.42-.042-.644-.21-.336-.154-.42-.294a.6.6 0 0 1-.084-.28q0-.266.196-.392a.84.84 0 0 1 .462-.126q.196 0 .476.126.28.112.42.154.393-.042.504-.21a.65.65 0 0 0 .112-.336 1.4 1.4 0 0 0-.112-.28 3 3 0 0 0-.266-.448.8.8 0 0 0-.224-.238 1.2 1.2 0 0 1-.238-.252 4 4 0 0 1-.434-.742q-.225-.476-.224-.84 0-.181.126-.462.126-.28.406-.504a5 5 0 0 1 .938-.532q.602-.28 1.078-.28.183 0 .406.042.225.028.406.112.195.07.322.196a.4.4 0 0 1 .126.294q0 .168-.238.364-.237.195-.798.07-.588.015-1.064.224-.475.21-.49.616.015.14.126.364.112.21.336.518.085.126.196.28.126.14.21.238.07.098.14.238t.126.224q.168.225.28.406a.8.8 0 0 1 .112.434q0 .154-.098.42t-.308.518q-.195.252-.504.434a1.4 1.4 0 0 1-.714.182m6.05-6.104q.307-.14.546-.252a1.3 1.3 0 0 1 .602-.126q.056 0 .266.028t.462.154q.266.112.504.336.252.21.35.588.055.238.07.49.028.252 0 .462.182.658.196 1.12t.168.938q.112.252.182.42a.8.8 0 0 1 .07.322.5.5 0 0 1-.14.336q-.14.154-.406.154-.476 0-.63-.532-.154-.546-.266-1.218-.224.449-.504.812t-.672.532a3.5 3.5 0 0 1-.588.21q-.265.07-.49.07-.686 0-1.176-.504a1.7 1.7 0 0 1-.476-1.218q0-.364.028-.714.043-.365.154-.672.182-.449.49-.812.307-.364.63-.63a1 1 0 0 1 .308-.168q.168-.056.322-.126m1.498 1.736q.028-.225.014-.448 0-.238-.014-.462a1 1 0 0 0-.532 0 2.6 2.6 0 0 0-.476.154q-.14.056-.294.126a.7.7 0 0 0-.252.154q-.21.21-.406.448t-.294.49q-.084.225-.07.448.014.21.014.35 0 .35.154.588t.476.238q.21 0 .392-.112.195-.112.364-.294a4 4 0 0 0 .462-.672 5 5 0 0 0 .252-.49q.112-.266.21-.518m7.621 4.312a2.3 2.3 0 0 1-.378.672q-.265.377-.658.686a3.5 3.5 0 0 1-.854.532 2.1 2.1 0 0 1-.938.224q-.867 0-1.414-.322-.532-.322-.532-.812a.73.73 0 0 1 .14-.434.48.48 0 0 1 .406-.182.28.28 0 0 1 .224.098q.084.112.182.238.113.113.266.21.154.098.336.154.687-.014 1.162-.266.49-.238.756-.546.057-.14.126-.266l.14-.28.112-.224a.66.66 0 0 0 .07-.49 3 3 0 0 1-.042-.252l-.028-.224a2 2 0 0 1-.014-.238.97.97 0 0 1-.49.476 1.8 1.8 0 0 1-.728.14q-.21 0-.392-.042a6 6 0 0 1-.658-.266 1.43 1.43 0 0 1-.602-.756 2.2 2.2 0 0 1-.084-.588q0-.77.322-1.33.336-.56.98-.91.294-.154.644-.322t.77-.154q.588-.084.91.252.336.336.336.84 0 .406.042.882.056.462.014.882.056.28.056.616t-.014.714q0 .112.028.238t.028.252q0 .195-.084.406a3 3 0 0 0-.14.392m-2.45-2.254q.084.028.182.07a1 1 0 0 0 .238.028q.309 0 .49-.14a.7.7 0 0 0 .252-.35q.113-.224.14-.476.042-.252.042-.462a6 6 0 0 0-.014-.448q-.014-.21-.056-.392a.78.78 0 0 0-.574.112 6 6 0 0 0-.462.322q-.266.224-.42.476-.14.239-.14.588 0 .14.014.28a.8.8 0 0 0 .084.224.5.5 0 0 0 .224.168m4.384-.224a1 1 0 0 1 0-.238q.028-.126.028-.224 0-.195-.014-.392 0-.196.042-.378a5 5 0 0 1 .154-.42q.099-.252.182-.392a.5.5 0 0 1 .182-.21.7.7 0 0 0 .168-.168q.113-.14.182-.266a.8.8 0 0 1 .224-.238q.168-.126.546-.238.378-.126.756-.126.42 0 .742.154.336.155.56.336a.8.8 0 0 1 .196.21q.084.112.154.196a3 3 0 0 1 .322.49q.154.252.154.658 0 .378-.21.644-.21.252-.77.252-.182 0-.35-.014a4 4 0 0 0-.336-.014q-.084 0-.21.014t-.224.014a18 18 0 0 1-1.288-.042 3 3 0 0 0-.014.266q0 .126.056.266.057.182.21.434.168.252.406.434.21.112.462.182.267.056.532.056.28 0 .532-.028t.392-.07a.7.7 0 0 0 .294-.154.37.37 0 0 1 .252-.098q.28 0 .406.14.14.126.14.336 0 .253-.098.364-.097.113-.238.224a1.86 1.86 0 0 1-.784.35 4.6 4.6 0 0 1-.882.084 3.5 3.5 0 0 1-1.106-.182q-.531-.196-.84-.462a1 1 0 0 1-.182-.182 2 2 0 0 0-.126-.196 14 14 0 0 0-.266-.336 1 1 0 0 1-.182-.322 3 3 0 0 1-.098-.336 3 3 0 0 1-.056-.378m2.982-1.358q.183-.014.28-.042.112-.028.112-.126 0-.07-.084-.182a1.2 1.2 0 0 0-.21-.238 1.4 1.4 0 0 0-.266-.21.45.45 0 0 0-.252-.098q-.265 0-.462.07a1.2 1.2 0 0 0-.322.154 7 7 0 0 0-.238.294 1.1 1.1 0 0 0-.182.378q.308.015.686.028h.7a.5.5 0 0 0 .112-.014 1 1 0 0 1 .126-.014m10.609 2.24q.14.224.364.35.237.112.378.112a1 1 0 0 0 .476-.112q.21-.126.364-.28.266-.266.378-.574.126-.308.182-.686.014-.155.014-.35a3 3 0 0 1 .042-.336 7 7 0 0 1 .098-.378q.056-.196.056-.378 0-.308.014-.602.013-.294.028-.56.014-.28.168-.392a.56.56 0 0 1 .336-.112q.237 0 .392.182.153.168.084.448.084.28.112.602.027.308 0 .644-.014.21-.098.42-.07.196-.112.406a2 2 0 0 0-.028.35q.014.168 0 .336a3.4 3.4 0 0 1-.14.602 2.4 2.4 0 0 1-.21.518 1.8 1.8 0 0 1-.322.406l-.35.322a3.4 3.4 0 0 1-.742.476 1.8 1.8 0 0 1-.756.182q-.267 0-.7-.168a1.9 1.9 0 0 1-.7-.476 2.5 2.5 0 0 1-.476-.672 11 11 0 0 1-.35-.77 19 19 0 0 1-.252-.63 4 4 0 0 1-.168-.56q-.056-.307-.098-.588a11 11 0 0 1-.042-.532 12 12 0 0 1 0-1.106.97.97 0 0 1 .21-.546q.181-.238.42-.238.28 0 .448.224.181.21.126.476-.015.28 0 .574.013.28.042.546.027.28.056.546.027.266.084.532.055.28.154.518.098.238.182.462t.154.448q.083.21.182.364m6.642 1.834q-.224 0-.518-.07a1.8 1.8 0 0 1-.574-.294q-.252-.182-.322-.392a1.1 1.1 0 0 1-.07-.322q0-.265.154-.378a.6.6 0 0 1 .35-.112q.126 0 .238.098.112.084.21.196l.182.21a.4.4 0 0 0 .168.126q.35-.055.434-.252.097-.195.126-.322a.8.8 0 0 0-.14-.294 12 12 0 0 0-.476-.63l-.28-.322a2 2 0 0 1-.266-.392 4 4 0 0 1-.252-.574 1.8 1.8 0 0 1-.084-.448q0-.28.14-.462.14-.196.448-.378.35-.21.882-.434t1.134-.224q.56-.098.84.028t.28.476q0 .239-.224.392-.21.155-.546.14-.756.014-1.134.168a1.8 1.8 0 0 0-.602.378q.014.098.154.308t.28.434q.042.056.168.182t.168.182q.392.532.504.798.126.252.126.714 0 .168-.126.42a2.3 2.3 0 0 1-.336.49q-.21.225-.476.392a1.03 1.03 0 0 1-.56.168"/>
    <path fill="#000" fill-rule="evenodd" d="M24.42 30.769q.315-.07.765.306c.187.157.283.422.31.6.129.912.716 1.556 1.274 2.064 2.8 2.555 5.59 4.056 8.535 4.589 1.302.236 2.681.411 3.968-.271.184-.097.379-.141.567-.184.13-.03.261-.059.384-.11 1.537-.647 3.076-1.489 3.933-3.25.296-.61.657-1.191 1.007-1.753q.174-.278.345-.559c.445-.735.702-1.39.804-2.059.063-.405.14-.832.338-1.197.152-.281.572-.508.893-.484.311.027.64.33.777.608.139.283.135.622.118.946-.053 1.044-.38 2.06-1 3.106l-.393.659c-.4.667-.815 1.358-1.185 2.054-.534 1.004-1.29 1.839-2.377 2.625-1.11.803-2.364 1.26-3.576 1.7l-.304.11c-.828.305-1.57.45-2.307.45a6 6 0 0 1-.324-.01h-.013q-.303-.034-.606-.06c-.44-.041-.895-.083-1.342-.162-3.36-.593-6.518-2.27-9.654-5.127-.539-.492-.954-1.12-1.357-1.728l-.185-.279c-.413-.616-.483-1.35-.192-2.01.133-.3.506-.508.797-.574m17.832-10.948q-.26 0-.54-.078c-.66-.187-1.055-.549-1.21-1.108-.233-.847.562-2.478 1.371-2.816.092-.038.181-.05.286-.064q.07-.008.167-.025l.068-.011.065.026q.049.018.11.038c.123.04.292.095.443.19.465.295.795.871.884 1.544.09.687-.085 1.347-.467 1.768a1.55 1.55 0 0 1-1.177.536m-16.209 1.93c-.131 0-.27-.025-.407-.077-.943-.358-1.374-1.1-1.36-2.34l.016-.09q.023-.063.047-.152c.056-.195.132-.462.292-.682.186-.259.54-.468.842-.496.812-.08 1.752.724 1.844 1.589.067.63-.07 1.217-.405 1.747-.208.327-.522.501-.869.501" clip-rule="evenodd"/>
</svg>
