<svg xmlns="http://www.w3.org/2000/svg" width="76" height="37" fill="none">
    <path stroke="#9855D4" stroke-linecap="round" stroke-linejoin="round" stroke-width="1.2" d="M59.5 3.5c.6.5.8 1.5 2 3.5.7 1 .6 2.1 1 2.1h8.2c-1.1 2.2-.8 4.9-1.2 5.9-.2.7-.2.7.5 1.5h0c.9 1 3 2.5 4 3-1 1.4-3.7 2-5 2-1 .3-.9 2-.5 3.5.3.5 1.5 2.5 1.5 3.9 0 .7-6-.4-7-.4s-1.4 1.5-1.9 3c-.5 1.7-.5 1.5-1 1.5-.6 0-4.3-2.5-5.4-3-.5 0-4.1 5-4.7 5-.5 0-1-.8-2.2-1.3-1-.5-3.2-2.7-4.3-2.1-1 .5-3.6 4.6-4 4.4l-4-2.3c-1-.7-2-1-2.5-1.6-.5-.5-5.4 3.9-6 3.9-.5 0-2.2-1.6-2.5-2.3-.5-1.5-1.8-1-2.7-2.7l-4.3 2c-1 .5-4 2.4-4.5 2-.5-.5-1-3-1-3.5s-.2-2.6-.8-3.1c-.5-.6-1.7 0-2.6 0-.8 0-4 .1-4-.4s1-2.5 1.4-3.5a6 6 0 00.5-2c0-.5-1-1.5-2-2-.8-.4-2.6-2.3-3.5-3 .6-.2 2-1.2 2.5-1.5.8-.5 1.4-1.2 2-1.5 1-.5 1.5-.6 2-1 .5-.6 0-2-.5-3s-1-3-.5-3.5c.6-.5 8 2 8.5 2 .6 0 4-6 4.5-6 1 0 7.5 3.5 8 3.5.6 0 1.5-1.6 1.9-2 1-1 3.4-3 4.5-3 1 0 6.5 4.4 7 4.4.6 0 1.8-1.1 2.6-1.4C45 4 47 2 47.5 2l3 2.5C52 5.5 52.1 7 52.6 7c.6 0 6.6-3.9 7-3.5z"/>
    <path fill="#9855D4" d="M25.9 19.2l.7 1.1c.2.4.3.9.3 1.3 0 .5-.2 1-.5 1.4a6 6 0 01-2.3 2c-.4.2-.8.2-1.4.2h-1l-.9-.4-.4-.5-.4-.6-.5-.8-.3-1c0-.4 0-.8.2-1l.3-1 .5-.8a5.8 5.8 0 011.6-1.4l1-.2h.8l.8.4c.3 0 .6.3.8.5l.7.8zm-4.7 1.2l-.2.6v.6l.1.6a29.4 29.4 0 00.7 1.3l.4.2h.5c.4 0 .7 0 1-.2l.7-.6.6-.7.3-1a1 1 0 00-.3-.7 7.3 7.3 0 00-.9-.9l-.3-.2a4.3 4.3 0 00-.9-.3c-.3 0-.6.2-.9.4-.3.2-.6.5-.8.9zm11.2 4c0 .2 0 .4-.2.5l-.6.2-.6-.1a110.6 110.6 0 01-.7-2.4l.1-.8v-1.6l-.1-.8v-1.6a71.9 71.9 0 00-1.2 0l-.4-.1a.7.7 0 01-.2-.5c0-.3 0-.4.2-.6l.6-.2h.9a7 7 0 010-1.1v-1.4c0-.5 0-1 .3-1.3a2.4 2.4 0 012-1h.8c.3 0 .5.2.8.3.2 0 .4.2.5.4.2.1.3.3.3.5 0 .4-.1.6-.3.7-.2.2-.3.2-.5.2h-.6c-.1-.2-.3-.2-.4-.3a.6.6 0 00-.4-.2h-.3l-.4.2-.2.6.1.7.1.6a4.6 4.6 0 010 .9h.4a7.8 7.8 0 01.8 0l.4-.1c.2 0 .4 0 .6.2l.2.5c0 .4-.2.6-.5.7a6.3 6.3 0 01-1 .2 3 3 0 00-1 0v1a20.8 20.8 0 00.2 2.8v.7l.2 1.1.1 1zm6.4 0c0 .2 0 .4-.2.5l-.6.3c-.3 0-.5 0-.6-.2a1 1 0 01-.3-.5v-.6a13 13 0 00-.2-1.4v-2.2c0-.2 0-.4-.2-.7a4.6 4.6 0 01-.1-.9v-.2l-.6.1h-.4c-.2 0-.3 0-.4-.2a.7.7 0 01-.2-.5c0-.2 0-.4.2-.5l.6-.3a13.3 13.3 0 00.8 0v-.2l-.1-.8a9 9 0 010-1.6v-.8c0-.4.1-.7.3-1l.7-.6.8-.4.8-.2a2.6 2.6 0 011.5.5l.7.7.2.7c0 .3 0 .5-.2.6l-.5.1h-.6l-.3-.6a.7.7 0 00-.4-.2 2 2 0 00-.6 0c-.2 0-.4 0-.5.2-.2.1-.3.3-.3.5v.7a5.5 5.5 0 000 1.4l.2.8h1.6l.5.1.1.5c0 .3-.1.6-.4.7l-.7.3H39a6 6 0 00-.4 0h-.3v.4l.1.7a2.8 2.8 0 01.1 1v.7a4.9 4.9 0 00.2 1v.6a14.4 14.4 0 010 1.4zM42 22v-1.7a7.1 7.1 0 01.6-1.2l.2-.3.3-.2.2-.4.3-.3.8-.4 1.1-.2c.4 0 .8.1 1 .3l.9.4.2.3.3.3.4.7c.2.3.2.6.2 1 0 .3 0 .6-.3.9-.2.2-.5.3-1 .3a6 6 0 01-.6 0 5.8 5.8 0 00-1 0 25.3 25.3 0 01-1.9 0v.7l.4.7.5.6.7.2.8.1a6.9 6.9 0 001.3-.1l.4-.2.4-.2c.2 0 .4 0 .5.2.2.1.2.3.2.5l-.1.5-.3.3c-.4.3-.7.5-1.2.5l-1.2.2c-.6 0-1-.1-1.6-.3-.5-.2-1-.4-1.2-.7l-.3-.2-.1-.3a20.5 20.5 0 00-.7-1 4.1 4.1 0 01-.2-1zm4.3-1.9h.4l.1-.2-.1-.3-.3-.3a2 2 0 00-.4-.3.6.6 0 00-.3-.2 2 2 0 00-1.2.3l-.3.5-.3.5h2.5zm5.3.5a5.5 5.5 0 01-.3-2.1c0-.4 0-.7.2-.8l.6-.3c.2 0 .4.1.5.3l.3.7c.3-.3.5-.6.8-.7a40 40 0 012.7-1.8l1-.3c.4 0 .6 0 .9.2.2.1.3.3.3.6s-.1.5-.3.6l-.7.3a20.3 20.3 0 00-2.1 1 3 3 0 00-.4.4 3 3 0 01-.4.4l-.7.5-.7.6a110 110 0 01.3 3l.2.4v.6l-.1.6c-.2.2-.4.2-.6.2-.4 0-.7 0-.8-.3l-.2-.9-.1-.3v-.3l-.1-.6V22a13.2 13.2 0 00-.3-1.4z"/>
</svg>
