<svg xmlns="http://www.w3.org/2000/svg" fill="none" viewBox="0 0 293 176" height="176" width="293">
<path stroke-linejoin="round" stroke-linecap="round" stroke="black" d="M245 124.696C245 124.696 243.413 124.212 242.222 124.212C241.03 124.212 239.841 122.763 239.822 122.746C238.107 122.112 236.361 121.501 234.862 120.198C233.54 119.049 232.124 118.395 230.634 117.899C229.684 117.582 228.72 117.311 227.796 116.885C225.091 115.64 222.329 116.602 219.595 116.421C219.477 116.412 219.356 116.478 219.237 116.524C217.828 117.075 216.419 117.634 215.007 118.184C213.687 118.697 212.51 119.553 211.546 120.89C211.023 121.619 210.423 122.132 209.713 122.486C209.206 122.74 208.753 123.204 208.277 123.576C207.962 123.823 207.666 124.16 207.327 124.31C205.989 124.89 204.641 125.428 203.289 125.944C202.94 126.077 200.579 126.129 200.214 126.117C196.978 126.019 193.742 125.898 190.507 125.78C190.386 125.774 190.26 125.757 190.142 125.717C188.813 125.258 187.47 125.446 186.125 125.506C185.277 125.544 184.412 125.515 183.573 125.345C180.361 124.691 177.246 123.443 174.105 122.362C171.32 121.403 168.534 120.446 165.739 119.533C164.434 119.103 163.1 118.821 161.795 118.392C160.31 117.905 158.829 117.369 157.363 116.787C155.762 116.15 154.08 116.573 152.472 116.035C152.204 115.945 151.879 116.23 151.576 116.251C150.977 116.288 150.375 116.262 149.814 116.262C149.814 116.262 149.352 116.974 148.163 116.974C146.974 116.974 146.178 117.458 146.178 117.458H144.193C143.001 117.458 141.89 116.821 141.89 116.821C140.805 116.611 140.767 116.594 140.597 116.331C140.284 115.856 140.261 115.311 140.322 114.703C140.45 113.424 140.775 112.257 141.485 111.395C142.118 110.629 142.824 109.966 143.522 109.312C144.074 108.796 144.693 108.41 145.23 107.868C145.844 107.252 146.495 106.906 147.253 106.819C148.847 106.638 150.392 106.157 151.884 105.356C152.332 105.113 152.829 104.929 153.305 104.915C155.494 104.848 157.685 104.119 159.879 104.894C160.17 104.998 160.487 104.941 160.793 104.978C163.223 105.258 165.63 105.935 168.086 105.799C168.385 105.782 168.695 105.897 168.989 106.004C170.197 106.433 171.415 106.384 172.632 106.136C173.48 105.964 174.321 105.626 175.169 105.6C176.969 105.543 178.857 104.955 180.328 103.725C181.183 103.01 181.925 102.157 182.306 100.872C182.692 99.5723 183.4 98.7222 184.227 97.95C187.316 95.0483 190.521 92.4952 194.238 91.3685C194.534 91.2792 194.82 91.1207 195.109 90.9766C196.218 90.4263 197.352 90.239 198.537 90.3657C199.449 90.4608 200.38 90.4925 201.285 90.3427C203.367 89.9969 205.418 89.8355 207.469 90.6798C207.957 90.8815 208.552 90.7202 209.08 90.5905"></path>
<path stroke-linejoin="round" stroke-linecap="round" stroke="black" d="M149.755 116.469C149.61 116.233 149.483 116.08 149.404 115.887C149.189 115.371 148.992 114.838 148.791 114.311C148.201 112.778 146.685 111.792 145.472 112.256C144.738 112.538 144.02 112.933 143.329 113.374C142.49 113.907 142.36 114.434 142.575 115.708C142.642 116.103 142.637 116.521 142.668 116.967"></path>
<path stroke-linejoin="round" stroke-linecap="round" stroke="black" d="M178.744 67.4306C178.867 66.592 178.909 66.0791 179.021 65.5893C179.831 62.0824 181.219 56.1954 182.077 52.7059C182.733 50.0318 182.38 49.7667 180.234 48.5881C180.179 48.5593 180.115 48.5478 180.056 48.5305C177.976 47.934 175.93 47.1675 173.76 47.0869C172.606 47.0436 171.436 46.8563 170.316 46.5221C168.932 46.11 167.554 45.9832 166.137 45.9832C164.304 45.9832 162.466 45.9256 160.642 45.7152C158.865 45.5106 157.11 45.4213 155.333 45.6893C154.554 45.8074 153.732 45.842 152.962 45.6835C150.949 45.2686 148.933 45.2196 146.924 45.5193C144.657 45.8564 142.407 45.8247 140.154 45.43C138.25 45.0928 136.369 45.1937 134.514 45.8363C132.721 46.4587 130.895 46.5077 129.052 46.3866C126.726 46.2339 124.404 46.3232 122.083 46.597C121.05 46.718 120.001 46.7612 118.968 46.6921C117.061 46.5653 115.18 46.7295 113.3 47.1099C111.786 47.4153 110.265 47.4989 108.725 47.3433C106.653 47.133 104.573 46.9889 102.496 46.8851C100.845 46.8016 99.1959 46.8218 97.5685 46.3751C96.9787 46.2137 96.351 46.1849 95.7422 46.208C93.9088 46.2771 92.2199 45.6778 90.6636 44.5713C89.645 43.848 88.5838 43.3293 87.4421 43.0037C86.4898 42.7328 85.5518 42.3813 84.5996 42.1133C83.3868 41.7733 82.2853 41.1595 81.288 40.2634C80.0966 39.1943 78.8127 38.3529 77.4056 37.7823C76.3468 37.353 75.3875 36.6989 74.6484 35.6529C74.0562 34.8172 73.2911 34.4138 72.4218 34.2352C72.0001 34.1487 71.5832 34.019 71.1592 33.9557C70.342 33.8346 69.6929 33.5321 69.1766 32.6042C68.6317 31.6274 67.6392 31.8838 67.3645 33.022C67.0731 34.2294 66.841 35.48 66.7509 36.7306C66.4667 40.6552 66.2511 44.5914 66.0332 48.5219C65.9977 49.1846 66.0285 49.8676 66.1232 50.5217C66.6041 53.8758 66.4051 57.1924 65.8224 60.4976C65.5926 61.8058 65.415 63.1313 65.2634 64.4568C65.0762 66.0935 65.0549 67.7331 65.5642 69.3036C65.8034 70.0412 65.7395 70.7415 65.5903 71.482C65.0478 74.1734 64.2945 76.7581 63.0533 79.1008C61.8168 81.4378 60.9096 83.9361 60.3529 86.6361C60.161 87.5639 59.8602 88.4889 59.4717 89.3188C58.5929 91.1918 57.681 93.0504 56.6837 94.8341C55.5775 96.8137 54.6513 98.9028 53.8151 101.058C53.3722 102.202 52.9553 103.363 52.4578 104.473C51.9272 105.66 51.5743 106.916 51.2616 108.204C50.7784 110.201 50.2122 112.169 49.7314 114.166C49.1463 116.593 48.592 119.03 48.0685 121.477C47.8743 122.384 48.0851 122.923 48.8028 123.26C49.6295 123.647 50.2952 124.266 50.9205 124.984C51.7425 125.932 52.7113 126.499 53.8128 126.813C54.7626 127.084 55.6912 127.476 56.6245 127.828C58.0244 128.352 59.4102 128.952 60.8243 129.407C63.1883 130.17 65.5784 130.822 67.9448 131.571C69.4916 132.061 71.0574 132.392 72.6492 132.47C74.0065 132.536 75.3093 132.873 76.6192 133.274C78.5758 133.87 80.5348 134.475 82.5174 134.911C86.3714 135.752 90.2396 136.484 94.032 137.706C95.9981 138.34 98.0115 138.55 100.039 138.268C102.782 137.887 105.535 137.873 108.292 137.864C109.391 137.861 110.5 137.818 111.587 137.642C114.557 137.164 117.516 136.616 120.503 136.262C123.393 135.916 126.235 135.928 129.075 136.694C131.352 137.308 133.664 137.631 136.002 137.498C138.167 137.377 140.273 137.743 142.35 138.446C143.234 138.746 144.115 139.089 145.015 139.285C146.576 139.622 148.149 140.037 149.724 140.092C151.827 140.164 153.865 140.556 155.869 141.256C158.529 142.186 161.25 142.622 164 142.916C166.803 143.215 169.596 143.642 172.395 143.97C172.928 144.034 173.499 143.999 174.016 143.838C174.731 143.616 175.06 142.72 174.785 141.89C174.605 141.348 174.328 140.855 174.075 140.293C174.468 138.61 174.551 136.945 173.876 135.3C173.698 134.867 173.731 134.282 173.738 133.769C173.776 131.614 173.857 129.459 173.895 127.3C173.918 125.897 174.068 124.528 174.397 123.142"></path>
<path stroke-linejoin="round" stroke-linecap="round" stroke="black" d="M173.476 105.81C173.563 104.894 174.203 104.047 173.386 100.756C173.334 100.632 173.298 100.451 173.329 100.327C173.265 98.3155 173.703 97.3906 173.551 96.1457C173.509 95.7884 173.561 95.3994 173.627 95.0392C174.03 92.7887 174.449 90.5411 174.861 88.2935C174.942 87.8584 175.053 87.4233 175.077 86.9824C175.274 83.5476 176.347 80.3376 176.792 76.9518C177.216 73.7331 178.071 70.6009 178.744 67.4312C178.77 67.3044 178.881 67.2035 179.014 66.9874C180.281 67.0162 181.608 66.5292 182.941 66.9759C184.173 67.3908 185.346 67.2755 186.528 66.6762C187.02 66.4284 187.596 66.2814 188.126 66.3102C190.815 66.4629 193.499 66.6819 196.185 66.8952C196.732 66.9384 197.275 67.0767 197.822 67.1545C199.418 67.3822 200.885 68.1573 202.391 68.7624C204.433 69.5808 206.428 70.5144 208.067 72.2923C208.82 73.1078 209.699 73.5544 210.689 73.7907C212.307 74.1768 213.92 74.612 215.524 75.073C217.62 75.6752 219.697 76.1853 221.848 75.3266C222.395 75.1076 223.063 75.1623 223.648 75.2834C225.058 75.5715 226.444 75.5542 227.841 75.1883C228.433 75.0327 229.087 74.8511 229.653 75.0067C231.662 75.56 234.36 75.5485 236.357 75.0125C236.416 74.9981 236.48 75.0183 236.539 75.0067C237.683 74.7993 238.83 74.6148 239.967 74.3584C240.239 74.295 240.55 74.0443 240.706 73.7677"></path>
<path stroke-linejoin="round" stroke-linecap="round" stroke="black" d="M77.1729 122.43C77.3173 121.787 77.4453 121.13 77.5992 120.488C77.7532 119.845 77.9332 119.217 78.1796 118.635C78.4591 117.969 78.7386 117.31 78.9826 116.635C79.2266 115.961 79.435 115.269 79.5795 114.538C79.6293 114.287 79.7003 114.042 79.7856 113.8C79.8709 113.558 79.9704 113.324 80.077 113.102C80.5531 112.091 80.9368 111.039 81.2566 109.959C81.5764 108.878 81.8275 107.769 82.0383 106.639C82.1662 105.942 82.3391 105.268 82.5594 104.613C82.7797 103.962 83.045 103.334 83.3624 102.738C83.6656 102.164 83.912 101.568 84.1133 100.951C84.3147 100.334 84.471 99.6947 84.5989 99.0405C84.7624 98.2078 84.94 97.3865 85.1627 96.5826C85.3854 95.7786 85.653 94.9891 85.9918 94.2226C86.2049 93.7414 86.3542 93.217 86.475 92.6752C86.5958 92.1335 86.6929 91.5773 86.7971 91.0356C86.9653 90.1625 87.169 89.3067 87.4106 88.4653C87.6523 87.6239 87.9341 86.8055 88.261 86.0016C88.3558 85.7682 88.4505 85.5348 88.5382 85.2956C88.6258 85.0564 88.704 84.8144 88.7656 84.5666C89.3175 82.3276 89.9523 80.1146 90.5398 77.8871C91.1272 75.6597 91.6673 73.415 92.0274 71.1097C92.3519 69.0293 92.693 66.9517 92.9133 64.8539C93.1336 62.7561 93.2402 60.6468 93.0933 58.5059"></path>
<path stroke-linejoin="round" stroke-linecap="round" stroke="black" d="M111.646 126.88C111.475 126.373 111.196 125.918 110.968 125.434C110.741 124.95 110.568 124.44 110.608 123.826C110.63 123.642 110.642 123.454 110.66 123.27C110.679 123.085 110.701 122.901 110.743 122.725C110.909 122.037 110.994 121.345 111.032 120.648C111.07 119.95 111.061 119.247 111.04 118.533C111.023 118.023 111.056 117.504 111.115 116.988C111.175 116.472 111.26 115.959 111.355 115.455C111.523 114.55 111.715 113.66 111.852 112.755C111.989 111.85 112.07 110.931 112.015 109.974C111.978 109.309 112.053 108.649 112.2 108.001C112.347 107.355 112.565 106.721 112.814 106.116C113.053 105.531 113.233 104.932 113.335 104.318C113.437 103.704 113.46 103.076 113.387 102.442C113.261 101.364 113.302 100.324 113.46 99.3155C113.619 98.307 113.899 97.3273 114.254 96.3735C114.635 95.3505 114.941 94.3017 115.211 93.2412C115.481 92.1808 115.718 91.106 115.957 90.0283C116.244 88.7374 116.571 87.4609 116.89 86.1815C117.21 84.9021 117.523 83.6198 117.786 82.3231C118.056 80.9889 118.278 79.6432 118.494 78.2947C118.71 76.9461 118.916 75.5918 119.155 74.249C119.394 72.9062 119.64 71.5663 119.894 70.2264C120.147 68.8864 120.408 67.5494 120.671 66.2152C120.841 65.3479 121.021 64.4834 121.206 63.619C121.391 62.7545 121.585 61.8958 121.784 61.0371"></path>
<path stroke-linejoin="round" stroke-linecap="round" stroke="black" d="M71.7295 122.122C71.7532 121.753 71.7721 121.379 71.8053 121.01C71.8385 120.641 71.8858 120.275 71.9664 119.921C72.2719 118.561 72.5846 117.201 72.9068 115.843C73.2266 114.486 73.5558 113.135 73.8945 111.783C73.9727 111.472 74.0864 111.167 74.2214 110.876C74.3565 110.585 74.5081 110.299 74.6644 110.031C74.951 109.539 75.1997 109.028 75.3987 108.493C75.5977 107.957 75.754 107.398 75.8582 106.804C75.9719 106.144 76.1401 105.513 76.3486 104.902C76.557 104.291 76.8081 103.695 77.09 103.107C77.3174 102.634 77.5069 102.127 77.6727 101.609C77.8385 101.09 77.9783 100.557 78.1086 100.029C78.2839 99.3119 78.4639 98.6117 78.6984 97.9374C78.9329 97.2632 79.2219 96.6148 79.6151 96.0097C79.833 95.6726 79.9988 95.2778 80.1386 94.8628C80.2784 94.4479 80.3921 94.0128 80.5081 93.5921C80.745 92.7478 80.9653 91.9006 81.1832 91.0477C81.4012 90.1976 81.6143 89.3447 81.8346 88.4946C81.9081 88.2122 81.991 87.9298 82.0715 87.6503C82.152 87.3708 82.2278 87.0884 82.2918 86.8003C82.8342 84.3596 83.3933 81.9276 83.9381 79.4869C84.4829 77.0462 85.0111 74.6056 85.4873 72.1447C85.7099 70.9979 85.9658 69.851 86.1553 68.6437C86.3448 67.4363 86.4656 66.1742 86.4135 64.8026C86.4135 64.8199 86.4277 64.7507 86.4324 64.6412C86.4371 64.5317 86.4371 64.3847 86.404 64.2464C86.1837 63.307 86.224 62.3878 86.3353 61.4744C86.4466 60.5609 86.6266 59.6532 86.6882 58.7369C86.6953 58.6303 86.719 58.5208 86.7546 58.4142C86.7901 58.3076 86.8375 58.2096 86.8919 58.1289"></path>
<path stroke-linejoin="round" stroke-linecap="round" stroke="black" d="M105.045 126.451C105.009 126.321 104.976 126.188 104.945 126.059C104.915 125.929 104.884 125.797 104.858 125.67C104.751 125.171 104.682 124.664 104.652 124.151C104.621 123.638 104.628 123.125 104.673 122.612C104.806 121.077 104.9 119.598 105.042 118.155C105.185 116.711 105.372 115.308 105.691 113.919C106.177 111.804 106.722 110.813 107.177 108.686C107.631 106.559 107.428 105.623 107.887 103.499C107.958 103.165 108.484 100.474 108.598 100.041C108.712 99.6091 109.56 97.7678 109.664 97.4479C110.33 95.4165 110.273 94.6701 110.737 92.5666C111.201 90.4631 111.613 88.3423 112.073 86.2358C112.464 84.4406 112.485 82.3947 112.859 80.5909C113.234 78.7871 113.963 77.231 114.333 75.4272C114.399 75.1044 114.463 74.7731 114.508 74.4417C114.553 74.1103 114.579 73.7761 114.572 73.4476C114.551 72.6177 114.603 71.8051 114.702 71.0011C114.802 70.1972 114.949 69.4019 115.119 68.6066C115.188 68.2867 115.245 67.9524 115.278 67.6182C115.311 67.2839 115.32 66.9468 115.294 66.6212C115.221 65.702 115.328 64.8231 115.486 63.9557C115.645 63.0884 115.861 62.2355 116 61.3652"></path>
<path stroke-linejoin="round" stroke-linecap="round" stroke="black" d="M130.648 126.384C130.603 126.249 130.551 126.105 130.513 125.96C130.475 125.816 130.449 125.672 130.454 125.531C130.504 124.353 130.409 123.168 130.388 121.987C130.366 120.805 130.423 119.627 130.779 118.46C130.973 117.823 131.072 117.163 131.089 116.5C131.105 115.838 131.044 115.163 130.914 114.498C130.745 113.645 130.689 112.795 130.712 111.948C130.736 111.1 130.84 110.259 130.992 109.415C131.098 108.833 131.198 108.256 131.269 107.674C131.34 107.092 131.378 106.501 131.354 105.893C131.33 105.213 131.411 104.551 131.558 103.911C131.705 103.271 131.923 102.646 132.171 102.047C132.557 101.104 132.858 100.136 133.1 99.1419C133.342 98.1478 133.522 97.1363 133.671 96.1048C133.803 95.1913 133.943 94.2721 134.145 93.3759C134.346 92.4798 134.606 91.6067 134.976 90.7826C135.601 89.3908 136.056 87.9356 136.426 86.4487C136.795 84.9618 137.084 83.4404 137.371 81.9189C137.537 81.0516 137.698 80.19 137.906 79.3428C138.115 78.4956 138.368 77.6658 138.714 76.8532C138.946 76.3085 139.095 75.7063 139.207 75.0839C139.318 74.4615 139.389 73.8189 139.462 73.1965C139.597 72.0554 139.723 70.9172 139.87 69.779C140.017 68.6436 140.18 67.5083 140.393 66.3845C140.488 65.886 140.517 65.3702 140.531 64.8515C140.545 64.3328 140.538 63.8055 140.557 63.2869C140.569 62.9929 140.566 62.6933 140.571 62.3993C140.576 62.1054 140.583 61.8086 140.616 61.5176"></path>
<path stroke-linejoin="round" stroke-linecap="round" stroke="black" d="M122.381 127.038C122.28 126.205 122.104 125.384 122.012 124.551C121.92 123.718 121.908 122.874 122.14 121.998C122.391 121.041 122.578 120.07 122.706 119.082C122.834 118.094 122.903 117.091 122.917 116.074C122.924 115.529 123.009 114.984 123.123 114.44C123.237 113.895 123.379 113.356 123.5 112.82C123.71 111.89 123.938 110.965 124.163 110.04C124.388 109.115 124.615 108.19 124.821 107.256C124.959 106.642 125.103 106.037 125.29 105.455C125.477 104.873 125.707 104.308 126.01 103.778C126.385 103.127 126.657 102.421 126.873 101.692C127.088 100.963 127.247 100.202 127.391 99.4385C127.586 98.4213 127.804 97.4185 128.093 96.4474C128.382 95.4764 128.739 94.5341 129.211 93.6379C129.402 93.272 129.545 92.8628 129.663 92.4392C129.781 92.0156 129.879 91.5747 129.98 91.1512C130.21 90.1887 130.409 89.2176 130.639 88.2552C130.869 87.2928 131.129 86.3447 131.485 85.4255C131.624 85.0624 131.738 84.6734 131.826 84.2758C131.913 83.8781 131.977 83.4718 132.02 83.0713C132.202 81.3049 132.375 79.5356 132.541 77.7664C132.707 75.9971 132.868 74.225 133.024 72.4557C133.048 72.2021 133.041 71.9428 133.024 71.6863C133.008 71.4299 132.986 71.1676 132.977 70.9083C132.965 70.6115 132.951 70.3147 132.937 70.0179C132.922 69.7211 132.911 69.4243 132.908 69.1275C132.899 68.4215 132.887 67.7155 132.88 67.0125C132.873 66.3094 132.873 65.6005 132.887 64.8974C132.896 64.4565 132.922 64.0156 132.963 63.5748C133.003 63.1339 133.057 62.6959 133.126 62.2637"></path>
<path stroke-linejoin="round" stroke-linecap="round" stroke="black" d="M100.274 58.0254C99.8878 59.8235 99.4615 61.61 99.0706 63.4052C98.6798 65.2004 98.3221 67.01 98.071 68.8514C97.9407 69.7994 97.7773 70.7474 97.5759 71.6839C97.377 72.6204 97.1424 73.5483 96.8771 74.4531C96.0552 77.2539 95.2072 80.0433 94.3544 82.8297C93.5017 85.6162 92.6418 88.4026 91.7961 91.192C91.7014 91.5061 91.6185 91.8259 91.5427 92.1486C91.4669 92.4714 91.4029 92.797 91.3413 93.1226C91.1424 94.1744 90.9623 95.229 90.7776 96.2837C90.5928 97.3383 90.3962 98.3901 90.1712 99.4303C89.7258 101.479 89.2592 103.522 88.7902 105.565C88.3212 107.608 87.8498 109.648 87.3903 111.691C87.0752 113.092 86.7673 114.492 86.4617 115.895C86.1561 117.299 85.8577 118.702 85.5616 120.108C85.5616 120.108 85.5023 120.517 85.4408 121.048C85.3792 121.578 85.32 122.229 85.3176 122.71C85.3152 123.192 85.2134 123.555 85.1139 123.915C85.0144 124.275 84.9125 124.638 84.9102 125.119"></path>
<path stroke-linejoin="round" stroke-linecap="round" stroke="black" d="M116.884 126.666C116.777 126.288 116.696 125.902 116.628 125.516C116.559 125.13 116.497 124.752 116.429 124.392C116.576 123.418 116.715 122.476 116.855 121.548C116.995 120.62 117.135 119.707 117.284 118.796C117.575 117.01 117.855 115.217 118.146 113.431C118.437 111.644 118.553 110.025 118.899 108.253C119.311 106.155 119.946 103.907 120.406 101.824C120.865 99.7405 121.638 98.2335 122.097 96.1501C122.715 93.3493 122.895 90.7357 123.518 87.9377C124.141 85.1397 124.319 85.1196 124.94 82.3187C124.98 82.1401 125.259 79.9069 125.295 79.7253C125.331 79.5438 125.636 77.3164 125.65 77.1319C125.757 75.7257 125.93 74.8843 126.029 73.481C126.129 72.0777 126.231 70.6686 126.333 69.2624C126.349 69.0406 126.351 68.8158 126.363 68.591C126.375 68.3663 126.392 68.1473 126.434 67.9312C126.586 67.1589 126.695 66.3982 126.7 65.6375C126.704 64.8767 126.605 64.116 126.342 63.3438"></path>
<path stroke-linejoin="round" stroke-linecap="round" stroke="black" d="M135.506 126.327C135.494 125.808 135.485 125.287 135.49 124.768C135.494 124.249 135.511 123.731 135.558 123.215C135.693 121.74 135.88 120.27 136.027 118.795C136.174 117.319 136.281 115.841 136.252 114.34C136.243 113.83 136.29 113.311 136.364 112.795C136.437 112.279 136.544 111.767 136.648 111.265C137.169 108.778 137.553 107.715 138.083 105.231C138.387 103.816 138.725 101.194 138.941 99.9608C139.102 99.0301 139.272 98.0849 139.505 97.0188C139.869 95.3504 139.997 93.558 140.571 91.832C141.208 89.9158 142.295 88.0629 142.702 86.213C143.477 82.6946 143.702 78.7728 144.479 75.2545C144.631 74.5687 144.777 73.8857 144.87 73.2403C144.962 72.5948 145.002 71.9897 144.939 71.4623C144.939 71.0474 144.922 70.7218 144.917 70.4509C144.912 70.1801 144.912 69.9553 144.95 69.7421C145.154 68.5578 145.19 67.3792 145.152 66.2006C145.116 65.0221 145.007 63.8435 144.922 62.6621"></path>
<path stroke-linejoin="round" stroke-linecap="round" stroke="black" d="M104.987 59.7402C104.835 60.9159 104.686 62.0887 104.537 63.2644C104.388 64.44 104.241 65.6157 104.099 66.7914C103.992 67.6731 103.921 68.5664 103.833 69.4539C103.746 70.3414 103.641 71.2232 103.468 72.0848C102.881 75.0124 102.272 77.9314 101.654 80.8475C101.036 83.7637 100.408 86.6798 99.7803 89.593C99.6808 90.057 99.5671 90.5266 99.4321 90.9819C99.297 91.4372 99.136 91.881 98.9417 92.293C98.449 93.3362 98.0321 94.4139 97.6887 95.5204C97.3428 96.6269 97.0704 97.7651 96.8596 98.935C96.708 99.7851 96.4877 100.595 96.2011 101.37C95.9168 102.145 95.5662 102.886 95.1541 103.592C94.6519 104.453 94.2303 105.352 93.8844 106.294C93.5362 107.237 93.2614 108.222 93.0554 109.251C92.7948 110.55 92.4963 111.839 92.1576 113.109C91.8189 114.38 91.4328 115.636 90.9993 116.875C90.9993 116.875 90.8074 117.504 90.6132 118.25C90.4189 118.996 90.2271 119.867 90.2271 120.351C90.2271 120.835 90.1276 121.437 90.0281 122.1C89.9286 122.762 89.8291 123.489 89.8291 124.212"></path>
<path stroke-linejoin="round" stroke-linecap="round" stroke="black" d="M97.5801 125.547C97.7743 124.532 98.53 119.625 98.7242 118.611C98.9184 117.596 99.1198 116.588 99.3401 115.582C99.4822 114.94 99.6551 114.309 99.8375 113.678C100.02 113.046 100.209 112.421 100.385 111.787C100.463 111.505 100.541 111.225 100.614 110.943C100.688 110.661 100.759 110.375 100.823 110.09C101.264 108.082 102.116 105.943 102.552 103.932C102.99 101.921 103.014 100.036 103.457 98.0279C103.94 95.8379 103.841 94.0196 104.329 91.8297C104.817 89.6397 105.887 87.0866 106.39 84.9053C106.662 83.7268 106.97 82.5597 107.275 81.3898C107.581 80.2199 107.268 79.6119 107.529 78.4305C107.692 77.6813 108.443 76.3558 108.552 75.5864C108.661 74.817 108.746 74.0419 108.803 73.2668C108.898 71.9672 109.028 70.6762 109.206 69.3968C109.386 68.1174 109.613 66.8495 109.909 65.5932C110.018 65.1293 110.106 64.6596 110.194 64.187C110.281 63.7144 110.367 63.2447 110.471 62.7779C110.528 62.5301 110.592 62.2823 110.67 62.0431C110.748 61.804 110.84 61.5706 110.949 61.3516"></path>
<path stroke-linejoin="round" stroke-linecap="round" stroke="black" d="M151.626 61.5215C151.768 63.1697 151.699 64.8209 151.529 66.4633C151.356 68.1087 151.081 69.7454 150.804 71.3677C150.695 72.0132 150.584 72.6587 150.475 73.3012C150.366 73.9438 150.254 74.5922 150.145 75.2348C150.036 75.8773 149.928 76.5228 149.804 77.1625C149.681 77.8022 149.549 78.439 149.39 79.0672C149.151 80.0152 148.854 80.9402 148.563 81.8681C148.272 82.7959 147.985 83.7238 147.765 84.6805C147.357 86.4468 147.177 88.2737 146.997 90.0978C146.817 91.9247 146.64 93.7487 146.232 95.5151C145.988 96.5755 145.661 97.6042 145.325 98.6271C144.989 99.6501 144.638 100.67 144.347 101.713C143.982 103.013 143.705 104.35 143.52 105.704C143.333 107.059 143.418 107.741 143.416 109.116"></path>
<path stroke-linejoin="round" stroke-linecap="round" stroke="black" d="M143.333 117.645C143.03 119.492 142.729 121.344 142.492 123.206C142.255 125.067 142.087 126.938 142.054 128.822"></path>
<path stroke-linejoin="round" stroke-linecap="round" stroke="black" d="M157.119 60.377C157.515 61.9676 157.718 63.6273 157.728 65.2871C157.737 66.9469 157.552 68.6124 157.176 70.2088C157.022 70.86 156.835 71.5026 156.664 72.1481C156.494 72.7935 156.34 73.4448 156.247 74.1133C156.179 74.6147 156.148 75.1218 156.126 75.629C156.105 76.1361 156.096 76.6462 156.074 77.1562C155.956 79.7842 155.477 82.3487 154.783 84.8413C154.089 87.3338 153.177 89.7572 152.197 92.1028C151.74 93.192 151.266 94.2783 150.828 95.382C150.389 96.4856 149.991 97.6065 149.688 98.7735C149.383 99.9406 149.179 101.165 149.132 102.387C149.084 103.609 149.195 104.831 149.522 105.989"></path>
<path stroke-linejoin="round" stroke-linecap="round" stroke="black" d="M148.35 117.18C148.073 118.266 148.296 119.341 148.625 120.424C148.954 121.508 149.388 122.606 149.527 123.729C149.594 124.257 149.591 124.79 149.582 125.326C149.572 125.862 149.549 126.395 149.572 126.931C149.594 127.444 149.66 127.954 149.743 128.458C149.826 128.962 149.932 129.464 150.039 129.962"></path>
<path stroke-linejoin="round" stroke-linecap="round" stroke="black" d="M164.51 59.8066C164.116 60.576 163.834 61.4145 163.614 62.279C163.394 63.1435 163.228 64.0396 163.067 64.9243C162.761 66.61 162.555 68.5348 162.25 70.2205C161.944 71.9062 161.539 73.3585 161.234 75.0442C161.132 75.6004 161.032 76.1594 160.93 76.7155C160.828 77.2717 160.217 79.1706 160.118 79.7296C159.774 81.6315 159.94 82.1905 159.609 84.0952C159.381 85.4005 158.761 86.507 158.341 89.2387C158.187 90.2473 158.363 91.8379 158.18 92.8378C157.995 93.8377 157.778 94.826 157.479 95.7827C157.022 97.2523 156.38 98.7363 155.946 100.232C155.513 101.724 155.29 103.226 155.676 104.724"></path>
<path stroke-linejoin="round" stroke-linecap="round" stroke="black" d="M155.203 116.449C154.983 117.838 154.8 119.236 154.656 120.642C154.656 120.642 154.431 122.088 154.431 122.953C154.431 123.817 154.786 125.114 154.786 125.546V127.707C154.786 128.14 155.141 129.436 155.141 129.869V131.598"></path>
<path stroke-linejoin="round" stroke-linecap="round" stroke="black" d="M168.582 60.3965C168.904 62.3646 168.688 64.3298 168.331 66.2979C167.973 68.266 167.473 70.2398 167.222 72.2223C167.175 72.5969 167.137 72.9744 167.085 73.349C167.032 73.7236 166.971 74.0925 166.874 74.4555C166.777 74.8157 166.649 75.1644 166.514 75.5073C166.379 75.8502 166.274 77.6512 166.156 78.0027C165.448 80.0947 165.379 80.4549 165.445 82.7573C165.512 85.0596 165.32 86.9759 164.595 89.0563C164.398 89.624 163.936 90.8803 163.669 91.4019C163.401 91.9235 162.783 94.7157 162.603 95.292C161.786 97.9142 161.933 96.6636 161.53 98.5971C161.127 100.528 160.961 102.53 161.044 104.522"></path>
<path stroke-linejoin="round" stroke-linecap="round" stroke="black" d="M160.864 119.197L160.464 121.047L160.063 122.897C159.962 123.361 159.862 123.837 159.805 124.315C159.748 124.793 159.734 125.269 159.81 125.741C159.857 126.041 159.94 126.329 160.028 126.617C160.116 126.905 160.21 127.191 160.279 127.485C160.521 128.502 160.473 129.588 160.452 130.66C160.428 131.735 160.431 132.798 160.767 133.775"></path>
</svg>
