<svg xmlns="http://www.w3.org/2000/svg" fill="none" viewBox="0 0 350 350" height="350" width="350">
<path stroke-width="0.2" stroke="black" fill="black" d="M142.024 298.536C141.894 298.705 141.713 299.216 141.405 299.307C139.684 299.821 139.043 301.28 138.245 302.645C137.616 303.72 136.889 304.741 136.162 305.754C134.37 308.258 132.554 310.742 130.746 313.231C130.403 313.701 130.068 314.186 129.676 314.612C129.402 314.91 129.059 315.165 128.707 315.373C128.163 315.696 127.461 315.554 127.14 315.086C126.82 314.616 126.883 314.139 127.204 313.696C128.575 311.816 129.94 309.932 131.323 308.062C133.396 305.25 135.638 302.565 137.254 299.432C137.995 297.993 139.341 297.332 140.937 297.227C141.539 297.185 142.105 297.782 142.024 298.536ZM199.776 299.294C200.038 299.759 200.307 300.273 200.605 300.764C201.579 302.355 202.16 304.049 202.037 305.948C201.959 307.126 202.316 308.22 202.622 309.346C203.188 311.419 203.611 313.529 204.071 315.631C204.159 316.03 204.179 316.456 204.154 316.865C204.125 317.408 203.839 317.807 203.273 317.9C202.73 317.988 202.27 317.78 202.044 317.278C201.844 316.833 201.685 316.348 201.624 315.866C201.335 313.636 200.772 311.482 200.072 309.35C199.766 308.423 199.568 307.405 199.599 306.438C199.656 304.617 199.196 303.006 198.172 301.526C198.031 301.32 197.901 301.107 197.788 300.884C196.914 299.188 197.086 297.778 198.429 296.342C198.662 296.092 199.174 295.962 199.526 296.004C200.079 296.073 200.405 296.601 200.351 297.091C200.275 297.813 199.993 298.513 199.776 299.294ZM254.647 273.981C256.762 273.803 258.732 274.314 260.592 275.364C261.85 276.079 263.275 276.167 264.689 276.267C265.6 276.331 266.515 276.378 267.409 276.534C267.876 276.617 268.361 276.848 268.742 277.134C269.178 277.459 269.276 278.025 268.997 278.478C268.809 278.786 268.326 279.2 268.067 279.143C265.017 278.475 261.718 279.043 258.881 277.295C257.714 276.578 256.412 276.397 255.053 276.427C254.312 276.441 253.56 276.409 252.829 276.292C252.18 276.187 251.781 275.44 251.891 274.75C251.987 274.16 252.469 273.771 253.142 273.805C253.639 273.83 254.131 273.92 254.647 273.981ZM169.334 318.769C169.471 316.495 169.54 314.682 169.706 312.875C169.785 312.063 169.997 311.248 170.257 310.469C170.533 309.644 171.133 309.035 172.019 308.908C172.359 308.854 172.871 309.03 173.089 309.29C173.302 309.539 173.426 310.185 173.26 310.381C172.039 311.85 172.127 313.597 172.041 315.325C171.973 316.806 171.872 318.289 171.752 319.765C171.711 320.286 171.464 320.715 170.886 320.825C170.299 320.935 169.733 320.595 169.53 320.015C169.476 319.858 169.413 319.701 169.395 319.537C169.351 319.129 169.329 318.718 169.334 318.769ZM243.832 301.156C243.932 301.848 243.344 302.455 242.764 302.494C241.942 302.546 241.33 302.135 240.816 301.562C239.539 300.142 238.281 298.703 237.018 297.271C236.961 297.21 236.881 297.142 236.876 297.071C236.841 296.684 236.704 296.246 236.829 295.911C237.025 295.389 237.558 295.228 238.08 295.377C238.467 295.49 238.868 295.69 239.154 295.962C239.876 296.647 240.542 297.394 241.225 298.123C241.957 298.909 242.691 299.692 243.406 300.495C243.616 300.732 243.758 301.033 243.832 301.156ZM110.655 293.889C110.893 293.537 111.012 293.177 111.26 293.023C112.601 292.201 113.969 291.425 115.335 290.637C115.477 290.556 115.636 290.492 115.795 290.451C116.316 290.311 116.794 290.394 117.119 290.862C117.442 291.329 117.425 291.895 117.041 292.237C115.805 293.351 114.488 294.386 112.882 294.908C112.449 295.047 111.876 294.986 111.446 294.819C111.132 294.697 110.944 294.247 110.655 293.889ZM272.717 256.454C273.576 256.584 274.332 256.611 275.022 256.839C275.309 256.934 275.615 257.46 275.612 257.788C275.607 258.121 275.292 258.52 275.003 258.753C274.773 258.941 274.379 258.961 274.056 258.98C272.741 259.054 271.422 258.941 270.157 259.546C269.564 259.829 268.889 259.066 268.962 258.354C269.041 257.609 269.471 257.086 270.14 256.905C271.011 256.665 271.921 256.586 272.717 256.454ZM209.363 46.2969C209.213 46.7766 209.089 47.5329 208.763 48.1913C208.1 49.5228 207.397 50.8444 206.59 52.0927C205.777 53.3434 204.818 54.4962 203.924 55.6955C202.392 57.7661 200.914 59.8612 200.006 62.3112C199.783 62.9133 199.364 63.4714 198.936 63.9609C198.689 64.2472 198.253 64.4822 197.879 64.5238C197.519 64.563 197.003 64.4308 196.79 64.1763C196.579 63.9217 196.484 63.3196 196.643 63.0504C198.518 59.8416 200.001 56.393 202.451 53.527C203.258 52.5847 203.958 51.5469 204.683 50.5336C205.608 49.2462 206.369 47.8756 206.807 46.3361C206.92 45.9396 207.038 45.5333 207.216 45.1637C207.454 44.6717 207.872 44.4343 208.433 44.5249C209.013 44.6154 209.243 45.0437 209.355 45.5553C209.392 45.7119 209.363 45.8833 209.363 46.2969ZM99.6602 91.9315C99.1487 91.8238 98.5001 91.677 97.849 91.5472C93.2085 90.627 88.5679 89.7116 83.9249 88.7937C83.3571 88.6812 82.7599 88.6493 82.219 88.4584C81.8567 88.3287 81.5141 88.0301 81.2595 87.7266C80.9193 87.3179 80.8826 86.8088 81.1665 86.3315C81.4578 85.842 81.9277 85.7221 82.4564 85.8444C83.3424 86.0476 84.2186 86.2972 85.112 86.4808C89.9899 87.477 94.8728 88.4609 99.7508 89.4497C100.076 89.5158 100.414 89.5672 100.713 89.6969C101.195 89.9098 101.513 90.2941 101.493 90.8521C101.476 91.3808 100.896 91.885 100.299 91.9291C100.133 91.9413 99.9686 91.9315 99.6602 91.9315ZM113.055 59.7932C114.242 61.3278 115.277 62.7156 116.369 64.0519C116.834 64.6198 117.48 65.0383 117.93 65.6135C118.143 65.8876 118.212 66.3991 118.126 66.7467C117.999 67.2705 117.502 67.5079 116.968 67.4712C116.653 67.4491 116.295 67.361 116.043 67.1823C115.576 66.8519 115.071 66.5044 114.758 66.0442C113.691 64.468 112.526 62.9799 111.16 61.646C110.556 61.0561 110.198 60.3121 110.225 59.4261C110.25 58.5205 110.759 57.8107 111.576 57.561C112.465 57.2893 113.226 57.8596 113.202 58.8142C113.189 59.2107 113.084 59.6047 113.055 59.7932ZM178.673 50.353C178.714 48.0523 178.744 46.2264 178.78 44.403C178.8 43.3309 179.145 42.4131 180.195 41.9799C180.533 41.8404 181.022 41.8575 181.365 41.9946C181.884 42.2051 182.121 42.7925 181.837 43.2404C181.061 44.4666 181.269 45.7981 181.235 47.1149C181.216 47.8614 181.25 48.6201 181.135 49.3519C181.061 49.8219 180.824 50.3016 180.543 50.6907C180.232 51.1191 179.661 51.3124 179.213 51.0432C178.854 50.8303 178.663 50.3407 178.673 50.353ZM228.821 64.3393C229.068 64.5375 229.507 64.7211 229.629 65.0319C229.754 65.3526 229.71 66.0109 229.497 66.1456C228.344 66.8921 227.137 67.5676 225.896 68.1623C225.612 68.297 225.098 68.0767 224.746 67.9078C224.249 67.6679 224.115 66.7281 224.558 66.4123C225.818 65.5116 227.091 64.6061 228.821 64.3393ZM144.407 42.8598C145.951 44.3381 146.088 46.2252 146.01 48.1832C145.88 51.529 146.299 54.821 147.053 58.0811C147.239 58.8888 147.349 59.7185 147.437 60.5458C147.564 61.7157 147.809 62.8441 148.352 63.8965C149.03 65.2035 149.079 66.6157 148.976 68.0378C148.947 68.4367 148.798 68.8528 148.607 69.2077C148.301 69.778 147.229 69.7584 146.906 69.2028C146.783 68.9923 146.619 68.7451 146.632 68.5248C146.744 66.5521 145.902 64.8168 145.396 62.9811C144.781 60.749 144.578 58.4066 144.145 56.1182C143.614 53.3231 143.452 50.5084 143.545 47.6717C143.589 46.4577 143.423 45.349 142.444 44.5021C142.383 44.4483 142.329 44.3797 142.282 44.3112C140.9 42.4486 141.511 40.728 143.753 40.1895C144.272 40.0622 144.754 40.1601 145.09 40.6129C145.435 41.0731 145.359 41.5479 145.058 41.9958C144.877 42.265 144.666 42.5147 144.407 42.8598Z" clip-rule="evenodd" fill-rule="evenodd"></path>
<path fill="black" d="M95.1618 241C95.151 240.996 95.1401 240.991 95.1293 240.986C95.2345 241.026 95.3397 241.065 95.444 241.103C95.4873 241.118 95.5307 241.133 95.5746 241.148C95.5602 241.001 95.5236 240.848 95.5023 240.699C95.5245 240.848 95.5614 241.003 95.5782 241.149L95.1618 241ZM268.081 194.982L268.018 194.914C267.991 194.934 267.964 194.954 267.938 194.974C267.87 194.969 267.802 194.964 267.736 194.965C267.724 194.965 267.713 194.965 267.702 194.966C267.666 194.968 267.631 194.972 267.596 194.98C267.555 194.989 267.521 195.028 267.489 195.075C267.467 195.106 267.447 195.14 267.426 195.172C267.413 195.19 267.401 195.207 267.388 195.222C267.47 195.215 267.565 195.232 267.629 195.195C267.646 195.186 267.663 195.175 267.68 195.164C267.688 195.159 267.697 195.153 267.705 195.148C267.761 195.111 267.814 195.07 267.868 195.029C267.891 195.011 267.915 194.993 267.938 194.974C267.979 194.978 268.02 194.98 268.061 194.982C268.067 194.982 268.074 194.982 268.081 194.982ZM95.5023 240.699C95.4876 240.596 95.4802 240.496 95.4922 240.402C95.4931 240.394 95.4943 240.386 95.4956 240.378C95.499 240.358 95.5033 240.338 95.5087 240.318C95.5199 240.277 95.5452 240.239 95.58 240.202C95.6881 240.088 95.8892 239.997 96.0452 239.934C96.0563 239.929 96.072 239.93 96.0906 239.935C96.1795 239.96 96.3378 240.086 96.3586 240.147L95.5023 240.699ZM303.541 208.87C302.665 209.088 301.925 209.207 301.233 209.455C298.254 210.51 295.271 211.56 292.324 212.695C289.595 213.745 286.829 214.604 283.916 214.979C282.516 215.162 281.107 215.378 279.746 215.742C275.33 216.922 270.871 217.962 266.561 219.534C264.532 220.27 262.437 220.826 260.359 221.431C255.167 222.941 249.974 224.443 244.775 225.924C242.937 226.45 241.089 226.955 239.226 227.376C236.862 227.909 234.557 228.592 232.378 229.664C230.053 230.812 227.593 231.559 225.072 232.158C223.053 232.64 221.071 233.26 219.071 233.83C217.95 234.143 216.853 234.584 215.713 234.787C211.278 235.575 207.014 237.017 202.68 238.184C197.459 239.591 192.224 240.933 186.988 242.286C184.492 242.93 181.986 243.525 179.489 244.168C176.026 245.057 172.602 246.121 169.104 246.836C164.779 247.722 160.472 248.618 156.318 250.155C154.054 250.997 151.714 251.579 149.323 251.971C146.697 252.397 144.071 252.842 141.476 253.425C136.121 254.634 130.788 255.936 125.445 257.197C120.427 258.384 115.351 259.331 110.451 260.993C109.203 261.416 107.864 261.6 106.554 261.825C103.762 262.305 101.013 262.914 98.3234 263.844C96.522 264.468 94.6471 264.882 92.8017 265.376C91.6758 265.677 90.5255 265.885 89.4216 266.255C84.0321 268.047 78.4933 269.148 72.886 269.973C71.8482 270.127 70.7297 270.142 69.7115 270.861C69.7115 271.838 69.6625 272.836 69.7286 273.828C69.7653 274.388 69.8706 275.003 70.1472 275.477C70.693 276.427 71.1041 277.379 71.2779 278.483C71.4468 279.543 72.2937 280.008 73.3143 279.741C75.1646 279.264 77.037 278.838 78.8433 278.231C82.965 276.85 87.2384 276.168 91.4629 275.25C95.1195 274.454 98.8104 273.771 102.408 272.758C107.21 271.405 111.998 270.024 116.881 268.955C120.696 268.12 124.436 266.948 128.235 266.025C136.397 264.038 144.592 262.177 152.637 259.732C156.056 258.692 159.524 257.804 162.99 256.918C168.309 255.559 173.642 254.257 178.97 252.943C182.201 252.15 185.415 251.278 188.672 250.62C197.567 248.819 206.39 246.763 215.05 244.029C218.457 242.952 221.927 242.066 225.378 241.131C230.919 239.633 236.468 238.16 242.014 236.691C246.679 235.455 251.325 234.146 256.022 233.052C258.704 232.427 261.347 231.74 263.927 230.788C266.035 230.012 268.171 229.314 270.279 228.543C272.467 227.748 274.66 226.967 276.801 226.066C279.112 225.095 281.444 224.248 283.902 223.736C285.691 223.359 287.502 222.987 289.213 222.37C294.311 220.532 299.551 219.201 304.789 217.862C305.178 217.762 305.545 217.583 305.957 217.426C306.064 214.352 305.178 211.64 303.541 208.87ZM298.421 182.676C298.369 182.262 298.401 181.993 298.298 181.79C297.468 180.131 297.131 178.332 296.739 176.542C296.365 174.839 296.024 173.121 295.532 171.447C294.245 167.051 293.217 162.599 292.434 158.088C291.837 154.647 291.281 151.196 290.645 147.762C289.509 141.631 288.089 135.548 287.397 129.334C287.059 126.27 286.442 123.249 285.441 120.325C284.205 116.695 283.258 113.009 282.749 109.191C282.166 104.824 280.847 100.595 280.206 96.2186C279.491 91.3676 278.404 86.5728 277.43 81.7634C277.235 80.7942 276.865 79.847 276.461 78.9389C276.28 78.5253 275.881 78.141 275.485 77.9036C272.934 76.3665 270.088 75.7302 267.173 75.691C264.505 75.6543 261.898 76.1928 259.409 77.2893C257.282 78.2242 255.077 78.9977 252.879 79.754C249.969 80.7575 247.002 81.6019 244.109 82.647C240.972 83.7777 237.787 84.7274 234.522 85.3882C232.388 85.819 230.332 86.4529 228.362 87.3756C226.316 88.3375 224.181 89.0375 221.932 89.2994C217.754 89.7865 213.818 91.0641 210 92.7798C207.866 93.7368 205.649 94.498 203.345 94.8676C198.56 95.641 193.944 96.9994 189.37 98.5585C188.506 98.8571 187.635 99.1459 186.751 99.3809C175.338 102.418 163.92 105.441 152.507 108.478C149.453 109.291 146.354 109.976 143.373 111.004C138.556 112.666 133.664 113.91 128.619 114.641C126.24 114.986 123.881 115.545 121.546 116.142C118.322 116.967 115.145 117.97 111.924 118.797C109.915 119.311 107.869 119.718 105.815 120.036C102.364 120.574 98.923 121.113 95.5601 122.131C89.7496 123.891 83.9048 125.535 78.0552 127.161C76.0458 127.719 74.0583 128.309 72.1688 129.195C70.1251 130.154 67.9982 130.896 65.7832 131.304C61.9723 132.007 58.509 133.637 55.0507 135.257C53.5283 135.969 51.9937 136.496 50.3685 136.907C48.4447 137.399 46.5821 138.128 44.7048 138.791C43.4958 139.222 42.9646 140.142 42.6685 141.393C42.223 143.263 42.6367 145.023 43.0038 146.805C43.136 147.465 43.5888 147.921 44.1321 148.374C45.1748 149.24 45.0573 149.747 43.836 150.633C43.6475 150.77 43.5153 150.975 43.3416 151.161C43.3954 151.521 43.4321 151.849 43.4884 152.172C44.2472 156.345 45.1038 160.504 45.7573 164.691C47.1157 173.417 49.2744 181.964 51.3793 190.525C51.8346 192.383 52.28 194.243 52.6814 196.111C53.2223 198.634 53.6262 201.187 54.2503 203.686C55.7262 209.575 56.3381 215.654 58.1272 221.475C58.3475 222.187 58.3867 222.948 58.5433 223.68C59.0059 225.792 59.4636 227.907 59.9653 230.007C60.3888 231.786 60.937 233.534 61.3188 235.323C61.8916 237.983 62.5377 240.617 63.458 243.077C64.2681 242.92 65.0293 242.558 65.6755 242.705C66.5517 242.903 67.2958 242.79 68.1059 242.555C70.1006 241.978 72.0979 241.403 74.1122 240.898C76.8534 240.208 79.6069 239.574 82.3604 238.933C83.8975 238.576 85.459 238.319 86.979 237.905C90.8339 236.85 94.6618 235.724 98.5069 234.65C100.996 233.955 103.52 233.446 106.104 233.247C107.928 233.105 109.775 232.995 111.555 232.606C117.647 231.275 123.731 229.897 129.686 227.995C132.614 227.057 135.551 226.066 138.559 225.462C143.466 224.475 148.268 223.181 153.002 221.572C157.258 220.124 161.573 218.861 165.993 218.021C170.002 217.257 173.948 216.264 177.854 215.086C180.084 214.418 182.353 213.86 184.641 213.444C188.082 212.818 191.492 212.081 194.855 211.112C197.092 210.47 199.339 209.849 201.61 209.354C209.572 207.619 217.568 206.062 225.466 204.004C236.008 201.255 246.506 198.338 257.015 195.469C257.818 195.249 258.614 195.004 259.404 194.742C266.032 192.518 272.746 190.586 279.535 188.922C280.982 188.567 282.379 188.012 283.794 187.522C285.989 186.759 288.168 185.939 290.373 185.209C293.041 184.328 295.731 183.518 298.421 182.676ZM267.545 73.1211C268.284 73.219 269.118 73.2728 269.924 73.4515C271.938 73.8896 273.935 74.4134 276.003 74.5749C276.745 74.6337 277.195 75.1281 277.562 75.6984C278.652 77.3945 279.442 79.2326 279.836 81.2054C280.864 86.3428 281.914 91.4777 282.795 96.6421C283.3 99.5963 283.85 102.533 284.558 105.446C284.947 107.059 285.133 108.721 285.466 110.348C285.882 112.382 286.295 114.419 286.814 116.428C287.605 119.485 288.596 122.496 289.299 125.572C289.795 127.755 289.893 130.024 290.285 132.234C291.115 136.902 292.042 141.552 292.884 146.22C293.609 150.229 294.247 154.253 294.969 158.264C295.726 162.442 296.68 166.569 297.877 170.646C298.506 172.798 298.932 175.008 299.422 177.201C299.914 179.404 300.543 181.533 302.05 183.3C302.261 183.547 302.447 183.858 302.525 184.169C303.122 186.487 304.148 188.709 304.084 191.179C304.028 193.262 304.05 195.32 304.926 197.303C305.288 198.118 305.354 199.079 305.455 199.985C305.582 201.167 305.758 202.291 306.679 203.167C306.904 203.38 307.06 203.73 307.122 204.041C307.54 206.239 307.932 208.441 308.306 210.647C308.362 210.965 308.37 211.334 308.26 211.626C307.8 212.837 307.993 213.88 308.854 214.859C309.344 215.417 309.102 216.114 309.023 216.778C308.695 219.499 308.688 219.443 306.005 220.131C301.172 221.369 296.306 222.476 291.602 224.191C289.502 224.96 287.294 225.469 285.111 225.971C282.421 226.588 279.829 227.422 277.306 228.548C275.338 229.427 273.282 230.119 271.248 230.851C269.136 231.607 266.982 232.263 264.884 233.056C262.074 234.121 259.186 234.853 256.261 235.524C251.724 236.569 247.237 237.836 242.736 239.033C237.029 240.546 231.321 242.066 225.623 243.613C222.331 244.506 219.034 245.382 215.779 246.396C206.87 249.169 197.821 251.347 188.667 253.126C185.978 253.65 183.322 254.365 180.661 255.038C175.661 256.298 170.693 257.693 165.668 258.846C161.206 259.872 156.773 261 152.404 262.366C147.079 264.025 141.655 265.3 136.241 266.634C129.057 268.404 121.891 270.264 114.697 271.995C111.863 272.677 109.041 273.348 106.261 274.236C101.263 275.835 96.1279 276.872 90.9758 277.874C87.2262 278.6 83.4594 279.291 79.8125 280.5C77.8423 281.153 75.823 281.665 73.8136 282.186C71.4027 282.813 69.2856 281.486 68.8157 278.999C68.6541 278.155 68.4388 277.394 67.9395 276.704C67.3227 275.854 67.1318 274.873 67.2395 273.857C67.3863 272.494 66.9996 271.226 66.701 269.934C65.7048 265.641 64.7454 261.34 63.7566 257.045C63.4972 255.914 63.1594 254.798 62.9097 253.665C62.3346 251.07 61.7937 248.469 61.2332 245.869C60.866 244.166 60.516 242.457 60.1024 240.764C58.8786 235.759 57.5374 230.775 56.4188 225.748C55.8241 223.07 55.315 220.376 54.5856 217.725C54.0814 215.887 53.8905 213.966 53.4989 212.096C52.5272 207.453 51.4674 202.832 50.5545 198.179C49.9304 194.99 49.0909 191.862 48.3541 188.704C46.5356 180.931 44.536 173.197 43.3318 165.289C42.7101 161.177 41.966 157.082 41.1314 153.009C40.4779 149.825 40.38 146.589 39.9688 143.388C39.7608 141.738 40.2699 140.059 41.036 138.581C41.3884 137.905 42.1741 137.362 42.8839 136.985C45.0891 135.805 47.4486 134.981 49.8888 134.459C51.2863 134.161 52.5762 133.676 53.8685 133.074C57.5594 131.353 61.2552 129.657 65.3083 128.857C67.1685 128.492 68.9968 127.824 70.7493 127.082C73.1307 126.074 75.566 125.278 78.0625 124.605C83.1216 123.24 88.1978 121.906 93.186 120.31C97.2513 119.008 101.378 118.163 105.588 117.564C107.56 117.282 109.518 116.864 111.452 116.367C114.671 115.535 117.847 114.524 121.073 113.716C123.653 113.072 126.262 112.507 128.888 112.106C133.429 111.411 137.834 110.26 142.188 108.804C145.495 107.695 148.902 106.888 152.277 105.992C164.576 102.722 176.975 99.8214 189.128 96.0179C193.66 94.5984 198.201 93.3012 202.873 92.4151C204.978 92.0162 207.058 91.3015 209.043 90.4693C213.131 88.7561 217.277 87.3389 221.709 86.8347C223.533 86.6267 225.288 86.0809 226.959 85.2928C229.302 84.184 231.752 83.4228 234.295 82.904C237.068 82.3386 239.785 81.57 242.455 80.6008C245.502 79.4945 248.623 78.5889 251.689 77.534C253.968 76.7508 256.261 75.9749 258.459 75.0008C261.343 73.7232 264.368 73.361 267.545 73.1211ZM100.782 177.916C100.803 177.997 100.823 178.077 100.84 178.158C100.862 178.238 100.897 178.319 100.943 178.393C101.043 178.336 101.169 178.29 101.317 178.253C101.465 178.219 101.606 178.184 101.741 178.149C102.419 178.012 103.203 177.71 104.09 177.248C104.977 176.787 105.856 176.181 106.724 175.421C107.455 174.786 107.977 173.945 108.288 172.894C108.601 171.846 108.579 170.593 108.22 169.14C107.909 167.872 107.572 167.122 107.213 166.88C106.854 166.637 106.482 166.495 106.1 166.447C105.271 166.339 104.416 166.341 103.531 166.458C102.644 166.576 101.863 166.706 101.184 166.843C100.743 166.924 100.273 167.035 99.7638 167.172C99.2549 167.313 98.7481 167.459 98.2435 167.611C98.3631 168.211 98.4762 168.853 98.5893 169.54C98.7024 170.228 98.8329 170.821 98.9895 171.328C99.1548 172 99.3027 172.553 99.4354 172.977C99.5681 173.401 99.6877 173.827 99.7964 174.258C99.8813 174.608 100.005 175.078 100.164 175.665C100.323 176.257 100.532 177.007 100.782 177.916ZM105.754 191.649C105.86 192.082 105.828 192.452 105.662 192.763C105.497 193.078 105.238 193.276 104.89 193.363C104.244 193.522 103.688 193.328 103.226 192.787C102.763 192.245 102.389 191.564 102.102 190.749C101.902 190.172 101.669 189.457 101.402 188.606C101.136 187.758 100.888 186.977 100.653 186.264C100.466 185.622 100.281 185.007 100.09 184.406C99.9008 183.813 99.7377 183.302 99.605 182.875C99.3462 182.055 99.0874 181.327 98.8307 180.689C98.5719 180.052 98.3109 179.31 98.0456 178.462C97.8585 177.821 97.7062 177.203 97.5866 176.603C97.4692 176.004 97.3213 175.413 97.1494 174.826C96.9754 174.24 96.808 173.732 96.6448 173.299C96.4795 172.87 96.3316 172.442 96.199 172.015C96.0663 171.593 95.951 171.165 95.8597 170.726C95.7683 170.295 95.6944 169.91 95.6422 169.582C95.6161 169.358 95.5856 169.147 95.5486 168.94C95.5117 168.735 95.4899 168.562 95.4834 168.42C95.1006 168.485 94.72 168.444 94.3393 168.294C93.9587 168.146 93.6999 167.787 93.5607 167.222C93.415 166.63 93.552 166.197 93.9674 165.919C94.3894 165.645 94.9331 165.427 95.6074 165.262C96.2533 165.099 97.0646 164.897 98.0456 164.64C99.0243 164.383 99.8682 164.183 100.577 164.035C101.499 163.837 102.487 163.703 103.542 163.626C104.595 163.552 105.56 163.507 106.443 163.489C106.983 163.472 107.494 163.611 107.981 163.905C108.466 164.196 108.905 164.586 109.295 165.06C109.682 165.536 110.019 166.069 110.308 166.652C110.595 167.239 110.806 167.813 110.948 168.379C111.485 170.56 111.581 172.339 111.235 173.71C110.887 175.082 110.134 176.268 108.982 177.266C108.151 177.96 107.126 178.675 105.91 179.415C104.695 180.159 103.32 180.735 101.791 181.137C101.943 181.644 102.108 182.162 102.28 182.688C102.454 183.219 102.613 183.721 102.761 184.2C102.861 184.604 103.005 185.083 103.198 185.635C103.392 186.188 103.581 186.721 103.764 187.232C103.946 187.745 104.136 188.217 104.329 188.654C104.525 189.098 104.671 189.4 104.771 189.576C105.019 190.003 105.227 190.379 105.393 190.707C105.56 191.038 105.68 191.353 105.754 191.649ZM125.112 173.333L125.132 173.413C125.402 173.348 125.743 173.256 126.159 173.141C126.572 173.022 126.996 172.913 127.425 172.806C127.86 172.7 128.266 172.591 128.653 172.48C129.043 172.376 129.339 172.28 129.547 172.199C130.026 172.052 130.613 171.769 131.313 171.358C132.009 170.94 132.642 170.405 133.21 169.753C133.776 169.098 134.224 168.337 134.554 167.471C134.885 166.603 134.924 165.657 134.672 164.633C134.582 164.285 134.367 163.958 134.024 163.658C133.678 163.358 133.295 163.086 132.879 162.847C132.464 162.605 132.044 162.412 131.618 162.255C131.196 162.105 130.868 162.014 130.633 161.986C130.187 161.927 129.704 161.851 129.184 161.766C128.662 161.681 128.173 161.692 127.714 161.805C127.264 161.946 126.789 162.192 126.291 162.542C125.791 162.895 125.28 163.234 124.762 163.562C124.338 163.808 123.899 164.039 123.451 164.248C123.003 164.459 122.581 164.685 122.183 164.926C122.209 165.033 122.239 165.148 122.268 165.268C122.298 165.389 122.331 165.518 122.361 165.655C122.448 166.005 122.518 166.249 122.566 166.396C122.618 166.54 122.729 166.908 122.9 167.491C122.987 167.845 123.096 168.228 123.231 168.654C123.364 169.078 123.501 169.518 123.64 169.968C123.794 170.475 124.029 171.001 124.351 171.549C124.673 172.097 124.925 172.695 125.112 173.333ZM128.782 186.659C128.875 187.035 128.838 187.431 128.669 187.844C128.499 188.255 128.184 188.521 127.727 188.634C127.161 188.775 126.739 188.601 126.461 188.11C126.185 187.618 125.963 187.098 125.793 186.537C125.643 186.033 125.534 185.537 125.471 185.054C125.41 184.569 125.308 184.099 125.169 183.646C125.036 183.227 124.873 182.82 124.68 182.439C124.484 182.061 124.323 181.659 124.188 181.234C124.049 180.784 123.903 180.319 123.76 179.84C123.614 179.36 123.462 178.87 123.309 178.363C123.157 177.859 123.057 177.313 123.011 176.723C122.968 176.134 122.859 175.549 122.685 174.962C122.472 174.213 122.187 173.52 121.828 172.876C121.472 172.236 121.202 171.612 121.023 170.999C120.884 170.546 120.752 170.109 120.632 169.679C120.515 169.254 120.408 168.85 120.314 168.474C120.088 167.558 119.929 166.91 119.836 166.531C119.742 166.155 119.64 165.681 119.529 165.109C119.423 164.678 119.523 164.274 119.829 163.897C120.138 163.521 120.456 163.195 120.786 162.912C121.232 162.516 121.713 162.199 122.224 161.959C122.735 161.718 123.246 161.464 123.751 161.196C124.349 160.848 124.949 160.502 125.55 160.15C126.15 159.804 126.761 159.554 127.379 159.402C127.89 159.273 128.466 159.228 129.101 159.256C129.737 159.286 130.354 159.354 130.955 159.463C131.431 159.547 132.001 159.693 132.668 159.898C133.334 160.104 133.984 160.374 134.622 160.7C135.259 161.031 135.827 161.414 136.32 161.849C136.814 162.284 137.125 162.773 137.258 163.31C137.604 164.709 137.684 165.905 137.497 166.895C137.312 167.882 136.982 168.737 136.501 169.455C136.022 170.174 135.461 170.797 134.822 171.327C134.178 171.858 133.575 172.365 133.008 172.843C133.504 173.006 133.858 173.163 134.065 173.313C134.274 173.463 134.546 173.639 134.88 173.839C135.318 174.105 135.672 174.385 135.948 174.692C136.222 174.996 136.54 175.288 136.895 175.571C137.473 176.06 137.96 176.502 138.36 176.906C138.756 177.306 139.252 178.122 139.839 179.349C140.02 179.731 140.216 180.071 140.433 180.358C140.646 180.647 140.868 181.036 141.105 181.524C141.223 181.778 141.369 182.072 141.536 182.4C141.701 182.731 141.821 183.031 141.886 183.298C141.993 183.731 141.947 184.071 141.751 184.319C141.556 184.569 141.321 184.723 141.053 184.793C140.594 184.904 140.216 184.849 139.918 184.619C139.62 184.395 139.348 184.025 139.109 183.516C138.841 182.894 138.582 182.363 138.332 181.926C138.08 181.489 137.834 181 137.584 180.458C137.236 179.747 136.873 179.199 136.494 178.82C136.118 178.444 135.57 177.957 134.85 177.363C134.535 177.126 134.261 176.884 134.03 176.641C133.797 176.399 133.562 176.193 133.319 176.025C132.723 175.686 132.168 175.379 131.657 175.105C131.146 174.831 130.311 174.825 129.145 175.083C128.682 175.17 128.097 175.327 127.396 175.558C126.698 175.786 126.043 175.947 125.437 176.04C125.471 176.175 125.506 176.317 125.541 176.465C125.578 176.615 125.613 176.754 125.645 176.889C125.791 177.365 125.948 177.85 126.111 178.337C126.274 178.825 126.431 179.323 126.585 179.827C126.718 180.251 126.959 180.993 127.305 182.052C127.651 183.107 127.923 184.158 128.123 185.193C128.268 185.441 128.399 185.682 128.512 185.911C128.627 186.139 128.716 186.389 128.782 186.659ZM165.112 158.76C164.89 158.329 164.61 157.905 164.262 157.489C163.916 157.078 163.483 156.676 162.961 156.291C162.404 155.884 161.863 155.519 161.339 155.188C160.812 154.862 160.26 154.612 159.677 154.442C159.116 154.266 158.607 154.196 158.148 154.24C157.687 154.281 157.091 154.392 156.364 154.573C155.501 154.786 154.659 155.051 153.837 155.367C153.015 155.684 152.328 156.226 151.773 156.989C151.262 157.687 150.862 158.455 150.585 159.297C150.305 160.139 150.126 160.867 150.05 161.485C149.961 162.279 149.826 163.17 149.641 164.158C149.457 165.15 149.478 166.1 149.702 167.016C149.809 167.447 149.948 167.927 150.12 168.456C150.294 168.984 150.548 169.522 150.883 170.067C151.129 170.494 151.508 170.92 152.014 171.353C152.519 171.784 153.041 172.221 153.578 172.66C153.833 172.884 154.041 173.121 154.2 173.365C154.363 173.611 154.605 173.808 154.927 173.959C155.255 174.13 155.638 174.204 156.073 174.167C156.506 174.133 156.895 174.172 157.237 174.289C157.943 174.485 158.639 174.678 159.331 174.863C160.021 175.053 160.782 175.044 161.617 174.839C162.315 174.663 162.979 174.422 163.603 174.113C164.227 173.8 164.742 173.38 165.158 172.851C165.573 172.347 165.993 171.673 166.415 170.827C166.833 169.98 167.098 169.256 167.209 168.658C167.433 167.26 167.366 166.105 166.998 165.198C166.63 164.286 166.302 163.24 166.008 162.055C165.869 161.487 165.743 160.913 165.626 160.328C165.51 159.741 165.338 159.216 165.112 158.76ZM149.487 155.712C150.205 154.677 151.083 153.903 152.127 153.385C153.174 152.874 154.315 152.461 155.553 152.156C156.469 151.93 157.23 151.73 157.826 151.554C158.428 151.378 159.205 151.428 160.16 151.708C160.771 151.871 161.463 152.167 162.239 152.589C163.016 153.009 163.775 153.503 164.512 154.066C165.323 154.694 165.989 155.286 166.515 155.841C167.037 156.4 167.472 156.976 167.82 157.576C168.094 158.109 168.301 158.69 168.44 159.31C168.581 159.934 168.747 160.634 168.938 161.417C169.119 162.146 169.306 162.82 169.504 163.442C169.697 164.064 169.867 164.689 170.004 165.311C170.143 165.935 170.219 166.583 170.226 167.249C170.232 167.921 170.141 168.665 169.941 169.487C169.723 170.337 169.306 171.312 168.692 172.406C168.072 173.502 167.448 174.385 166.813 175.055C166.185 175.753 165.482 176.286 164.699 176.649C163.916 177.017 163.109 177.299 162.272 177.506C161.465 177.704 160.662 177.75 159.866 177.65C159.07 177.545 158.178 177.397 157.187 177.212C156.762 177.119 156.275 177.075 155.721 177.084C155.164 177.091 154.659 176.982 154.2 176.749C153.743 176.521 153.337 176.229 152.978 175.873C152.619 175.52 152.199 175.127 151.727 174.702C151.177 174.211 150.629 173.758 150.085 173.352C149.541 172.943 149.115 172.519 148.806 172.079C148.249 171.329 147.838 170.583 147.569 169.837C147.299 169.087 147.053 168.269 146.836 167.381C146.564 166.276 146.509 165.139 146.677 163.969C146.849 162.796 147.042 161.742 147.268 160.8C147.434 159.96 147.712 159.09 148.106 158.192C148.5 157.296 148.958 156.469 149.487 155.712ZM189.352 153.643C189.841 154.121 190.359 154.624 190.903 155.146C191.444 155.67 192.014 156.259 192.601 156.914C192.821 156.059 193.012 155.298 193.176 154.63C193.339 153.96 193.495 153.293 193.645 152.625C193.767 152.081 193.887 151.633 193.998 151.274C194.111 150.918 194.211 150.517 194.298 150.063C194.409 149.58 194.491 148.988 194.55 148.29C194.605 147.59 194.687 146.998 194.796 146.515C194.872 146.124 194.961 145.73 195.063 145.334C195.166 144.938 195.268 144.54 195.37 144.142C195.562 143.409 195.829 142.846 196.173 142.446C196.516 142.046 196.932 141.789 197.417 141.669C198.361 141.437 199.057 141.648 199.503 142.311C199.953 142.97 200.275 143.651 200.475 144.343C200.74 145.191 200.99 146.022 201.219 146.837C201.451 147.653 201.684 148.488 201.923 149.343C202.137 150.206 202.311 150.883 202.448 151.379C202.582 151.877 202.728 152.327 202.887 152.729C203.044 153.134 203.242 153.556 203.476 153.995C203.716 154.437 204.055 155.033 204.496 155.781C205.166 156.988 205.658 158.067 205.982 159.017C206.3 159.963 206.589 160.966 206.848 162.017C206.987 162.471 207.15 162.987 207.337 163.567C207.524 164.153 207.709 164.651 207.896 165.06C208.066 165.39 208.209 165.632 208.335 165.786C208.457 165.94 208.555 166.171 208.629 166.465C208.714 166.817 208.677 167.152 208.516 167.478C208.351 167.804 208.003 168.035 207.463 168.168C206.815 168.326 206.35 168.176 206.067 167.717C205.782 167.261 205.497 166.678 205.21 165.98C205.062 165.614 204.875 165.146 204.647 164.572C204.423 164.002 204.216 163.337 204.029 162.584C203.898 162.045 203.709 161.303 203.461 160.366C203.215 159.426 202.767 158.393 202.119 157.269C201.823 156.768 201.478 156.061 201.082 155.146C200.684 154.23 200.373 153.497 200.157 152.951C199.709 151.833 199.307 150.561 198.957 149.13C198.604 147.703 198.245 146.422 197.88 145.282C197.741 145.889 197.621 146.468 197.515 147.024C197.408 147.577 197.304 148.053 197.204 148.449C197.101 148.847 197.021 149.315 196.971 149.856C196.921 150.4 196.86 150.835 196.801 151.163C196.645 151.918 196.473 152.566 196.292 153.11C196.112 153.654 195.942 154.348 195.777 155.187C195.553 156.131 195.361 156.89 195.203 157.473C195.048 158.054 194.931 158.595 194.855 159.1C194.787 159.518 194.65 159.857 194.444 160.122C194.237 160.39 193.919 160.575 193.487 160.679C193.084 160.779 192.671 160.74 192.256 160.557C191.84 160.372 191.531 160.107 191.331 159.755C191.118 159.35 190.837 158.961 190.485 158.589C190.137 158.219 189.689 157.73 189.139 157.123C188.832 156.801 188.521 156.468 188.21 156.133C187.897 155.794 187.586 155.463 187.279 155.139C187.003 154.837 186.774 154.528 186.6 154.213C186.422 153.902 186.198 153.593 185.922 153.286C185.646 152.986 185.298 152.692 184.869 152.412C184.443 152.131 184.08 151.842 183.777 151.544C183.427 151.172 183.053 150.787 182.657 150.383C182.257 149.984 181.848 149.565 181.422 149.123C181.415 149.671 181.407 150.237 181.394 150.824C181.38 151.416 181.394 152.02 181.433 152.636C181.437 153.008 181.5 153.486 181.613 154.071C181.731 154.656 181.802 155.133 181.837 155.496C181.857 156.033 181.868 156.488 181.874 156.86C181.876 157.227 181.872 157.551 181.855 157.828C181.837 158.102 181.826 158.384 181.826 158.671C181.826 158.956 181.842 159.283 181.874 159.644C181.946 160.627 182.013 161.725 182.085 162.932C182.153 164.146 182.294 165.17 182.498 166.006C182.657 166.649 182.764 167.311 182.814 167.985C182.868 168.657 182.96 169.32 183.09 169.973C183.297 170.81 183.416 171.617 183.451 172.391C183.486 173.17 183.07 173.664 182.209 173.877C181.805 173.977 181.422 173.949 181.056 173.797C180.689 173.644 180.441 173.312 180.317 172.8C180.263 172.585 180.228 172.352 180.208 172.098C180.186 171.846 180.195 171.615 180.23 171.408C180.315 170.701 180.308 169.96 180.217 169.181C180.125 168.403 180.002 167.646 179.851 166.915C179.673 166.071 179.514 165.025 179.375 163.772C179.24 162.521 179.147 161.447 179.095 160.542C179.038 159.611 179.027 158.872 179.062 158.321C179.099 157.771 179.103 157.04 179.077 156.131C179.04 155.513 178.971 154.909 178.868 154.319C178.766 153.73 178.697 153.127 178.657 152.508C178.633 151.483 178.583 150.496 178.505 149.543C178.429 148.592 178.409 147.738 178.453 146.985C178.49 146.435 178.644 145.996 178.923 145.669C179.197 145.343 179.54 145.132 179.945 145.032C180.347 144.932 180.706 144.971 181.024 145.152C181.337 145.332 181.631 145.617 181.898 146.009C182.685 146.526 183.279 147.061 183.684 147.603C184.091 148.144 184.773 148.914 185.73 149.906C185.959 150.137 186.259 150.367 186.631 150.604C187.005 150.841 187.288 151.063 187.484 151.274C187.864 151.666 188.186 152.066 188.443 152.473C188.699 152.882 189.004 153.271 189.352 153.643ZM234.987 144.195C234.715 143.09 234.308 141.963 233.766 140.809C233.225 139.656 232.414 138.688 231.333 137.896C230.776 137.489 230.304 137.102 229.915 136.743C229.523 136.385 229.038 136.117 228.453 135.947C227.896 135.769 227.137 135.678 226.178 135.671C225.219 135.665 224.375 135.752 223.648 135.932C223.189 136.045 222.441 136.372 221.406 136.913C220.364 137.453 219.368 138.159 218.411 139.023C218.104 139.297 217.861 139.638 217.676 140.041C217.487 140.441 217.334 140.802 217.212 141.117C217.049 141.498 216.869 141.903 216.673 142.322C216.475 142.742 216.358 143.101 216.316 143.397C216.269 143.78 216.262 144.217 216.297 144.708C216.332 145.2 216.336 145.735 216.306 146.311C216.251 146.899 216.234 147.497 216.255 148.104C216.277 148.715 216.345 149.248 216.456 149.704C216.647 150.485 216.969 151.381 217.417 152.384C217.865 153.389 218.7 154.409 219.929 155.449C220.949 156.342 222.306 156.917 223.996 157.169C225.689 157.423 227.383 157.341 229.079 156.923C229.778 156.749 230.447 156.564 231.085 156.364C231.722 156.166 232.246 155.801 232.659 155.268C233.097 154.733 233.479 154.139 233.803 153.485C234.128 152.836 234.397 152.184 234.608 151.531C234.436 150.946 234.495 150.296 234.791 149.578C235.087 148.863 235.224 148.236 235.209 147.697C235.189 147.16 235.182 146.592 235.193 145.985C235.202 145.383 235.13 144.787 234.987 144.195ZM216.721 137.037C217.08 136.524 217.526 136.069 218.059 135.678C218.589 135.293 219.142 134.949 219.712 134.651C220.279 134.355 220.845 134.116 221.399 133.936C221.956 133.753 222.435 133.618 222.839 133.518C223.755 133.292 224.727 133.094 225.758 132.924C226.787 132.759 227.781 132.813 228.734 133.092C229.345 133.257 229.999 133.559 230.695 134.001C231.391 134.444 232.107 134.947 232.846 135.506C234.397 136.696 235.526 137.92 236.235 139.173C236.942 140.428 237.503 141.887 237.916 143.56C238.082 144.232 238.147 144.93 238.11 145.652C238.075 146.377 238.075 147.049 238.112 147.669C238.117 148.38 238.049 149.169 237.906 150.035C237.76 150.901 237.531 151.768 237.218 152.643C236.907 153.524 236.511 154.387 236.033 155.231C235.559 156.077 235 156.836 234.367 157.506C233.738 158.202 233.02 158.674 232.209 158.918C231.396 159.159 230.571 159.385 229.736 159.59C228.981 159.777 228.144 159.938 227.222 160.081C226.3 160.223 225.327 160.249 224.305 160.157C223.283 160.066 222.245 159.823 221.188 159.427C220.134 159.029 219.094 158.385 218.076 157.491C216.519 156.16 215.466 154.933 214.918 153.813C214.37 152.693 213.926 151.442 213.589 150.068C213.437 149.45 213.339 148.73 213.293 147.912C213.25 147.097 213.258 146.292 213.321 145.504C213.371 144.893 213.382 144.339 213.363 143.845C213.339 143.351 213.38 142.905 213.482 142.509C213.585 142.114 213.772 141.657 214.048 141.148C214.322 140.637 214.559 140.158 214.763 139.708C214.966 139.371 215.285 138.927 215.723 138.377C216.158 137.827 216.49 137.381 216.721 137.037Z" clip-rule="evenodd" fill-rule="evenodd"></path>
<path stroke-width="0.2" stroke="black" d="M95.4845 241.131C95.5106 241.141 95.5367 241.152 95.5625 241.163M95.5625 241.163C95.7485 241.023 95.959 240.908 96.1059 240.737M95.5625 241.163L95.5782 241.149M95.5782 241.149C95.5614 241.003 95.5245 240.848 95.5023 240.699M95.5782 241.149L95.1618 241C95.151 240.996 95.1401 240.991 95.1293 240.986C95.2345 241.026 95.3397 241.065 95.444 241.103C95.4873 241.118 95.5307 241.133 95.5746 241.148C95.5602 241.001 95.5236 240.848 95.5023 240.699M95.5023 240.699C95.4876 240.596 95.4802 240.496 95.4922 240.402C95.4931 240.394 95.4943 240.386 95.4956 240.378C95.499 240.358 95.5033 240.338 95.5087 240.318C95.5199 240.277 95.5452 240.239 95.58 240.202C95.6881 240.088 95.8892 239.997 96.0452 239.934C96.0563 239.929 96.072 239.93 96.0906 239.935C96.1795 239.96 96.3378 240.086 96.3586 240.147L95.5023 240.699ZM267.938 194.974C267.964 194.954 267.991 194.934 268.018 194.914L268.081 194.982C268.074 194.982 268.067 194.982 268.061 194.982C268.02 194.98 267.979 194.978 267.938 194.974ZM267.938 194.974C267.87 194.969 267.802 194.964 267.736 194.965C267.724 194.965 267.713 194.965 267.702 194.966C267.666 194.968 267.631 194.972 267.596 194.98C267.555 194.989 267.521 195.028 267.489 195.075C267.467 195.106 267.447 195.14 267.426 195.172C267.413 195.19 267.401 195.207 267.388 195.222C267.47 195.215 267.565 195.232 267.629 195.195C267.646 195.186 267.663 195.175 267.68 195.164C267.688 195.159 267.697 195.153 267.705 195.148C267.761 195.111 267.814 195.07 267.868 195.029C267.891 195.011 267.915 194.993 267.938 194.974ZM111.112 247.183C111.005 247.188 110.931 247.193 110.874 247.195M111.018 247.147C110.964 247.126 110.919 247.109 110.879 247.095M110.74 247.13C110.741 247.165 110.743 247.193 110.747 247.193C110.766 247.195 110.784 247.196 110.804 247.196M285.407 198.34C285.05 198.555 284.769 198.408 284.411 198.345M285.437 198.322C285.533 198.26 285.636 198.171 285.746 198.048M285.072 198.002C285.059 198.002 285.047 198.003 285.034 198.004M82.9184 260.09C82.8483 260.093 82.7888 260.099 82.7376 260.11M82.7069 260.117C82.4782 260.179 82.4281 260.35 82.3079 260.767M274.155 208.118C274.295 208.106 274.432 208.096 274.574 208.084C274.562 208.135 274.562 208.219 274.537 208.228C274.471 208.25 274.386 208.265 274.319 208.243C274.258 208.228 274.212 208.16 274.155 208.118ZM303.541 208.87C302.665 209.088 301.925 209.207 301.233 209.455C298.254 210.51 295.271 211.56 292.324 212.695C289.595 213.745 286.829 214.604 283.916 214.979C282.516 215.162 281.107 215.378 279.746 215.742C275.33 216.922 270.871 217.962 266.561 219.534C264.532 220.27 262.437 220.826 260.359 221.431C255.167 222.941 249.974 224.443 244.775 225.924C242.937 226.45 241.089 226.955 239.226 227.376C236.862 227.909 234.557 228.592 232.378 229.664C230.053 230.812 227.593 231.559 225.072 232.158C223.053 232.64 221.071 233.26 219.071 233.83C217.95 234.143 216.853 234.584 215.713 234.787C211.278 235.575 207.014 237.017 202.68 238.184C197.459 239.591 192.224 240.933 186.988 242.286C184.492 242.93 181.986 243.525 179.489 244.168C176.026 245.057 172.602 246.121 169.104 246.836C164.779 247.722 160.472 248.618 156.318 250.155C154.054 250.997 151.714 251.579 149.323 251.971C146.697 252.397 144.071 252.842 141.476 253.425C136.121 254.634 130.788 255.936 125.445 257.197C120.427 258.384 115.351 259.331 110.451 260.993C109.203 261.416 107.864 261.6 106.554 261.825C103.762 262.305 101.013 262.914 98.3234 263.844C96.522 264.468 94.6471 264.882 92.8017 265.376C91.6758 265.677 90.5255 265.885 89.4216 266.255C84.0321 268.047 78.4933 269.148 72.886 269.973C71.8482 270.127 70.7297 270.142 69.7115 270.861C69.7115 271.838 69.6625 272.836 69.7286 273.828C69.7653 274.388 69.8706 275.003 70.1472 275.477C70.693 276.427 71.1041 277.379 71.2779 278.483C71.4468 279.543 72.2937 280.008 73.3143 279.741C75.1646 279.264 77.037 278.838 78.8433 278.231C82.965 276.85 87.2384 276.168 91.4629 275.25C95.1195 274.454 98.8104 273.771 102.408 272.758C107.21 271.405 111.998 270.024 116.881 268.955C120.696 268.12 124.436 266.948 128.235 266.025C136.397 264.038 144.592 262.177 152.637 259.732C156.056 258.692 159.524 257.804 162.99 256.918C168.309 255.559 173.642 254.257 178.97 252.943C182.201 252.15 185.415 251.278 188.672 250.62C197.567 248.819 206.39 246.763 215.05 244.029C218.457 242.952 221.927 242.066 225.378 241.131C230.919 239.633 236.468 238.16 242.014 236.691C246.679 235.455 251.325 234.146 256.022 233.052C258.704 232.427 261.347 231.74 263.927 230.788C266.035 230.012 268.171 229.314 270.279 228.543C272.467 227.748 274.66 226.967 276.801 226.066C279.112 225.095 281.444 224.248 283.902 223.736C285.691 223.359 287.502 222.987 289.213 222.37C294.311 220.532 299.551 219.201 304.789 217.862C305.178 217.762 305.545 217.583 305.957 217.426C306.064 214.352 305.178 211.64 303.541 208.87ZM298.421 182.676C298.369 182.262 298.401 181.993 298.298 181.79C297.468 180.131 297.131 178.332 296.739 176.542C296.365 174.839 296.024 173.121 295.532 171.447C294.245 167.051 293.217 162.599 292.434 158.088C291.837 154.647 291.281 151.196 290.645 147.762C289.509 141.631 288.089 135.548 287.397 129.334C287.059 126.27 286.442 123.249 285.441 120.325C284.205 116.695 283.258 113.009 282.749 109.191C282.166 104.824 280.847 100.595 280.206 96.2186C279.491 91.3676 278.404 86.5728 277.43 81.7634C277.235 80.7942 276.865 79.847 276.461 78.9389C276.28 78.5253 275.881 78.141 275.485 77.9036C272.934 76.3665 270.088 75.7302 267.173 75.691C264.505 75.6543 261.898 76.1928 259.409 77.2893C257.282 78.2242 255.077 78.9977 252.879 79.754C249.969 80.7575 247.002 81.6019 244.109 82.647C240.972 83.7777 237.787 84.7274 234.522 85.3882C232.388 85.819 230.332 86.4529 228.362 87.3756C226.316 88.3375 224.181 89.0375 221.932 89.2994C217.754 89.7865 213.818 91.0641 210 92.7798C207.866 93.7368 205.649 94.498 203.345 94.8676C198.56 95.641 193.944 96.9994 189.37 98.5585C188.506 98.8571 187.635 99.1459 186.751 99.3809C175.338 102.418 163.92 105.441 152.507 108.478C149.453 109.291 146.354 109.976 143.373 111.004C138.556 112.666 133.664 113.91 128.619 114.641C126.24 114.986 123.881 115.545 121.546 116.142C118.322 116.967 115.145 117.97 111.924 118.797C109.915 119.311 107.869 119.718 105.815 120.036C102.364 120.574 98.923 121.113 95.5601 122.131C89.7496 123.891 83.9048 125.535 78.0552 127.161C76.0458 127.719 74.0583 128.309 72.1688 129.195C70.1251 130.154 67.9982 130.896 65.7832 131.304C61.9723 132.007 58.509 133.637 55.0507 135.257C53.5283 135.969 51.9937 136.496 50.3685 136.907C48.4447 137.399 46.5821 138.128 44.7048 138.791C43.4958 139.222 42.9646 140.142 42.6685 141.393C42.223 143.263 42.6367 145.023 43.0038 146.805C43.136 147.465 43.5888 147.921 44.1321 148.374C45.1748 149.24 45.0573 149.747 43.836 150.633C43.6475 150.77 43.5153 150.975 43.3416 151.161C43.3954 151.521 43.4321 151.849 43.4884 152.172C44.2472 156.345 45.1038 160.504 45.7573 164.691C47.1157 173.417 49.2744 181.964 51.3793 190.525C51.8346 192.383 52.28 194.243 52.6814 196.111C53.2223 198.634 53.6262 201.187 54.2503 203.686C55.7262 209.575 56.3381 215.654 58.1272 221.475C58.3475 222.187 58.3867 222.948 58.5433 223.68C59.0059 225.792 59.4636 227.907 59.9653 230.007C60.3888 231.786 60.937 233.534 61.3188 235.323C61.8916 237.983 62.5377 240.617 63.458 243.077C64.2681 242.92 65.0293 242.558 65.6755 242.705C66.5517 242.903 67.2958 242.79 68.1059 242.555C70.1006 241.978 72.0979 241.403 74.1122 240.898C76.8534 240.208 79.6069 239.574 82.3604 238.933C83.8975 238.576 85.459 238.319 86.979 237.905C90.8339 236.85 94.6618 235.724 98.5069 234.65C100.996 233.955 103.52 233.446 106.104 233.247C107.928 233.105 109.775 232.995 111.555 232.606C117.647 231.275 123.731 229.897 129.686 227.995C132.614 227.057 135.551 226.066 138.559 225.462C143.466 224.475 148.268 223.181 153.002 221.572C157.258 220.124 161.573 218.861 165.993 218.021C170.002 217.257 173.948 216.264 177.854 215.086C180.084 214.418 182.353 213.86 184.641 213.444C188.082 212.818 191.492 212.081 194.855 211.112C197.092 210.47 199.339 209.849 201.61 209.354C209.572 207.619 217.568 206.062 225.466 204.004C236.008 201.255 246.506 198.338 257.015 195.469C257.818 195.249 258.614 195.004 259.404 194.742C266.032 192.518 272.746 190.586 279.535 188.922C280.982 188.567 282.379 188.012 283.794 187.522C285.989 186.759 288.168 185.939 290.373 185.209C293.041 184.328 295.731 183.518 298.421 182.676ZM267.545 73.1211C268.284 73.219 269.118 73.2728 269.924 73.4515C271.938 73.8896 273.935 74.4134 276.003 74.5749C276.745 74.6337 277.195 75.1281 277.562 75.6984C278.652 77.3945 279.442 79.2326 279.836 81.2054C280.864 86.3428 281.914 91.4777 282.795 96.6421C283.3 99.5963 283.85 102.533 284.558 105.446C284.947 107.059 285.133 108.721 285.466 110.348C285.882 112.382 286.295 114.419 286.814 116.428C287.605 119.485 288.596 122.496 289.299 125.572C289.795 127.755 289.893 130.024 290.285 132.234C291.115 136.902 292.042 141.552 292.884 146.22C293.609 150.229 294.247 154.253 294.969 158.264C295.726 162.442 296.68 166.569 297.877 170.646C298.506 172.798 298.932 175.008 299.422 177.201C299.914 179.404 300.543 181.533 302.05 183.3C302.261 183.547 302.447 183.858 302.525 184.169C303.122 186.487 304.148 188.709 304.084 191.179C304.028 193.262 304.05 195.32 304.926 197.303C305.288 198.118 305.354 199.079 305.455 199.985C305.582 201.167 305.758 202.291 306.679 203.167C306.904 203.38 307.06 203.73 307.122 204.041C307.54 206.239 307.932 208.441 308.306 210.647C308.362 210.965 308.37 211.334 308.26 211.626C307.8 212.837 307.993 213.88 308.854 214.859C309.344 215.417 309.102 216.114 309.023 216.778C308.695 219.499 308.688 219.443 306.005 220.131C301.172 221.369 296.306 222.476 291.602 224.191C289.502 224.96 287.294 225.469 285.111 225.971C282.421 226.588 279.829 227.422 277.306 228.548C275.338 229.427 273.282 230.119 271.248 230.851C269.136 231.607 266.982 232.263 264.884 233.056C262.074 234.121 259.186 234.853 256.261 235.524C251.724 236.569 247.237 237.836 242.736 239.033C237.029 240.546 231.321 242.066 225.623 243.613C222.331 244.506 219.034 245.382 215.779 246.396C206.87 249.169 197.821 251.347 188.667 253.126C185.978 253.65 183.322 254.365 180.661 255.038C175.661 256.298 170.693 257.693 165.668 258.846C161.206 259.872 156.773 261 152.404 262.366C147.079 264.025 141.655 265.3 136.241 266.634C129.057 268.404 121.891 270.264 114.697 271.995C111.863 272.677 109.041 273.348 106.261 274.236C101.263 275.835 96.1279 276.872 90.9758 277.874C87.2262 278.6 83.4594 279.291 79.8125 280.5C77.8423 281.153 75.823 281.665 73.8136 282.186C71.4027 282.813 69.2856 281.486 68.8157 278.999C68.6541 278.155 68.4388 277.394 67.9395 276.704C67.3227 275.854 67.1318 274.873 67.2395 273.857C67.3863 272.494 66.9996 271.226 66.701 269.934C65.7048 265.641 64.7454 261.34 63.7566 257.045C63.4972 255.914 63.1594 254.798 62.9097 253.665C62.3346 251.07 61.7937 248.469 61.2332 245.869C60.866 244.166 60.516 242.457 60.1024 240.764C58.8786 235.759 57.5374 230.775 56.4188 225.748C55.8241 223.07 55.315 220.376 54.5856 217.725C54.0814 215.887 53.8905 213.966 53.4989 212.096C52.5272 207.453 51.4674 202.832 50.5545 198.179C49.9304 194.99 49.0909 191.862 48.3541 188.704C46.5356 180.931 44.536 173.197 43.3318 165.289C42.7101 161.177 41.966 157.082 41.1314 153.009C40.4779 149.825 40.38 146.589 39.9688 143.388C39.7608 141.738 40.2699 140.059 41.036 138.581C41.3884 137.905 42.1741 137.362 42.8839 136.985C45.0891 135.805 47.4486 134.981 49.8888 134.459C51.2863 134.161 52.5762 133.676 53.8685 133.074C57.5594 131.353 61.2552 129.657 65.3083 128.857C67.1685 128.492 68.9968 127.824 70.7493 127.082C73.1307 126.074 75.566 125.278 78.0625 124.605C83.1216 123.24 88.1978 121.906 93.186 120.31C97.2513 119.008 101.378 118.163 105.588 117.564C107.56 117.282 109.518 116.864 111.452 116.367C114.671 115.535 117.847 114.524 121.073 113.716C123.653 113.072 126.262 112.507 128.888 112.106C133.429 111.411 137.834 110.26 142.188 108.804C145.495 107.695 148.902 106.888 152.277 105.992C164.576 102.722 176.975 99.8214 189.128 96.0179C193.66 94.5984 198.201 93.3012 202.873 92.4151C204.978 92.0162 207.058 91.3015 209.043 90.4693C213.131 88.7561 217.277 87.3389 221.709 86.8347C223.533 86.6267 225.288 86.0809 226.959 85.2928C229.302 84.184 231.752 83.4228 234.295 82.904C237.068 82.3386 239.785 81.57 242.455 80.6008C245.502 79.4945 248.623 78.5889 251.689 77.534C253.968 76.7508 256.261 75.9749 258.459 75.0008C261.343 73.7232 264.368 73.361 267.545 73.1211ZM100.782 177.916C100.803 177.997 100.823 178.077 100.84 178.158C100.862 178.238 100.897 178.319 100.943 178.393C101.043 178.336 101.169 178.29 101.317 178.253C101.465 178.219 101.606 178.184 101.741 178.149C102.419 178.012 103.203 177.71 104.09 177.248C104.977 176.787 105.856 176.181 106.724 175.421C107.455 174.786 107.977 173.945 108.288 172.894C108.601 171.846 108.579 170.593 108.22 169.14C107.909 167.872 107.572 167.122 107.213 166.88C106.854 166.637 106.482 166.495 106.1 166.447C105.271 166.339 104.416 166.341 103.531 166.458C102.644 166.576 101.863 166.706 101.184 166.843C100.743 166.924 100.273 167.035 99.7638 167.172C99.2549 167.313 98.7481 167.459 98.2435 167.611C98.3631 168.211 98.4762 168.853 98.5893 169.54C98.7024 170.228 98.8329 170.821 98.9895 171.328C99.1548 172 99.3027 172.553 99.4354 172.977C99.5681 173.401 99.6877 173.827 99.7964 174.258C99.8813 174.608 100.005 175.078 100.164 175.665C100.323 176.257 100.532 177.007 100.782 177.916ZM105.754 191.649C105.86 192.082 105.828 192.452 105.662 192.763C105.497 193.078 105.238 193.276 104.89 193.363C104.244 193.522 103.688 193.328 103.226 192.787C102.763 192.245 102.389 191.564 102.102 190.749C101.902 190.172 101.669 189.457 101.402 188.606C101.136 187.758 100.888 186.977 100.653 186.264C100.466 185.622 100.281 185.007 100.09 184.406C99.9008 183.813 99.7377 183.302 99.605 182.875C99.3462 182.055 99.0874 181.327 98.8307 180.689C98.5719 180.052 98.3109 179.31 98.0456 178.462C97.8585 177.821 97.7062 177.203 97.5866 176.603C97.4692 176.004 97.3213 175.413 97.1494 174.826C96.9754 174.24 96.808 173.732 96.6448 173.299C96.4795 172.87 96.3316 172.442 96.199 172.015C96.0663 171.593 95.951 171.165 95.8597 170.726C95.7683 170.295 95.6944 169.91 95.6422 169.582C95.6161 169.358 95.5856 169.147 95.5486 168.94C95.5117 168.735 95.4899 168.561 95.4834 168.42C95.1006 168.485 94.72 168.444 94.3393 168.294C93.9587 168.146 93.6999 167.787 93.5607 167.222C93.4149 166.63 93.552 166.197 93.9674 165.919C94.3894 165.645 94.9331 165.427 95.6074 165.262C96.2533 165.099 97.0646 164.897 98.0456 164.64C99.0243 164.383 99.8682 164.183 100.577 164.035C101.499 163.837 102.487 163.703 103.542 163.626C104.595 163.552 105.56 163.507 106.443 163.489C106.983 163.472 107.494 163.611 107.981 163.905C108.466 164.196 108.905 164.586 109.295 165.06C109.682 165.536 110.019 166.069 110.308 166.652C110.595 167.239 110.806 167.813 110.948 168.379C111.485 170.56 111.581 172.339 111.235 173.71C110.887 175.082 110.134 176.268 108.982 177.266C108.151 177.96 107.126 178.675 105.91 179.415C104.695 180.159 103.32 180.735 101.791 181.137C101.943 181.644 102.108 182.162 102.28 182.688C102.454 183.219 102.613 183.721 102.761 184.2C102.861 184.604 103.005 185.083 103.198 185.635C103.392 186.188 103.581 186.721 103.764 187.232C103.946 187.745 104.136 188.217 104.329 188.654C104.525 189.098 104.671 189.4 104.771 189.576C105.019 190.003 105.227 190.379 105.393 190.707C105.56 191.038 105.68 191.353 105.754 191.649ZM125.112 173.333L125.132 173.413C125.402 173.348 125.743 173.256 126.159 173.141C126.572 173.022 126.996 172.913 127.425 172.806C127.86 172.7 128.266 172.591 128.653 172.48C129.043 172.376 129.339 172.28 129.547 172.199C130.026 172.052 130.613 171.769 131.313 171.358C132.009 170.94 132.642 170.405 133.21 169.753C133.776 169.098 134.224 168.337 134.554 167.471C134.885 166.603 134.924 165.657 134.672 164.633C134.582 164.285 134.367 163.958 134.024 163.658C133.678 163.358 133.295 163.086 132.879 162.847C132.464 162.605 132.044 162.412 131.618 162.255C131.196 162.105 130.868 162.014 130.633 161.986C130.187 161.927 129.704 161.851 129.184 161.766C128.662 161.681 128.173 161.692 127.714 161.805C127.264 161.946 126.789 162.192 126.291 162.542C125.791 162.895 125.28 163.234 124.762 163.562C124.338 163.808 123.899 164.039 123.451 164.248C123.003 164.459 122.581 164.685 122.183 164.926C122.209 165.033 122.239 165.148 122.268 165.268C122.298 165.389 122.331 165.518 122.361 165.655C122.448 166.005 122.518 166.249 122.566 166.396C122.618 166.54 122.729 166.908 122.9 167.491C122.987 167.845 123.096 168.228 123.231 168.654C123.364 169.078 123.501 169.518 123.64 169.968C123.794 170.475 124.029 171.001 124.351 171.549C124.673 172.097 124.925 172.695 125.112 173.333ZM128.782 186.659C128.875 187.035 128.838 187.431 128.669 187.844C128.499 188.255 128.184 188.521 127.727 188.634C127.161 188.775 126.739 188.601 126.461 188.11C126.185 187.618 125.963 187.098 125.793 186.537C125.643 186.033 125.534 185.537 125.471 185.054C125.41 184.569 125.308 184.099 125.169 183.646C125.036 183.227 124.873 182.82 124.68 182.439C124.484 182.061 124.323 181.659 124.188 181.234C124.049 180.784 123.903 180.319 123.76 179.84C123.614 179.36 123.462 178.87 123.309 178.363C123.157 177.859 123.057 177.313 123.011 176.723C122.968 176.134 122.859 175.549 122.685 174.962C122.472 174.213 122.187 173.52 121.828 172.876C121.472 172.236 121.202 171.612 121.023 170.999C120.884 170.546 120.752 170.109 120.632 169.679C120.515 169.254 120.408 168.85 120.314 168.474C120.088 167.558 119.929 166.91 119.836 166.531C119.742 166.155 119.64 165.681 119.529 165.109C119.423 164.678 119.523 164.274 119.829 163.897C120.138 163.521 120.456 163.195 120.786 162.912C121.232 162.516 121.713 162.199 122.224 161.959C122.735 161.718 123.246 161.464 123.751 161.196C124.349 160.848 124.949 160.502 125.55 160.15C126.15 159.804 126.761 159.554 127.379 159.402C127.89 159.273 128.466 159.228 129.101 159.256C129.737 159.286 130.354 159.354 130.955 159.463C131.431 159.547 132.001 159.693 132.668 159.898C133.334 160.104 133.984 160.374 134.622 160.7C135.259 161.031 135.827 161.414 136.32 161.849C136.814 162.284 137.125 162.773 137.258 163.31C137.604 164.709 137.684 165.905 137.497 166.895C137.312 167.882 136.982 168.737 136.501 169.455C136.022 170.174 135.461 170.797 134.822 171.327C134.178 171.858 133.575 172.365 133.008 172.843C133.504 173.006 133.858 173.163 134.065 173.313C134.274 173.463 134.546 173.639 134.88 173.839C135.318 174.105 135.672 174.385 135.948 174.692C136.222 174.996 136.54 175.288 136.895 175.571C137.473 176.06 137.96 176.502 138.36 176.906C138.756 177.306 139.252 178.122 139.839 179.349C140.02 179.731 140.216 180.071 140.433 180.358C140.646 180.647 140.868 181.036 141.105 181.524C141.223 181.778 141.369 182.072 141.536 182.4C141.701 182.731 141.821 183.031 141.886 183.298C141.993 183.731 141.947 184.071 141.751 184.319C141.556 184.569 141.321 184.723 141.053 184.793C140.594 184.904 140.216 184.849 139.918 184.619C139.62 184.395 139.348 184.025 139.109 183.516C138.841 182.894 138.582 182.363 138.332 181.926C138.08 181.489 137.834 181 137.584 180.458C137.236 179.747 136.873 179.199 136.494 178.82C136.118 178.444 135.57 177.957 134.85 177.363C134.535 177.126 134.261 176.884 134.03 176.641C133.797 176.399 133.562 176.193 133.319 176.025C132.723 175.686 132.168 175.379 131.657 175.105C131.146 174.831 130.311 174.825 129.145 175.083C128.682 175.17 128.097 175.327 127.396 175.558C126.698 175.786 126.043 175.947 125.437 176.04C125.471 176.175 125.506 176.317 125.541 176.465C125.578 176.615 125.613 176.754 125.645 176.889C125.791 177.365 125.948 177.85 126.111 178.337C126.274 178.825 126.431 179.323 126.585 179.827C126.718 180.251 126.959 180.993 127.305 182.052C127.651 183.107 127.923 184.158 128.123 185.193C128.268 185.441 128.399 185.682 128.512 185.911C128.627 186.139 128.716 186.389 128.782 186.659ZM165.112 158.76C164.89 158.329 164.61 157.905 164.262 157.489C163.916 157.078 163.483 156.676 162.961 156.291C162.404 155.884 161.863 155.519 161.339 155.188C160.812 154.862 160.26 154.612 159.677 154.442C159.116 154.266 158.607 154.196 158.148 154.24C157.687 154.281 157.091 154.392 156.364 154.573C155.501 154.786 154.659 155.051 153.837 155.367C153.015 155.684 152.328 156.226 151.773 156.989C151.262 157.687 150.862 158.455 150.585 159.297C150.305 160.139 150.126 160.867 150.05 161.485C149.961 162.279 149.826 163.17 149.641 164.158C149.457 165.15 149.478 166.1 149.702 167.016C149.809 167.447 149.948 167.927 150.12 168.456C150.294 168.984 150.548 169.522 150.883 170.067C151.129 170.494 151.508 170.92 152.014 171.353C152.519 171.784 153.041 172.221 153.578 172.66C153.833 172.884 154.041 173.121 154.2 173.365C154.363 173.611 154.605 173.808 154.927 173.959C155.255 174.13 155.638 174.204 156.073 174.167C156.506 174.133 156.895 174.172 157.237 174.289C157.943 174.485 158.639 174.678 159.331 174.863C160.021 175.053 160.782 175.044 161.617 174.839C162.315 174.663 162.979 174.422 163.603 174.113C164.227 173.8 164.742 173.38 165.158 172.851C165.573 172.347 165.993 171.673 166.415 170.827C166.833 169.98 167.098 169.256 167.209 168.658C167.433 167.26 167.366 166.105 166.998 165.198C166.63 164.286 166.302 163.24 166.008 162.055C165.869 161.487 165.743 160.913 165.626 160.328C165.51 159.741 165.338 159.216 165.112 158.76ZM149.487 155.712C150.205 154.677 151.083 153.903 152.127 153.385C153.174 152.874 154.315 152.461 155.553 152.156C156.469 151.93 157.23 151.73 157.826 151.554C158.428 151.378 159.205 151.428 160.16 151.708C160.771 151.871 161.463 152.167 162.239 152.589C163.016 153.009 163.775 153.503 164.512 154.066C165.323 154.694 165.989 155.286 166.515 155.841C167.037 156.4 167.472 156.976 167.82 157.576C168.094 158.109 168.301 158.69 168.44 159.31C168.581 159.934 168.747 160.634 168.938 161.417C169.119 162.146 169.306 162.82 169.504 163.442C169.697 164.064 169.867 164.689 170.004 165.311C170.143 165.935 170.219 166.583 170.226 167.249C170.232 167.921 170.141 168.665 169.941 169.487C169.723 170.337 169.306 171.312 168.692 172.406C168.072 173.502 167.448 174.385 166.813 175.055C166.185 175.753 165.482 176.286 164.699 176.649C163.916 177.017 163.109 177.299 162.272 177.506C161.465 177.704 160.662 177.75 159.866 177.65C159.07 177.545 158.178 177.397 157.187 177.212C156.762 177.119 156.275 177.075 155.721 177.084C155.164 177.091 154.659 176.982 154.2 176.749C153.743 176.521 153.337 176.229 152.978 175.873C152.619 175.52 152.199 175.127 151.727 174.702C151.177 174.211 150.629 173.758 150.085 173.352C149.541 172.943 149.115 172.519 148.806 172.079C148.249 171.329 147.838 170.583 147.569 169.837C147.299 169.087 147.053 168.269 146.836 167.381C146.564 166.276 146.509 165.139 146.677 163.969C146.849 162.796 147.042 161.742 147.268 160.8C147.434 159.96 147.712 159.09 148.106 158.192C148.5 157.296 148.958 156.469 149.487 155.712ZM189.352 153.643C189.841 154.121 190.359 154.624 190.903 155.146C191.444 155.67 192.014 156.259 192.601 156.914C192.821 156.059 193.012 155.298 193.176 154.63C193.339 153.96 193.495 153.293 193.645 152.625C193.767 152.081 193.887 151.633 193.998 151.274C194.111 150.918 194.211 150.517 194.298 150.063C194.409 149.58 194.491 148.988 194.55 148.29C194.605 147.59 194.687 146.998 194.796 146.515C194.872 146.124 194.961 145.73 195.063 145.334C195.166 144.938 195.268 144.54 195.37 144.142C195.562 143.409 195.829 142.846 196.173 142.446C196.516 142.046 196.932 141.789 197.417 141.669C198.361 141.437 199.057 141.648 199.503 142.311C199.953 142.97 200.275 143.651 200.475 144.343C200.74 145.191 200.99 146.022 201.219 146.837C201.451 147.653 201.684 148.488 201.923 149.343C202.137 150.206 202.311 150.883 202.448 151.379C202.582 151.877 202.728 152.327 202.887 152.729C203.044 153.134 203.242 153.556 203.476 153.995C203.716 154.437 204.055 155.033 204.496 155.781C205.166 156.988 205.658 158.067 205.982 159.017C206.3 159.963 206.589 160.966 206.848 162.017C206.987 162.471 207.15 162.987 207.337 163.567C207.524 164.153 207.709 164.651 207.896 165.06C208.066 165.39 208.209 165.632 208.335 165.786C208.457 165.94 208.555 166.171 208.629 166.465C208.714 166.817 208.677 167.152 208.516 167.478C208.351 167.804 208.003 168.035 207.463 168.168C206.815 168.326 206.35 168.176 206.067 167.717C205.782 167.261 205.497 166.678 205.21 165.98C205.062 165.614 204.875 165.147 204.647 164.572C204.423 164.002 204.216 163.337 204.029 162.584C203.898 162.045 203.709 161.303 203.461 160.366C203.215 159.426 202.767 158.393 202.119 157.269C201.823 156.768 201.478 156.061 201.082 155.146C200.684 154.23 200.373 153.497 200.157 152.951C199.709 151.833 199.307 150.561 198.957 149.13C198.604 147.703 198.246 146.422 197.88 145.282C197.741 145.889 197.621 146.468 197.515 147.024C197.408 147.577 197.304 148.053 197.204 148.449C197.101 148.847 197.021 149.315 196.971 149.856C196.921 150.4 196.86 150.835 196.801 151.163C196.645 151.918 196.473 152.566 196.292 153.11C196.112 153.654 195.942 154.348 195.777 155.187C195.553 156.131 195.361 156.89 195.203 157.473C195.048 158.054 194.931 158.595 194.855 159.1C194.787 159.518 194.65 159.857 194.444 160.122C194.237 160.39 193.919 160.575 193.487 160.679C193.084 160.779 192.671 160.74 192.256 160.557C191.84 160.372 191.531 160.107 191.331 159.755C191.118 159.35 190.837 158.961 190.485 158.589C190.137 158.219 189.689 157.73 189.139 157.123C188.832 156.801 188.521 156.468 188.21 156.133C187.897 155.794 187.586 155.463 187.279 155.139C187.003 154.837 186.774 154.528 186.6 154.213C186.422 153.902 186.198 153.593 185.922 153.286C185.646 152.986 185.298 152.692 184.869 152.412C184.443 152.131 184.08 151.842 183.777 151.544C183.427 151.172 183.053 150.787 182.657 150.383C182.257 149.984 181.848 149.565 181.422 149.123C181.415 149.671 181.407 150.237 181.394 150.824C181.38 151.416 181.394 152.02 181.433 152.636C181.437 153.008 181.5 153.486 181.613 154.071C181.731 154.656 181.802 155.133 181.837 155.496C181.857 156.033 181.868 156.488 181.874 156.86C181.876 157.227 181.872 157.551 181.855 157.828C181.837 158.102 181.826 158.384 181.826 158.671C181.826 158.956 181.842 159.283 181.874 159.644C181.946 160.627 182.013 161.725 182.085 162.932C182.153 164.146 182.294 165.17 182.498 166.006C182.657 166.649 182.764 167.311 182.814 167.985C182.868 168.657 182.96 169.32 183.09 169.973C183.297 170.81 183.416 171.617 183.451 172.391C183.486 173.17 183.07 173.664 182.209 173.877C181.805 173.977 181.422 173.949 181.056 173.797C180.689 173.644 180.441 173.312 180.317 172.8C180.263 172.585 180.228 172.352 180.208 172.098C180.186 171.846 180.195 171.615 180.23 171.408C180.315 170.701 180.308 169.96 180.217 169.181C180.125 168.403 180.002 167.646 179.851 166.915C179.673 166.071 179.514 165.025 179.375 163.772C179.24 162.521 179.147 161.447 179.095 160.542C179.038 159.611 179.027 158.872 179.062 158.321C179.099 157.771 179.103 157.04 179.077 156.131C179.04 155.513 178.971 154.909 178.868 154.319C178.766 153.73 178.696 153.127 178.657 152.508C178.633 151.483 178.583 150.496 178.505 149.543C178.429 148.592 178.409 147.738 178.453 146.985C178.49 146.435 178.644 145.996 178.923 145.669C179.197 145.343 179.54 145.132 179.945 145.032C180.347 144.932 180.706 144.971 181.024 145.152C181.337 145.332 181.631 145.617 181.898 146.009C182.685 146.526 183.279 147.061 183.684 147.603C184.091 148.144 184.773 148.914 185.73 149.906C185.959 150.137 186.259 150.367 186.631 150.604C187.005 150.841 187.288 151.063 187.484 151.274C187.864 151.666 188.186 152.066 188.443 152.473C188.699 152.882 189.004 153.271 189.352 153.643ZM234.987 144.195C234.715 143.09 234.308 141.963 233.766 140.809C233.225 139.656 232.414 138.688 231.333 137.896C230.776 137.489 230.304 137.102 229.915 136.743C229.523 136.385 229.038 136.117 228.453 135.947C227.896 135.769 227.137 135.678 226.178 135.671C225.219 135.665 224.375 135.752 223.648 135.932C223.189 136.045 222.441 136.372 221.406 136.913C220.364 137.453 219.368 138.159 218.411 139.023C218.104 139.297 217.861 139.638 217.676 140.041C217.487 140.441 217.334 140.802 217.212 141.117C217.049 141.498 216.869 141.903 216.673 142.322C216.475 142.742 216.358 143.101 216.316 143.397C216.269 143.78 216.262 144.217 216.297 144.708C216.332 145.2 216.336 145.735 216.306 146.311C216.251 146.899 216.234 147.497 216.255 148.104C216.277 148.715 216.345 149.248 216.456 149.704C216.647 150.485 216.969 151.381 217.417 152.384C217.865 153.389 218.7 154.409 219.929 155.449C220.949 156.342 222.306 156.917 223.996 157.169C225.689 157.423 227.383 157.341 229.079 156.923C229.778 156.749 230.447 156.564 231.085 156.364C231.722 156.166 232.246 155.801 232.659 155.268C233.097 154.733 233.479 154.139 233.803 153.485C234.128 152.836 234.397 152.184 234.608 151.531C234.436 150.946 234.495 150.296 234.791 149.578C235.087 148.863 235.224 148.236 235.209 147.697C235.189 147.16 235.182 146.592 235.193 145.985C235.202 145.383 235.13 144.787 234.987 144.195ZM216.721 137.037C217.08 136.524 217.526 136.069 218.059 135.678C218.589 135.293 219.142 134.949 219.712 134.651C220.279 134.355 220.845 134.116 221.399 133.936C221.956 133.753 222.435 133.618 222.839 133.518C223.755 133.292 224.727 133.094 225.758 132.924C226.787 132.759 227.781 132.813 228.734 133.092C229.345 133.257 229.999 133.559 230.695 134.001C231.391 134.444 232.107 134.947 232.846 135.506C234.397 136.696 235.526 137.92 236.235 139.173C236.942 140.428 237.503 141.887 237.916 143.56C238.082 144.232 238.147 144.93 238.11 145.652C238.075 146.377 238.075 147.049 238.112 147.669C238.117 148.38 238.049 149.169 237.906 150.035C237.76 150.901 237.531 151.768 237.218 152.643C236.907 153.524 236.511 154.387 236.033 155.231C235.559 156.077 235 156.836 234.367 157.506C233.738 158.202 233.02 158.674 232.209 158.918C231.396 159.159 230.571 159.385 229.736 159.59C228.981 159.777 228.144 159.938 227.222 160.081C226.3 160.223 225.327 160.249 224.305 160.157C223.283 160.066 222.245 159.823 221.188 159.427C220.134 159.029 219.094 158.385 218.076 157.491C216.519 156.16 215.466 154.933 214.918 153.813C214.37 152.693 213.926 151.442 213.589 150.068C213.437 149.45 213.339 148.73 213.293 147.912C213.25 147.097 213.258 146.292 213.321 145.504C213.371 144.893 213.382 144.339 213.363 143.845C213.339 143.351 213.38 142.905 213.482 142.509C213.585 142.114 213.772 141.657 214.048 141.148C214.322 140.637 214.559 140.158 214.763 139.708C214.966 139.371 215.285 138.927 215.723 138.377C216.158 137.827 216.49 137.381 216.721 137.037Z"></path>
</svg>
